<?xml version="1.0" encoding="utf-8" standalone="no"?>
<!DOCTYPE svg PUBLIC "-//W3C//DTD SVG 1.1//EN"
  "http://www.w3.org/Graphics/SVG/1.1/DTD/svg11.dtd">
<svg xmlns:xlink="http://www.w3.org/1999/xlink" width="576pt" height="576pt" viewBox="0 0 576 576" xmlns="http://www.w3.org/2000/svg" version="1.1">
 <metadata>
  <rdf:RDF xmlns:dc="http://purl.org/dc/elements/1.1/" xmlns:cc="http://creativecommons.org/ns#" xmlns:rdf="http://www.w3.org/1999/02/22-rdf-syntax-ns#">
   <cc:Work>
    <dc:type rdf:resource="http://purl.org/dc/dcmitype/StillImage"/>
    <dc:date>2023-06-07T23:34:21.010917</dc:date>
    <dc:format>image/svg+xml</dc:format>
    <dc:creator>
     <cc:Agent>
      <dc:title>Matplotlib v3.5.1, https://matplotlib.org/</dc:title>
     </cc:Agent>
    </dc:creator>
   </cc:Work>
  </rdf:RDF>
 </metadata>
 <defs>
  <style type="text/css">*{stroke-linejoin: round; stroke-linecap: butt}</style>
 </defs>
 <g id="figure_1">
  <g id="patch_1">
   <path d="M 0 576 
L 576 576 
L 576 0 
L 0 0 
L 0 576 
z
" style="fill: none"/>
  </g>
  <g id="axes_1">
   <g id="patch_2">
    <path d="M 81.316719 511.2 
L 559.974343 511.2 
L 559.974343 10.8 
L 81.316719 10.8 
z
" style="fill: #ffffff"/>
   </g>
   <g id="matplotlib.axis_1">
    <g id="xtick_1">
     <g id="line2d_1">
      <defs>
       <path id="m819a1aca42" d="M 0 0 
L 0 3.5 
" style="stroke: #000000; stroke-width: 0.8"/>
      </defs>
      <g>
       <use xlink:href="#m819a1aca42" x="103.073883" y="511.2" style="stroke: #000000; stroke-width: 0.8"/>
      </g>
     </g>
     <g id="text_1">
      <!-- 0.0 -->
      <g transform="translate(87.170758 533.396875)scale(0.2 -0.2)">
       <defs>
        <path id="DejaVuSans-30" d="M 2034 4250 
Q 1547 4250 1301 3770 
Q 1056 3291 1056 2328 
Q 1056 1369 1301 889 
Q 1547 409 2034 409 
Q 2525 409 2770 889 
Q 3016 1369 3016 2328 
Q 3016 3291 2770 3770 
Q 2525 4250 2034 4250 
z
M 2034 4750 
Q 2819 4750 3233 4129 
Q 3647 3509 3647 2328 
Q 3647 1150 3233 529 
Q 2819 -91 2034 -91 
Q 1250 -91 836 529 
Q 422 1150 422 2328 
Q 422 3509 836 4129 
Q 1250 4750 2034 4750 
z
" transform="scale(0.015625)"/>
        <path id="DejaVuSans-2e" d="M 684 794 
L 1344 794 
L 1344 0 
L 684 0 
L 684 794 
z
" transform="scale(0.015625)"/>
       </defs>
       <use xlink:href="#DejaVuSans-30"/>
       <use xlink:href="#DejaVuSans-2e" x="63.623047"/>
       <use xlink:href="#DejaVuSans-30" x="95.410156"/>
      </g>
     </g>
    </g>
    <g id="xtick_2">
     <g id="line2d_2">
      <g>
       <use xlink:href="#m819a1aca42" x="190.776259" y="511.2" style="stroke: #000000; stroke-width: 0.8"/>
      </g>
     </g>
     <g id="text_2">
      <!-- 0.2 -->
      <g transform="translate(174.873134 533.396875)scale(0.2 -0.2)">
       <defs>
        <path id="DejaVuSans-32" d="M 1228 531 
L 3431 531 
L 3431 0 
L 469 0 
L 469 531 
Q 828 903 1448 1529 
Q 2069 2156 2228 2338 
Q 2531 2678 2651 2914 
Q 2772 3150 2772 3378 
Q 2772 3750 2511 3984 
Q 2250 4219 1831 4219 
Q 1534 4219 1204 4116 
Q 875 4013 500 3803 
L 500 4441 
Q 881 4594 1212 4672 
Q 1544 4750 1819 4750 
Q 2544 4750 2975 4387 
Q 3406 4025 3406 3419 
Q 3406 3131 3298 2873 
Q 3191 2616 2906 2266 
Q 2828 2175 2409 1742 
Q 1991 1309 1228 531 
z
" transform="scale(0.015625)"/>
       </defs>
       <use xlink:href="#DejaVuSans-30"/>
       <use xlink:href="#DejaVuSans-2e" x="63.623047"/>
       <use xlink:href="#DejaVuSans-32" x="95.410156"/>
      </g>
     </g>
    </g>
    <g id="xtick_3">
     <g id="line2d_3">
      <g>
       <use xlink:href="#m819a1aca42" x="278.478634" y="511.2" style="stroke: #000000; stroke-width: 0.8"/>
      </g>
     </g>
     <g id="text_3">
      <!-- 0.4 -->
      <g transform="translate(262.575509 533.396875)scale(0.2 -0.2)">
       <defs>
        <path id="DejaVuSans-34" d="M 2419 4116 
L 825 1625 
L 2419 1625 
L 2419 4116 
z
M 2253 4666 
L 3047 4666 
L 3047 1625 
L 3713 1625 
L 3713 1100 
L 3047 1100 
L 3047 0 
L 2419 0 
L 2419 1100 
L 313 1100 
L 313 1709 
L 2253 4666 
z
" transform="scale(0.015625)"/>
       </defs>
       <use xlink:href="#DejaVuSans-30"/>
       <use xlink:href="#DejaVuSans-2e" x="63.623047"/>
       <use xlink:href="#DejaVuSans-34" x="95.410156"/>
      </g>
     </g>
    </g>
    <g id="xtick_4">
     <g id="line2d_4">
      <g>
       <use xlink:href="#m819a1aca42" x="366.181009" y="511.2" style="stroke: #000000; stroke-width: 0.8"/>
      </g>
     </g>
     <g id="text_4">
      <!-- 0.6 -->
      <g transform="translate(350.277884 533.396875)scale(0.2 -0.2)">
       <defs>
        <path id="DejaVuSans-36" d="M 2113 2584 
Q 1688 2584 1439 2293 
Q 1191 2003 1191 1497 
Q 1191 994 1439 701 
Q 1688 409 2113 409 
Q 2538 409 2786 701 
Q 3034 994 3034 1497 
Q 3034 2003 2786 2293 
Q 2538 2584 2113 2584 
z
M 3366 4563 
L 3366 3988 
Q 3128 4100 2886 4159 
Q 2644 4219 2406 4219 
Q 1781 4219 1451 3797 
Q 1122 3375 1075 2522 
Q 1259 2794 1537 2939 
Q 1816 3084 2150 3084 
Q 2853 3084 3261 2657 
Q 3669 2231 3669 1497 
Q 3669 778 3244 343 
Q 2819 -91 2113 -91 
Q 1303 -91 875 529 
Q 447 1150 447 2328 
Q 447 3434 972 4092 
Q 1497 4750 2381 4750 
Q 2619 4750 2861 4703 
Q 3103 4656 3366 4563 
z
" transform="scale(0.015625)"/>
       </defs>
       <use xlink:href="#DejaVuSans-30"/>
       <use xlink:href="#DejaVuSans-2e" x="63.623047"/>
       <use xlink:href="#DejaVuSans-36" x="95.410156"/>
      </g>
     </g>
    </g>
    <g id="xtick_5">
     <g id="line2d_5">
      <g>
       <use xlink:href="#m819a1aca42" x="453.883384" y="511.2" style="stroke: #000000; stroke-width: 0.8"/>
      </g>
     </g>
     <g id="text_5">
      <!-- 0.8 -->
      <g transform="translate(437.980259 533.396875)scale(0.2 -0.2)">
       <defs>
        <path id="DejaVuSans-38" d="M 2034 2216 
Q 1584 2216 1326 1975 
Q 1069 1734 1069 1313 
Q 1069 891 1326 650 
Q 1584 409 2034 409 
Q 2484 409 2743 651 
Q 3003 894 3003 1313 
Q 3003 1734 2745 1975 
Q 2488 2216 2034 2216 
z
M 1403 2484 
Q 997 2584 770 2862 
Q 544 3141 544 3541 
Q 544 4100 942 4425 
Q 1341 4750 2034 4750 
Q 2731 4750 3128 4425 
Q 3525 4100 3525 3541 
Q 3525 3141 3298 2862 
Q 3072 2584 2669 2484 
Q 3125 2378 3379 2068 
Q 3634 1759 3634 1313 
Q 3634 634 3220 271 
Q 2806 -91 2034 -91 
Q 1263 -91 848 271 
Q 434 634 434 1313 
Q 434 1759 690 2068 
Q 947 2378 1403 2484 
z
M 1172 3481 
Q 1172 3119 1398 2916 
Q 1625 2713 2034 2713 
Q 2441 2713 2670 2916 
Q 2900 3119 2900 3481 
Q 2900 3844 2670 4047 
Q 2441 4250 2034 4250 
Q 1625 4250 1398 4047 
Q 1172 3844 1172 3481 
z
" transform="scale(0.015625)"/>
       </defs>
       <use xlink:href="#DejaVuSans-30"/>
       <use xlink:href="#DejaVuSans-2e" x="63.623047"/>
       <use xlink:href="#DejaVuSans-38" x="95.410156"/>
      </g>
     </g>
    </g>
    <g id="xtick_6">
     <g id="line2d_6">
      <g>
       <use xlink:href="#m819a1aca42" x="541.585759" y="511.2" style="stroke: #000000; stroke-width: 0.8"/>
      </g>
     </g>
     <g id="text_6">
      <!-- 1.0 -->
      <g transform="translate(525.682634 533.396875)scale(0.2 -0.2)">
       <defs>
        <path id="DejaVuSans-31" d="M 794 531 
L 1825 531 
L 1825 4091 
L 703 3866 
L 703 4441 
L 1819 4666 
L 2450 4666 
L 2450 531 
L 3481 531 
L 3481 0 
L 794 0 
L 794 531 
z
" transform="scale(0.015625)"/>
       </defs>
       <use xlink:href="#DejaVuSans-31"/>
       <use xlink:href="#DejaVuSans-2e" x="63.623047"/>
       <use xlink:href="#DejaVuSans-30" x="95.410156"/>
      </g>
     </g>
    </g>
    <g id="text_7">
     <!-- Intensity level -->
     <g transform="translate(232.540062 560.552344)scale(0.25 -0.25)">
      <defs>
       <path id="DejaVuSans-49" d="M 628 4666 
L 1259 4666 
L 1259 0 
L 628 0 
L 628 4666 
z
" transform="scale(0.015625)"/>
       <path id="DejaVuSans-6e" d="M 3513 2113 
L 3513 0 
L 2938 0 
L 2938 2094 
Q 2938 2591 2744 2837 
Q 2550 3084 2163 3084 
Q 1697 3084 1428 2787 
Q 1159 2491 1159 1978 
L 1159 0 
L 581 0 
L 581 3500 
L 1159 3500 
L 1159 2956 
Q 1366 3272 1645 3428 
Q 1925 3584 2291 3584 
Q 2894 3584 3203 3211 
Q 3513 2838 3513 2113 
z
" transform="scale(0.015625)"/>
       <path id="DejaVuSans-74" d="M 1172 4494 
L 1172 3500 
L 2356 3500 
L 2356 3053 
L 1172 3053 
L 1172 1153 
Q 1172 725 1289 603 
Q 1406 481 1766 481 
L 2356 481 
L 2356 0 
L 1766 0 
Q 1100 0 847 248 
Q 594 497 594 1153 
L 594 3053 
L 172 3053 
L 172 3500 
L 594 3500 
L 594 4494 
L 1172 4494 
z
" transform="scale(0.015625)"/>
       <path id="DejaVuSans-65" d="M 3597 1894 
L 3597 1613 
L 953 1613 
Q 991 1019 1311 708 
Q 1631 397 2203 397 
Q 2534 397 2845 478 
Q 3156 559 3463 722 
L 3463 178 
Q 3153 47 2828 -22 
Q 2503 -91 2169 -91 
Q 1331 -91 842 396 
Q 353 884 353 1716 
Q 353 2575 817 3079 
Q 1281 3584 2069 3584 
Q 2775 3584 3186 3129 
Q 3597 2675 3597 1894 
z
M 3022 2063 
Q 3016 2534 2758 2815 
Q 2500 3097 2075 3097 
Q 1594 3097 1305 2825 
Q 1016 2553 972 2059 
L 3022 2063 
z
" transform="scale(0.015625)"/>
       <path id="DejaVuSans-73" d="M 2834 3397 
L 2834 2853 
Q 2591 2978 2328 3040 
Q 2066 3103 1784 3103 
Q 1356 3103 1142 2972 
Q 928 2841 928 2578 
Q 928 2378 1081 2264 
Q 1234 2150 1697 2047 
L 1894 2003 
Q 2506 1872 2764 1633 
Q 3022 1394 3022 966 
Q 3022 478 2636 193 
Q 2250 -91 1575 -91 
Q 1294 -91 989 -36 
Q 684 19 347 128 
L 347 722 
Q 666 556 975 473 
Q 1284 391 1588 391 
Q 1994 391 2212 530 
Q 2431 669 2431 922 
Q 2431 1156 2273 1281 
Q 2116 1406 1581 1522 
L 1381 1569 
Q 847 1681 609 1914 
Q 372 2147 372 2553 
Q 372 3047 722 3315 
Q 1072 3584 1716 3584 
Q 2034 3584 2315 3537 
Q 2597 3491 2834 3397 
z
" transform="scale(0.015625)"/>
       <path id="DejaVuSans-69" d="M 603 3500 
L 1178 3500 
L 1178 0 
L 603 0 
L 603 3500 
z
M 603 4863 
L 1178 4863 
L 1178 4134 
L 603 4134 
L 603 4863 
z
" transform="scale(0.015625)"/>
       <path id="DejaVuSans-79" d="M 2059 -325 
Q 1816 -950 1584 -1140 
Q 1353 -1331 966 -1331 
L 506 -1331 
L 506 -850 
L 844 -850 
Q 1081 -850 1212 -737 
Q 1344 -625 1503 -206 
L 1606 56 
L 191 3500 
L 800 3500 
L 1894 763 
L 2988 3500 
L 3597 3500 
L 2059 -325 
z
" transform="scale(0.015625)"/>
       <path id="DejaVuSans-20" transform="scale(0.015625)"/>
       <path id="DejaVuSans-6c" d="M 603 4863 
L 1178 4863 
L 1178 0 
L 603 0 
L 603 4863 
z
" transform="scale(0.015625)"/>
       <path id="DejaVuSans-76" d="M 191 3500 
L 800 3500 
L 1894 563 
L 2988 3500 
L 3597 3500 
L 2284 0 
L 1503 0 
L 191 3500 
z
" transform="scale(0.015625)"/>
      </defs>
      <use xlink:href="#DejaVuSans-49"/>
      <use xlink:href="#DejaVuSans-6e" x="29.492188"/>
      <use xlink:href="#DejaVuSans-74" x="92.871094"/>
      <use xlink:href="#DejaVuSans-65" x="132.080078"/>
      <use xlink:href="#DejaVuSans-6e" x="193.603516"/>
      <use xlink:href="#DejaVuSans-73" x="256.982422"/>
      <use xlink:href="#DejaVuSans-69" x="309.082031"/>
      <use xlink:href="#DejaVuSans-74" x="336.865234"/>
      <use xlink:href="#DejaVuSans-79" x="376.074219"/>
      <use xlink:href="#DejaVuSans-20" x="435.253906"/>
      <use xlink:href="#DejaVuSans-6c" x="467.041016"/>
      <use xlink:href="#DejaVuSans-65" x="494.824219"/>
      <use xlink:href="#DejaVuSans-76" x="556.347656"/>
      <use xlink:href="#DejaVuSans-65" x="615.527344"/>
      <use xlink:href="#DejaVuSans-6c" x="677.050781"/>
     </g>
    </g>
   </g>
   <g id="matplotlib.axis_2">
    <g id="ytick_1">
     <g id="line2d_7">
      <defs>
       <path id="mc829063b98" d="M 0 0 
L -3.5 0 
" style="stroke: #000000; stroke-width: 0.8"/>
      </defs>
      <g>
       <use xlink:href="#mc829063b98" x="81.316719" y="492.759045" style="stroke: #000000; stroke-width: 0.8"/>
      </g>
     </g>
     <g id="text_8">
      <!-- $\mathdefault{10^{0}}$ -->
      <g transform="translate(39.116719 500.357483)scale(0.2 -0.2)">
       <use xlink:href="#DejaVuSans-31" transform="translate(0 0.765625)"/>
       <use xlink:href="#DejaVuSans-30" transform="translate(63.623047 0.765625)"/>
       <use xlink:href="#DejaVuSans-30" transform="translate(128.203125 39.046875)scale(0.7)"/>
      </g>
     </g>
    </g>
    <g id="ytick_2">
     <g id="line2d_8">
      <g>
       <use xlink:href="#mc829063b98" x="81.316719" y="307.536934" style="stroke: #000000; stroke-width: 0.8"/>
      </g>
     </g>
     <g id="text_9">
      <!-- $\mathdefault{10^{1}}$ -->
      <g transform="translate(39.116719 315.135371)scale(0.2 -0.2)">
       <use xlink:href="#DejaVuSans-31" transform="translate(0 0.684375)"/>
       <use xlink:href="#DejaVuSans-30" transform="translate(63.623047 0.684375)"/>
       <use xlink:href="#DejaVuSans-31" transform="translate(128.203125 38.965625)scale(0.7)"/>
      </g>
     </g>
    </g>
    <g id="ytick_3">
     <g id="line2d_9">
      <g>
       <use xlink:href="#mc829063b98" x="81.316719" y="122.314823" style="stroke: #000000; stroke-width: 0.8"/>
      </g>
     </g>
     <g id="text_10">
      <!-- $\mathdefault{10^{2}}$ -->
      <g transform="translate(39.116719 129.91326)scale(0.2 -0.2)">
       <use xlink:href="#DejaVuSans-31" transform="translate(0 0.765625)"/>
       <use xlink:href="#DejaVuSans-30" transform="translate(63.623047 0.765625)"/>
       <use xlink:href="#DejaVuSans-32" transform="translate(128.203125 39.046875)scale(0.7)"/>
      </g>
     </g>
    </g>
    <g id="ytick_4">
     <g id="line2d_10">
      <defs>
       <path id="mc49147e7c6" d="M 0 0 
L -2 0 
" style="stroke: #000000; stroke-width: 0.6"/>
      </defs>
      <g>
       <use xlink:href="#mc49147e7c6" x="81.316719" y="510.708922" style="stroke: #000000; stroke-width: 0.6"/>
      </g>
     </g>
    </g>
    <g id="ytick_5">
     <g id="line2d_11">
      <g>
       <use xlink:href="#mc49147e7c6" x="81.316719" y="501.234344" style="stroke: #000000; stroke-width: 0.6"/>
      </g>
     </g>
    </g>
    <g id="ytick_6">
     <g id="line2d_12">
      <g>
       <use xlink:href="#mc49147e7c6" x="81.316719" y="437.001634" style="stroke: #000000; stroke-width: 0.6"/>
      </g>
     </g>
    </g>
    <g id="ytick_7">
     <g id="line2d_13">
      <g>
       <use xlink:href="#mc49147e7c6" x="81.316719" y="404.385639" style="stroke: #000000; stroke-width: 0.6"/>
      </g>
     </g>
    </g>
    <g id="ytick_8">
     <g id="line2d_14">
      <g>
       <use xlink:href="#mc49147e7c6" x="81.316719" y="381.244222" style="stroke: #000000; stroke-width: 0.6"/>
      </g>
     </g>
    </g>
    <g id="ytick_9">
     <g id="line2d_15">
      <g>
       <use xlink:href="#mc49147e7c6" x="81.316719" y="363.294345" style="stroke: #000000; stroke-width: 0.6"/>
      </g>
     </g>
    </g>
    <g id="ytick_10">
     <g id="line2d_16">
      <g>
       <use xlink:href="#mc49147e7c6" x="81.316719" y="348.628228" style="stroke: #000000; stroke-width: 0.6"/>
      </g>
     </g>
    </g>
    <g id="ytick_11">
     <g id="line2d_17">
      <g>
       <use xlink:href="#mc49147e7c6" x="81.316719" y="336.228202" style="stroke: #000000; stroke-width: 0.6"/>
      </g>
     </g>
    </g>
    <g id="ytick_12">
     <g id="line2d_18">
      <g>
       <use xlink:href="#mc49147e7c6" x="81.316719" y="325.486811" style="stroke: #000000; stroke-width: 0.6"/>
      </g>
     </g>
    </g>
    <g id="ytick_13">
     <g id="line2d_19">
      <g>
       <use xlink:href="#mc49147e7c6" x="81.316719" y="316.012233" style="stroke: #000000; stroke-width: 0.6"/>
      </g>
     </g>
    </g>
    <g id="ytick_14">
     <g id="line2d_20">
      <g>
       <use xlink:href="#mc49147e7c6" x="81.316719" y="251.779523" style="stroke: #000000; stroke-width: 0.6"/>
      </g>
     </g>
    </g>
    <g id="ytick_15">
     <g id="line2d_21">
      <g>
       <use xlink:href="#mc49147e7c6" x="81.316719" y="219.163528" style="stroke: #000000; stroke-width: 0.6"/>
      </g>
     </g>
    </g>
    <g id="ytick_16">
     <g id="line2d_22">
      <g>
       <use xlink:href="#mc49147e7c6" x="81.316719" y="196.022111" style="stroke: #000000; stroke-width: 0.6"/>
      </g>
     </g>
    </g>
    <g id="ytick_17">
     <g id="line2d_23">
      <g>
       <use xlink:href="#mc49147e7c6" x="81.316719" y="178.072234" style="stroke: #000000; stroke-width: 0.6"/>
      </g>
     </g>
    </g>
    <g id="ytick_18">
     <g id="line2d_24">
      <g>
       <use xlink:href="#mc49147e7c6" x="81.316719" y="163.406116" style="stroke: #000000; stroke-width: 0.6"/>
      </g>
     </g>
    </g>
    <g id="ytick_19">
     <g id="line2d_25">
      <g>
       <use xlink:href="#mc49147e7c6" x="81.316719" y="151.006091" style="stroke: #000000; stroke-width: 0.6"/>
      </g>
     </g>
    </g>
    <g id="ytick_20">
     <g id="line2d_26">
      <g>
       <use xlink:href="#mc49147e7c6" x="81.316719" y="140.2647" style="stroke: #000000; stroke-width: 0.6"/>
      </g>
     </g>
    </g>
    <g id="ytick_21">
     <g id="line2d_27">
      <g>
       <use xlink:href="#mc49147e7c6" x="81.316719" y="130.790122" style="stroke: #000000; stroke-width: 0.6"/>
      </g>
     </g>
    </g>
    <g id="ytick_22">
     <g id="line2d_28">
      <g>
       <use xlink:href="#mc49147e7c6" x="81.316719" y="66.557411" style="stroke: #000000; stroke-width: 0.6"/>
      </g>
     </g>
    </g>
    <g id="ytick_23">
     <g id="line2d_29">
      <g>
       <use xlink:href="#mc49147e7c6" x="81.316719" y="33.941417" style="stroke: #000000; stroke-width: 0.6"/>
      </g>
     </g>
    </g>
    <g id="ytick_24">
     <g id="line2d_30">
      <g>
       <use xlink:href="#mc49147e7c6" x="81.316719" y="10.8" style="stroke: #000000; stroke-width: 0.6"/>
      </g>
     </g>
    </g>
    <g id="text_11">
     <!-- Betti number -->
     <g transform="translate(29.9175 343.298828)rotate(-90)scale(0.25 -0.25)">
      <defs>
       <path id="DejaVuSans-42" d="M 1259 2228 
L 1259 519 
L 2272 519 
Q 2781 519 3026 730 
Q 3272 941 3272 1375 
Q 3272 1813 3026 2020 
Q 2781 2228 2272 2228 
L 1259 2228 
z
M 1259 4147 
L 1259 2741 
L 2194 2741 
Q 2656 2741 2882 2914 
Q 3109 3088 3109 3444 
Q 3109 3797 2882 3972 
Q 2656 4147 2194 4147 
L 1259 4147 
z
M 628 4666 
L 2241 4666 
Q 2963 4666 3353 4366 
Q 3744 4066 3744 3513 
Q 3744 3084 3544 2831 
Q 3344 2578 2956 2516 
Q 3422 2416 3680 2098 
Q 3938 1781 3938 1306 
Q 3938 681 3513 340 
Q 3088 0 2303 0 
L 628 0 
L 628 4666 
z
" transform="scale(0.015625)"/>
       <path id="DejaVuSans-75" d="M 544 1381 
L 544 3500 
L 1119 3500 
L 1119 1403 
Q 1119 906 1312 657 
Q 1506 409 1894 409 
Q 2359 409 2629 706 
Q 2900 1003 2900 1516 
L 2900 3500 
L 3475 3500 
L 3475 0 
L 2900 0 
L 2900 538 
Q 2691 219 2414 64 
Q 2138 -91 1772 -91 
Q 1169 -91 856 284 
Q 544 659 544 1381 
z
M 1991 3584 
L 1991 3584 
z
" transform="scale(0.015625)"/>
       <path id="DejaVuSans-6d" d="M 3328 2828 
Q 3544 3216 3844 3400 
Q 4144 3584 4550 3584 
Q 5097 3584 5394 3201 
Q 5691 2819 5691 2113 
L 5691 0 
L 5113 0 
L 5113 2094 
Q 5113 2597 4934 2840 
Q 4756 3084 4391 3084 
Q 3944 3084 3684 2787 
Q 3425 2491 3425 1978 
L 3425 0 
L 2847 0 
L 2847 2094 
Q 2847 2600 2669 2842 
Q 2491 3084 2119 3084 
Q 1678 3084 1418 2786 
Q 1159 2488 1159 1978 
L 1159 0 
L 581 0 
L 581 3500 
L 1159 3500 
L 1159 2956 
Q 1356 3278 1631 3431 
Q 1906 3584 2284 3584 
Q 2666 3584 2933 3390 
Q 3200 3197 3328 2828 
z
" transform="scale(0.015625)"/>
       <path id="DejaVuSans-62" d="M 3116 1747 
Q 3116 2381 2855 2742 
Q 2594 3103 2138 3103 
Q 1681 3103 1420 2742 
Q 1159 2381 1159 1747 
Q 1159 1113 1420 752 
Q 1681 391 2138 391 
Q 2594 391 2855 752 
Q 3116 1113 3116 1747 
z
M 1159 2969 
Q 1341 3281 1617 3432 
Q 1894 3584 2278 3584 
Q 2916 3584 3314 3078 
Q 3713 2572 3713 1747 
Q 3713 922 3314 415 
Q 2916 -91 2278 -91 
Q 1894 -91 1617 61 
Q 1341 213 1159 525 
L 1159 0 
L 581 0 
L 581 4863 
L 1159 4863 
L 1159 2969 
z
" transform="scale(0.015625)"/>
       <path id="DejaVuSans-72" d="M 2631 2963 
Q 2534 3019 2420 3045 
Q 2306 3072 2169 3072 
Q 1681 3072 1420 2755 
Q 1159 2438 1159 1844 
L 1159 0 
L 581 0 
L 581 3500 
L 1159 3500 
L 1159 2956 
Q 1341 3275 1631 3429 
Q 1922 3584 2338 3584 
Q 2397 3584 2469 3576 
Q 2541 3569 2628 3553 
L 2631 2963 
z
" transform="scale(0.015625)"/>
      </defs>
      <use xlink:href="#DejaVuSans-42"/>
      <use xlink:href="#DejaVuSans-65" x="68.603516"/>
      <use xlink:href="#DejaVuSans-74" x="130.126953"/>
      <use xlink:href="#DejaVuSans-74" x="169.335938"/>
      <use xlink:href="#DejaVuSans-69" x="208.544922"/>
      <use xlink:href="#DejaVuSans-20" x="236.328125"/>
      <use xlink:href="#DejaVuSans-6e" x="268.115234"/>
      <use xlink:href="#DejaVuSans-75" x="331.494141"/>
      <use xlink:href="#DejaVuSans-6d" x="394.873047"/>
      <use xlink:href="#DejaVuSans-62" x="492.285156"/>
      <use xlink:href="#DejaVuSans-65" x="555.761719"/>
      <use xlink:href="#DejaVuSans-72" x="617.285156"/>
     </g>
    </g>
   </g>
   <g id="line2d_31">
    <path d="M 538.217178 492.759045 
L 533.008607 437.001634 
L 528.361805 404.385639 
L 527.504056 363.294345 
L 526.7467 348.628228 
L 526.505505 336.228202 
L 525.36129 325.486811 
L 524.804042 336.228202 
L 524.773644 325.486811 
L 521.537292 316.012233 
L 521.078608 307.536934 
L 520.776591 316.012233 
L 520.137663 307.536934 
L 520.080161 316.012233 
L 519.476702 325.486811 
L 519.391338 316.012233 
L 517.594526 307.536934 
L 516.074535 316.012233 
L 515.645752 299.870093 
L 515.245249 292.870816 
L 514.990149 286.432106 
L 513.955293 280.470791 
L 513.558371 274.920939 
L 513.329904 269.7294 
L 511.983178 264.852698 
L 511.154075 260.254822 
L 510.842309 264.852698 
L 510.355736 260.254822 
L 509.97813 264.852698 
L 509.198322 260.254822 
L 509.150151 255.905603 
L 508.852055 251.779523 
L 506.147284 247.854796 
L 505.849684 244.112682 
L 505.836824 240.53694 
L 503.149174 237.113405 
L 501.225021 233.829645 
L 500.752379 237.113405 
L 500.216563 233.829645 
L 499.301861 230.674694 
L 498.934971 224.713379 
L 494.793064 219.163528 
L 494.498889 216.525884 
L 494.459866 213.971988 
L 493.764168 211.496687 
L 492.687884 209.095287 
L 492.659996 211.496687 
L 489.854727 209.095287 
L 489.687291 211.496687 
L 489.479525 209.095287 
L 488.793263 206.763502 
L 486.927397 204.49741 
L 484.410292 202.293411 
L 484.212667 200.148192 
L 483.667756 198.0587 
L 483.441929 196.022111 
L 483.346528 198.0587 
L 482.324741 196.022111 
L 481.262937 200.148192 
L 481.052087 198.0587 
L 480.331481 196.022111 
L 480.137019 198.0587 
L 479.555986 194.035814 
L 479.254099 198.0587 
L 478.376198 196.022111 
L 478.222641 194.035814 
L 477.788892 192.097385 
L 477.771485 190.204569 
L 477.292962 188.355271 
L 475.844953 190.204569 
L 475.21209 192.097385 
L 474.923141 190.204569 
L 474.785816 188.355271 
L 474.400185 186.547533 
L 474.219733 188.355271 
L 474.155932 190.204569 
L 474.011732 188.355271 
L 473.942468 190.204569 
L 473.842284 188.355271 
L 473.622051 190.204569 
L 473.251606 188.355271 
L 473.048702 186.547533 
L 472.609647 188.355271 
L 472.295711 186.547533 
L 471.639141 184.779529 
L 471.195852 183.04955 
L 471.103116 184.779529 
L 470.714166 183.04955 
L 470.554493 181.355994 
L 470.154226 183.04955 
L 470.020612 181.355994 
L 469.890971 183.04955 
L 469.82696 181.355994 
L 469.821811 183.04955 
L 469.269294 184.779529 
L 469.207349 183.04955 
L 468.599838 181.355994 
L 468.587972 179.697359 
L 468.391576 178.072234 
L 468.062925 179.697359 
L 467.782053 178.072234 
L 467.153764 176.479292 
L 467.018058 174.917283 
L 466.614733 176.479292 
L 466.170816 174.917283 
L 465.954164 176.479292 
L 465.805782 174.917283 
L 465.51192 173.385028 
L 465.46205 171.881415 
L 465.36048 173.385028 
L 465.03149 171.881415 
L 464.817033 168.955968 
L 464.540238 167.532197 
L 464.508037 166.133189 
L 464.190364 167.532197 
L 463.983095 166.133189 
L 463.604547 164.758097 
L 463.365757 166.133189 
L 463.355145 164.758097 
L 462.842095 163.406116 
L 461.880789 162.076484 
L 461.689621 163.406116 
L 461.256996 162.076484 
L 460.934644 158.214577 
L 459.94315 155.739276 
L 459.879375 154.529615 
L 459.795186 155.739276 
L 459.602737 154.529615 
L 459.579736 155.739276 
L 459.238408 153.337875 
L 458.817623 152.163534 
L 458.796112 151.006091 
L 458.642216 152.163534 
L 457.482606 151.006091 
L 457.406939 152.163534 
L 457.33953 151.006091 
L 457.268202 152.163534 
L 457.227846 151.006091 
L 457.046008 152.163534 
L 456.797181 151.006091 
L 456.62078 152.163534 
L 456.55277 149.865065 
L 456.478932 151.006091 
L 456.048947 149.865065 
L 455.672856 151.006091 
L 455.618831 149.865065 
L 454.988973 151.006091 
L 454.712283 152.163534 
L 454.601931 153.337875 
L 454.383893 152.163534 
L 454.138202 153.337875 
L 453.998106 151.006091 
L 453.550635 148.739999 
L 453.215136 147.630451 
L 452.974777 148.739999 
L 452.566904 145.456239 
L 452.422939 144.390781 
L 452.263841 145.456239 
L 452.254693 146.536 
L 451.954924 147.630451 
L 451.785841 146.536 
L 451.48155 145.456239 
L 451.04869 146.536 
L 449.981528 147.630451 
L 448.784098 144.390781 
L 448.529729 145.456239 
L 448.217676 143.33925 
L 448.202176 144.390781 
L 448.1516 143.33925 
L 447.435411 144.390781 
L 447.186923 145.456239 
L 447.045938 143.33925 
L 447.008039 142.301288 
L 446.38848 139.265421 
L 446.191482 141.276549 
L 446.086959 142.301288 
L 445.814216 143.33925 
L 445.607705 141.276549 
L 445.57864 142.301288 
L 445.118806 141.276549 
L 444.967418 142.301288 
L 444.811143 141.276549 
L 444.763573 142.301288 
L 444.396396 143.33925 
L 444.34927 142.301288 
L 443.985987 141.276549 
L 443.967116 142.301288 
L 443.716459 141.276549 
L 442.880273 139.265421 
L 442.779749 138.278403 
L 442.364688 139.265421 
L 442.140665 138.278403 
L 441.930834 141.276549 
L 441.929344 140.2647 
L 441.451867 141.276549 
L 441.34324 139.265421 
L 441.006905 137.303349 
L 440.844226 138.278403 
L 440.678855 137.303349 
L 440.624019 138.278403 
L 440.528461 137.303349 
L 440.181148 136.339973 
L 440.123985 135.387998 
L 440.050879 136.339973 
L 439.499617 137.303349 
L 439.497604 138.278403 
L 439.318903 137.303349 
L 438.791399 136.339973 
L 438.49461 135.387998 
L 438.333499 136.339973 
L 438.329787 137.303349 
L 438.218991 136.339973 
L 437.929102 135.387998 
L 437.893999 134.447158 
L 437.728446 135.387998 
L 437.407583 136.339973 
L 437.400134 135.387998 
L 437.354185 136.339973 
L 437.179431 134.447158 
L 436.811495 135.387998 
L 436.701248 137.303349 
L 436.4376 138.278403 
L 435.812866 139.265421 
L 435.677605 138.278403 
L 435.135908 139.265421 
L 435.128302 138.278403 
L 434.903312 136.339973 
L 434.808381 135.387998 
L 434.233098 136.339973 
L 434.174864 137.303349 
L 433.905362 133.517194 
L 433.649556 137.303349 
L 433.229215 138.278403 
L 433.120667 136.339973 
L 433.03248 138.278403 
L 432.944946 137.303349 
L 432.671732 140.2647 
L 432.496481 141.276549 
L 432.487673 140.2647 
L 432.178938 141.276549 
L 432.163465 142.301288 
L 431.938553 141.276549 
L 431.905019 142.301288 
L 431.726971 143.33925 
L 431.584523 142.301288 
L 431.240425 143.33925 
L 430.83527 142.301288 
L 430.791803 141.276549 
L 430.688352 142.301288 
L 430.6004 141.276549 
L 429.994536 143.33925 
L 429.905251 142.301288 
L 429.610343 144.390781 
L 429.160258 145.456239 
L 429.119432 146.536 
L 428.76365 147.630451 
L 428.625671 145.456239 
L 428.416546 146.536 
L 428.407163 147.630451 
L 427.984025 149.865065 
L 427.89704 146.536 
L 427.647925 145.456239 
L 427.617214 146.536 
L 427.373248 148.739999 
L 427.22531 146.536 
L 427.049877 147.630451 
L 426.746997 146.536 
L 426.597831 149.865065 
L 426.163768 151.006091 
L 426.151484 149.865065 
L 425.935825 151.006091 
L 425.935067 152.163534 
L 425.811123 151.006091 
L 424.872401 147.630451 
L 424.71163 146.536 
L 424.33912 151.006091 
L 423.933939 152.163534 
L 423.763733 154.529615 
L 423.409363 155.739276 
L 423.409363 156.967406 
L 423.075144 154.529615 
L 422.403049 153.337875 
L 422.187494 152.163534 
L 422.167421 153.337875 
L 422.076384 152.163534 
L 422.021391 151.006091 
L 421.960021 152.163534 
L 421.690806 153.337875 
L 421.671961 152.163534 
L 421.597444 153.337875 
L 421.269995 151.006091 
L 421.251202 152.163534 
L 420.882927 155.739276 
L 420.779214 154.529615 
L 420.095958 153.337875 
L 420.05832 154.529615 
L 419.764327 155.739276 
L 419.715215 154.529615 
L 419.60996 155.739276 
L 419.199969 152.163534 
L 419.15287 153.337875 
L 418.989956 152.163534 
L 418.963845 153.337875 
L 418.882584 152.163534 
L 418.554638 151.006091 
L 418.372513 152.163534 
L 418.180195 148.739999 
L 417.88121 147.630451 
L 417.778934 146.536 
L 417.470095 145.456239 
L 417.311546 146.536 
L 416.850536 147.630451 
L 416.730931 146.536 
L 416.708636 147.630451 
L 416.353639 146.536 
L 416.339159 147.630451 
L 416.193155 148.739999 
L 415.707393 146.536 
L 415.693331 147.630451 
L 415.678903 146.536 
L 415.403886 145.456239 
L 415.3117 144.390781 
L 415.26345 145.456239 
L 415.181248 143.33925 
L 414.731477 142.301288 
L 414.428284 141.276549 
L 413.431667 142.301288 
L 413.415383 141.276549 
L 412.937488 140.2647 
L 412.762185 138.278403 
L 412.145762 139.265421 
L 411.983788 140.2647 
L 411.382812 139.265421 
L 411.340104 138.278403 
L 411.295984 139.265421 
L 411.294703 140.2647 
L 410.74216 141.276549 
L 410.567902 142.301288 
L 410.541347 141.276549 
L 409.953832 144.390781 
L 409.905164 146.536 
L 409.647293 151.006091 
L 409.484065 148.739999 
L 409.012521 149.865065 
L 408.960508 151.006091 
L 408.757996 148.739999 
L 408.444348 149.865065 
L 408.444348 151.006091 
L 408.392883 148.739999 
L 408.256864 151.006091 
L 408.115461 149.865065 
L 407.701367 151.006091 
L 407.510173 152.163534 
L 407.464354 153.337875 
L 407.34603 152.163534 
L 407.258888 153.337875 
L 406.122672 155.739276 
L 405.677579 154.529615 
L 405.632178 155.739276 
L 405.428333 156.967406 
L 405.388892 158.214577 
L 405.095788 159.48139 
L 404.985933 160.768472 
L 404.765621 156.967406 
L 404.557829 155.739276 
L 404.417419 156.967406 
L 404.389923 158.214577 
L 404.210046 159.48139 
L 404.14959 160.768472 
L 403.88657 162.076484 
L 403.797572 160.768472 
L 403.225373 162.076484 
L 402.936895 163.406116 
L 402.379281 162.076484 
L 401.669888 163.406116 
L 401.608204 167.532197 
L 401.215046 168.955968 
L 400.835192 167.532197 
L 400.735504 170.405393 
L 400.608868 171.881415 
L 400.444987 170.405393 
L 400.345064 171.881415 
L 400.183065 170.405393 
L 399.080121 171.881415 
L 399.034851 170.405393 
L 398.616419 171.881415 
L 398.43249 178.072234 
L 398.063117 176.479292 
L 397.986195 174.917283 
L 397.963638 176.479292 
L 397.618625 178.072234 
L 397.571996 179.697359 
L 397.22518 174.917283 
L 397.17876 176.479292 
L 397.114122 179.697359 
L 396.470961 181.355994 
L 396.379193 183.04955 
L 396.19874 181.355994 
L 395.394625 183.04955 
L 395.197811 184.779529 
L 395.023422 190.204569 
L 394.502923 192.097385 
L 394.418996 194.035814 
L 394.061829 192.097385 
L 393.912847 190.204569 
L 393.585293 188.355271 
L 393.501863 192.097385 
L 393.349927 194.035814 
L 393.348123 192.097385 
L 393.284139 194.035814 
L 393.234582 192.097385 
L 392.938185 190.204569 
L 392.64116 192.097385 
L 392.510395 190.204569 
L 391.624261 192.097385 
L 391.453349 190.204569 
L 391.017195 192.097385 
L 390.63653 190.204569 
L 390.633734 188.355271 
L 390.358743 190.204569 
L 390.330828 192.097385 
L 389.828155 190.204569 
L 389.699428 194.035814 
L 389.556692 192.097385 
L 389.480397 196.022111 
L 388.979553 194.035814 
L 388.596432 196.022111 
L 388.045222 194.035814 
L 388.006382 196.022111 
L 387.499056 198.0587 
L 386.757147 202.293411 
L 386.147337 200.148192 
L 385.809329 202.293411 
L 385.543068 200.148192 
L 385.447875 204.49741 
L 385.359139 202.293411 
L 385.202106 204.49741 
L 385.02134 202.293411 
L 384.345664 198.0587 
L 384.341534 196.022111 
L 383.885071 198.0587 
L 383.518208 196.022111 
L 383.294786 194.035814 
L 382.777397 192.097385 
L 381.956789 190.204569 
L 381.950516 188.355271 
L 381.397633 184.779529 
L 381.259967 181.355994 
L 381.236783 183.04955 
L 381.1757 181.355994 
L 380.730738 179.697359 
L 380.532826 181.355994 
L 380.474069 183.04955 
L 380.267898 184.779529 
L 379.244072 188.355271 
L 379.118064 190.204569 
L 378.784055 184.779529 
L 378.742836 186.547533 
L 378.363218 184.779529 
L 378.309244 186.547533 
L 378.119957 184.779529 
L 377.934565 186.547533 
L 377.893373 188.355271 
L 377.546269 186.547533 
L 377.527763 184.779529 
L 377.487068 186.547533 
L 376.976579 188.355271 
L 375.585158 186.547533 
L 375.416284 188.355271 
L 375.25682 186.547533 
L 374.759191 184.779529 
L 374.604275 186.547533 
L 373.997915 188.355271 
L 373.545661 186.547533 
L 373.419626 188.355271 
L 373.378904 186.547533 
L 373.169727 184.779529 
L 373.06706 188.355271 
L 373.06706 190.204569 
L 372.916718 188.355271 
L 372.898997 190.204569 
L 372.21195 188.355271 
L 371.705984 190.204569 
L 371.639098 192.097385 
L 371.338754 190.204569 
L 371.324587 192.097385 
L 370.997714 194.035814 
L 370.899464 198.0587 
L 370.868543 196.022111 
L 370.776278 194.035814 
L 370.138292 192.097385 
L 369.920254 196.022111 
L 369.48133 194.035814 
L 369.197138 196.022111 
L 368.830667 202.293411 
L 368.397414 204.49741 
L 366.990859 202.293411 
L 366.533351 206.763502 
L 365.842907 202.293411 
L 365.575757 204.49741 
L 365.55882 202.293411 
L 365.498782 204.49741 
L 365.381112 202.293411 
L 365.081317 200.148192 
L 364.432954 202.293411 
L 364.237081 206.763502 
L 363.327867 211.496687 
L 363.236151 216.525884 
L 363.01286 213.971988 
L 362.907056 216.525884 
L 362.764842 213.971988 
L 361.8567 216.525884 
L 361.3448 213.971988 
L 361.296368 216.525884 
L 359.93192 219.163528 
L 359.534345 213.971988 
L 358.867817 216.525884 
L 358.470163 213.971988 
L 358.291331 211.496687 
L 357.926088 209.095287 
L 357.312043 206.763502 
L 357.106421 209.095287 
L 356.682081 211.496687 
L 356.239027 209.095287 
L 355.616749 206.763502 
L 354.242317 209.095287 
L 353.494109 206.763502 
L 353.35221 209.095287 
L 353.077401 211.496687 
L 353.073533 209.095287 
L 352.45745 206.763502 
L 351.549125 204.49741 
L 351.530332 206.763502 
L 350.836778 209.095287 
L 350.812156 204.49741 
L 350.567903 206.763502 
L 348.561077 209.095287 
L 348.537763 206.763502 
L 348.307545 209.095287 
L 347.858297 211.496687 
L 347.372116 219.163528 
L 345.994181 221.890601 
L 345.838847 224.713379 
L 345.459359 227.638827 
L 345.394982 224.713379 
L 345.365317 227.638827 
L 345.16534 224.713379 
L 345.027178 230.674694 
L 344.311616 233.829645 
L 342.704326 237.113405 
L 342.332783 244.112682 
L 340.152406 251.779523 
L 339.041282 247.854796 
L 338.720524 244.112682 
L 337.917663 247.854796 
L 337.80935 255.905603 
L 337.394106 260.254822 
L 337.299672 264.852698 
L 337.033803 269.7294 
L 336.696213 264.852698 
L 336.670363 260.254822 
L 336.56597 264.852698 
L 336.132587 260.254822 
L 335.482342 255.905603 
L 335.331451 260.254822 
L 334.023591 264.852698 
L 333.924504 260.254822 
L 333.81478 264.852698 
L 333.158288 260.254822 
L 331.653378 264.852698 
L 331.400839 260.254822 
L 330.867324 255.905603 
L 330.715779 251.779523 
L 330.70075 247.854796 
L 328.495804 240.53694 
L 327.374068 233.829645 
L 327.200359 237.113405 
L 326.316786 240.53694 
L 326.122376 247.854796 
L 324.786679 251.779523 
L 324.614931 247.854796 
L 324.300002 244.112682 
L 323.868945 247.854796 
L 323.18561 251.779523 
L 322.957405 240.53694 
L 322.412154 237.113405 
L 322.396681 233.829645 
L 321.163965 230.674694 
L 321.011846 233.829645 
L 319.986243 237.113405 
L 319.949232 233.829645 
L 319.887313 237.113405 
L 319.620777 240.53694 
L 319.206644 244.112682 
L 319.001008 227.638827 
L 318.09352 230.674694 
L 317.398436 227.638827 
L 317.381395 224.713379 
L 317.032226 227.638827 
L 316.808007 230.674694 
L 315.800504 233.829645 
L 315.595142 237.113405 
L 314.969049 240.53694 
L 314.62137 237.113405 
L 314.249997 240.53694 
L 314.090494 237.113405 
L 313.712274 240.53694 
L 312.916156 244.112682 
L 310.86742 247.854796 
L 310.315386 244.112682 
L 310.137351 240.53694 
L 309.943896 244.112682 
L 309.726185 240.53694 
L 309.688612 237.113405 
L 306.334812 240.53694 
L 304.121632 247.854796 
L 303.851111 244.112682 
L 302.206863 247.854796 
L 301.682639 251.779523 
L 300.276424 247.854796 
L 300.16734 244.112682 
L 299.542343 247.854796 
L 299.308571 240.53694 
L 298.340169 244.112682 
L 298.008081 237.113405 
L 297.619262 240.53694 
L 297.597307 244.112682 
L 296.598155 240.53694 
L 296.294203 237.113405 
L 296.174351 233.829645 
L 294.901057 237.113405 
L 294.163722 244.112682 
L 293.896429 247.854796 
L 293.778602 244.112682 
L 293.375577 247.854796 
L 293.078683 244.112682 
L 292.364231 247.854796 
L 292.206283 244.112682 
L 291.725879 240.53694 
L 290.713985 244.112682 
L 290.096477 247.854796 
L 289.850825 244.112682 
L 289.780463 240.53694 
L 289.452309 244.112682 
L 289.052774 240.53694 
L 287.712411 237.113405 
L 287.45407 240.53694 
L 287.45407 244.112682 
L 287.113762 240.53694 
L 287.022242 237.113405 
L 286.584951 233.829645 
L 285.059641 237.113405 
L 284.963521 233.829645 
L 284.911769 237.113405 
L 284.464441 233.829645 
L 283.367535 230.674694 
L 282.490274 227.638827 
L 282.365991 230.674694 
L 281.205363 233.829645 
L 280.809264 237.113405 
L 280.653159 233.829645 
L 280.406488 237.113405 
L 280.101975 233.829645 
L 280.074543 230.674694 
L 279.675309 237.113405 
L 278.829962 240.53694 
L 278.195804 237.113405 
L 277.795276 240.53694 
L 277.465109 237.113405 
L 276.949327 233.829645 
L 276.862029 237.113405 
L 276.164606 240.53694 
L 275.185828 237.113405 
L 274.533884 240.53694 
L 274.019618 244.112682 
L 273.85609 247.854796 
L 273.688772 240.53694 
L 272.899542 237.113405 
L 271.871704 230.674694 
L 271.773819 233.829645 
L 270.686362 237.113405 
L 270.636401 233.829645 
L 269.404731 237.113405 
L 268.242011 233.829645 
L 268.128392 237.113405 
L 267.201 233.829645 
L 266.830542 237.113405 
L 266.703946 233.829645 
L 266.514737 240.53694 
L 266.388755 237.113405 
L 266.072742 240.53694 
L 265.579752 247.854796 
L 264.262861 251.779523 
L 264.002272 247.854796 
L 263.407425 244.112682 
L 263.381432 247.854796 
L 262.481614 244.112682 
L 262.148311 247.854796 
L 261.034259 244.112682 
L 260.972784 240.53694 
L 260.373938 244.112682 
L 260.14538 240.53694 
L 260.075789 237.113405 
L 258.823667 233.829645 
L 258.542704 230.674694 
L 258.431711 227.638827 
L 258.387487 230.674694 
L 257.673558 233.829645 
L 257.143323 230.674694 
L 256.541537 233.829645 
L 256.102312 230.674694 
L 254.69675 233.829645 
L 254.507594 230.674694 
L 254.045564 227.638827 
L 253.983723 230.674694 
L 253.921948 227.638827 
L 253.777552 230.674694 
L 253.423273 227.638827 
L 253.323337 230.674694 
L 253.296912 227.638827 
L 253.222539 230.674694 
L 253.025881 237.113405 
L 252.629848 233.829645 
L 252.495855 230.674694 
L 251.569208 227.638827 
L 251.215308 230.674694 
L 250.959776 233.829645 
L 250.604844 230.674694 
L 250.440754 227.638827 
L 249.024776 230.674694 
L 247.866513 233.829645 
L 247.664942 230.674694 
L 247.277979 237.113405 
L 246.650212 240.53694 
L 246.413133 244.112682 
L 246.221808 240.53694 
L 245.49945 244.112682 
L 245.49945 247.854796 
L 245.383322 244.112682 
L 244.853191 240.53694 
L 244.787848 244.112682 
L 244.314448 240.53694 
L 244.295904 237.113405 
L 243.914612 240.53694 
L 243.210799 237.113405 
L 242.020295 233.829645 
L 241.172661 237.113405 
L 240.376661 233.829645 
L 240.084145 227.638827 
L 239.765426 230.674694 
L 238.785289 233.829645 
L 238.585456 237.113405 
L 238.585456 240.53694 
L 238.319966 237.113405 
L 237.593452 247.854796 
L 237.548718 244.112682 
L 237.355929 240.53694 
L 237.2912 244.112682 
L 236.723222 247.854796 
L 235.642992 251.779523 
L 235.642992 255.905603 
L 235.382376 251.779523 
L 235.028333 255.905603 
L 234.955946 260.254822 
L 234.677217 264.852698 
L 233.615204 269.7294 
L 233.418207 274.920939 
L 233.242839 269.7294 
L 231.866511 264.852698 
L 230.815215 260.254822 
L 229.662754 264.852698 
L 229.646275 260.254822 
L 229.586851 264.852698 
L 227.416655 269.7294 
L 226.810686 274.920939 
L 226.634521 280.470791 
L 225.290356 286.432106 
L 224.700854 292.870816 
L 224.373915 299.870093 
L 224.253069 292.870816 
L 223.672323 286.432106 
L 223.607058 280.470791 
L 223.580254 286.432106 
L 222.839352 280.470791 
L 221.720177 286.432106 
L 221.438495 292.870816 
L 220.594886 299.870093 
L 220.564488 307.536934 
L 220.493421 299.870093 
L 219.582639 307.536934 
L 219.305021 316.012233 
L 217.991175 307.536934 
L 217.897185 299.870093 
L 216.80701 292.870816 
L 215.81958 299.870093 
L 214.75583 292.870816 
L 214.007713 299.870093 
L 212.894563 307.536934 
L 211.879219 299.870093 
L 211.815672 292.870816 
L 211.214827 299.870093 
L 208.896987 292.870816 
L 207.968987 299.870093 
L 207.953115 307.536934 
L 207.534689 316.012233 
L 206.002831 307.536934 
L 205.548479 299.870093 
L 204.46378 292.870816 
L 203.309221 299.870093 
L 201.184484 307.536934 
L 200.612703 299.870093 
L 200.228674 292.870816 
L 200.173491 299.870093 
L 199.445181 292.870816 
L 199.247582 286.432106 
L 198.980622 292.870816 
L 198.28859 299.870093 
L 197.591625 292.870816 
L 196.047888 299.870093 
L 195.665492 292.870816 
L 194.862886 280.470791 
L 193.980947 274.920939 
L 193.487206 280.470791 
L 192.625634 274.920939 
L 189.380271 286.432106 
L 189.15089 292.870816 
L 189.141611 286.432106 
L 188.823905 292.870816 
L 188.730477 286.432106 
L 188.667205 292.870816 
L 188.068098 286.432106 
L 188.057303 292.870816 
L 185.282732 299.870093 
L 184.133859 307.536934 
L 183.640092 299.870093 
L 183.004517 307.536934 
L 178.788125 316.012233 
L 177.289638 307.536934 
L 176.876505 299.870093 
L 176.126004 316.012233 
L 173.582906 325.486811 
L 173.524443 336.228202 
L 172.523696 348.628228 
L 170.856591 363.294345 
L 167.456684 381.244222 
L 167.045557 404.385639 
L 164.953524 381.244222 
L 162.212324 363.294345 
L 161.241061 381.244222 
L 156.546833 404.385639 
L 155.0307 437.001634 
L 154.047812 404.385639 
L 153.797269 381.244222 
L 150.145235 363.294345 
L 149.231304 348.628228 
L 148.443462 363.294345 
L 148.177825 381.244222 
L 145.498015 363.294345 
L 144.700931 348.628228 
L 144.535325 336.228202 
L 140.843768 348.628228 
L 137.253418 363.294345 
L 137.174545 348.628228 
L 136.863739 336.228202 
L 136.667229 348.628228 
L 135.817997 363.294345 
L 135.764259 381.244222 
L 132.737175 363.294345 
L 132.279876 381.244222 
L 132.176415 404.385639 
L 130.65267 381.244222 
L 129.651255 363.294345 
L 128.99109 348.628228 
L 127.841924 336.228202 
L 127.48056 325.486811 
L 125.978979 316.012233 
L 125.440424 307.536934 
L 121.627468 299.870093 
L 121.47608 292.870816 
L 119.680967 286.432106 
L 118.631083 280.470791 
L 116.623818 286.432106 
L 115.684755 292.870816 
L 115.081338 286.432106 
L 113.178999 280.470791 
L 112.278787 286.432106 
L 111.961668 292.870816 
L 110.42705 286.432106 
L 110.066063 280.470791 
L 109.347892 286.432106 
L 107.970809 292.870816 
L 107.547551 286.432106 
L 106.964919 280.470791 
L 105.641867 286.432106 
L 105.588003 292.870816 
L 105.023729 299.870093 
L 103.073883 307.536934 
L 103.073883 577 
L 103.073883 577 
" clip-path="url(#pbcd294b9e2)" style="fill: none; stroke: #1f77b4; stroke-width: 1.5; stroke-linecap: square"/>
   </g>
   <g id="line2d_32">
    <path d="M 474.305464 492.759045 
L 463.365757 437.001634 
L 450.504928 492.759045 
L 450.205264 437.001634 
L 442.77771 404.385639 
L 440.324328 381.244222 
L 440.065647 363.294345 
L 436.721086 348.628228 
L 436.393245 325.486811 
L 436.065117 336.228202 
L 435.114789 325.486811 
L 434.415694 307.536934 
L 433.177254 299.870093 
L 432.365272 292.870816 
L 430.502855 286.432106 
L 430.333877 280.470791 
L 429.035505 274.920939 
L 428.951551 269.7294 
L 428.727554 264.852698 
L 428.31712 260.254822 
L 427.561358 255.905603 
L 426.714482 247.854796 
L 426.611004 244.112682 
L 425.915542 240.53694 
L 424.661551 230.674694 
L 424.595711 224.713379 
L 422.557416 221.890601 
L 422.050744 219.163528 
L 421.266283 221.890601 
L 421.25264 219.163528 
L 420.789983 221.890601 
L 420.730389 219.163528 
L 420.205029 221.890601 
L 420.105393 219.163528 
L 419.797809 216.525884 
L 419.745534 219.163528 
L 419.400286 221.890601 
L 418.25074 219.163528 
L 417.356137 221.890601 
L 416.746326 219.163528 
L 416.344308 216.525884 
L 416.140541 213.971988 
L 416.135157 209.095287 
L 415.455873 211.496687 
L 414.57298 204.49741 
L 414.17023 202.293411 
L 413.98604 204.49741 
L 413.3836 202.293411 
L 413.3836 200.148192 
L 413.156832 198.0587 
L 413.156832 196.022111 
L 413.041724 194.035814 
L 412.785473 192.097385 
L 412.127596 194.035814 
L 411.939852 192.097385 
L 411.543792 190.204569 
L 410.385542 188.355271 
L 409.741126 186.547533 
L 409.117881 183.04955 
L 408.735465 181.355994 
L 408.692051 176.479292 
L 408.047949 174.917283 
L 407.597498 171.881415 
L 407.094955 170.405393 
L 407.046575 168.955968 
L 406.904466 170.405393 
L 406.402655 168.955968 
L 406.279287 167.532197 
L 406.273824 162.076484 
L 405.497754 158.214577 
L 405.475407 156.967406 
L 405.075479 155.739276 
L 404.849862 153.337875 
L 404.036546 154.529615 
L 403.561761 153.337875 
L 403.260528 154.529615 
L 403.176078 155.739276 
L 403.084336 153.337875 
L 403.035695 152.163534 
L 402.956028 153.337875 
L 402.916979 149.865065 
L 402.235735 148.739999 
L 401.933561 146.536 
L 401.206734 143.33925 
L 401.162274 142.301288 
L 400.785086 141.276549 
L 400.649486 143.33925 
L 400.603484 142.301288 
L 400.099478 141.276549 
L 400.005462 142.301288 
L 399.768631 138.278403 
L 399.768631 137.303349 
L 399.511596 138.278403 
L 399.359921 137.303349 
L 399.07228 138.278403 
L 398.863312 137.303349 
L 398.394565 136.339973 
L 398.394565 135.387998 
L 398.115496 136.339973 
L 397.934338 135.387998 
L 397.530438 134.447158 
L 397.530438 133.517194 
L 397.088429 130.790122 
L 396.940989 131.688912 
L 396.846058 130.790122 
L 396.567878 129.901262 
L 395.575914 129.022118 
L 394.822531 129.901262 
L 394.48319 130.790122 
L 394.464789 129.901262 
L 393.060534 129.022118 
L 392.371632 129.901262 
L 392.104561 128.152477 
L 391.895514 127.292138 
L 391.798518 125.598582 
L 390.959797 126.440904 
L 390.606211 127.292138 
L 389.849509 126.440904 
L 389.79611 125.598582 
L 389.779382 126.440904 
L 389.735655 127.292138 
L 389.284001 128.152477 
L 389.275873 129.022118 
L 388.721395 129.901262 
L 388.517576 130.790122 
L 388.438772 129.022118 
L 388.425677 130.790122 
L 388.39967 131.688912 
L 388.139551 129.901262 
L 387.877316 130.790122 
L 387.794669 129.022118 
L 387.168706 126.440904 
L 387.105009 127.292138 
L 386.78548 128.152477 
L 386.708767 129.022118 
L 386.159256 128.152477 
L 386.058156 129.022118 
L 385.8621 128.152477 
L 385.59218 129.022118 
L 385.382793 128.152477 
L 383.616928 129.022118 
L 383.204559 129.901262 
L 383.088719 130.790122 
L 383.031112 129.901262 
L 382.474831 129.022118 
L 382.26981 128.152477 
L 382.029398 129.022118 
L 381.902632 128.152477 
L 381.165742 127.292138 
L 381.088245 129.022118 
L 381.004448 129.901262 
L 380.729065 130.790122 
L 380.585833 131.688912 
L 380.02848 132.597859 
L 379.064587 131.688912 
L 379.015998 132.597859 
L 378.663379 133.517194 
L 378.606713 134.447158 
L 378.517585 133.517194 
L 378.262197 136.339973 
L 377.740443 137.303349 
L 376.438385 136.339973 
L 376.050847 137.303349 
L 376.00806 136.339973 
L 375.904321 137.303349 
L 375.768772 136.339973 
L 375.765714 135.387998 
L 375.557792 136.339973 
L 375.55374 135.387998 
L 375.36035 134.447158 
L 375.170044 136.339973 
L 375.15052 135.387998 
L 374.417524 136.339973 
L 374.176956 135.387998 
L 374.067074 134.447158 
L 373.626712 133.517194 
L 373.534422 134.447158 
L 373.147876 133.517194 
L 373.052005 132.597859 
L 372.755398 133.517194 
L 371.897596 132.597859 
L 371.523597 133.517194 
L 371.439095 132.597859 
L 370.912872 133.517194 
L 370.222977 132.597859 
L 370.094878 133.517194 
L 370.07104 132.597859 
L 369.64014 133.517194 
L 368.964699 134.447158 
L 368.660408 135.387998 
L 368.219811 134.447158 
L 368.162544 132.597859 
L 367.923256 133.517194 
L 367.750541 135.387998 
L 367.666248 134.447158 
L 367.481849 137.303349 
L 367.144364 135.387998 
L 365.892986 134.447158 
L 365.548313 135.387998 
L 365.24674 134.447158 
L 364.815814 133.517194 
L 363.945466 132.597859 
L 363.857436 133.517194 
L 363.655394 134.447158 
L 362.828069 133.517194 
L 362.451769 134.447158 
L 362.210234 135.387998 
L 362.007408 134.447158 
L 360.867428 133.517194 
L 360.740975 134.447158 
L 360.710813 133.517194 
L 359.873294 134.447158 
L 359.685184 135.387998 
L 359.65902 137.303349 
L 359.164528 136.339973 
L 358.985853 138.278403 
L 358.712508 139.265421 
L 358.697453 138.278403 
L 358.23511 140.2647 
L 357.760691 139.265421 
L 357.739311 138.278403 
L 357.467142 137.303349 
L 357.367115 139.265421 
L 357.246491 138.278403 
L 356.761774 137.303349 
L 356.355547 138.278403 
L 356.090541 139.265421 
L 355.972557 140.2647 
L 355.967408 139.265421 
L 355.952431 140.2647 
L 355.754101 141.276549 
L 355.557862 140.2647 
L 355.078189 141.276549 
L 354.834302 142.301288 
L 354.432283 141.276549 
L 353.743146 140.2647 
L 353.327797 141.276549 
L 353.146796 140.2647 
L 352.70152 141.276549 
L 352.133347 140.2647 
L 350.753452 141.276549 
L 350.570151 140.2647 
L 349.635139 139.265421 
L 349.009411 138.278403 
L 348.76717 137.303349 
L 348.065696 138.278403 
L 348.011984 139.265421 
L 347.781949 140.2647 
L 347.639553 139.265421 
L 347.635711 140.2647 
L 347.597707 139.265421 
L 347.505678 138.278403 
L 346.902767 137.303349 
L 345.366467 136.339973 
L 345.210139 137.303349 
L 344.880756 138.278403 
L 344.787943 139.265421 
L 344.13741 138.278403 
L 343.262619 140.2647 
L 343.236717 139.265421 
L 342.348649 141.276549 
L 342.162446 142.301288 
L 341.197534 143.33925 
L 341.036972 144.390781 
L 339.693957 143.33925 
L 339.218806 142.301288 
L 339.130854 143.33925 
L 338.886627 144.390781 
L 338.829752 143.33925 
L 338.54692 144.390781 
L 338.179063 143.33925 
L 337.304925 142.301288 
L 337.263524 143.33925 
L 336.992323 144.390781 
L 336.950738 145.456239 
L 335.604534 146.536 
L 334.816598 147.630451 
L 334.480289 146.536 
L 334.289695 148.739999 
L 333.829887 147.630451 
L 331.821128 145.456239 
L 331.697655 146.536 
L 331.286331 147.630451 
L 330.99422 146.536 
L 330.901459 145.456239 
L 330.41797 146.536 
L 330.4083 145.456239 
L 329.344327 147.630451 
L 329.107209 149.865065 
L 328.924456 147.630451 
L 328.859296 148.739999 
L 328.799807 151.006091 
L 327.931446 149.865065 
L 327.525167 148.739999 
L 327.473363 151.006091 
L 327.459354 149.865065 
L 327.050435 148.739999 
L 327.022886 147.630451 
L 326.530694 145.456239 
L 326.524133 146.536 
L 324.984618 147.630451 
L 323.863012 145.456239 
L 323.36452 144.390781 
L 323.215459 145.456239 
L 322.617594 146.536 
L 322.607505 147.630451 
L 322.317903 146.536 
L 322.290851 145.456239 
L 322.093566 144.390781 
L 321.670494 143.33925 
L 321.055574 144.390781 
L 320.919659 143.33925 
L 320.377296 146.536 
L 320.099639 148.739999 
L 319.713029 147.630451 
L 319.33571 148.739999 
L 319.16915 147.630451 
L 318.556255 146.536 
L 318.438494 144.390781 
L 317.988225 143.33925 
L 317.308498 142.301288 
L 317.303793 141.276549 
L 316.81986 142.301288 
L 316.465333 144.390781 
L 316.287416 142.301288 
L 316.164466 143.33925 
L 315.792871 144.390781 
L 315.167941 143.33925 
L 314.147748 144.390781 
L 313.712274 143.33925 
L 312.668374 141.276549 
L 312.64932 142.301288 
L 312.541451 141.276549 
L 312.10897 142.301288 
L 311.426706 140.2647 
L 311.314329 139.265421 
L 311.080583 138.278403 
L 310.503196 139.265421 
L 310.008925 141.276549 
L 309.939923 142.301288 
L 309.402369 140.2647 
L 308.622222 142.301288 
L 308.315683 141.276549 
L 307.700397 140.2647 
L 307.682898 139.265421 
L 306.90245 138.278403 
L 306.878991 139.265421 
L 306.38476 138.278403 
L 305.972862 139.265421 
L 305.387307 138.278403 
L 305.084153 137.303349 
L 304.696314 138.278403 
L 304.354777 137.303349 
L 304.03598 138.278403 
L 303.876921 137.303349 
L 303.661824 138.278403 
L 303.512358 137.303349 
L 302.856101 136.339973 
L 302.808505 135.387998 
L 302.142238 134.447158 
L 301.816253 132.597859 
L 300.754698 133.517194 
L 300.636034 134.447158 
L 300.362821 133.517194 
L 300.107812 134.447158 
L 300.09324 133.517194 
L 299.229192 132.597859 
L 299.175401 131.688912 
L 298.879108 132.597859 
L 298.609306 131.688912 
L 298.538604 132.597859 
L 297.738265 129.901262 
L 297.640773 129.022118 
L 297.201339 128.152477 
L 296.565169 129.022118 
L 296.294269 128.152477 
L 296.218091 127.292138 
L 295.865695 128.152477 
L 295.682799 129.022118 
L 295.108234 129.901262 
L 294.8308 129.022118 
L 294.814032 129.901262 
L 294.526796 130.790122 
L 294.50126 129.901262 
L 293.818239 130.790122 
L 293.572012 128.152477 
L 293.174973 127.292138 
L 293.024526 128.152477 
L 292.727462 127.292138 
L 292.104557 128.152477 
L 291.833225 129.022118 
L 291.684647 128.152477 
L 291.154909 127.292138 
L 290.438432 129.022118 
L 290.335477 128.152477 
L 289.996083 127.292138 
L 289.876819 126.440904 
L 289.875499 127.292138 
L 289.479048 128.152477 
L 289.210735 127.292138 
L 289.164171 126.440904 
L 288.724907 125.598582 
L 288.433658 127.292138 
L 288.399327 128.152477 
L 287.791686 129.022118 
L 287.735896 128.152477 
L 286.629476 127.292138 
L 286.194485 126.440904 
L 286.13169 127.292138 
L 285.847107 128.152477 
L 285.804738 129.022118 
L 284.967886 128.152477 
L 284.782297 127.292138 
L 284.771751 126.440904 
L 284.33825 124.76499 
L 284.165665 125.598582 
L 283.648159 124.76499 
L 283.009349 125.598582 
L 282.954408 126.440904 
L 282.577325 127.292138 
L 282.389162 126.440904 
L 281.986164 125.598582 
L 281.888527 126.440904 
L 281.317583 127.292138 
L 280.739909 129.022118 
L 280.523426 128.152477 
L 280.339341 129.022118 
L 279.308968 126.440904 
L 279.129744 127.292138 
L 278.675882 126.440904 
L 278.641315 127.292138 
L 278.361541 128.152477 
L 277.945814 127.292138 
L 277.919297 126.440904 
L 277.453151 127.292138 
L 276.211522 128.152477 
L 276.092715 127.292138 
L 275.854042 128.152477 
L 275.371573 129.022118 
L 274.500389 128.152477 
L 274.4386 129.022118 
L 274.207598 128.152477 
L 274.13525 127.292138 
L 273.89676 128.152477 
L 273.734748 127.292138 
L 273.706728 126.440904 
L 273.635426 127.292138 
L 273.513691 126.440904 
L 273.000053 127.292138 
L 272.660333 126.440904 
L 272.145244 125.598582 
L 272.01593 126.440904 
L 271.482924 124.76499 
L 270.64053 126.440904 
L 270.578742 127.292138 
L 270.53257 126.440904 
L 269.85049 127.292138 
L 269.417342 128.152477 
L 269.26104 129.022118 
L 268.704942 129.901262 
L 268.650616 130.790122 
L 268.48629 129.901262 
L 268.418412 130.790122 
L 267.573339 131.688912 
L 267.567445 132.597859 
L 266.807267 131.688912 
L 265.352501 132.597859 
L 265.189757 131.688912 
L 264.842535 132.597859 
L 264.763718 130.790122 
L 264.234764 131.688912 
L 263.651274 130.790122 
L 263.367631 129.901262 
L 263.018476 131.688912 
L 262.744517 129.901262 
L 262.161236 130.790122 
L 262.139516 131.688912 
L 260.335804 130.790122 
L 260.094007 129.901262 
L 260.037773 129.022118 
L 259.241655 128.152477 
L 258.359193 129.022118 
L 257.739634 129.901262 
L 257.697526 130.790122 
L 257.129353 131.688912 
L 256.779426 132.597859 
L 256.733307 131.688912 
L 256.260221 130.790122 
L 255.762736 133.517194 
L 255.582675 132.597859 
L 254.868812 131.688912 
L 254.693862 130.790122 
L 253.456559 129.901262 
L 253.335047 129.022118 
L 253.025881 128.152477 
L 252.482303 125.598582 
L 252.43553 126.440904 
L 251.644274 127.292138 
L 251.347772 125.598582 
L 251.283265 127.292138 
L 250.993611 128.152477 
L 249.692952 127.292138 
L 249.593068 128.152477 
L 249.036917 129.022118 
L 249.035271 128.152477 
L 248.88455 127.292138 
L 248.74529 129.022118 
L 247.81629 128.152477 
L 247.4764 126.440904 
L 247.040116 127.292138 
L 246.771149 126.440904 
L 245.874743 125.598582 
L 245.521549 124.76499 
L 244.508113 125.598582 
L 244.502349 126.440904 
L 243.87436 127.292138 
L 243.517194 125.598582 
L 243.228428 124.76499 
L 243.064325 125.598582 
L 242.930188 124.76499 
L 242.626877 123.939947 
L 242.421725 124.76499 
L 242.360316 125.598582 
L 241.953762 127.292138 
L 241.293363 128.152477 
L 240.970789 127.292138 
L 240.293244 128.152477 
L 240.114621 129.022118 
L 239.602264 129.901262 
L 239.399752 130.790122 
L 239.336199 132.597859 
L 239.197984 131.688912 
L 238.999079 132.597859 
L 238.328918 131.688912 
L 238.280341 130.790122 
L 237.519823 132.597859 
L 237.278131 133.517194 
L 237.191891 134.447158 
L 236.732841 133.517194 
L 236.618189 132.597859 
L 236.444676 133.517194 
L 235.444518 131.688912 
L 235.410735 132.597859 
L 235.226284 131.688912 
L 235.225382 132.597859 
L 234.579019 133.517194 
L 234.567688 132.597859 
L 234.537787 133.517194 
L 234.049646 131.688912 
L 233.339978 132.597859 
L 233.180985 134.447158 
L 232.7898 135.387998 
L 232.745184 136.339973 
L 232.703678 135.387998 
L 232.408888 137.303349 
L 232.19362 136.339973 
L 232.119599 135.387998 
L 231.882311 138.278403 
L 230.328224 137.303349 
L 229.850982 140.2647 
L 229.662754 139.265421 
L 229.334574 140.2647 
L 229.131291 139.265421 
L 228.416709 140.2647 
L 227.961292 141.276549 
L 227.855069 140.2647 
L 227.598571 139.265421 
L 227.33755 140.2647 
L 227.226662 141.276549 
L 226.912622 140.2647 
L 226.716109 142.301288 
L 226.64725 141.276549 
L 225.911523 143.33925 
L 225.556996 142.301288 
L 224.558928 143.33925 
L 224.145579 141.276549 
L 224.105994 142.301288 
L 223.879396 143.33925 
L 222.960094 144.390781 
L 222.910158 145.456239 
L 222.619537 146.536 
L 222.024521 145.456239 
L 221.89684 146.536 
L 221.552663 145.456239 
L 221.367088 144.390781 
L 221.221228 145.456239 
L 220.927837 146.536 
L 220.838904 147.630451 
L 220.442767 145.456239 
L 219.914897 144.390781 
L 219.698715 140.2647 
L 219.656895 141.276549 
L 219.24322 140.2647 
L 219.149308 138.278403 
L 218.35502 139.265421 
L 218.250392 138.278403 
L 217.352914 139.265421 
L 217.16155 136.339973 
L 216.917257 138.278403 
L 216.436539 139.265421 
L 216.424725 140.2647 
L 216.137201 139.265421 
L 215.96195 141.276549 
L 215.807845 142.301288 
L 215.738986 141.276549 
L 215.079279 145.456239 
L 214.281136 144.390781 
L 213.340505 145.456239 
L 212.961945 146.536 
L 212.850064 145.456239 
L 211.926553 146.536 
L 211.886452 147.630451 
L 211.589656 148.739999 
L 211.52262 147.630451 
L 211.041569 146.536 
L 210.841834 145.456239 
L 210.584015 146.536 
L 209.975793 147.630451 
L 209.484639 145.456239 
L 209.250344 148.739999 
L 208.019334 149.865065 
L 207.953115 148.739999 
L 207.292049 149.865065 
L 206.776516 156.967406 
L 206.384182 155.739276 
L 205.819034 156.967406 
L 205.591305 159.48139 
L 204.92777 160.768472 
L 204.050039 159.48139 
L 203.774342 158.214577 
L 203.476624 159.48139 
L 203.372807 160.768472 
L 203.3244 159.48139 
L 202.838912 160.768472 
L 202.751927 162.076484 
L 202.529159 163.406116 
L 202.142071 162.076484 
L 202.102048 160.768472 
L 201.812028 162.076484 
L 201.692842 164.758097 
L 201.469989 162.076484 
L 201.340537 163.406116 
L 200.918595 164.758097 
L 200.255353 167.532197 
L 199.820781 168.955968 
L 199.770473 167.532197 
L 199.087053 168.955968 
L 198.770772 166.133189 
L 198.483954 167.532197 
L 198.045578 168.955968 
L 197.350867 167.532197 
L 197.140723 168.955968 
L 197.100406 170.405393 
L 196.944235 168.955968 
L 195.018769 170.405393 
L 194.586752 171.881415 
L 194.510032 173.385028 
L 194.317367 174.917283 
L 194.088633 173.385028 
L 193.671964 174.917283 
L 193.664561 176.479292 
L 193.211881 179.697359 
L 192.460531 181.355994 
L 192.231901 183.04955 
L 191.336599 184.779529 
L 190.708303 186.547533 
L 189.988461 184.779529 
L 189.901639 183.04955 
L 188.828126 186.547533 
L 188.811444 188.355271 
L 188.626097 190.204569 
L 188.296473 192.097385 
L 188.21614 198.0587 
L 186.403378 200.148192 
L 183.543658 202.293411 
L 182.398757 204.49741 
L 182.088625 202.293411 
L 180.363351 204.49741 
L 179.394132 206.763502 
L 178.244553 209.095287 
L 177.782863 211.496687 
L 175.194096 206.763502 
L 174.914446 209.095287 
L 174.849789 211.496687 
L 174.111925 209.095287 
L 174.017746 211.496687 
L 173.929003 209.095287 
L 173.6678 206.763502 
L 172.695321 209.095287 
L 172.053975 211.496687 
L 168.975872 209.095287 
L 167.914532 206.763502 
L 167.456684 202.293411 
L 166.765489 206.763502 
L 166.258843 204.49741 
L 165.691473 206.763502 
L 165.558068 209.095287 
L 165.514536 206.763502 
L 165.343911 209.095287 
L 164.095174 211.496687 
L 163.737948 213.971988 
L 162.479219 211.496687 
L 160.340596 213.971988 
L 160.092435 211.496687 
L 159.397561 209.095287 
L 159.35039 211.496687 
L 158.847213 213.971988 
L 158.420652 209.095287 
L 158.294441 211.496687 
L 157.175763 206.763502 
L 156.834304 209.095287 
L 154.92979 211.496687 
L 153.959069 213.971988 
L 153.827128 216.525884 
L 153.055093 219.163528 
L 152.748972 221.890601 
L 152.298073 224.713379 
L 152.010687 227.638827 
L 151.898277 230.674694 
L 151.624942 233.829645 
L 150.905476 230.674694 
L 147.827709 227.638827 
L 145.976724 230.674694 
L 145.380083 227.638827 
L 143.679147 224.713379 
L 143.361483 221.890601 
L 143.225697 227.638827 
L 143.047963 230.674694 
L 139.454055 227.638827 
L 139.417672 224.713379 
L 139.266036 221.890601 
L 133.501222 224.713379 
L 133.078719 221.890601 
L 132.586918 224.713379 
L 132.44448 227.638827 
L 132.050789 230.674694 
L 130.615202 237.113405 
L 130.4833 233.829645 
L 129.111823 237.113405 
L 129.111405 240.53694 
L 128.944836 244.112682 
L 127.555292 247.854796 
L 127.517445 244.112682 
L 126.747292 247.854796 
L 124.47719 251.779523 
L 124.321454 255.905603 
L 120.264227 260.254822 
L 119.597746 264.852698 
L 119.105193 260.254822 
L 118.16868 264.852698 
L 115.952736 269.7294 
L 112.574286 274.920939 
L 110.339355 280.470791 
L 109.315565 274.920939 
L 107.819547 269.7294 
L 105.695898 274.920939 
L 103.073883 280.470791 
L 103.073883 577 
L 103.073883 577 
" clip-path="url(#pbcd294b9e2)" style="fill: none; stroke: #ff7f0e; stroke-width: 1.5; stroke-linecap: square"/>
   </g>
   <g id="patch_3">
    <path d="M 81.316719 511.2 
L 81.316719 10.8 
" style="fill: none; stroke: #000000; stroke-width: 0.8; stroke-linejoin: miter; stroke-linecap: square"/>
   </g>
   <g id="patch_4">
    <path d="M 559.974343 511.2 
L 559.974343 10.8 
" style="fill: none; stroke: #000000; stroke-width: 0.8; stroke-linejoin: miter; stroke-linecap: square"/>
   </g>
   <g id="patch_5">
    <path d="M 81.316719 511.2 
L 559.974343 511.2 
" style="fill: none; stroke: #000000; stroke-width: 0.8; stroke-linejoin: miter; stroke-linecap: square"/>
   </g>
   <g id="patch_6">
    <path d="M 81.316719 10.8 
L 559.974343 10.8 
" style="fill: none; stroke: #000000; stroke-width: 0.8; stroke-linejoin: miter; stroke-linecap: square"/>
   </g>
   <g id="legend_1">
    <g id="patch_7">
     <path d="M 443.493643 75.3516 
L 547.878343 75.3516 
Q 551.334343 75.3516 551.334343 71.8956 
L 551.334343 22.896 
Q 551.334343 19.44 547.878343 19.44 
L 443.493643 19.44 
Q 440.037643 19.44 440.037643 22.896 
L 440.037643 71.8956 
Q 440.037643 75.3516 443.493643 75.3516 
z
" style="fill: #ffffff; opacity: 0.8; stroke: #cccccc; stroke-linejoin: miter"/>
    </g>
    <g id="line2d_33">
     <path d="M 446.949643 33.4341 
L 464.229643 33.4341 
L 481.509643 33.4341 
" style="fill: none; stroke: #1f77b4; stroke-width: 1.5; stroke-linecap: square"/>
    </g>
    <g id="text_12">
     <!-- dim 0 -->
     <g transform="translate(495.333643 39.4821)scale(0.1728 -0.1728)">
      <defs>
       <path id="DejaVuSans-64" d="M 2906 2969 
L 2906 4863 
L 3481 4863 
L 3481 0 
L 2906 0 
L 2906 525 
Q 2725 213 2448 61 
Q 2172 -91 1784 -91 
Q 1150 -91 751 415 
Q 353 922 353 1747 
Q 353 2572 751 3078 
Q 1150 3584 1784 3584 
Q 2172 3584 2448 3432 
Q 2725 3281 2906 2969 
z
M 947 1747 
Q 947 1113 1208 752 
Q 1469 391 1925 391 
Q 2381 391 2643 752 
Q 2906 1113 2906 1747 
Q 2906 2381 2643 2742 
Q 2381 3103 1925 3103 
Q 1469 3103 1208 2742 
Q 947 2381 947 1747 
z
" transform="scale(0.015625)"/>
      </defs>
      <use xlink:href="#DejaVuSans-64"/>
      <use xlink:href="#DejaVuSans-69" x="63.476562"/>
      <use xlink:href="#DejaVuSans-6d" x="91.259766"/>
      <use xlink:href="#DejaVuSans-20" x="188.671875"/>
      <use xlink:href="#DejaVuSans-30" x="220.458984"/>
     </g>
    </g>
    <g id="line2d_34">
     <path d="M 446.949643 58.7979 
L 464.229643 58.7979 
L 481.509643 58.7979 
" style="fill: none; stroke: #ff7f0e; stroke-width: 1.5; stroke-linecap: square"/>
    </g>
    <g id="text_13">
     <!-- dim 1 -->
     <g transform="translate(495.333643 64.8459)scale(0.1728 -0.1728)">
      <use xlink:href="#DejaVuSans-64"/>
      <use xlink:href="#DejaVuSans-69" x="63.476562"/>
      <use xlink:href="#DejaVuSans-6d" x="91.259766"/>
      <use xlink:href="#DejaVuSans-20" x="188.671875"/>
      <use xlink:href="#DejaVuSans-31" x="220.458984"/>
     </g>
    </g>
   </g>
  </g>
 </g>
 <defs>
  <clipPath id="pbcd294b9e2">
   <rect x="81.316719" y="10.8" width="478.657624" height="500.4"/>
  </clipPath>
 </defs>
</svg>
