<?xml version="1.0" encoding="utf-8" standalone="no"?>
<!DOCTYPE svg PUBLIC "-//W3C//DTD SVG 1.1//EN"
  "http://www.w3.org/Graphics/SVG/1.1/DTD/svg11.dtd">
<svg xmlns:xlink="http://www.w3.org/1999/xlink" width="576pt" height="576pt" viewBox="0 0 576 576" xmlns="http://www.w3.org/2000/svg" version="1.1">
 <metadata>
  <rdf:RDF xmlns:dc="http://purl.org/dc/elements/1.1/" xmlns:cc="http://creativecommons.org/ns#" xmlns:rdf="http://www.w3.org/1999/02/22-rdf-syntax-ns#">
   <cc:Work>
    <dc:type rdf:resource="http://purl.org/dc/dcmitype/StillImage"/>
    <dc:date>2023-06-07T23:34:22.331822</dc:date>
    <dc:format>image/svg+xml</dc:format>
    <dc:creator>
     <cc:Agent>
      <dc:title>Matplotlib v3.5.1, https://matplotlib.org/</dc:title>
     </cc:Agent>
    </dc:creator>
   </cc:Work>
  </rdf:RDF>
 </metadata>
 <defs>
  <style type="text/css">*{stroke-linejoin: round; stroke-linecap: butt}</style>
 </defs>
 <g id="figure_1">
  <g id="patch_1">
   <path d="M 0 576 
L 576 576 
L 576 0 
L 0 0 
L 0 576 
z
" style="fill: none"/>
  </g>
  <g id="axes_1">
   <g id="patch_2">
    <path d="M 81.316719 511.2 
L 562.317859 511.2 
L 562.317859 10.8 
L 81.316719 10.8 
z
" style="fill: #ffffff"/>
   </g>
   <g id="matplotlib.axis_1">
    <g id="xtick_1">
     <g id="line2d_1">
      <defs>
       <path id="m6676eb1ca7" d="M 0 0 
L 0 3.5 
" style="stroke: #000000; stroke-width: 0.8"/>
      </defs>
      <g>
       <use xlink:href="#m6676eb1ca7" x="103.180407" y="511.2" style="stroke: #000000; stroke-width: 0.8"/>
      </g>
     </g>
     <g id="text_1">
      <!-- 0.0 -->
      <g transform="translate(87.277282 533.396875)scale(0.2 -0.2)">
       <defs>
        <path id="DejaVuSans-30" d="M 2034 4250 
Q 1547 4250 1301 3770 
Q 1056 3291 1056 2328 
Q 1056 1369 1301 889 
Q 1547 409 2034 409 
Q 2525 409 2770 889 
Q 3016 1369 3016 2328 
Q 3016 3291 2770 3770 
Q 2525 4250 2034 4250 
z
M 2034 4750 
Q 2819 4750 3233 4129 
Q 3647 3509 3647 2328 
Q 3647 1150 3233 529 
Q 2819 -91 2034 -91 
Q 1250 -91 836 529 
Q 422 1150 422 2328 
Q 422 3509 836 4129 
Q 1250 4750 2034 4750 
z
" transform="scale(0.015625)"/>
        <path id="DejaVuSans-2e" d="M 684 794 
L 1344 794 
L 1344 0 
L 684 0 
L 684 794 
z
" transform="scale(0.015625)"/>
       </defs>
       <use xlink:href="#DejaVuSans-30"/>
       <use xlink:href="#DejaVuSans-2e" x="63.623047"/>
       <use xlink:href="#DejaVuSans-30" x="95.410156"/>
      </g>
     </g>
    </g>
    <g id="xtick_2">
     <g id="line2d_2">
      <g>
       <use xlink:href="#m6676eb1ca7" x="190.807141" y="511.2" style="stroke: #000000; stroke-width: 0.8"/>
      </g>
     </g>
     <g id="text_2">
      <!-- 0.2 -->
      <g transform="translate(174.904016 533.396875)scale(0.2 -0.2)">
       <defs>
        <path id="DejaVuSans-32" d="M 1228 531 
L 3431 531 
L 3431 0 
L 469 0 
L 469 531 
Q 828 903 1448 1529 
Q 2069 2156 2228 2338 
Q 2531 2678 2651 2914 
Q 2772 3150 2772 3378 
Q 2772 3750 2511 3984 
Q 2250 4219 1831 4219 
Q 1534 4219 1204 4116 
Q 875 4013 500 3803 
L 500 4441 
Q 881 4594 1212 4672 
Q 1544 4750 1819 4750 
Q 2544 4750 2975 4387 
Q 3406 4025 3406 3419 
Q 3406 3131 3298 2873 
Q 3191 2616 2906 2266 
Q 2828 2175 2409 1742 
Q 1991 1309 1228 531 
z
" transform="scale(0.015625)"/>
       </defs>
       <use xlink:href="#DejaVuSans-30"/>
       <use xlink:href="#DejaVuSans-2e" x="63.623047"/>
       <use xlink:href="#DejaVuSans-32" x="95.410156"/>
      </g>
     </g>
    </g>
    <g id="xtick_3">
     <g id="line2d_3">
      <g>
       <use xlink:href="#m6676eb1ca7" x="278.433876" y="511.2" style="stroke: #000000; stroke-width: 0.8"/>
      </g>
     </g>
     <g id="text_3">
      <!-- 0.4 -->
      <g transform="translate(262.530751 533.396875)scale(0.2 -0.2)">
       <defs>
        <path id="DejaVuSans-34" d="M 2419 4116 
L 825 1625 
L 2419 1625 
L 2419 4116 
z
M 2253 4666 
L 3047 4666 
L 3047 1625 
L 3713 1625 
L 3713 1100 
L 3047 1100 
L 3047 0 
L 2419 0 
L 2419 1100 
L 313 1100 
L 313 1709 
L 2253 4666 
z
" transform="scale(0.015625)"/>
       </defs>
       <use xlink:href="#DejaVuSans-30"/>
       <use xlink:href="#DejaVuSans-2e" x="63.623047"/>
       <use xlink:href="#DejaVuSans-34" x="95.410156"/>
      </g>
     </g>
    </g>
    <g id="xtick_4">
     <g id="line2d_4">
      <g>
       <use xlink:href="#m6676eb1ca7" x="366.06061" y="511.2" style="stroke: #000000; stroke-width: 0.8"/>
      </g>
     </g>
     <g id="text_4">
      <!-- 0.6 -->
      <g transform="translate(350.157485 533.396875)scale(0.2 -0.2)">
       <defs>
        <path id="DejaVuSans-36" d="M 2113 2584 
Q 1688 2584 1439 2293 
Q 1191 2003 1191 1497 
Q 1191 994 1439 701 
Q 1688 409 2113 409 
Q 2538 409 2786 701 
Q 3034 994 3034 1497 
Q 3034 2003 2786 2293 
Q 2538 2584 2113 2584 
z
M 3366 4563 
L 3366 3988 
Q 3128 4100 2886 4159 
Q 2644 4219 2406 4219 
Q 1781 4219 1451 3797 
Q 1122 3375 1075 2522 
Q 1259 2794 1537 2939 
Q 1816 3084 2150 3084 
Q 2853 3084 3261 2657 
Q 3669 2231 3669 1497 
Q 3669 778 3244 343 
Q 2819 -91 2113 -91 
Q 1303 -91 875 529 
Q 447 1150 447 2328 
Q 447 3434 972 4092 
Q 1497 4750 2381 4750 
Q 2619 4750 2861 4703 
Q 3103 4656 3366 4563 
z
" transform="scale(0.015625)"/>
       </defs>
       <use xlink:href="#DejaVuSans-30"/>
       <use xlink:href="#DejaVuSans-2e" x="63.623047"/>
       <use xlink:href="#DejaVuSans-36" x="95.410156"/>
      </g>
     </g>
    </g>
    <g id="xtick_5">
     <g id="line2d_5">
      <g>
       <use xlink:href="#m6676eb1ca7" x="453.687345" y="511.2" style="stroke: #000000; stroke-width: 0.8"/>
      </g>
     </g>
     <g id="text_5">
      <!-- 0.8 -->
      <g transform="translate(437.78422 533.396875)scale(0.2 -0.2)">
       <defs>
        <path id="DejaVuSans-38" d="M 2034 2216 
Q 1584 2216 1326 1975 
Q 1069 1734 1069 1313 
Q 1069 891 1326 650 
Q 1584 409 2034 409 
Q 2484 409 2743 651 
Q 3003 894 3003 1313 
Q 3003 1734 2745 1975 
Q 2488 2216 2034 2216 
z
M 1403 2484 
Q 997 2584 770 2862 
Q 544 3141 544 3541 
Q 544 4100 942 4425 
Q 1341 4750 2034 4750 
Q 2731 4750 3128 4425 
Q 3525 4100 3525 3541 
Q 3525 3141 3298 2862 
Q 3072 2584 2669 2484 
Q 3125 2378 3379 2068 
Q 3634 1759 3634 1313 
Q 3634 634 3220 271 
Q 2806 -91 2034 -91 
Q 1263 -91 848 271 
Q 434 634 434 1313 
Q 434 1759 690 2068 
Q 947 2378 1403 2484 
z
M 1172 3481 
Q 1172 3119 1398 2916 
Q 1625 2713 2034 2713 
Q 2441 2713 2670 2916 
Q 2900 3119 2900 3481 
Q 2900 3844 2670 4047 
Q 2441 4250 2034 4250 
Q 1625 4250 1398 4047 
Q 1172 3844 1172 3481 
z
" transform="scale(0.015625)"/>
       </defs>
       <use xlink:href="#DejaVuSans-30"/>
       <use xlink:href="#DejaVuSans-2e" x="63.623047"/>
       <use xlink:href="#DejaVuSans-38" x="95.410156"/>
      </g>
     </g>
    </g>
    <g id="xtick_6">
     <g id="line2d_6">
      <g>
       <use xlink:href="#m6676eb1ca7" x="541.314079" y="511.2" style="stroke: #000000; stroke-width: 0.8"/>
      </g>
     </g>
     <g id="text_6">
      <!-- 1.0 -->
      <g transform="translate(525.410954 533.396875)scale(0.2 -0.2)">
       <defs>
        <path id="DejaVuSans-31" d="M 794 531 
L 1825 531 
L 1825 4091 
L 703 3866 
L 703 4441 
L 1819 4666 
L 2450 4666 
L 2450 531 
L 3481 531 
L 3481 0 
L 794 0 
L 794 531 
z
" transform="scale(0.015625)"/>
       </defs>
       <use xlink:href="#DejaVuSans-31"/>
       <use xlink:href="#DejaVuSans-2e" x="63.623047"/>
       <use xlink:href="#DejaVuSans-30" x="95.410156"/>
      </g>
     </g>
    </g>
    <g id="text_7">
     <!-- Intensity level -->
     <g transform="translate(233.71182 560.552344)scale(0.25 -0.25)">
      <defs>
       <path id="DejaVuSans-49" d="M 628 4666 
L 1259 4666 
L 1259 0 
L 628 0 
L 628 4666 
z
" transform="scale(0.015625)"/>
       <path id="DejaVuSans-6e" d="M 3513 2113 
L 3513 0 
L 2938 0 
L 2938 2094 
Q 2938 2591 2744 2837 
Q 2550 3084 2163 3084 
Q 1697 3084 1428 2787 
Q 1159 2491 1159 1978 
L 1159 0 
L 581 0 
L 581 3500 
L 1159 3500 
L 1159 2956 
Q 1366 3272 1645 3428 
Q 1925 3584 2291 3584 
Q 2894 3584 3203 3211 
Q 3513 2838 3513 2113 
z
" transform="scale(0.015625)"/>
       <path id="DejaVuSans-74" d="M 1172 4494 
L 1172 3500 
L 2356 3500 
L 2356 3053 
L 1172 3053 
L 1172 1153 
Q 1172 725 1289 603 
Q 1406 481 1766 481 
L 2356 481 
L 2356 0 
L 1766 0 
Q 1100 0 847 248 
Q 594 497 594 1153 
L 594 3053 
L 172 3053 
L 172 3500 
L 594 3500 
L 594 4494 
L 1172 4494 
z
" transform="scale(0.015625)"/>
       <path id="DejaVuSans-65" d="M 3597 1894 
L 3597 1613 
L 953 1613 
Q 991 1019 1311 708 
Q 1631 397 2203 397 
Q 2534 397 2845 478 
Q 3156 559 3463 722 
L 3463 178 
Q 3153 47 2828 -22 
Q 2503 -91 2169 -91 
Q 1331 -91 842 396 
Q 353 884 353 1716 
Q 353 2575 817 3079 
Q 1281 3584 2069 3584 
Q 2775 3584 3186 3129 
Q 3597 2675 3597 1894 
z
M 3022 2063 
Q 3016 2534 2758 2815 
Q 2500 3097 2075 3097 
Q 1594 3097 1305 2825 
Q 1016 2553 972 2059 
L 3022 2063 
z
" transform="scale(0.015625)"/>
       <path id="DejaVuSans-73" d="M 2834 3397 
L 2834 2853 
Q 2591 2978 2328 3040 
Q 2066 3103 1784 3103 
Q 1356 3103 1142 2972 
Q 928 2841 928 2578 
Q 928 2378 1081 2264 
Q 1234 2150 1697 2047 
L 1894 2003 
Q 2506 1872 2764 1633 
Q 3022 1394 3022 966 
Q 3022 478 2636 193 
Q 2250 -91 1575 -91 
Q 1294 -91 989 -36 
Q 684 19 347 128 
L 347 722 
Q 666 556 975 473 
Q 1284 391 1588 391 
Q 1994 391 2212 530 
Q 2431 669 2431 922 
Q 2431 1156 2273 1281 
Q 2116 1406 1581 1522 
L 1381 1569 
Q 847 1681 609 1914 
Q 372 2147 372 2553 
Q 372 3047 722 3315 
Q 1072 3584 1716 3584 
Q 2034 3584 2315 3537 
Q 2597 3491 2834 3397 
z
" transform="scale(0.015625)"/>
       <path id="DejaVuSans-69" d="M 603 3500 
L 1178 3500 
L 1178 0 
L 603 0 
L 603 3500 
z
M 603 4863 
L 1178 4863 
L 1178 4134 
L 603 4134 
L 603 4863 
z
" transform="scale(0.015625)"/>
       <path id="DejaVuSans-79" d="M 2059 -325 
Q 1816 -950 1584 -1140 
Q 1353 -1331 966 -1331 
L 506 -1331 
L 506 -850 
L 844 -850 
Q 1081 -850 1212 -737 
Q 1344 -625 1503 -206 
L 1606 56 
L 191 3500 
L 800 3500 
L 1894 763 
L 2988 3500 
L 3597 3500 
L 2059 -325 
z
" transform="scale(0.015625)"/>
       <path id="DejaVuSans-20" transform="scale(0.015625)"/>
       <path id="DejaVuSans-6c" d="M 603 4863 
L 1178 4863 
L 1178 0 
L 603 0 
L 603 4863 
z
" transform="scale(0.015625)"/>
       <path id="DejaVuSans-76" d="M 191 3500 
L 800 3500 
L 1894 563 
L 2988 3500 
L 3597 3500 
L 2284 0 
L 1503 0 
L 191 3500 
z
" transform="scale(0.015625)"/>
      </defs>
      <use xlink:href="#DejaVuSans-49"/>
      <use xlink:href="#DejaVuSans-6e" x="29.492188"/>
      <use xlink:href="#DejaVuSans-74" x="92.871094"/>
      <use xlink:href="#DejaVuSans-65" x="132.080078"/>
      <use xlink:href="#DejaVuSans-6e" x="193.603516"/>
      <use xlink:href="#DejaVuSans-73" x="256.982422"/>
      <use xlink:href="#DejaVuSans-69" x="309.082031"/>
      <use xlink:href="#DejaVuSans-74" x="336.865234"/>
      <use xlink:href="#DejaVuSans-79" x="376.074219"/>
      <use xlink:href="#DejaVuSans-20" x="435.253906"/>
      <use xlink:href="#DejaVuSans-6c" x="467.041016"/>
      <use xlink:href="#DejaVuSans-65" x="494.824219"/>
      <use xlink:href="#DejaVuSans-76" x="556.347656"/>
      <use xlink:href="#DejaVuSans-65" x="615.527344"/>
      <use xlink:href="#DejaVuSans-6c" x="677.050781"/>
     </g>
    </g>
   </g>
   <g id="matplotlib.axis_2">
    <g id="ytick_1">
     <g id="line2d_7">
      <defs>
       <path id="m0b9577500d" d="M 0 0 
L -3.5 0 
" style="stroke: #000000; stroke-width: 0.8"/>
      </defs>
      <g>
       <use xlink:href="#m0b9577500d" x="81.316719" y="490.372868" style="stroke: #000000; stroke-width: 0.8"/>
      </g>
     </g>
     <g id="text_8">
      <!-- $\mathdefault{10^{0}}$ -->
      <g transform="translate(39.116719 497.971306)scale(0.2 -0.2)">
       <use xlink:href="#DejaVuSans-31" transform="translate(0 0.765625)"/>
       <use xlink:href="#DejaVuSans-30" transform="translate(63.623047 0.765625)"/>
       <use xlink:href="#DejaVuSans-30" transform="translate(128.203125 39.046875)scale(0.7)"/>
      </g>
     </g>
    </g>
    <g id="ytick_2">
     <g id="line2d_8">
      <g>
       <use xlink:href="#m0b9577500d" x="81.316719" y="306.067791" style="stroke: #000000; stroke-width: 0.8"/>
      </g>
     </g>
     <g id="text_9">
      <!-- $\mathdefault{10^{1}}$ -->
      <g transform="translate(39.116719 313.666228)scale(0.2 -0.2)">
       <use xlink:href="#DejaVuSans-31" transform="translate(0 0.684375)"/>
       <use xlink:href="#DejaVuSans-30" transform="translate(63.623047 0.684375)"/>
       <use xlink:href="#DejaVuSans-31" transform="translate(128.203125 38.965625)scale(0.7)"/>
      </g>
     </g>
    </g>
    <g id="ytick_3">
     <g id="line2d_9">
      <g>
       <use xlink:href="#m0b9577500d" x="81.316719" y="121.762713" style="stroke: #000000; stroke-width: 0.8"/>
      </g>
     </g>
     <g id="text_10">
      <!-- $\mathdefault{10^{2}}$ -->
      <g transform="translate(39.116719 129.361151)scale(0.2 -0.2)">
       <use xlink:href="#DejaVuSans-31" transform="translate(0 0.765625)"/>
       <use xlink:href="#DejaVuSans-30" transform="translate(63.623047 0.765625)"/>
       <use xlink:href="#DejaVuSans-32" transform="translate(128.203125 39.046875)scale(0.7)"/>
      </g>
     </g>
    </g>
    <g id="ytick_4">
     <g id="line2d_10">
      <defs>
       <path id="mf1768037fd" d="M 0 0 
L -2 0 
" style="stroke: #000000; stroke-width: 0.6"/>
      </defs>
      <g>
       <use xlink:href="#mf1768037fd" x="81.316719" y="508.233876" style="stroke: #000000; stroke-width: 0.6"/>
      </g>
     </g>
    </g>
    <g id="ytick_5">
     <g id="line2d_11">
      <g>
       <use xlink:href="#mf1768037fd" x="81.316719" y="498.806206" style="stroke: #000000; stroke-width: 0.6"/>
      </g>
     </g>
    </g>
    <g id="ytick_6">
     <g id="line2d_12">
      <g>
       <use xlink:href="#mf1768037fd" x="81.316719" y="434.891512" style="stroke: #000000; stroke-width: 0.6"/>
      </g>
     </g>
    </g>
    <g id="ytick_7">
     <g id="line2d_13">
      <g>
       <use xlink:href="#mf1768037fd" x="81.316719" y="402.436999" style="stroke: #000000; stroke-width: 0.6"/>
      </g>
     </g>
    </g>
    <g id="ytick_8">
     <g id="line2d_14">
      <g>
       <use xlink:href="#mf1768037fd" x="81.316719" y="379.410155" style="stroke: #000000; stroke-width: 0.6"/>
      </g>
     </g>
    </g>
    <g id="ytick_9">
     <g id="line2d_15">
      <g>
       <use xlink:href="#mf1768037fd" x="81.316719" y="361.549148" style="stroke: #000000; stroke-width: 0.6"/>
      </g>
     </g>
    </g>
    <g id="ytick_10">
     <g id="line2d_16">
      <g>
       <use xlink:href="#mf1768037fd" x="81.316719" y="346.955642" style="stroke: #000000; stroke-width: 0.6"/>
      </g>
     </g>
    </g>
    <g id="ytick_11">
     <g id="line2d_17">
      <g>
       <use xlink:href="#mf1768037fd" x="81.316719" y="334.617009" style="stroke: #000000; stroke-width: 0.6"/>
      </g>
     </g>
    </g>
    <g id="ytick_12">
     <g id="line2d_18">
      <g>
       <use xlink:href="#mf1768037fd" x="81.316719" y="323.928798" style="stroke: #000000; stroke-width: 0.6"/>
      </g>
     </g>
    </g>
    <g id="ytick_13">
     <g id="line2d_19">
      <g>
       <use xlink:href="#mf1768037fd" x="81.316719" y="314.501129" style="stroke: #000000; stroke-width: 0.6"/>
      </g>
     </g>
    </g>
    <g id="ytick_14">
     <g id="line2d_20">
      <g>
       <use xlink:href="#mf1768037fd" x="81.316719" y="250.586434" style="stroke: #000000; stroke-width: 0.6"/>
      </g>
     </g>
    </g>
    <g id="ytick_15">
     <g id="line2d_21">
      <g>
       <use xlink:href="#mf1768037fd" x="81.316719" y="218.131921" style="stroke: #000000; stroke-width: 0.6"/>
      </g>
     </g>
    </g>
    <g id="ytick_16">
     <g id="line2d_22">
      <g>
       <use xlink:href="#mf1768037fd" x="81.316719" y="195.105078" style="stroke: #000000; stroke-width: 0.6"/>
      </g>
     </g>
    </g>
    <g id="ytick_17">
     <g id="line2d_23">
      <g>
       <use xlink:href="#mf1768037fd" x="81.316719" y="177.24407" style="stroke: #000000; stroke-width: 0.6"/>
      </g>
     </g>
    </g>
    <g id="ytick_18">
     <g id="line2d_24">
      <g>
       <use xlink:href="#mf1768037fd" x="81.316719" y="162.650564" style="stroke: #000000; stroke-width: 0.6"/>
      </g>
     </g>
    </g>
    <g id="ytick_19">
     <g id="line2d_25">
      <g>
       <use xlink:href="#mf1768037fd" x="81.316719" y="150.311931" style="stroke: #000000; stroke-width: 0.6"/>
      </g>
     </g>
    </g>
    <g id="ytick_20">
     <g id="line2d_26">
      <g>
       <use xlink:href="#mf1768037fd" x="81.316719" y="139.623721" style="stroke: #000000; stroke-width: 0.6"/>
      </g>
     </g>
    </g>
    <g id="ytick_21">
     <g id="line2d_27">
      <g>
       <use xlink:href="#mf1768037fd" x="81.316719" y="130.196051" style="stroke: #000000; stroke-width: 0.6"/>
      </g>
     </g>
    </g>
    <g id="ytick_22">
     <g id="line2d_28">
      <g>
       <use xlink:href="#mf1768037fd" x="81.316719" y="66.281357" style="stroke: #000000; stroke-width: 0.6"/>
      </g>
     </g>
    </g>
    <g id="ytick_23">
     <g id="line2d_29">
      <g>
       <use xlink:href="#mf1768037fd" x="81.316719" y="33.826844" style="stroke: #000000; stroke-width: 0.6"/>
      </g>
     </g>
    </g>
    <g id="ytick_24">
     <g id="line2d_30">
      <g>
       <use xlink:href="#mf1768037fd" x="81.316719" y="10.8" style="stroke: #000000; stroke-width: 0.6"/>
      </g>
     </g>
    </g>
    <g id="text_11">
     <!-- Betti number -->
     <g transform="translate(29.9175 343.298828)rotate(-90)scale(0.25 -0.25)">
      <defs>
       <path id="DejaVuSans-42" d="M 1259 2228 
L 1259 519 
L 2272 519 
Q 2781 519 3026 730 
Q 3272 941 3272 1375 
Q 3272 1813 3026 2020 
Q 2781 2228 2272 2228 
L 1259 2228 
z
M 1259 4147 
L 1259 2741 
L 2194 2741 
Q 2656 2741 2882 2914 
Q 3109 3088 3109 3444 
Q 3109 3797 2882 3972 
Q 2656 4147 2194 4147 
L 1259 4147 
z
M 628 4666 
L 2241 4666 
Q 2963 4666 3353 4366 
Q 3744 4066 3744 3513 
Q 3744 3084 3544 2831 
Q 3344 2578 2956 2516 
Q 3422 2416 3680 2098 
Q 3938 1781 3938 1306 
Q 3938 681 3513 340 
Q 3088 0 2303 0 
L 628 0 
L 628 4666 
z
" transform="scale(0.015625)"/>
       <path id="DejaVuSans-75" d="M 544 1381 
L 544 3500 
L 1119 3500 
L 1119 1403 
Q 1119 906 1312 657 
Q 1506 409 1894 409 
Q 2359 409 2629 706 
Q 2900 1003 2900 1516 
L 2900 3500 
L 3475 3500 
L 3475 0 
L 2900 0 
L 2900 538 
Q 2691 219 2414 64 
Q 2138 -91 1772 -91 
Q 1169 -91 856 284 
Q 544 659 544 1381 
z
M 1991 3584 
L 1991 3584 
z
" transform="scale(0.015625)"/>
       <path id="DejaVuSans-6d" d="M 3328 2828 
Q 3544 3216 3844 3400 
Q 4144 3584 4550 3584 
Q 5097 3584 5394 3201 
Q 5691 2819 5691 2113 
L 5691 0 
L 5113 0 
L 5113 2094 
Q 5113 2597 4934 2840 
Q 4756 3084 4391 3084 
Q 3944 3084 3684 2787 
Q 3425 2491 3425 1978 
L 3425 0 
L 2847 0 
L 2847 2094 
Q 2847 2600 2669 2842 
Q 2491 3084 2119 3084 
Q 1678 3084 1418 2786 
Q 1159 2488 1159 1978 
L 1159 0 
L 581 0 
L 581 3500 
L 1159 3500 
L 1159 2956 
Q 1356 3278 1631 3431 
Q 1906 3584 2284 3584 
Q 2666 3584 2933 3390 
Q 3200 3197 3328 2828 
z
" transform="scale(0.015625)"/>
       <path id="DejaVuSans-62" d="M 3116 1747 
Q 3116 2381 2855 2742 
Q 2594 3103 2138 3103 
Q 1681 3103 1420 2742 
Q 1159 2381 1159 1747 
Q 1159 1113 1420 752 
Q 1681 391 2138 391 
Q 2594 391 2855 752 
Q 3116 1113 3116 1747 
z
M 1159 2969 
Q 1341 3281 1617 3432 
Q 1894 3584 2278 3584 
Q 2916 3584 3314 3078 
Q 3713 2572 3713 1747 
Q 3713 922 3314 415 
Q 2916 -91 2278 -91 
Q 1894 -91 1617 61 
Q 1341 213 1159 525 
L 1159 0 
L 581 0 
L 581 4863 
L 1159 4863 
L 1159 2969 
z
" transform="scale(0.015625)"/>
       <path id="DejaVuSans-72" d="M 2631 2963 
Q 2534 3019 2420 3045 
Q 2306 3072 2169 3072 
Q 1681 3072 1420 2755 
Q 1159 2438 1159 1844 
L 1159 0 
L 581 0 
L 581 3500 
L 1159 3500 
L 1159 2956 
Q 1341 3275 1631 3429 
Q 1922 3584 2338 3584 
Q 2397 3584 2469 3576 
Q 2541 3569 2628 3553 
L 2631 2963 
z
" transform="scale(0.015625)"/>
      </defs>
      <use xlink:href="#DejaVuSans-42"/>
      <use xlink:href="#DejaVuSans-65" x="68.603516"/>
      <use xlink:href="#DejaVuSans-74" x="130.126953"/>
      <use xlink:href="#DejaVuSans-74" x="169.335938"/>
      <use xlink:href="#DejaVuSans-69" x="208.544922"/>
      <use xlink:href="#DejaVuSans-20" x="236.328125"/>
      <use xlink:href="#DejaVuSans-6e" x="268.115234"/>
      <use xlink:href="#DejaVuSans-75" x="331.494141"/>
      <use xlink:href="#DejaVuSans-6d" x="394.873047"/>
      <use xlink:href="#DejaVuSans-62" x="492.285156"/>
      <use xlink:href="#DejaVuSans-65" x="555.761719"/>
      <use xlink:href="#DejaVuSans-72" x="617.285156"/>
     </g>
    </g>
   </g>
   <g id="line2d_31">
    <path d="M 540.454171 490.372868 
L 536.819278 434.891512 
L 536.423038 402.436999 
L 533.73431 361.549148 
L 533.233271 346.955642 
L 529.798757 334.617009 
L 528.763018 323.928798 
L 527.984536 334.617009 
L 525.652719 323.928798 
L 524.175509 314.501129 
L 523.986177 306.067791 
L 523.61297 298.438909 
L 523.54925 291.474285 
L 522.900767 285.067452 
L 521.357513 291.474285 
L 520.651134 298.438909 
L 520.586656 291.474285 
L 519.951074 285.067452 
L 517.052383 279.135652 
L 516.655308 273.613278 
L 516.624257 268.447442 
L 515.435512 254.692087 
L 514.133924 250.586434 
L 512.371932 259.019772 
L 512.148729 254.692087 
L 511.695428 250.586434 
L 511.450079 246.681139 
L 510.846384 250.586434 
L 510.710822 246.681139 
L 508.873149 250.586434 
L 508.758792 246.681139 
L 508.36062 242.957552 
L 508.241719 246.681139 
L 507.731436 250.586434 
L 506.66671 246.681139 
L 505.994332 239.399514 
L 505.430095 235.992929 
L 505.385543 239.399514 
L 503.414268 235.992929 
L 503.205819 232.725427 
L 503.079711 223.654295 
L 502.674618 218.131921 
L 501.311687 215.507336 
L 501.040589 212.966085 
L 501.022622 215.507336 
L 500.718228 210.503039 
L 500.310785 208.113528 
L 499.547579 210.503039 
L 497.295126 208.113528 
L 497.065942 205.793288 
L 496.133722 203.538415 
L 494.858014 201.345328 
L 494.025056 199.21073 
L 493.877116 197.131583 
L 493.161858 201.345328 
L 493.151229 203.538415 
L 492.984486 205.793288 
L 492.939229 208.113528 
L 492.926433 205.793288 
L 492.263534 210.503039 
L 492.064331 208.113528 
L 491.842486 210.503039 
L 490.288185 205.793288 
L 490.237966 201.345328 
L 489.940884 203.538415 
L 489.479331 201.345328 
L 489.104114 197.131583 
L 489.031201 199.21073 
L 488.493784 197.131583 
L 487.458463 195.105078 
L 487.042768 197.131583 
L 486.916947 199.21073 
L 486.347696 195.105078 
L 486.240182 193.128615 
L 485.892672 191.199782 
L 485.186319 189.316338 
L 485.155059 187.476195 
L 484.512766 189.316338 
L 484.457846 193.128615 
L 484.068501 191.199782 
L 483.661449 193.128615 
L 483.413098 189.316338 
L 482.990952 187.476195 
L 482.598942 183.918157 
L 482.227773 182.196743 
L 482.084037 183.918157 
L 481.260324 185.677408 
L 480.726563 182.196743 
L 480.5289 180.511572 
L 479.529644 182.196743 
L 478.814882 180.511572 
L 478.728677 177.24407 
L 478.501582 175.659015 
L 478.332358 177.24407 
L 478.217741 174.104739 
L 477.769663 172.580071 
L 477.541524 169.615188 
L 477.307457 168.172939 
L 477.211772 166.756217 
L 476.970602 165.364135 
L 476.324574 163.995851 
L 476.084475 165.364135 
L 476.062094 163.995851 
L 475.491355 165.364135 
L 475.379636 166.756217 
L 475.187483 165.364135 
L 474.612435 166.756217 
L 474.52469 162.650564 
L 474.006781 163.995851 
L 473.425962 161.327515 
L 473.355347 162.650564 
L 473.28643 161.327515 
L 473.063358 160.025979 
L 472.851802 161.327515 
L 472.825321 162.650564 
L 472.46055 161.327515 
L 472.168012 158.745269 
L 471.910624 162.650564 
L 471.794126 161.327515 
L 471.606073 163.995851 
L 471.462781 162.650564 
L 471.453432 163.995851 
L 471.169303 165.364135 
L 471.167005 163.995851 
L 470.594516 161.327515 
L 469.797963 162.650564 
L 469.580348 165.364135 
L 469.327896 161.327515 
L 469.253234 162.650564 
L 468.860389 161.327515 
L 468.70767 158.745269 
L 468.669229 160.025979 
L 468.456707 161.327515 
L 468.399724 162.650564 
L 467.719146 163.995851 
L 467.68961 165.364135 
L 467.632315 163.995851 
L 467.03802 165.364135 
L 466.789538 163.995851 
L 466.669906 165.364135 
L 466.399696 163.995851 
L 466.365277 162.650564 
L 465.786024 161.327515 
L 465.504768 160.025979 
L 465.371687 158.745269 
L 465.361528 157.484728 
L 465.337189 158.745269 
L 464.532096 157.484728 
L 464.349109 156.243732 
L 464.237965 157.484728 
L 463.998597 158.745269 
L 463.595253 156.243732 
L 463.096017 157.484728 
L 463.035483 156.243732 
L 462.943141 158.745269 
L 462.459077 156.243732 
L 462.349812 153.81801 
L 462.229528 155.021682 
L 460.438157 156.243732 
L 459.828924 155.021682 
L 459.637085 153.81801 
L 459.327102 152.632171 
L 459.137352 150.311931 
L 458.509265 149.176555 
L 458.437188 150.311931 
L 458.10809 149.176555 
L 457.70694 145.863971 
L 457.116354 146.953004 
L 456.596565 145.863971 
L 456.272454 144.789557 
L 456.257412 143.729373 
L 455.858978 145.863971 
L 455.504235 146.953004 
L 455.352926 144.789557 
L 455.300435 145.863971 
L 454.750953 143.729373 
L 454.713635 142.683049 
L 454.466772 144.789557 
L 454.408406 141.650226 
L 453.80894 140.63056 
L 453.444769 142.683049 
L 453.422833 141.650226 
L 453.066575 140.63056 
L 453.005048 141.650226 
L 452.520149 140.63056 
L 452.480036 139.623721 
L 452.302926 140.63056 
L 452.033317 138.629389 
L 451.907522 139.623721 
L 451.844611 141.650226 
L 451.738402 142.683049 
L 451.70098 141.650226 
L 451.362584 143.729373 
L 451.242822 142.683049 
L 451.097023 146.953004 
L 451.09496 145.863971 
L 450.695011 142.683049 
L 450.457706 141.650226 
L 450.29065 142.683049 
L 450.172846 141.650226 
L 450.10923 142.683049 
L 449.515536 141.650226 
L 449.505978 142.683049 
L 449.361067 143.729373 
L 449.165206 142.683049 
L 449.126191 140.63056 
L 448.543282 141.650226 
L 448.223742 140.63056 
L 447.461529 142.683049 
L 447.271753 143.729373 
L 446.835635 144.789557 
L 446.147615 142.683049 
L 446.053053 141.650226 
L 445.668147 140.63056 
L 445.454006 138.629389 
L 445.286453 137.647258 
L 445.183273 134.771164 
L 444.923039 133.834981 
L 444.788809 131.090392 
L 444.748279 131.994839 
L 444.633583 133.834981 
L 444.316706 134.771164 
L 444.299627 135.718425 
L 444.153593 134.771164 
L 443.992308 135.718425 
L 443.82486 134.771164 
L 443.824599 133.834981 
L 443.529867 134.771164 
L 443.497694 135.718425 
L 443.283918 134.771164 
L 443.229025 133.834981 
L 442.794422 131.994839 
L 442.717906 132.909622 
L 442.20804 131.994839 
L 442.198456 131.090392 
L 441.966426 130.196051 
L 441.889231 131.090392 
L 441.80535 130.196051 
L 441.65438 131.090392 
L 441.574626 129.311593 
L 441.427599 128.436801 
L 441.390203 129.311593 
L 441.207896 128.436801 
L 441.195439 129.311593 
L 440.982629 130.196051 
L 440.862606 129.311593 
L 440.360522 128.436801 
L 440.312341 127.571466 
L 440.218275 128.436801 
L 439.969062 127.571466 
L 439.954725 128.436801 
L 439.909102 127.571466 
L 439.810153 125.868366 
L 439.325906 126.715386 
L 439.269498 128.436801 
L 438.888222 127.571466 
L 438.741352 129.311593 
L 438.367597 128.436801 
L 438.198086 129.311593 
L 437.946731 127.571466 
L 437.532864 130.196051 
L 437.473374 129.311593 
L 437.27485 130.196051 
L 437.024957 128.436801 
L 437.023521 129.311593 
L 436.949459 128.436801 
L 436.790577 127.571466 
L 436.220177 126.715386 
L 436.08062 125.868366 
L 436.055915 125.030215 
L 436.010632 125.868366 
L 435.848929 125.030215 
L 435.81814 124.20075 
L 435.526725 125.030215 
L 435.330342 126.715386 
L 435.237164 125.030215 
L 434.909528 126.715386 
L 434.652924 125.868366 
L 434.577243 126.715386 
L 434.536504 125.868366 
L 434.276609 127.571466 
L 433.876191 126.715386 
L 433.821272 125.868366 
L 433.734388 127.571466 
L 433.636118 129.311593 
L 433.372071 128.436801 
L 433.319685 126.715386 
L 433.086218 125.868366 
L 433.084051 126.715386 
L 433.001397 125.868366 
L 432.514226 125.030215 
L 432.425644 125.868366 
L 432.165515 125.030215 
L 432.092681 125.868366 
L 432.048625 125.030215 
L 431.732166 123.379792 
L 431.63212 124.20075 
L 431.0425 125.868366 
L 430.913597 125.030215 
L 430.63947 124.20075 
L 430.622992 125.030215 
L 430.413264 124.20075 
L 430.398169 123.379792 
L 430.060636 122.567169 
L 429.513609 123.379792 
L 429.466837 122.567169 
L 429.466341 123.379792 
L 429.380606 124.20075 
L 429.111258 123.379792 
L 428.960158 124.20075 
L 428.150573 125.030215 
L 428.079619 125.868366 
L 428.062958 125.030215 
L 427.852916 123.379792 
L 427.784261 124.20075 
L 427.607751 121.762713 
L 427.185292 120.966262 
L 427.132017 120.177658 
L 426.887426 119.396748 
L 426.774845 118.623382 
L 426.542267 119.396748 
L 426.000959 120.177658 
L 425.920447 120.966262 
L 425.90201 120.177658 
L 425.759632 119.396748 
L 425.476757 118.623382 
L 425.33746 117.857418 
L 425.208297 119.396748 
L 425.083102 118.623382 
L 424.871363 119.396748 
L 424.843943 118.623382 
L 424.782573 119.396748 
L 424.679655 120.177658 
L 424.616143 119.396748 
L 424.536075 120.177658 
L 424.153833 119.396748 
L 423.891849 117.857418 
L 423.817527 118.623382 
L 423.761354 117.857418 
L 423.542251 117.098714 
L 422.885907 116.347134 
L 422.679626 115.602546 
L 422.609299 116.347134 
L 422.258839 115.602546 
L 421.852701 114.133831 
L 421.51394 113.409458 
L 421.457454 112.691582 
L 421.192623 114.86482 
L 421.183979 114.133831 
L 420.878828 113.409458 
L 420.864935 114.86482 
L 420.699289 114.133831 
L 420.410459 113.409458 
L 420.169289 114.133831 
L 420.085539 113.409458 
L 419.197583 111.980087 
L 419.065808 111.27486 
L 418.98258 113.409458 
L 418.759847 112.691582 
L 418.485824 114.133831 
L 418.412181 113.409458 
L 418.255022 114.133831 
L 418.14722 116.347134 
L 418.071905 117.098714 
L 417.600532 115.602546 
L 417.559741 116.347134 
L 417.471708 115.602546 
L 417.146292 114.86482 
L 417.124695 115.602546 
L 416.910788 116.347134 
L 416.768489 115.602546 
L 416.647708 116.347134 
L 416.525334 115.602546 
L 416.078353 116.347134 
L 415.084267 114.86482 
L 414.991716 114.133831 
L 414.928205 114.86482 
L 414.927474 114.133831 
L 414.909402 113.409458 
L 414.544369 114.86482 
L 414.27839 113.409458 
L 414.200176 114.133831 
L 413.866899 113.409458 
L 413.749748 112.691582 
L 413.413938 113.409458 
L 413.371632 112.691582 
L 413.320682 113.409458 
L 413.197942 112.691582 
L 412.918096 111.980087 
L 412.593646 112.691582 
L 412.48211 113.409458 
L 412.202002 111.27486 
L 412.192 111.980087 
L 412.044556 112.691582 
L 411.819316 111.980087 
L 411.740005 113.409458 
L 411.7346 112.691582 
L 411.647115 111.980087 
L 411.562425 113.409458 
L 411.562425 114.133831 
L 411.255837 113.409458 
L 411.134821 111.980087 
L 410.915248 113.409458 
L 410.912845 112.691582 
L 410.910181 111.27486 
L 410.648224 111.980087 
L 410.336204 111.27486 
L 410.20691 109.882779 
L 410.185652 109.195713 
L 409.817904 109.882779 
L 409.742954 111.27486 
L 409.228963 109.882779 
L 409.209403 109.195713 
L 408.866333 108.514494 
L 408.582021 106.504949 
L 408.451499 107.169208 
L 408.433924 105.846158 
L 408.355109 108.514494 
L 407.905595 107.169208 
L 407.88721 105.846158 
L 407.706287 105.192745 
L 407.695423 104.544622 
L 407.556519 105.192745 
L 407.326421 104.544622 
L 407.247424 105.192745 
L 407.231311 104.544622 
L 407.148919 103.901706 
L 407.020329 104.544622 
L 407.015159 105.192745 
L 406.942455 104.544622 
L 406.598262 103.901706 
L 406.589383 103.263912 
L 406.244668 102.631161 
L 406.171859 102.003372 
L 406.082207 102.631161 
L 405.88726 100.762375 
L 405.854956 101.380468 
L 405.301845 99.540326 
L 404.821803 98.936227 
L 404.729826 101.380468 
L 404.621554 102.003372 
L 404.257801 102.631161 
L 404.072778 102.003372 
L 404.054732 102.631161 
L 403.990673 101.380468 
L 403.847903 100.149018 
L 403.721508 100.762375 
L 403.59741 100.149018 
L 403.591247 100.762375 
L 403.561006 100.149018 
L 403.332502 99.540326 
L 403.223342 100.762375 
L 403.168736 100.149018 
L 402.972796 99.540326 
L 402.876328 100.149018 
L 402.601653 100.762375 
L 402.571438 102.003372 
L 402.457055 101.380468 
L 402.373488 102.003372 
L 402.245577 101.380468 
L 401.891173 102.003372 
L 401.629216 101.380468 
L 401.496474 102.631161 
L 401.172155 103.263912 
L 401.031135 104.544622 
L 400.996245 103.901706 
L 400.707859 102.631161 
L 400.374844 103.263912 
L 400.219487 102.631161 
L 400.109987 103.263912 
L 399.85777 103.901706 
L 399.669274 105.192745 
L 399.297451 104.544622 
L 399.223024 105.192745 
L 398.962451 103.901706 
L 398.828325 105.192745 
L 398.632412 104.544622 
L 398.446527 105.192745 
L 398.395968 104.544622 
L 398.18073 105.846158 
L 398.089511 106.504949 
L 398.040598 105.192745 
L 397.984817 105.846158 
L 397.428154 105.192745 
L 397.137026 107.839025 
L 397.052571 108.514494 
L 397.040715 107.839025 
L 396.92184 108.514494 
L 396.739663 105.192745 
L 396.623531 105.846158 
L 396.416075 105.192745 
L 396.137795 105.846158 
L 395.953033 105.192745 
L 395.626337 106.504949 
L 395.477326 105.192745 
L 394.973963 105.846158 
L 394.888568 105.192745 
L 394.55751 106.504949 
L 394.453991 107.169208 
L 394.235019 106.504949 
L 394.167016 107.169208 
L 394.01837 105.846158 
L 393.985805 106.504949 
L 393.764665 107.169208 
L 393.660571 106.504949 
L 393.618109 107.839025 
L 393.284675 105.846158 
L 393.183767 106.504949 
L 392.920896 105.846158 
L 392.580306 106.504949 
L 392.451822 107.169208 
L 391.965407 105.846158 
L 391.768972 106.504949 
L 391.607739 105.192745 
L 391.464995 104.544622 
L 391.368867 105.846158 
L 391.264016 105.192745 
L 390.854849 102.003372 
L 390.827455 101.380468 
L 390.74031 102.003372 
L 390.507914 101.380468 
L 390.152257 100.762375 
L 390.000086 100.149018 
L 389.781035 100.762375 
L 389.775655 100.149018 
L 389.68044 101.380468 
L 389.663884 100.762375 
L 389.026395 102.003372 
L 388.797342 103.263912 
L 388.739446 102.631161 
L 388.444584 103.263912 
L 388.421315 103.901706 
L 388.31273 102.631161 
L 388.290062 102.003372 
L 388.270946 103.263912 
L 388.115041 102.631161 
L 387.849662 103.263912 
L 387.740137 103.901706 
L 387.737212 103.263912 
L 387.537016 103.901706 
L 387.514923 103.263912 
L 386.996022 102.631161 
L 386.987769 102.003372 
L 386.883362 102.631161 
L 386.492842 99.540326 
L 386.055079 102.003372 
L 386.011389 101.380468 
L 385.561875 102.631161 
L 385.406335 102.003372 
L 385.268893 103.263912 
L 385.266908 102.631161 
L 385.055744 103.263912 
L 384.983824 102.631161 
L 384.19816 103.263912 
L 383.615617 103.901706 
L 383.583261 103.263912 
L 383.274192 102.631161 
L 383.153829 103.901706 
L 383.082327 104.544622 
L 383.026781 103.901706 
L 382.764196 103.263912 
L 382.237121 104.544622 
L 382.111849 105.192745 
L 382.100201 105.846158 
L 382.036481 105.192745 
L 381.698765 106.504949 
L 381.246117 109.195713 
L 381.117162 108.514494 
L 380.946188 109.195713 
L 380.90255 107.839025 
L 380.890068 108.514494 
L 380.537701 107.839025 
L 380.502837 107.169208 
L 380.279791 106.504949 
L 379.681004 105.846158 
L 379.635251 105.192745 
L 379.523297 105.846158 
L 379.42077 105.192745 
L 379.099663 107.169208 
L 378.917564 108.514494 
L 378.712929 107.169208 
L 378.562325 106.504949 
L 378.124171 105.846158 
L 378.091867 106.504949 
L 378.091501 105.846158 
L 377.393713 109.882779 
L 377.007972 110.575793 
L 376.746197 107.839025 
L 376.733427 108.514494 
L 376.538871 109.195713 
L 376.344865 108.514494 
L 376.236227 109.195713 
L 375.973147 106.504949 
L 375.442833 109.195713 
L 375.366682 108.514494 
L 374.584649 105.846158 
L 374.506565 104.544622 
L 374.274039 105.192745 
L 374.234449 103.901706 
L 374.153284 104.544622 
L 374.124454 103.901706 
L 373.844111 103.263912 
L 373.571525 104.544622 
L 373.558729 105.192745 
L 373.492005 104.544622 
L 373.196647 105.846158 
L 373.080018 105.192745 
L 373.059936 105.846158 
L 373.017317 105.192745 
L 372.885306 103.901706 
L 372.795628 104.544622 
L 372.771106 103.901706 
L 372.486638 103.263912 
L 372.450756 103.901706 
L 372.44266 103.263912 
L 372.183288 102.631161 
L 372.103063 103.263912 
L 371.720325 102.631161 
L 371.630281 101.380468 
L 370.976366 102.003372 
L 370.812444 102.631161 
L 370.567409 100.149018 
L 370.431272 100.762375 
L 370.427642 100.149018 
L 370.212639 99.540326 
L 370.077991 98.336654 
L 370.06496 98.936227 
L 369.991394 99.540326 
L 369.674779 98.936227 
L 369.494482 99.540326 
L 369.489181 98.936227 
L 369.335365 99.540326 
L 369.328888 100.149018 
L 369.189801 99.540326 
L 369.117802 100.149018 
L 369.001826 99.540326 
L 368.973231 100.762375 
L 368.767994 100.149018 
L 368.71707 100.762375 
L 368.687169 100.149018 
L 368.467726 100.762375 
L 368.432915 101.380468 
L 368.222038 100.762375 
L 368.1778 101.380468 
L 368.02811 100.762375 
L 367.737765 102.003372 
L 366.891228 99.540326 
L 366.825967 100.762375 
L 366.627155 101.380468 
L 366.551736 102.003372 
L 366.379665 101.380468 
L 366.284372 102.003372 
L 366.135204 101.380468 
L 366.127892 102.003372 
L 365.856664 102.631161 
L 365.639937 102.003372 
L 365.54817 100.762375 
L 365.408195 102.003372 
L 365.291174 101.380468 
L 365.275714 102.003372 
L 365.066535 102.631161 
L 364.900862 102.003372 
L 364.867931 103.263912 
L 364.809434 102.003372 
L 364.659274 100.762375 
L 364.178083 101.380468 
L 364.114128 102.003372 
L 363.846999 103.901706 
L 363.833864 105.192745 
L 363.729718 105.846158 
L 363.720891 105.192745 
L 363.707181 105.846158 
L 363.605646 106.504949 
L 363.371632 105.192745 
L 363.214264 104.544622 
L 362.802016 105.192745 
L 362.543061 106.504949 
L 362.481248 105.846158 
L 362.362582 107.169208 
L 362.280738 106.504949 
L 362.275149 107.169208 
L 362.00998 109.195713 
L 361.828195 110.575793 
L 361.785549 109.882779 
L 361.602824 111.27486 
L 361.511004 110.575793 
L 361.333711 112.691582 
L 361.259153 111.980087 
L 361.252076 111.27486 
L 361.179607 111.980087 
L 361.087187 113.409458 
L 360.984895 112.691582 
L 360.564865 113.409458 
L 360.290947 114.133831 
L 360.286063 114.86482 
L 360.152147 115.602546 
L 360.152147 116.347134 
L 359.350736 115.602546 
L 359.328329 114.86482 
L 359.321774 115.602546 
L 359.182765 116.347134 
L 359.083477 115.602546 
L 358.446458 114.133831 
L 358.367618 115.602546 
L 358.291415 114.86482 
L 358.16434 115.602546 
L 358.033636 116.347134 
L 357.954429 114.86482 
L 357.758203 115.602546 
L 357.701011 117.098714 
L 357.632591 116.347134 
L 357.622275 117.098714 
L 357.604308 117.857418 
L 357.471514 117.098714 
L 357.266304 117.857418 
L 357.182711 118.623382 
L 356.981653 117.857418 
L 356.836194 118.623382 
L 356.802349 117.857418 
L 356.618083 118.623382 
L 356.462595 117.857418 
L 356.447866 118.623382 
L 356.335912 117.857418 
L 356.05604 118.623382 
L 355.953252 117.098714 
L 355.778544 117.857418 
L 355.765852 118.623382 
L 355.3822 117.098714 
L 355.308582 117.857418 
L 354.962665 117.098714 
L 354.62756 117.857418 
L 354.445331 118.623382 
L 354.394225 119.396748 
L 354.369024 118.623382 
L 354.131875 119.396748 
L 354.03559 120.177658 
L 353.954033 119.396748 
L 353.691397 120.177658 
L 353.624856 120.966262 
L 353.126899 121.762713 
L 352.912131 124.20075 
L 352.821826 123.379792 
L 352.66263 122.567169 
L 352.421956 124.20075 
L 352.342202 123.379792 
L 352.330816 124.20075 
L 352.12968 126.715386 
L 352.113593 125.868366 
L 351.942332 126.715386 
L 351.932878 127.571466 
L 351.199052 128.436801 
L 350.802917 129.311593 
L 350.605332 128.436801 
L 350.291119 130.196051 
L 350.286549 131.090392 
L 349.946116 131.994839 
L 349.793919 132.909622 
L 349.720354 131.994839 
L 349.449622 132.909622 
L 349.035755 130.196051 
L 348.737837 131.090392 
L 348.717546 130.196051 
L 348.64842 131.090392 
L 348.537484 132.909622 
L 348.29775 131.994839 
L 348.142054 133.834981 
L 347.873463 134.771164 
L 347.846983 135.718425 
L 347.250024 136.677032 
L 347.189673 134.771164 
L 347.165726 135.718425 
L 347.12449 136.677032 
L 346.965843 137.647258 
L 346.690854 138.629389 
L 346.677405 139.623721 
L 346.525652 140.63056 
L 346.483947 139.623721 
L 346.224679 141.650226 
L 345.951309 142.683049 
L 345.705595 140.63056 
L 345.682118 141.650226 
L 344.881882 142.683049 
L 344.846105 143.729373 
L 344.68166 144.789557 
L 344.560853 141.650226 
L 344.53889 142.683049 
L 344.473577 143.729373 
L 344.469869 142.683049 
L 344.357993 140.63056 
L 344.291635 141.650226 
L 344.029965 140.63056 
L 343.935273 141.650226 
L 343.856641 140.63056 
L 343.732909 142.683049 
L 343.680079 141.650226 
L 343.6226 140.63056 
L 343.29969 141.650226 
L 343.045411 140.63056 
L 343.019505 141.650226 
L 342.458716 142.683049 
L 342.240735 143.729373 
L 342.183439 142.683049 
L 341.94381 141.650226 
L 341.751553 142.683049 
L 341.545194 141.650226 
L 341.35594 144.789557 
L 340.875192 148.057059 
L 340.799825 150.311931 
L 340.796352 151.463644 
L 340.792513 150.311931 
L 340.093341 151.463644 
L 340.069185 152.632171 
L 339.738598 153.81801 
L 339.649834 155.021682 
L 339.362048 153.81801 
L 339.239988 152.632171 
L 339.234869 153.81801 
L 339.151302 151.463644 
L 338.688626 153.81801 
L 338.649558 155.021682 
L 338.405202 153.81801 
L 338.366839 155.021682 
L 338.307898 153.81801 
L 337.864469 158.745269 
L 337.164697 157.484728 
L 336.753023 158.745269 
L 336.656712 156.243732 
L 336.39478 157.484728 
L 336.305964 160.025979 
L 335.976996 161.327515 
L 335.968743 162.650564 
L 335.580677 163.995851 
L 335.319843 162.650564 
L 334.827735 161.327515 
L 334.68319 162.650564 
L 334.664988 161.327515 
L 334.485631 162.650564 
L 334.474063 161.327515 
L 334.256396 160.025979 
L 334.249684 161.327515 
L 334.064217 160.025979 
L 333.316759 158.745269 
L 332.927649 160.025979 
L 332.659502 162.650564 
L 332.6126 158.745269 
L 332.217509 160.025979 
L 332.096362 157.484728 
L 332.058626 158.745269 
L 331.614022 160.025979 
L 331.55273 157.484728 
L 331.048924 155.021682 
L 330.991837 157.484728 
L 330.464135 155.021682 
L 330.315254 156.243732 
L 330.281514 157.484728 
L 329.80202 160.025979 
L 329.691633 158.745269 
L 329.399016 160.025979 
L 329.255751 162.650564 
L 329.239063 161.327515 
L 328.779861 162.650564 
L 328.478104 166.756217 
L 328.447393 168.172939 
L 328.359125 166.756217 
L 328.326012 168.172939 
L 327.955103 166.756217 
L 327.600516 168.172939 
L 327.460463 169.615188 
L 326.829137 168.172939 
L 326.744055 166.756217 
L 326.310132 168.172939 
L 326.144485 163.995851 
L 326.140124 165.364135 
L 325.754304 166.756217 
L 325.2365 168.172939 
L 325.005436 169.615188 
L 324.952736 168.172939 
L 324.583525 166.756217 
L 324.086979 168.172939 
L 323.880567 169.615188 
L 323.277629 165.364135 
L 322.82519 166.756217 
L 322.325535 169.615188 
L 322.212314 168.172939 
L 322.21191 169.615188 
L 322.025124 171.083902 
L 321.637031 168.172939 
L 321.03263 171.083902 
L 320.885382 168.172939 
L 320.548488 171.083902 
L 320.445361 172.580071 
L 319.894195 174.104739 
L 319.667727 175.659015 
L 319.006501 177.24407 
L 318.97639 175.659015 
L 318.607675 177.24407 
L 318.339385 175.659015 
L 317.715881 182.196743 
L 317.648779 178.861149 
L 316.925386 177.24407 
L 316.757533 174.104739 
L 316.454431 175.659015 
L 316.211629 172.580071 
L 315.899505 175.659015 
L 315.716323 174.104739 
L 315.015636 175.659015 
L 314.958811 177.24407 
L 314.398309 178.861149 
L 314.283064 180.511572 
L 314.281811 182.196743 
L 314.27839 178.861149 
L 313.909596 180.511572 
L 313.732917 182.196743 
L 313.36257 180.511572 
L 313.260539 182.196743 
L 312.257052 183.918157 
L 312.121346 182.196743 
L 310.98829 180.511572 
L 310.632554 182.196743 
L 310.359916 180.511572 
L 310.088322 182.196743 
L 309.926488 183.918157 
L 309.284521 182.196743 
L 309.266828 180.511572 
L 309.263629 182.196743 
L 309.05095 180.511572 
L 308.700633 178.861149 
L 308.652752 177.24407 
L 308.532167 180.511572 
L 308.281804 177.24407 
L 308.256982 175.659015 
L 308.126108 177.24407 
L 307.261878 175.659015 
L 307.229117 174.104739 
L 306.914472 177.24407 
L 306.914472 178.861149 
L 306.24229 177.24407 
L 305.902511 178.861149 
L 305.434912 175.659015 
L 304.707915 174.104739 
L 304.580305 175.659015 
L 304.358147 174.104739 
L 304.306413 175.659015 
L 304.101464 177.24407 
L 303.612634 175.659015 
L 303.292362 174.104739 
L 302.623079 175.659015 
L 302.315669 174.104739 
L 301.803074 175.659015 
L 300.965181 177.24407 
L 300.940202 178.861149 
L 300.885466 177.24407 
L 300.664169 180.511572 
L 299.795825 182.196743 
L 299.677917 183.918157 
L 299.584361 182.196743 
L 299.07618 183.918157 
L 298.996425 187.476195 
L 298.608203 189.316338 
L 298.600146 187.476195 
L 298.337405 189.316338 
L 297.801203 187.476195 
L 297.478881 189.316338 
L 296.979396 187.476195 
L 296.737299 193.128615 
L 296.225697 195.105078 
L 296.033701 197.131583 
L 295.985114 199.21073 
L 295.741137 201.345328 
L 295.590219 199.21073 
L 295.156165 203.538415 
L 295.123404 201.345328 
L 294.8056 203.538415 
L 294.338589 201.345328 
L 293.717932 199.21073 
L 293.501453 201.345328 
L 293.493932 203.538415 
L 293.174744 201.345328 
L 292.925622 203.538415 
L 292.838881 205.793288 
L 292.371779 208.113528 
L 291.958499 205.793288 
L 291.836413 208.113528 
L 291.757311 205.793288 
L 291.675088 208.113528 
L 291.333716 203.538415 
L 291.031907 205.793288 
L 290.136652 208.113528 
L 290.052537 205.793288 
L 289.732722 208.113528 
L 288.909217 205.793288 
L 288.497387 203.538415 
L 288.450511 205.793288 
L 287.72448 210.503039 
L 287.436552 208.113528 
L 287.316672 210.503039 
L 287.141389 208.113528 
L 286.32978 210.503039 
L 286.133475 215.507336 
L 286.121945 218.131921 
L 285.896314 215.507336 
L 285.875213 212.966085 
L 285.873084 215.507336 
L 285.595145 218.131921 
L 285.467952 215.507336 
L 285.041341 218.131921 
L 284.476883 220.845492 
L 283.877874 218.131921 
L 283.194711 226.565259 
L 282.97664 220.845492 
L 282.886974 218.131921 
L 282.709812 223.654295 
L 282.709812 226.565259 
L 282.108714 223.654295 
L 281.970658 215.507336 
L 281.180189 218.131921 
L 281.172969 215.507336 
L 281.086972 218.131921 
L 280.808863 220.845492 
L 280.79766 223.654295 
L 280.354922 226.565259 
L 280.137608 223.654295 
L 279.151552 220.845492 
L 278.195411 223.654295 
L 277.528178 220.845492 
L 276.635587 223.654295 
L 276.57931 226.565259 
L 276.189337 223.654295 
L 276.114218 226.565259 
L 275.364567 223.654295 
L 274.129193 229.586096 
L 273.636524 235.992929 
L 273.59491 232.725427 
L 273.264728 229.586096 
L 273.164616 232.725427 
L 272.664636 239.399514 
L 272.32543 235.992929 
L 271.171287 232.725427 
L 271.044186 235.992929 
L 270.764483 239.399514 
L 270.589031 242.957552 
L 269.767525 239.399514 
L 269.377644 242.957552 
L 269.289689 246.681139 
L 268.270376 250.586434 
L 268.113805 246.681139 
L 268.007766 250.586434 
L 267.571413 242.957552 
L 266.934173 246.681139 
L 266.908724 242.957552 
L 266.199995 246.681139 
L 265.066821 242.957552 
L 263.531271 239.399514 
L 262.883454 235.992929 
L 262.727888 239.399514 
L 262.344562 235.992929 
L 261.723199 239.399514 
L 260.880383 235.992929 
L 260.810565 239.399514 
L 260.267417 229.586096 
L 260.256684 226.565259 
L 259.86726 220.845492 
L 259.601724 223.654295 
L 259.564576 226.565259 
L 258.371273 223.654295 
L 258.295854 220.845492 
L 258.053926 223.654295 
L 257.883867 220.845492 
L 257.833896 218.131921 
L 256.913989 215.507336 
L 256.162875 218.131921 
L 256.015679 223.654295 
L 255.310618 218.131921 
L 255.258846 223.654295 
L 254.494035 220.845492 
L 254.286461 223.654295 
L 253.316153 226.565259 
L 253.204381 229.586096 
L 252.889215 226.565259 
L 252.841621 229.586096 
L 252.750362 226.565259 
L 252.537853 223.654295 
L 251.988189 226.565259 
L 251.904204 229.586096 
L 251.662237 232.725427 
L 250.837388 235.992929 
L 250.669914 239.399514 
L 249.058905 242.957552 
L 248.993931 239.399514 
L 248.559172 235.992929 
L 248.163937 239.399514 
L 247.958153 242.957552 
L 247.865145 246.681139 
L 247.844462 242.957552 
L 246.855272 246.681139 
L 246.361389 242.957552 
L 244.563725 246.681139 
L 244.071813 250.586434 
L 243.066615 246.681139 
L 242.281043 242.957552 
L 242.223473 239.399514 
L 241.756697 235.992929 
L 241.714835 239.399514 
L 240.809304 235.992929 
L 240.319469 239.399514 
L 238.915119 242.957552 
L 237.809732 246.681139 
L 237.798489 242.957552 
L 237.667798 246.681139 
L 236.897842 250.586434 
L 236.705885 246.681139 
L 236.579659 250.586434 
L 235.9367 254.692087 
L 235.831979 259.019772 
L 235.827644 254.692087 
L 235.734832 250.586434 
L 234.698688 254.692087 
L 233.462427 259.019772 
L 233.267506 263.594885 
L 233.215368 268.447442 
L 233.167643 263.594885 
L 232.653625 259.019772 
L 232.578206 263.594885 
L 231.255125 254.692087 
L 230.936394 242.957552 
L 230.592097 239.399514 
L 229.830511 242.957552 
L 228.562128 239.399514 
L 228.26613 235.992929 
L 228.059509 239.399514 
L 225.963013 242.957552 
L 225.712807 239.399514 
L 225.666349 232.725427 
L 224.808243 235.992929 
L 224.666387 232.725427 
L 223.637124 229.586096 
L 222.231143 226.565259 
L 221.550943 223.654295 
L 220.592138 220.845492 
L 219.95448 215.507336 
L 219.941775 212.966085 
L 219.582305 215.507336 
L 219.055622 212.966085 
L 218.964455 210.503039 
L 218.401211 208.113528 
L 218.247447 212.966085 
L 217.350808 215.507336 
L 216.067044 218.131921 
L 215.411667 210.503039 
L 214.771671 208.113528 
L 214.660945 205.793288 
L 214.087672 210.503039 
L 214.008283 208.113528 
L 213.754735 210.503039 
L 213.38871 203.538415 
L 213.119623 205.793288 
L 213.05098 203.538415 
L 212.482931 205.793288 
L 212.271754 203.538415 
L 210.97266 205.793288 
L 210.793323 208.113528 
L 210.639435 212.966085 
L 210.35447 210.503039 
L 210.329942 215.507336 
L 209.969388 223.654295 
L 209.937717 226.565259 
L 209.635497 229.586096 
L 209.418176 223.654295 
L 209.405223 220.845492 
L 209.245322 218.131921 
L 209.188914 220.845492 
L 208.9637 218.131921 
L 208.794098 220.845492 
L 208.764601 223.654295 
L 207.589559 220.845492 
L 207.254199 223.654295 
L 207.245509 226.565259 
L 207.132152 223.654295 
L 206.345574 220.845492 
L 206.204724 218.131921 
L 205.838281 220.845492 
L 205.826079 226.565259 
L 205.352669 223.654295 
L 205.351122 226.565259 
L 205.164519 223.654295 
L 203.995784 226.565259 
L 203.013077 223.654295 
L 202.463034 218.131921 
L 201.961042 215.507336 
L 201.190636 208.113528 
L 200.655433 205.793288 
L 200.505677 208.113528 
L 200.062059 205.793288 
L 199.931067 208.113528 
L 199.904371 205.793288 
L 199.777427 208.113528 
L 199.246611 210.503039 
L 198.630256 208.113528 
L 198.608698 205.793288 
L 198.216728 208.113528 
L 198.085566 210.503039 
L 197.886676 205.793288 
L 197.339395 208.113528 
L 196.600783 205.793288 
L 195.010287 203.538415 
L 194.921458 201.345328 
L 194.855982 203.538415 
L 194.828026 201.345328 
L 194.325662 203.538415 
L 194.085784 208.113528 
L 193.81816 210.503039 
L 193.416658 212.966085 
L 193.154465 215.507336 
L 192.336171 218.131921 
L 192.212413 212.966085 
L 192.077824 210.503039 
L 192.068631 208.113528 
L 191.943574 210.503039 
L 190.690775 215.507336 
L 190.60491 218.131921 
L 190.415714 215.507336 
L 190.409486 218.131921 
L 189.706645 215.507336 
L 189.161949 208.113528 
L 188.879368 210.503039 
L 188.729488 208.113528 
L 188.714949 210.503039 
L 188.518317 208.113528 
L 187.809829 205.793288 
L 187.129676 208.113528 
L 186.244613 205.793288 
L 186.180559 208.113528 
L 185.879965 205.793288 
L 185.676857 201.345328 
L 185.288857 203.538415 
L 184.936829 201.345328 
L 184.302592 203.538415 
L 183.867917 201.345328 
L 183.746536 199.21073 
L 183.41824 201.345328 
L 182.798379 199.21073 
L 182.391863 203.538415 
L 182.344484 201.345328 
L 181.929572 203.538415 
L 181.678537 201.345328 
L 180.993115 203.538415 
L 180.904325 205.793288 
L 180.317767 203.538415 
L 179.886141 205.793288 
L 179.876779 208.113528 
L 179.604395 210.503039 
L 179.532651 208.113528 
L 179.293479 205.793288 
L 178.942457 210.503039 
L 178.619763 212.966085 
L 178.189972 210.503039 
L 177.938519 212.966085 
L 177.91529 210.503039 
L 177.406783 212.966085 
L 177.328229 215.507336 
L 177.131924 212.966085 
L 177.043389 215.507336 
L 176.794985 212.966085 
L 176.712253 215.507336 
L 176.429292 218.131921 
L 175.942389 212.966085 
L 175.894422 215.507336 
L 175.840854 212.966085 
L 175.616685 210.503039 
L 175.599847 212.966085 
L 175.064931 215.507336 
L 174.098351 212.966085 
L 173.240695 215.507336 
L 173.175303 210.503039 
L 171.141358 205.793288 
L 170.78465 210.503039 
L 170.230017 205.793288 
L 170.120622 208.113528 
L 169.779589 205.793288 
L 169.283741 203.538415 
L 169.231008 201.345328 
L 169.172133 203.538415 
L 167.867777 197.131583 
L 167.628852 203.538415 
L 167.628852 205.793288 
L 167.378823 201.345328 
L 167.026501 199.21073 
L 166.835132 201.345328 
L 166.835132 203.538415 
L 165.97681 201.345328 
L 165.958426 199.21073 
L 165.835875 201.345328 
L 164.989299 199.21073 
L 164.76116 201.345328 
L 164.614662 199.21073 
L 164.526623 201.345328 
L 164.151157 203.538415 
L 163.306879 205.793288 
L 163.130173 208.113528 
L 163.08045 205.793288 
L 162.003855 208.113528 
L 161.920659 205.793288 
L 161.697743 208.113528 
L 161.071073 210.503039 
L 160.534153 208.113528 
L 160.32022 210.503039 
L 159.796462 208.113528 
L 159.644578 210.503039 
L 159.001612 212.966085 
L 158.901625 210.503039 
L 158.874799 212.966085 
L 158.514369 215.507336 
L 158.338381 218.131921 
L 157.710245 215.507336 
L 156.784651 212.966085 
L 156.683744 218.131921 
L 156.65997 215.507336 
L 156.568045 218.131921 
L 155.98909 215.507336 
L 154.872673 220.845492 
L 154.819189 218.131921 
L 154.375741 220.845492 
L 153.399546 223.654295 
L 153.36073 220.845492 
L 153.076059 215.507336 
L 153.032643 220.845492 
L 152.632943 223.654295 
L 152.403884 220.845492 
L 152.237542 223.654295 
L 151.906325 226.565259 
L 151.762419 223.654295 
L 151.402662 226.565259 
L 151.342872 223.654295 
L 150.781257 226.565259 
L 150.439381 229.586096 
L 150.07762 235.992929 
L 149.241153 242.957552 
L 148.930909 246.681139 
L 148.479057 250.586434 
L 148.023116 246.681139 
L 147.757035 242.957552 
L 147.663273 246.681139 
L 147.475413 239.399514 
L 147.102621 242.957552 
L 146.119366 239.399514 
L 145.741936 235.992929 
L 145.645122 232.725427 
L 145.014606 235.992929 
L 144.852821 242.957552 
L 144.716564 239.399514 
L 144.61737 242.957552 
L 144.448812 239.399514 
L 143.959068 235.992929 
L 143.058127 239.399514 
L 141.732246 235.992929 
L 141.531518 239.399514 
L 141.279899 232.725427 
L 139.859293 229.586096 
L 139.487587 232.725427 
L 139.336246 229.586096 
L 139.022408 226.565259 
L 138.559445 223.654295 
L 137.742701 220.845492 
L 137.13341 223.654295 
L 136.629665 226.565259 
L 136.428728 223.654295 
L 136.060947 220.845492 
L 135.522525 210.503039 
L 135.009963 208.113528 
L 134.809401 203.538415 
L 134.300016 205.793288 
L 134.221211 203.538415 
L 134.075138 205.793288 
L 134.058297 208.113528 
L 133.874074 205.793288 
L 133.583344 203.538415 
L 133.50199 201.345328 
L 132.885178 203.538415 
L 132.801026 205.793288 
L 132.728241 203.538415 
L 132.255416 201.345328 
L 132.190694 203.538415 
L 131.017908 201.345328 
L 130.987363 203.538415 
L 130.112664 201.345328 
L 129.643685 199.21073 
L 129.607291 201.345328 
L 129.431967 199.21073 
L 128.811646 197.131583 
L 128.609455 199.21073 
L 128.572477 201.345328 
L 128.485106 199.21073 
L 128.156269 197.131583 
L 128.043996 199.21073 
L 127.734463 197.131583 
L 127.57652 193.128615 
L 126.633546 195.105078 
L 126.499588 199.21073 
L 126.418402 197.131583 
L 125.528284 203.538415 
L 125.527741 201.345328 
L 125.296762 199.21073 
L 125.282847 201.345328 
L 125.102299 203.538415 
L 124.420724 201.345328 
L 122.822833 199.21073 
L 121.926948 197.131583 
L 121.631747 195.105078 
L 121.296098 199.21073 
L 120.599564 197.131583 
L 119.850133 199.21073 
L 119.533747 197.131583 
L 119.112986 199.21073 
L 119.025907 197.131583 
L 118.604811 199.21073 
L 117.912873 201.345328 
L 117.63259 199.21073 
L 117.56586 197.131583 
L 117.215713 199.21073 
L 116.859675 197.131583 
L 116.792904 195.105078 
L 116.748404 197.131583 
L 116.248755 195.105078 
L 116.176469 193.128615 
L 116.111704 195.105078 
L 115.610593 199.21073 
L 115.599729 201.345328 
L 114.941845 203.538415 
L 114.039694 201.345328 
L 113.335722 197.131583 
L 112.45275 199.21073 
L 112.416773 197.131583 
L 112.053298 199.21073 
L 111.729516 197.131583 
L 111.595097 195.105078 
L 111.563759 197.131583 
L 111.094404 195.105078 
L 110.93362 197.131583 
L 110.765316 195.105078 
L 110.345055 197.131583 
L 109.585469 195.105078 
L 109.526095 193.128615 
L 109.229138 195.105078 
L 109.093801 193.128615 
L 107.98411 195.105078 
L 107.949262 193.128615 
L 107.216042 197.131583 
L 105.276026 195.105078 
L 104.93223 193.128615 
L 103.436165 195.105078 
L 103.180407 203.538415 
L 103.180407 577 
L 103.180407 577 
" clip-path="url(#pf5780a3e08)" style="fill: none; stroke: #1f77b4; stroke-width: 1.5; stroke-linecap: square"/>
   </g>
   <g id="line2d_32">
    <path d="M 494.355539 490.372868 
L 490.945991 434.891512 
L 478.78485 402.436999 
L 471.722885 379.410155 
L 471.548151 402.436999 
L 471.08127 379.410155 
L 470.400901 361.549148 
L 468.136931 379.410155 
L 463.839479 361.549148 
L 463.124064 346.955642 
L 458.528642 334.617009 
L 454.239678 323.928798 
L 452.302926 314.501129 
L 452.242496 306.067791 
L 450.37205 298.438909 
L 449.706775 291.474285 
L 449.463725 298.438909 
L 448.660851 291.474285 
L 444.492981 285.067452 
L 444.048977 279.135652 
L 438.445263 273.613278 
L 437.076638 268.447442 
L 437.076638 263.594885 
L 434.481193 259.019772 
L 434.108769 254.692087 
L 432.687628 259.019772 
L 431.879845 254.692087 
L 431.356087 250.586434 
L 430.992307 254.692087 
L 430.924357 259.019772 
L 430.560421 263.594885 
L 427.908306 259.019772 
L 427.782772 254.692087 
L 427.742268 259.019772 
L 426.006287 254.692087 
L 424.977233 250.586434 
L 423.08297 246.681139 
L 422.095543 250.586434 
L 421.379579 246.681139 
L 421.223935 250.586434 
L 420.318483 254.692087 
L 420.290409 259.019772 
L 415.89017 254.692087 
L 415.718935 250.586434 
L 414.333231 246.681139 
L 413.516099 250.586434 
L 413.16462 246.681139 
L 410.587899 235.992929 
L 409.592193 232.725427 
L 409.472535 235.992929 
L 409.384972 232.725427 
L 409.372046 235.992929 
L 409.251395 232.725427 
L 408.990221 229.586096 
L 408.941674 226.565259 
L 408.692539 223.654295 
L 408.47051 226.565259 
L 406.458966 223.654295 
L 406.051079 220.845492 
L 405.77763 218.131921 
L 405.454538 220.845492 
L 404.823265 218.131921 
L 404.373411 215.507336 
L 403.69696 218.131921 
L 403.452447 215.507336 
L 403.434898 212.966085 
L 403.38622 215.507336 
L 403.181767 212.966085 
L 402.726664 210.503039 
L 402.58836 212.966085 
L 402.293002 210.503039 
L 401.776085 208.113528 
L 401.756917 205.793288 
L 401.312652 208.113528 
L 401.23214 205.793288 
L 400.649206 203.538415 
L 398.678217 205.793288 
L 396.67892 203.538415 
L 396.603318 199.21073 
L 396.238363 197.131583 
L 395.911902 199.21073 
L 395.520702 195.105078 
L 395.517099 193.128615 
L 394.905673 191.199782 
L 394.111887 193.128615 
L 393.939608 191.199782 
L 393.004306 189.316338 
L 392.611931 193.128615 
L 392.509222 191.199782 
L 392.101204 189.316338 
L 391.241531 187.476195 
L 390.862109 189.316338 
L 390.825366 191.199782 
L 390.111517 189.316338 
L 389.742594 185.677408 
L 388.966645 187.476195 
L 388.595971 185.677408 
L 388.252953 187.476195 
L 388.201846 185.677408 
L 387.960311 183.918157 
L 387.859481 182.196743 
L 387.435351 180.511572 
L 387.337786 178.861149 
L 386.648355 180.511572 
L 385.793278 178.861149 
L 385.73405 177.24407 
L 384.931359 174.104739 
L 384.345239 175.659015 
L 384.261959 172.580071 
L 384.195235 174.104739 
L 384.062363 175.659015 
L 383.44574 174.104739 
L 383.161846 171.083902 
L 382.134621 169.615188 
L 382.088841 168.172939 
L 381.697302 166.756217 
L 381.486373 165.364135 
L 381.427066 166.756217 
L 381.122724 168.172939 
L 380.755263 165.364135 
L 380.742571 163.995851 
L 380.412141 165.364135 
L 380.261693 163.995851 
L 380.230721 162.650564 
L 380.046951 161.327515 
L 379.643269 160.025979 
L 379.099663 158.745269 
L 378.954543 156.243732 
L 378.628656 157.484728 
L 377.961658 158.745269 
L 377.67497 156.243732 
L 377.62261 155.021682 
L 377.451976 156.243732 
L 377.441686 155.021682 
L 377.08138 153.81801 
L 376.49996 152.632171 
L 376.429973 150.311931 
L 375.315158 151.463644 
L 375.078793 149.176555 
L 375.017084 150.311931 
L 374.5472 149.176555 
L 374.221209 148.057059 
L 374.158298 149.176555 
L 374.063658 148.057059 
L 373.848498 149.176555 
L 373.675227 146.953004 
L 373.322102 145.863971 
L 373.159616 144.789557 
L 373.05265 145.863971 
L 372.564564 144.789557 
L 372.251108 143.729373 
L 372.204389 142.683049 
L 371.930497 143.729373 
L 371.761665 142.683049 
L 371.720638 143.729373 
L 371.401228 142.683049 
L 371.160476 143.729373 
L 370.7464 144.789557 
L 370.709421 143.729373 
L 370.019442 142.683049 
L 369.941019 140.63056 
L 369.669086 141.650226 
L 369.213931 140.63056 
L 368.463757 139.623721 
L 368.432915 138.629389 
L 368.381234 139.623721 
L 367.834965 138.629389 
L 367.718258 137.647258 
L 367.310867 136.677032 
L 367.206173 133.834981 
L 366.888982 132.909622 
L 366.787735 131.090392 
L 366.506896 130.196051 
L 366.447981 131.090392 
L 366.443307 130.196051 
L 366.204017 129.311593 
L 366.141629 128.436801 
L 365.854862 127.571466 
L 365.17828 128.436801 
L 365.005792 127.571466 
L 365.004486 128.436801 
L 364.945022 127.571466 
L 364.604459 128.436801 
L 363.913227 129.311593 
L 363.898837 130.196051 
L 363.706371 131.090392 
L 363.015582 131.994839 
L 362.780523 129.311593 
L 362.442728 128.436801 
L 362.404966 127.571466 
L 361.781371 126.715386 
L 361.742146 127.571466 
L 361.416652 126.715386 
L 360.98453 125.030215 
L 360.642687 124.20075 
L 360.404233 122.567169 
L 359.876009 117.098714 
L 359.395131 116.347134 
L 359.380271 117.098714 
L 359.245075 116.347134 
L 358.880956 117.098714 
L 358.087354 116.347134 
L 358.036012 117.098714 
L 357.944584 116.347134 
L 357.574799 117.098714 
L 357.468041 118.623382 
L 357.409518 117.857418 
L 357.349376 118.623382 
L 357.078461 119.396748 
L 356.954206 120.177658 
L 356.515452 120.966262 
L 356.429508 121.762713 
L 356.202205 122.567169 
L 356.12561 120.966262 
L 356.039901 121.762713 
L 355.734488 120.966262 
L 355.686855 121.762713 
L 355.643635 120.966262 
L 354.64618 120.177658 
L 354.500042 118.623382 
L 354.39036 119.396748 
L 354.30896 118.623382 
L 354.12519 119.396748 
L 353.964506 118.623382 
L 353.894283 119.396748 
L 353.719601 118.623382 
L 353.714587 117.098714 
L 352.724235 116.347134 
L 352.714756 115.602546 
L 352.507273 116.347134 
L 352.428328 114.86482 
L 352.186819 114.133831 
L 352.076823 113.409458 
L 351.676614 114.133831 
L 351.510393 115.602546 
L 351.45691 114.86482 
L 351.220832 115.602546 
L 351.144055 116.347134 
L 350.96462 115.602546 
L 350.604418 116.347134 
L 350.483324 115.602546 
L 350.134169 116.347134 
L 349.936245 118.623382 
L 349.916607 117.857418 
L 349.906918 117.098714 
L 349.865056 117.857418 
L 349.7513 118.623382 
L 349.736859 117.857418 
L 349.68173 118.623382 
L 349.092136 117.857418 
L 348.942551 116.347134 
L 348.68344 117.098714 
L 348.296157 116.347134 
L 348.141558 115.602546 
L 348.063161 116.347134 
L 347.300792 114.86482 
L 347.151154 117.098714 
L 347.01144 117.857418 
L 346.46248 116.347134 
L 346.460992 115.602546 
L 346.374056 116.347134 
L 346.225776 117.098714 
L 345.835438 117.857418 
L 345.597845 116.347134 
L 345.543161 114.86482 
L 345.218946 115.602546 
L 345.191264 116.347134 
L 345.148592 115.602546 
L 344.773845 117.098714 
L 344.732505 116.347134 
L 344.060754 117.098714 
L 343.986014 117.857418 
L 343.453063 118.623382 
L 343.127254 116.347134 
L 342.871303 115.602546 
L 342.667556 116.347134 
L 342.489505 114.86482 
L 342.485039 114.133831 
L 342.377446 114.86482 
L 341.993924 114.133831 
L 341.865988 114.86482 
L 341.257565 115.602546 
L 340.420299 114.133831 
L 339.860946 113.409458 
L 339.811406 112.691582 
L 339.596455 114.133831 
L 339.572978 113.409458 
L 339.324078 112.691582 
L 339.253776 111.980087 
L 339.154592 112.691582 
L 338.935985 113.409458 
L 338.123084 114.133831 
L 337.816679 114.86482 
L 337.682292 115.602546 
L 337.655054 114.86482 
L 337.541168 115.602546 
L 337.483193 114.86482 
L 337.201075 115.602546 
L 337.065043 116.347134 
L 336.882396 114.86482 
L 336.842962 115.602546 
L 336.795016 114.86482 
L 336.488167 116.347134 
L 336.335996 115.602546 
L 336.330956 114.86482 
L 336.272119 115.602546 
L 336.133136 116.347134 
L 335.88575 115.602546 
L 335.673986 117.098714 
L 335.651448 116.347134 
L 335.371289 117.098714 
L 335.36241 117.857418 
L 335.257585 117.098714 
L 335.181774 117.857418 
L 334.943111 117.098714 
L 334.532429 116.347134 
L 334.522793 115.602546 
L 334.295646 116.347134 
L 334.204741 115.602546 
L 333.542417 117.098714 
L 333.258471 116.347134 
L 333.163517 115.602546 
L 332.995939 116.347134 
L 332.727165 115.602546 
L 332.712306 114.86482 
L 332.572461 115.602546 
L 331.815497 116.347134 
L 331.661316 115.602546 
L 331.324278 114.86482 
L 330.855648 114.133831 
L 330.806056 112.691582 
L 330.683421 113.409458 
L 330.619779 112.691582 
L 330.387592 114.133831 
L 330.164702 113.409458 
L 330.136812 111.980087 
L 329.956463 111.27486 
L 329.726366 111.980087 
L 329.664839 111.27486 
L 329.607178 111.980087 
L 329.290718 111.27486 
L 328.969062 109.882779 
L 328.874814 109.195713 
L 328.846009 109.882779 
L 328.811564 109.195713 
L 328.68193 109.882779 
L 328.327239 109.195713 
L 328.248268 109.882779 
L 327.988399 110.575793 
L 327.921389 111.27486 
L 327.869159 110.575793 
L 327.849782 111.27486 
L 327.678704 112.691582 
L 327.397787 111.980087 
L 327.28014 111.27486 
L 327.209395 111.980087 
L 326.192667 107.839025 
L 326.054938 108.514494 
L 325.879786 107.169208 
L 325.817032 107.839025 
L 325.775953 107.169208 
L 325.415073 106.504949 
L 325.127653 107.169208 
L 325.040352 107.839025 
L 324.891993 107.169208 
L 324.604339 106.504949 
L 324.578302 107.169208 
L 324.359356 106.504949 
L 324.281325 105.846158 
L 323.887331 106.504949 
L 323.739834 105.846158 
L 323.739338 105.192745 
L 323.471505 104.544622 
L 323.204585 102.631161 
L 323.184294 102.003372 
L 322.464779 101.380468 
L 322.400223 100.762375 
L 322.119672 101.380468 
L 322.09314 102.003372 
L 321.889405 101.380468 
L 321.651865 102.631161 
L 321.640126 102.003372 
L 321.466894 101.380468 
L 321.365607 100.149018 
L 321.1953 100.762375 
L 321.111811 99.540326 
L 320.78847 101.380468 
L 320.730952 100.762375 
L 320.586759 101.380468 
L 319.765266 102.631161 
L 319.60906 100.762375 
L 319.439458 101.380468 
L 319.376599 100.762375 
L 319.352391 101.380468 
L 318.73445 100.762375 
L 318.45681 100.149018 
L 318.418565 100.762375 
L 318.239639 100.149018 
L 317.545638 98.936227 
L 317.29145 97.150815 
L 316.879541 96.564419 
L 316.867933 95.982288 
L 316.854367 96.564419 
L 316.756201 97.150815 
L 316.619438 96.564419 
L 316.354033 97.150815 
L 316.334225 96.564419 
L 316.043868 95.982288 
L 315.783856 96.564419 
L 315.629125 95.982288 
L 315.618993 95.40436 
L 315.505485 95.982288 
L 315.100314 95.40436 
L 314.927747 95.982288 
L 314.828002 95.40436 
L 314.605425 93.695198 
L 314.390735 94.260873 
L 313.962975 94.830574 
L 313.735659 94.260873 
L 313.690297 93.695198 
L 313.486354 94.260873 
L 313.452196 93.695198 
L 313.425036 94.260873 
L 313.018729 93.695198 
L 312.788383 94.830574 
L 312.419447 95.40436 
L 312.360675 96.564419 
L 312.212722 95.982288 
L 312.202276 95.40436 
L 311.626954 95.982288 
L 311.396477 95.40436 
L 311.023179 95.982288 
L 311.015893 96.564419 
L 310.629956 95.982288 
L 310.455679 94.830574 
L 310.161313 94.260873 
L 310.137117 94.830574 
L 309.681466 94.260873 
L 309.593198 94.830574 
L 309.507777 94.260873 
L 309.502214 94.830574 
L 309.097644 95.40436 
L 308.965921 94.830574 
L 308.925495 95.40436 
L 307.817287 94.830574 
L 307.716419 94.260873 
L 307.317097 94.830574 
L 307.271005 94.260873 
L 307.105776 94.830574 
L 307.034352 94.260873 
L 306.896166 95.40436 
L 306.760708 94.830574 
L 306.754349 94.260873 
L 306.607297 93.133493 
L 306.479831 92.021771 
L 306.118258 92.575702 
L 305.821594 92.021771 
L 305.534057 89.843605 
L 305.266184 91.471648 
L 305.098005 90.925279 
L 305.044169 89.843605 
L 304.98925 90.382615 
L 304.497704 89.843605 
L 304.374938 88.776353 
L 304.356345 88.248017 
L 304.010794 87.723145 
L 303.911557 88.248017 
L 303.537006 86.683615 
L 303.503958 87.201692 
L 303.384352 86.683615 
L 303.200438 87.723145 
L 302.929732 87.201692 
L 302.80237 86.683615 
L 302.666365 87.201692 
L 302.37384 86.683615 
L 302.138388 88.248017 
L 302.11085 87.723145 
L 302.017634 87.201692 
L 301.931677 87.723145 
L 301.467003 88.248017 
L 301.301579 87.723145 
L 300.822868 86.683615 
L 300.597902 86.168869 
L 300.125159 85.657413 
L 300.057391 85.149204 
L 299.648251 87.201692 
L 299.38944 86.683615 
L 299.31607 87.723145 
L 299.254766 87.201692 
L 299.017356 86.683615 
L 298.741453 87.723145 
L 298.143281 87.201692 
L 298.011662 86.683615 
L 297.66854 87.201692 
L 297.650064 86.683615 
L 297.534205 87.201692 
L 297.451552 86.168869 
L 297.016375 86.683615 
L 296.921186 87.723145 
L 296.776915 88.248017 
L 296.775035 88.776353 
L 296.548894 88.248017 
L 296.385937 89.3082 
L 296.009049 89.843605 
L 295.965594 90.382615 
L 295.761859 89.3082 
L 295.679049 89.843605 
L 295.548227 88.776353 
L 295.298896 89.3082 
L 295.052881 87.201692 
L 294.791942 86.683615 
L 294.657059 85.149204 
L 293.989147 85.657413 
L 293.710202 86.683615 
L 293.34748 86.168869 
L 292.942636 84.142364 
L 292.43717 83.643654 
L 292.3796 82.165901 
L 292.057448 81.679318 
L 292.043869 81.195675 
L 291.701412 81.679318 
L 291.171882 81.195675 
L 291.098212 82.165901 
L 290.9272 81.195675 
L 290.622975 80.714937 
L 290.531417 80.237069 
L 290.454835 80.714937 
L 290.428472 80.237069 
L 290.38409 79.762037 
L 290.355886 80.237069 
L 290.242156 79.762037 
L 290.006196 79.289807 
L 289.933414 78.820347 
L 289.516413 79.289807 
L 289.409407 78.820347 
L 289.330227 79.762037 
L 288.946196 78.353625 
L 288.926466 78.820347 
L 288.79853 77.889608 
L 288.784402 77.428266 
L 288.322274 78.353625 
L 288.236996 78.820347 
L 288.17073 77.889608 
L 288.155805 78.353625 
L 287.929847 79.289807 
L 287.491915 80.714937 
L 287.332967 80.237069 
L 287.206898 80.714937 
L 286.742603 79.762037 
L 286.323434 80.237069 
L 286.089811 79.762037 
L 286.062116 78.820347 
L 285.776225 78.353625 
L 285.701484 79.289807 
L 285.55118 80.714937 
L 285.331281 80.237069 
L 285.294302 80.714937 
L 284.984515 81.195675 
L 284.820632 80.714937 
L 284.368911 80.237069 
L 284.255808 78.820347 
L 283.709186 78.353625 
L 283.700411 78.820347 
L 283.530822 77.889608 
L 283.514644 77.428266 
L 283.263236 77.889608 
L 283.190441 77.428266 
L 282.998915 76.969567 
L 282.566154 76.513482 
L 282.453586 76.969567 
L 282.232681 76.513482 
L 281.95119 77.889608 
L 281.787437 77.428266 
L 281.604006 78.820347 
L 281.379589 78.353625 
L 281.289454 77.428266 
L 281.282233 77.889608 
L 280.935885 78.820347 
L 280.734867 79.289807 
L 280.323545 78.353625 
L 280.205337 78.820347 
L 279.440278 78.353625 
L 279.277909 77.889608 
L 279.004395 79.762037 
L 278.850462 79.289807 
L 278.216773 79.762037 
L 278.048385 80.237069 
L 278.002788 79.762037 
L 277.698773 81.195675 
L 277.606849 80.714937 
L 276.977299 79.762037 
L 276.83248 80.714937 
L 276.300195 79.762037 
L 276.138818 80.237069 
L 276.116725 80.714937 
L 275.970561 80.237069 
L 275.899319 81.195675 
L 275.545163 79.762037 
L 275.201284 77.428266 
L 274.984883 76.969567 
L 274.957097 76.513482 
L 274.527391 76.059981 
L 274.359878 75.609035 
L 274.28643 76.059981 
L 274.115117 75.160616 
L 273.962567 75.609035 
L 273.948935 76.059981 
L 273.44236 76.513482 
L 273.100936 76.059981 
L 272.719829 76.969567 
L 272.670485 76.513482 
L 272.453341 76.059981 
L 272.400641 75.609035 
L 272.271908 76.059981 
L 272.230999 75.609035 
L 272.162774 76.059981 
L 271.566221 75.160616 
L 271.537769 74.714695 
L 271.189293 75.160616 
L 270.807481 74.271244 
L 270.725037 74.714695 
L 270.408486 74.271244 
L 270.376848 73.830236 
L 270.03699 75.160616 
L 269.630096 75.609035 
L 269.501859 76.059981 
L 269.496975 75.609035 
L 269.449042 76.059981 
L 269.348343 75.609035 
L 268.488526 76.513482 
L 268.372864 76.059981 
L 268.277558 76.513482 
L 267.866406 76.059981 
L 267.727815 77.889608 
L 267.366086 76.969567 
L 267.057095 77.428266 
L 267.022715 77.889608 
L 266.823864 78.353625 
L 266.61996 77.428266 
L 266.569232 77.889608 
L 266.267214 75.609035 
L 266.234832 76.059981 
L 266.20083 76.513482 
L 266.043515 76.969567 
L 265.808181 76.059981 
L 265.55159 75.609035 
L 265.296997 76.059981 
L 265.189404 76.513482 
L 265.109232 76.059981 
L 264.919952 76.513482 
L 264.872475 76.059981 
L 264.753561 76.969567 
L 264.307651 76.513482 
L 264.014238 76.969567 
L 263.955245 77.428266 
L 263.920943 76.969567 
L 263.672408 76.513482 
L 263.2687 76.969567 
L 263.240078 77.889608 
L 262.914622 78.353625 
L 262.757685 78.820347 
L 262.608178 78.353625 
L 262.385223 79.289807 
L 262.294343 78.820347 
L 262.179895 79.289807 
L 262.157541 78.820347 
L 262.02839 79.289807 
L 261.896393 78.820347 
L 261.868489 79.289807 
L 261.530329 79.762037 
L 261.508941 78.820347 
L 261.217617 79.289807 
L 261.113249 79.762037 
L 260.810565 79.289807 
L 260.402509 79.762037 
L 260.225672 80.237069 
L 260.014665 79.762037 
L 259.15981 79.289807 
L 259.105661 80.237069 
L 259.105334 79.762037 
L 258.996605 80.714937 
L 258.98629 81.195675 
L 258.289168 80.714937 
L 257.896362 81.195675 
L 257.892641 80.714937 
L 257.832812 81.195675 
L 257.712096 81.679318 
L 257.553358 81.195675 
L 257.130794 82.65546 
L 257.077193 82.165901 
L 256.904666 82.65546 
L 256.382579 81.679318 
L 256.333026 81.195675 
L 255.929435 81.679318 
L 255.694023 81.195675 
L 255.103332 81.679318 
L 255.034428 82.165901 
L 254.645174 82.65546 
L 254.56478 82.165901 
L 254.424047 83.148032 
L 254.328493 82.65546 
L 253.907862 82.165901 
L 253.887427 82.65546 
L 253.838579 82.165901 
L 253.559673 82.65546 
L 253.343443 84.644201 
L 252.464353 85.657413 
L 252.161213 84.644201 
L 252.143624 85.149204 
L 252.03214 86.683615 
L 251.758379 85.657413 
L 251.194129 85.149204 
L 250.780262 85.657413 
L 250.577232 84.644201 
L 250.542643 84.142364 
L 250.450132 84.644201 
L 250.288298 84.142364 
L 250.17415 84.644201 
L 250.172688 84.142364 
L 249.960923 84.644201 
L 249.305546 85.149204 
L 248.9689 85.657413 
L 248.144547 85.149204 
L 247.902868 86.168869 
L 247.65509 87.201692 
L 247.218581 86.683615 
L 246.639251 87.201692 
L 246.219403 85.657413 
L 245.761088 86.168869 
L 245.469438 85.657413 
L 245.452973 85.149204 
L 245.145693 85.657413 
L 245.048833 85.149204 
L 244.737806 84.644201 
L 244.483213 85.149204 
L 244.212533 84.644201 
L 244.188847 85.149204 
L 243.761321 86.168869 
L 243.710502 86.683615 
L 243.167444 86.168869 
L 243.006616 86.683615 
L 242.697665 87.201692 
L 242.569651 87.723145 
L 242.280873 88.776353 
L 242.164976 88.248017 
L 242.010742 88.776353 
L 241.943809 88.248017 
L 241.43538 89.3082 
L 241.380696 88.776353 
L 241.29833 89.3082 
L 241.284424 88.776353 
L 241.181296 89.3082 
L 241.153223 88.776353 
L 240.48552 89.3082 
L 240.301998 88.776353 
L 239.581647 90.382615 
L 239.15454 89.843605 
L 238.608388 90.382615 
L 238.570573 89.843605 
L 237.970808 89.3082 
L 237.936885 89.843605 
L 237.574241 90.925279 
L 237.166642 90.382615 
L 236.636942 92.575702 
L 236.481428 92.021771 
L 235.777125 93.133493 
L 235.676962 92.575702 
L 234.979801 93.133493 
L 234.903885 93.695198 
L 234.561011 93.133493 
L 234.388445 93.695198 
L 234.212705 94.830574 
L 234.051081 95.40436 
L 233.859045 94.830574 
L 233.613188 95.40436 
L 233.588196 95.982288 
L 233.427877 95.40436 
L 233.258274 95.982288 
L 233.235672 95.40436 
L 233.186158 95.982288 
L 232.892458 96.564419 
L 232.439353 97.150815 
L 232.39582 96.564419 
L 232.148839 97.150815 
L 232.046848 96.564419 
L 231.660218 97.150815 
L 231.126014 97.741538 
L 231.091373 97.150815 
L 230.619465 98.336654 
L 230.606094 97.741538 
L 230.0569 98.936227 
L 229.779038 99.540326 
L 229.53339 98.936227 
L 229.435237 97.741538 
L 229.201 98.936227 
L 229.163395 98.336654 
L 229.026514 98.936227 
L 228.769283 99.540326 
L 228.673938 100.762375 
L 228.060554 99.540326 
L 227.862212 101.380468 
L 227.767154 102.003372 
L 226.924038 102.631161 
L 226.721426 103.901706 
L 226.618808 104.544622 
L 226.344211 105.192745 
L 225.662131 104.544622 
L 225.593227 105.192745 
L 225.559343 104.544622 
L 225.422123 105.192745 
L 225.397967 105.846158 
L 224.431641 106.504949 
L 224.104396 107.839025 
L 223.922128 108.514494 
L 223.357174 109.195713 
L 223.060052 109.882779 
L 222.451134 110.575793 
L 222.416336 109.882779 
L 222.386408 110.575793 
L 221.824091 111.980087 
L 221.709225 112.691582 
L 221.422968 113.409458 
L 221.271202 114.86482 
L 221.008265 117.098714 
L 220.670274 117.857418 
L 220.463654 117.098714 
L 220.110751 117.857418 
L 219.550967 121.762713 
L 219.069998 123.379792 
L 218.695329 124.20075 
L 218.342675 123.379792 
L 218.079137 124.20075 
L 218.035643 125.868366 
L 217.473861 126.715386 
L 217.40655 127.571466 
L 216.815651 125.868366 
L 216.777915 126.715386 
L 216.506869 127.571466 
L 216.469342 126.715386 
L 216.191024 127.571466 
L 216.103448 126.715386 
L 215.163145 129.311593 
L 215.08689 130.196051 
L 214.425037 132.909622 
L 214.331062 133.834981 
L 214.114283 134.771164 
L 213.119584 135.718425 
L 212.534906 136.677032 
L 212.531191 137.647258 
L 212.236113 136.677032 
L 211.4042 137.647258 
L 211.355646 135.718425 
L 211.057187 136.677032 
L 210.974455 137.647258 
L 210.870329 135.718425 
L 210.545213 136.677032 
L 210.237097 138.629389 
L 210.101176 139.623721 
L 209.738827 140.63056 
L 209.507175 141.650226 
L 209.193171 140.63056 
L 208.385159 139.623721 
L 207.572845 140.63056 
L 207.520322 139.623721 
L 207.29373 138.629389 
L 207.228378 136.677032 
L 206.33187 137.647258 
L 206.037628 138.629389 
L 205.069794 140.63056 
L 204.873659 139.623721 
L 203.714912 140.63056 
L 203.580415 141.650226 
L 203.260978 140.63056 
L 202.650395 139.623721 
L 201.687359 136.677032 
L 201.511241 137.647258 
L 200.154277 138.629389 
L 199.854146 137.647258 
L 199.423774 136.677032 
L 199.265955 137.647258 
L 198.483641 138.629389 
L 198.104036 139.623721 
L 197.993225 141.650226 
L 197.846061 140.63056 
L 197.755769 141.650226 
L 197.697899 140.63056 
L 197.467756 141.650226 
L 197.46771 142.683049 
L 197.277261 143.729373 
L 195.683925 144.789557 
L 195.002557 143.729373 
L 194.962948 142.683049 
L 194.606239 143.729373 
L 194.596459 144.789557 
L 193.402203 145.863971 
L 193.093043 146.953004 
L 192.639272 148.057059 
L 192.503142 146.953004 
L 192.225908 148.057059 
L 191.782583 149.176555 
L 191.547713 148.057059 
L 191.10431 146.953004 
L 190.96107 145.863971 
L 190.593667 146.953004 
L 189.653201 145.863971 
L 189.280073 148.057059 
L 188.430363 149.176555 
L 188.248395 150.311931 
L 187.512036 151.463644 
L 187.282565 152.632171 
L 187.250098 153.81801 
L 186.305493 152.632171 
L 185.960653 153.81801 
L 184.571431 155.021682 
L 184.566417 153.81801 
L 183.696644 155.021682 
L 183.349591 156.243732 
L 183.292928 155.021682 
L 182.728849 156.243732 
L 182.411253 157.484728 
L 181.400924 156.243732 
L 181.376063 157.484728 
L 181.042505 158.745269 
L 179.850625 160.025979 
L 179.726861 161.327515 
L 179.491579 160.025979 
L 179.218523 157.484728 
L 178.431358 160.025979 
L 178.069426 158.745269 
L 177.935007 160.025979 
L 177.218292 161.327515 
L 176.015216 160.025979 
L 175.749433 158.745269 
L 175.723984 160.025979 
L 175.079386 161.327515 
L 174.881586 157.484728 
L 174.409136 158.745269 
L 174.258591 157.484728 
L 173.626613 158.745269 
L 173.26113 160.025979 
L 172.952975 158.745269 
L 172.777777 157.484728 
L 172.759432 156.243732 
L 172.287655 155.021682 
L 171.826154 152.632171 
L 171.776346 153.81801 
L 171.642639 152.632171 
L 171.380655 155.021682 
L 170.885185 152.632171 
L 170.860154 151.463644 
L 170.62909 150.311931 
L 169.795382 151.463644 
L 169.578818 152.632171 
L 168.995433 153.81801 
L 168.555575 150.311931 
L 168.555327 149.176555 
L 168.113465 148.057059 
L 167.694622 150.311931 
L 167.694583 151.463644 
L 167.171869 152.632171 
L 166.337155 153.81801 
L 165.706137 151.463644 
L 165.151335 152.632171 
L 165.139341 153.81801 
L 164.520858 156.243732 
L 164.438335 155.021682 
L 163.035409 157.484728 
L 162.754622 158.745269 
L 162.288774 156.243732 
L 162.032346 155.021682 
L 161.812609 156.243732 
L 161.42611 157.484728 
L 160.301502 158.745269 
L 160.078795 161.327515 
L 159.81405 162.650564 
L 159.434158 161.327515 
L 159.414644 160.025979 
L 159.276425 161.327515 
L 158.7413 158.745269 
L 158.636299 160.025979 
L 158.336958 161.327515 
L 158.260911 162.650564 
L 158.176469 161.327515 
L 158.120603 162.650564 
L 157.649241 163.995851 
L 157.071748 162.650564 
L 156.707518 161.327515 
L 155.129391 162.650564 
L 155.070936 163.995851 
L 154.425003 165.364135 
L 153.070542 166.756217 
L 152.971306 165.364135 
L 152.7186 166.756217 
L 152.510474 165.364135 
L 151.82217 163.995851 
L 151.753103 161.327515 
L 150.982151 160.025979 
L 150.839754 158.745269 
L 150.768722 160.025979 
L 150.235477 161.327515 
L 149.96798 160.025979 
L 149.534807 161.327515 
L 148.675819 160.025979 
L 148.397331 158.745269 
L 148.02086 160.025979 
L 147.497311 158.745269 
L 147.478841 157.484728 
L 146.68704 158.745269 
L 146.310863 157.484728 
L 146.113056 156.243732 
L 145.738883 155.021682 
L 145.640777 156.243732 
L 145.319251 155.021682 
L 145.174471 156.243732 
L 145.126628 155.021682 
L 145.023256 156.243732 
L 144.927363 155.021682 
L 144.131465 156.243732 
L 143.800163 152.632171 
L 143.660648 150.311931 
L 143.558529 151.463644 
L 142.966787 152.632171 
L 142.742158 151.463644 
L 142.071448 152.632171 
L 141.348505 151.463644 
L 140.706 149.176555 
L 140.624646 151.463644 
L 140.363831 152.632171 
L 140.227743 151.463644 
L 140.178063 152.632171 
L 140.146389 151.463644 
L 139.672353 149.176555 
L 139.65514 150.311931 
L 137.620859 153.81801 
L 137.093046 156.243732 
L 136.323809 157.484728 
L 136.234183 158.745269 
L 135.701483 157.484728 
L 135.434737 158.745269 
L 134.136015 160.025979 
L 133.72219 161.327515 
L 133.425232 160.025979 
L 133.348644 158.745269 
L 133.335985 160.025979 
L 133.134711 161.327515 
L 132.989053 160.025979 
L 132.829899 161.327515 
L 132.271 162.650564 
L 132.004714 161.327515 
L 131.910198 160.025979 
L 131.461233 161.327515 
L 131.376288 160.025979 
L 131.274626 161.327515 
L 131.013478 162.650564 
L 129.819552 163.995851 
L 129.173243 165.364135 
L 128.9736 166.756217 
L 128.332052 169.615188 
L 126.715945 168.172939 
L 126.691876 169.615188 
L 126.092656 168.172939 
L 125.996971 166.756217 
L 124.525141 168.172939 
L 124.449931 169.615188 
L 123.628798 171.083902 
L 123.247564 168.172939 
L 122.348045 169.615188 
L 121.388022 172.580071 
L 121.230583 174.104739 
L 119.826233 172.580071 
L 119.463926 174.104739 
L 119.335484 175.659015 
L 119.144238 174.104739 
L 118.946269 175.659015 
L 118.608823 174.104739 
L 117.965646 175.659015 
L 117.895367 174.104739 
L 117.759403 175.659015 
L 117.28825 174.104739 
L 117.145057 175.659015 
L 114.905911 177.24407 
L 114.43877 178.861149 
L 114.145908 180.511572 
L 114.056407 178.861149 
L 113.671328 180.511572 
L 113.364302 178.861149 
L 113.346836 180.511572 
L 112.673242 182.196743 
L 112.585162 183.918157 
L 112.269486 185.677408 
L 111.946958 183.918157 
L 111.80435 185.677408 
L 110.189996 183.918157 
L 109.841185 182.196743 
L 109.2718 180.511572 
L 108.822416 182.196743 
L 108.744865 183.918157 
L 108.182791 182.196743 
L 108.173682 183.918157 
L 108.096048 182.196743 
L 107.199579 180.511572 
L 107.06654 178.861149 
L 106.866814 180.511572 
L 106.792021 182.196743 
L 106.330604 183.918157 
L 105.165341 182.196743 
L 104.291811 183.918157 
L 103.697062 182.196743 
L 103.656657 183.918157 
L 103.47306 182.196743 
L 103.180407 183.918157 
L 103.180407 577 
L 103.180407 577 
" clip-path="url(#pf5780a3e08)" style="fill: none; stroke: #ff7f0e; stroke-width: 1.5; stroke-linecap: square"/>
   </g>
   <g id="patch_3">
    <path d="M 81.316719 511.2 
L 81.316719 10.8 
" style="fill: none; stroke: #000000; stroke-width: 0.8; stroke-linejoin: miter; stroke-linecap: square"/>
   </g>
   <g id="patch_4">
    <path d="M 562.317859 511.2 
L 562.317859 10.8 
" style="fill: none; stroke: #000000; stroke-width: 0.8; stroke-linejoin: miter; stroke-linecap: square"/>
   </g>
   <g id="patch_5">
    <path d="M 81.316719 511.2 
L 562.317859 511.2 
" style="fill: none; stroke: #000000; stroke-width: 0.8; stroke-linejoin: miter; stroke-linecap: square"/>
   </g>
   <g id="patch_6">
    <path d="M 81.316719 10.8 
L 562.317859 10.8 
" style="fill: none; stroke: #000000; stroke-width: 0.8; stroke-linejoin: miter; stroke-linecap: square"/>
   </g>
   <g id="legend_1">
    <g id="patch_7">
     <path d="M 445.837159 75.3516 
L 550.221859 75.3516 
Q 553.677859 75.3516 553.677859 71.8956 
L 553.677859 22.896 
Q 553.677859 19.44 550.221859 19.44 
L 445.837159 19.44 
Q 442.381159 19.44 442.381159 22.896 
L 442.381159 71.8956 
Q 442.381159 75.3516 445.837159 75.3516 
z
" style="fill: #ffffff; opacity: 0.8; stroke: #cccccc; stroke-linejoin: miter"/>
    </g>
    <g id="line2d_33">
     <path d="M 449.293159 33.4341 
L 466.573159 33.4341 
L 483.853159 33.4341 
" style="fill: none; stroke: #1f77b4; stroke-width: 1.5; stroke-linecap: square"/>
    </g>
    <g id="text_12">
     <!-- dim 0 -->
     <g transform="translate(497.677159 39.4821)scale(0.1728 -0.1728)">
      <defs>
       <path id="DejaVuSans-64" d="M 2906 2969 
L 2906 4863 
L 3481 4863 
L 3481 0 
L 2906 0 
L 2906 525 
Q 2725 213 2448 61 
Q 2172 -91 1784 -91 
Q 1150 -91 751 415 
Q 353 922 353 1747 
Q 353 2572 751 3078 
Q 1150 3584 1784 3584 
Q 2172 3584 2448 3432 
Q 2725 3281 2906 2969 
z
M 947 1747 
Q 947 1113 1208 752 
Q 1469 391 1925 391 
Q 2381 391 2643 752 
Q 2906 1113 2906 1747 
Q 2906 2381 2643 2742 
Q 2381 3103 1925 3103 
Q 1469 3103 1208 2742 
Q 947 2381 947 1747 
z
" transform="scale(0.015625)"/>
      </defs>
      <use xlink:href="#DejaVuSans-64"/>
      <use xlink:href="#DejaVuSans-69" x="63.476562"/>
      <use xlink:href="#DejaVuSans-6d" x="91.259766"/>
      <use xlink:href="#DejaVuSans-20" x="188.671875"/>
      <use xlink:href="#DejaVuSans-30" x="220.458984"/>
     </g>
    </g>
    <g id="line2d_34">
     <path d="M 449.293159 58.7979 
L 466.573159 58.7979 
L 483.853159 58.7979 
" style="fill: none; stroke: #ff7f0e; stroke-width: 1.5; stroke-linecap: square"/>
    </g>
    <g id="text_13">
     <!-- dim 1 -->
     <g transform="translate(497.677159 64.8459)scale(0.1728 -0.1728)">
      <use xlink:href="#DejaVuSans-64"/>
      <use xlink:href="#DejaVuSans-69" x="63.476562"/>
      <use xlink:href="#DejaVuSans-6d" x="91.259766"/>
      <use xlink:href="#DejaVuSans-20" x="188.671875"/>
      <use xlink:href="#DejaVuSans-31" x="220.458984"/>
     </g>
    </g>
   </g>
  </g>
 </g>
 <defs>
  <clipPath id="pf5780a3e08">
   <rect x="81.316719" y="10.8" width="481.00114" height="500.4"/>
  </clipPath>
 </defs>
</svg>
