<?xml version="1.0" encoding="utf-8" standalone="no"?>
<!DOCTYPE svg PUBLIC "-//W3C//DTD SVG 1.1//EN"
  "http://www.w3.org/Graphics/SVG/1.1/DTD/svg11.dtd">
<svg xmlns:xlink="http://www.w3.org/1999/xlink" width="576pt" height="576pt" viewBox="0 0 576 576" xmlns="http://www.w3.org/2000/svg" version="1.1">
 <metadata>
  <rdf:RDF xmlns:dc="http://purl.org/dc/elements/1.1/" xmlns:cc="http://creativecommons.org/ns#" xmlns:rdf="http://www.w3.org/1999/02/22-rdf-syntax-ns#">
   <cc:Work>
    <dc:type rdf:resource="http://purl.org/dc/dcmitype/StillImage"/>
    <dc:date>2023-06-07T19:41:04.605123</dc:date>
    <dc:format>image/svg+xml</dc:format>
    <dc:creator>
     <cc:Agent>
      <dc:title>Matplotlib v3.5.1, https://matplotlib.org/</dc:title>
     </cc:Agent>
    </dc:creator>
   </cc:Work>
  </rdf:RDF>
 </metadata>
 <defs>
  <style type="text/css">*{stroke-linejoin: round; stroke-linecap: butt}</style>
 </defs>
 <g id="figure_1">
  <g id="patch_1">
   <path d="M 0 576 
L 576 576 
L 576 0 
L 0 0 
L 0 576 
z
" style="fill: none"/>
  </g>
  <g id="axes_1">
   <g id="patch_2">
    <path d="M 81.316719 511.2 
L 555.412433 511.2 
L 555.412433 10.8 
L 81.316719 10.8 
z
" style="fill: #ffffff"/>
   </g>
   <g id="matplotlib.axis_1">
    <g id="xtick_1">
     <g id="line2d_1">
      <defs>
       <path id="m6d6862d4b3" d="M 0 0 
L 0 3.5 
" style="stroke: #000000; stroke-width: 0.8"/>
      </defs>
      <g>
       <use xlink:href="#m6d6862d4b3" x="102.866524" y="511.2" style="stroke: #000000; stroke-width: 0.8"/>
      </g>
     </g>
     <g id="text_1">
      <!-- 0.0 -->
      <g transform="translate(86.963399 533.396875)scale(0.2 -0.2)">
       <defs>
        <path id="DejaVuSans-30" d="M 2034 4250 
Q 1547 4250 1301 3770 
Q 1056 3291 1056 2328 
Q 1056 1369 1301 889 
Q 1547 409 2034 409 
Q 2525 409 2770 889 
Q 3016 1369 3016 2328 
Q 3016 3291 2770 3770 
Q 2525 4250 2034 4250 
z
M 2034 4750 
Q 2819 4750 3233 4129 
Q 3647 3509 3647 2328 
Q 3647 1150 3233 529 
Q 2819 -91 2034 -91 
Q 1250 -91 836 529 
Q 422 1150 422 2328 
Q 422 3509 836 4129 
Q 1250 4750 2034 4750 
z
" transform="scale(0.015625)"/>
        <path id="DejaVuSans-2e" d="M 684 794 
L 1344 794 
L 1344 0 
L 684 0 
L 684 794 
z
" transform="scale(0.015625)"/>
       </defs>
       <use xlink:href="#DejaVuSans-30"/>
       <use xlink:href="#DejaVuSans-2e" x="63.623047"/>
       <use xlink:href="#DejaVuSans-30" x="95.410156"/>
      </g>
     </g>
    </g>
    <g id="xtick_2">
     <g id="line2d_2">
      <g>
       <use xlink:href="#m6d6862d4b3" x="190.702028" y="511.2" style="stroke: #000000; stroke-width: 0.8"/>
      </g>
     </g>
     <g id="text_2">
      <!-- 0.2 -->
      <g transform="translate(174.798903 533.396875)scale(0.2 -0.2)">
       <defs>
        <path id="DejaVuSans-32" d="M 1228 531 
L 3431 531 
L 3431 0 
L 469 0 
L 469 531 
Q 828 903 1448 1529 
Q 2069 2156 2228 2338 
Q 2531 2678 2651 2914 
Q 2772 3150 2772 3378 
Q 2772 3750 2511 3984 
Q 2250 4219 1831 4219 
Q 1534 4219 1204 4116 
Q 875 4013 500 3803 
L 500 4441 
Q 881 4594 1212 4672 
Q 1544 4750 1819 4750 
Q 2544 4750 2975 4387 
Q 3406 4025 3406 3419 
Q 3406 3131 3298 2873 
Q 3191 2616 2906 2266 
Q 2828 2175 2409 1742 
Q 1991 1309 1228 531 
z
" transform="scale(0.015625)"/>
       </defs>
       <use xlink:href="#DejaVuSans-30"/>
       <use xlink:href="#DejaVuSans-2e" x="63.623047"/>
       <use xlink:href="#DejaVuSans-32" x="95.410156"/>
      </g>
     </g>
    </g>
    <g id="xtick_3">
     <g id="line2d_3">
      <g>
       <use xlink:href="#m6d6862d4b3" x="278.537533" y="511.2" style="stroke: #000000; stroke-width: 0.8"/>
      </g>
     </g>
     <g id="text_3">
      <!-- 0.4 -->
      <g transform="translate(262.634408 533.396875)scale(0.2 -0.2)">
       <defs>
        <path id="DejaVuSans-34" d="M 2419 4116 
L 825 1625 
L 2419 1625 
L 2419 4116 
z
M 2253 4666 
L 3047 4666 
L 3047 1625 
L 3713 1625 
L 3713 1100 
L 3047 1100 
L 3047 0 
L 2419 0 
L 2419 1100 
L 313 1100 
L 313 1709 
L 2253 4666 
z
" transform="scale(0.015625)"/>
       </defs>
       <use xlink:href="#DejaVuSans-30"/>
       <use xlink:href="#DejaVuSans-2e" x="63.623047"/>
       <use xlink:href="#DejaVuSans-34" x="95.410156"/>
      </g>
     </g>
    </g>
    <g id="xtick_4">
     <g id="line2d_4">
      <g>
       <use xlink:href="#m6d6862d4b3" x="366.373037" y="511.2" style="stroke: #000000; stroke-width: 0.8"/>
      </g>
     </g>
     <g id="text_4">
      <!-- 0.6 -->
      <g transform="translate(350.469912 533.396875)scale(0.2 -0.2)">
       <defs>
        <path id="DejaVuSans-36" d="M 2113 2584 
Q 1688 2584 1439 2293 
Q 1191 2003 1191 1497 
Q 1191 994 1439 701 
Q 1688 409 2113 409 
Q 2538 409 2786 701 
Q 3034 994 3034 1497 
Q 3034 2003 2786 2293 
Q 2538 2584 2113 2584 
z
M 3366 4563 
L 3366 3988 
Q 3128 4100 2886 4159 
Q 2644 4219 2406 4219 
Q 1781 4219 1451 3797 
Q 1122 3375 1075 2522 
Q 1259 2794 1537 2939 
Q 1816 3084 2150 3084 
Q 2853 3084 3261 2657 
Q 3669 2231 3669 1497 
Q 3669 778 3244 343 
Q 2819 -91 2113 -91 
Q 1303 -91 875 529 
Q 447 1150 447 2328 
Q 447 3434 972 4092 
Q 1497 4750 2381 4750 
Q 2619 4750 2861 4703 
Q 3103 4656 3366 4563 
z
" transform="scale(0.015625)"/>
       </defs>
       <use xlink:href="#DejaVuSans-30"/>
       <use xlink:href="#DejaVuSans-2e" x="63.623047"/>
       <use xlink:href="#DejaVuSans-36" x="95.410156"/>
      </g>
     </g>
    </g>
    <g id="xtick_5">
     <g id="line2d_5">
      <g>
       <use xlink:href="#m6d6862d4b3" x="454.208541" y="511.2" style="stroke: #000000; stroke-width: 0.8"/>
      </g>
     </g>
     <g id="text_5">
      <!-- 0.8 -->
      <g transform="translate(438.305416 533.396875)scale(0.2 -0.2)">
       <defs>
        <path id="DejaVuSans-38" d="M 2034 2216 
Q 1584 2216 1326 1975 
Q 1069 1734 1069 1313 
Q 1069 891 1326 650 
Q 1584 409 2034 409 
Q 2484 409 2743 651 
Q 3003 894 3003 1313 
Q 3003 1734 2745 1975 
Q 2488 2216 2034 2216 
z
M 1403 2484 
Q 997 2584 770 2862 
Q 544 3141 544 3541 
Q 544 4100 942 4425 
Q 1341 4750 2034 4750 
Q 2731 4750 3128 4425 
Q 3525 4100 3525 3541 
Q 3525 3141 3298 2862 
Q 3072 2584 2669 2484 
Q 3125 2378 3379 2068 
Q 3634 1759 3634 1313 
Q 3634 634 3220 271 
Q 2806 -91 2034 -91 
Q 1263 -91 848 271 
Q 434 634 434 1313 
Q 434 1759 690 2068 
Q 947 2378 1403 2484 
z
M 1172 3481 
Q 1172 3119 1398 2916 
Q 1625 2713 2034 2713 
Q 2441 2713 2670 2916 
Q 2900 3119 2900 3481 
Q 2900 3844 2670 4047 
Q 2441 4250 2034 4250 
Q 1625 4250 1398 4047 
Q 1172 3844 1172 3481 
z
" transform="scale(0.015625)"/>
       </defs>
       <use xlink:href="#DejaVuSans-30"/>
       <use xlink:href="#DejaVuSans-2e" x="63.623047"/>
       <use xlink:href="#DejaVuSans-38" x="95.410156"/>
      </g>
     </g>
    </g>
    <g id="xtick_6">
     <g id="line2d_6">
      <g>
       <use xlink:href="#m6d6862d4b3" x="542.044046" y="511.2" style="stroke: #000000; stroke-width: 0.8"/>
      </g>
     </g>
     <g id="text_6">
      <!-- 1.0 -->
      <g transform="translate(526.140921 533.396875)scale(0.2 -0.2)">
       <defs>
        <path id="DejaVuSans-31" d="M 794 531 
L 1825 531 
L 1825 4091 
L 703 3866 
L 703 4441 
L 1819 4666 
L 2450 4666 
L 2450 531 
L 3481 531 
L 3481 0 
L 794 0 
L 794 531 
z
" transform="scale(0.015625)"/>
       </defs>
       <use xlink:href="#DejaVuSans-31"/>
       <use xlink:href="#DejaVuSans-2e" x="63.623047"/>
       <use xlink:href="#DejaVuSans-30" x="95.410156"/>
      </g>
     </g>
    </g>
    <g id="text_7">
     <!-- Intensity level -->
     <g transform="translate(230.259107 560.552344)scale(0.25 -0.25)">
      <defs>
       <path id="DejaVuSans-49" d="M 628 4666 
L 1259 4666 
L 1259 0 
L 628 0 
L 628 4666 
z
" transform="scale(0.015625)"/>
       <path id="DejaVuSans-6e" d="M 3513 2113 
L 3513 0 
L 2938 0 
L 2938 2094 
Q 2938 2591 2744 2837 
Q 2550 3084 2163 3084 
Q 1697 3084 1428 2787 
Q 1159 2491 1159 1978 
L 1159 0 
L 581 0 
L 581 3500 
L 1159 3500 
L 1159 2956 
Q 1366 3272 1645 3428 
Q 1925 3584 2291 3584 
Q 2894 3584 3203 3211 
Q 3513 2838 3513 2113 
z
" transform="scale(0.015625)"/>
       <path id="DejaVuSans-74" d="M 1172 4494 
L 1172 3500 
L 2356 3500 
L 2356 3053 
L 1172 3053 
L 1172 1153 
Q 1172 725 1289 603 
Q 1406 481 1766 481 
L 2356 481 
L 2356 0 
L 1766 0 
Q 1100 0 847 248 
Q 594 497 594 1153 
L 594 3053 
L 172 3053 
L 172 3500 
L 594 3500 
L 594 4494 
L 1172 4494 
z
" transform="scale(0.015625)"/>
       <path id="DejaVuSans-65" d="M 3597 1894 
L 3597 1613 
L 953 1613 
Q 991 1019 1311 708 
Q 1631 397 2203 397 
Q 2534 397 2845 478 
Q 3156 559 3463 722 
L 3463 178 
Q 3153 47 2828 -22 
Q 2503 -91 2169 -91 
Q 1331 -91 842 396 
Q 353 884 353 1716 
Q 353 2575 817 3079 
Q 1281 3584 2069 3584 
Q 2775 3584 3186 3129 
Q 3597 2675 3597 1894 
z
M 3022 2063 
Q 3016 2534 2758 2815 
Q 2500 3097 2075 3097 
Q 1594 3097 1305 2825 
Q 1016 2553 972 2059 
L 3022 2063 
z
" transform="scale(0.015625)"/>
       <path id="DejaVuSans-73" d="M 2834 3397 
L 2834 2853 
Q 2591 2978 2328 3040 
Q 2066 3103 1784 3103 
Q 1356 3103 1142 2972 
Q 928 2841 928 2578 
Q 928 2378 1081 2264 
Q 1234 2150 1697 2047 
L 1894 2003 
Q 2506 1872 2764 1633 
Q 3022 1394 3022 966 
Q 3022 478 2636 193 
Q 2250 -91 1575 -91 
Q 1294 -91 989 -36 
Q 684 19 347 128 
L 347 722 
Q 666 556 975 473 
Q 1284 391 1588 391 
Q 1994 391 2212 530 
Q 2431 669 2431 922 
Q 2431 1156 2273 1281 
Q 2116 1406 1581 1522 
L 1381 1569 
Q 847 1681 609 1914 
Q 372 2147 372 2553 
Q 372 3047 722 3315 
Q 1072 3584 1716 3584 
Q 2034 3584 2315 3537 
Q 2597 3491 2834 3397 
z
" transform="scale(0.015625)"/>
       <path id="DejaVuSans-69" d="M 603 3500 
L 1178 3500 
L 1178 0 
L 603 0 
L 603 3500 
z
M 603 4863 
L 1178 4863 
L 1178 4134 
L 603 4134 
L 603 4863 
z
" transform="scale(0.015625)"/>
       <path id="DejaVuSans-79" d="M 2059 -325 
Q 1816 -950 1584 -1140 
Q 1353 -1331 966 -1331 
L 506 -1331 
L 506 -850 
L 844 -850 
Q 1081 -850 1212 -737 
Q 1344 -625 1503 -206 
L 1606 56 
L 191 3500 
L 800 3500 
L 1894 763 
L 2988 3500 
L 3597 3500 
L 2059 -325 
z
" transform="scale(0.015625)"/>
       <path id="DejaVuSans-20" transform="scale(0.015625)"/>
       <path id="DejaVuSans-6c" d="M 603 4863 
L 1178 4863 
L 1178 0 
L 603 0 
L 603 4863 
z
" transform="scale(0.015625)"/>
       <path id="DejaVuSans-76" d="M 191 3500 
L 800 3500 
L 1894 563 
L 2988 3500 
L 3597 3500 
L 2284 0 
L 1503 0 
L 191 3500 
z
" transform="scale(0.015625)"/>
      </defs>
      <use xlink:href="#DejaVuSans-49"/>
      <use xlink:href="#DejaVuSans-6e" x="29.492188"/>
      <use xlink:href="#DejaVuSans-74" x="92.871094"/>
      <use xlink:href="#DejaVuSans-65" x="132.080078"/>
      <use xlink:href="#DejaVuSans-6e" x="193.603516"/>
      <use xlink:href="#DejaVuSans-73" x="256.982422"/>
      <use xlink:href="#DejaVuSans-69" x="309.082031"/>
      <use xlink:href="#DejaVuSans-74" x="336.865234"/>
      <use xlink:href="#DejaVuSans-79" x="376.074219"/>
      <use xlink:href="#DejaVuSans-20" x="435.253906"/>
      <use xlink:href="#DejaVuSans-6c" x="467.041016"/>
      <use xlink:href="#DejaVuSans-65" x="494.824219"/>
      <use xlink:href="#DejaVuSans-76" x="556.347656"/>
      <use xlink:href="#DejaVuSans-65" x="615.527344"/>
      <use xlink:href="#DejaVuSans-6c" x="677.050781"/>
     </g>
    </g>
   </g>
   <g id="matplotlib.axis_2">
    <g id="ytick_1">
     <g id="line2d_7">
      <defs>
       <path id="mf50d8f17de" d="M 0 0 
L -3.5 0 
" style="stroke: #000000; stroke-width: 0.8"/>
      </defs>
      <g>
       <use xlink:href="#mf50d8f17de" x="81.316719" y="491.408911" style="stroke: #000000; stroke-width: 0.8"/>
      </g>
     </g>
     <g id="text_8">
      <!-- $\mathdefault{10^{0}}$ -->
      <g transform="translate(39.116719 499.007349)scale(0.2 -0.2)">
       <use xlink:href="#DejaVuSans-31" transform="translate(0 0.765625)"/>
       <use xlink:href="#DejaVuSans-30" transform="translate(63.623047 0.765625)"/>
       <use xlink:href="#DejaVuSans-30" transform="translate(128.203125 39.046875)scale(0.7)"/>
      </g>
     </g>
    </g>
    <g id="ytick_2">
     <g id="line2d_8">
      <g>
       <use xlink:href="#mf50d8f17de" x="81.316719" y="306.705671" style="stroke: #000000; stroke-width: 0.8"/>
      </g>
     </g>
     <g id="text_9">
      <!-- $\mathdefault{10^{1}}$ -->
      <g transform="translate(39.116719 314.304109)scale(0.2 -0.2)">
       <use xlink:href="#DejaVuSans-31" transform="translate(0 0.684375)"/>
       <use xlink:href="#DejaVuSans-30" transform="translate(63.623047 0.684375)"/>
       <use xlink:href="#DejaVuSans-31" transform="translate(128.203125 38.965625)scale(0.7)"/>
      </g>
     </g>
    </g>
    <g id="ytick_3">
     <g id="line2d_9">
      <g>
       <use xlink:href="#mf50d8f17de" x="81.316719" y="122.002431" style="stroke: #000000; stroke-width: 0.8"/>
      </g>
     </g>
     <g id="text_10">
      <!-- $\mathdefault{10^{2}}$ -->
      <g transform="translate(39.116719 129.600869)scale(0.2 -0.2)">
       <use xlink:href="#DejaVuSans-31" transform="translate(0 0.765625)"/>
       <use xlink:href="#DejaVuSans-30" transform="translate(63.623047 0.765625)"/>
       <use xlink:href="#DejaVuSans-32" transform="translate(128.203125 39.046875)scale(0.7)"/>
      </g>
     </g>
    </g>
    <g id="ytick_4">
     <g id="line2d_10">
      <defs>
       <path id="m6634846bb2" d="M 0 0 
L -2 0 
" style="stroke: #000000; stroke-width: 0.6"/>
      </defs>
      <g>
       <use xlink:href="#m6634846bb2" x="81.316719" y="509.308505" style="stroke: #000000; stroke-width: 0.6"/>
      </g>
     </g>
    </g>
    <g id="ytick_5">
     <g id="line2d_11">
      <g>
       <use xlink:href="#m6634846bb2" x="81.316719" y="499.860468" style="stroke: #000000; stroke-width: 0.6"/>
      </g>
     </g>
    </g>
    <g id="ytick_6">
     <g id="line2d_12">
      <g>
       <use xlink:href="#m6634846bb2" x="81.316719" y="435.807696" style="stroke: #000000; stroke-width: 0.6"/>
      </g>
     </g>
    </g>
    <g id="ytick_7">
     <g id="line2d_13">
      <g>
       <use xlink:href="#m6634846bb2" x="81.316719" y="403.28307" style="stroke: #000000; stroke-width: 0.6"/>
      </g>
     </g>
    </g>
    <g id="ytick_8">
     <g id="line2d_14">
      <g>
       <use xlink:href="#m6634846bb2" x="81.316719" y="380.20648" style="stroke: #000000; stroke-width: 0.6"/>
      </g>
     </g>
    </g>
    <g id="ytick_9">
     <g id="line2d_15">
      <g>
       <use xlink:href="#m6634846bb2" x="81.316719" y="362.306887" style="stroke: #000000; stroke-width: 0.6"/>
      </g>
     </g>
    </g>
    <g id="ytick_10">
     <g id="line2d_16">
      <g>
       <use xlink:href="#m6634846bb2" x="81.316719" y="347.681854" style="stroke: #000000; stroke-width: 0.6"/>
      </g>
     </g>
    </g>
    <g id="ytick_11">
     <g id="line2d_17">
      <g>
       <use xlink:href="#m6634846bb2" x="81.316719" y="335.316565" style="stroke: #000000; stroke-width: 0.6"/>
      </g>
     </g>
    </g>
    <g id="ytick_12">
     <g id="line2d_18">
      <g>
       <use xlink:href="#m6634846bb2" x="81.316719" y="324.605265" style="stroke: #000000; stroke-width: 0.6"/>
      </g>
     </g>
    </g>
    <g id="ytick_13">
     <g id="line2d_19">
      <g>
       <use xlink:href="#m6634846bb2" x="81.316719" y="315.157228" style="stroke: #000000; stroke-width: 0.6"/>
      </g>
     </g>
    </g>
    <g id="ytick_14">
     <g id="line2d_20">
      <g>
       <use xlink:href="#m6634846bb2" x="81.316719" y="251.104456" style="stroke: #000000; stroke-width: 0.6"/>
      </g>
     </g>
    </g>
    <g id="ytick_15">
     <g id="line2d_21">
      <g>
       <use xlink:href="#m6634846bb2" x="81.316719" y="218.579829" style="stroke: #000000; stroke-width: 0.6"/>
      </g>
     </g>
    </g>
    <g id="ytick_16">
     <g id="line2d_22">
      <g>
       <use xlink:href="#m6634846bb2" x="81.316719" y="195.50324" style="stroke: #000000; stroke-width: 0.6"/>
      </g>
     </g>
    </g>
    <g id="ytick_17">
     <g id="line2d_23">
      <g>
       <use xlink:href="#m6634846bb2" x="81.316719" y="177.603647" style="stroke: #000000; stroke-width: 0.6"/>
      </g>
     </g>
    </g>
    <g id="ytick_18">
     <g id="line2d_24">
      <g>
       <use xlink:href="#m6634846bb2" x="81.316719" y="162.978614" style="stroke: #000000; stroke-width: 0.6"/>
      </g>
     </g>
    </g>
    <g id="ytick_19">
     <g id="line2d_25">
      <g>
       <use xlink:href="#m6634846bb2" x="81.316719" y="150.613325" style="stroke: #000000; stroke-width: 0.6"/>
      </g>
     </g>
    </g>
    <g id="ytick_20">
     <g id="line2d_26">
      <g>
       <use xlink:href="#m6634846bb2" x="81.316719" y="139.902024" style="stroke: #000000; stroke-width: 0.6"/>
      </g>
     </g>
    </g>
    <g id="ytick_21">
     <g id="line2d_27">
      <g>
       <use xlink:href="#m6634846bb2" x="81.316719" y="130.453988" style="stroke: #000000; stroke-width: 0.6"/>
      </g>
     </g>
    </g>
    <g id="ytick_22">
     <g id="line2d_28">
      <g>
       <use xlink:href="#m6634846bb2" x="81.316719" y="66.401216" style="stroke: #000000; stroke-width: 0.6"/>
      </g>
     </g>
    </g>
    <g id="ytick_23">
     <g id="line2d_29">
      <g>
       <use xlink:href="#m6634846bb2" x="81.316719" y="33.876589" style="stroke: #000000; stroke-width: 0.6"/>
      </g>
     </g>
    </g>
    <g id="ytick_24">
     <g id="line2d_30">
      <g>
       <use xlink:href="#m6634846bb2" x="81.316719" y="10.8" style="stroke: #000000; stroke-width: 0.6"/>
      </g>
     </g>
    </g>
    <g id="text_11">
     <!-- Betti number -->
     <g transform="translate(29.9175 343.298828)rotate(-90)scale(0.25 -0.25)">
      <defs>
       <path id="DejaVuSans-42" d="M 1259 2228 
L 1259 519 
L 2272 519 
Q 2781 519 3026 730 
Q 3272 941 3272 1375 
Q 3272 1813 3026 2020 
Q 2781 2228 2272 2228 
L 1259 2228 
z
M 1259 4147 
L 1259 2741 
L 2194 2741 
Q 2656 2741 2882 2914 
Q 3109 3088 3109 3444 
Q 3109 3797 2882 3972 
Q 2656 4147 2194 4147 
L 1259 4147 
z
M 628 4666 
L 2241 4666 
Q 2963 4666 3353 4366 
Q 3744 4066 3744 3513 
Q 3744 3084 3544 2831 
Q 3344 2578 2956 2516 
Q 3422 2416 3680 2098 
Q 3938 1781 3938 1306 
Q 3938 681 3513 340 
Q 3088 0 2303 0 
L 628 0 
L 628 4666 
z
" transform="scale(0.015625)"/>
       <path id="DejaVuSans-75" d="M 544 1381 
L 544 3500 
L 1119 3500 
L 1119 1403 
Q 1119 906 1312 657 
Q 1506 409 1894 409 
Q 2359 409 2629 706 
Q 2900 1003 2900 1516 
L 2900 3500 
L 3475 3500 
L 3475 0 
L 2900 0 
L 2900 538 
Q 2691 219 2414 64 
Q 2138 -91 1772 -91 
Q 1169 -91 856 284 
Q 544 659 544 1381 
z
M 1991 3584 
L 1991 3584 
z
" transform="scale(0.015625)"/>
       <path id="DejaVuSans-6d" d="M 3328 2828 
Q 3544 3216 3844 3400 
Q 4144 3584 4550 3584 
Q 5097 3584 5394 3201 
Q 5691 2819 5691 2113 
L 5691 0 
L 5113 0 
L 5113 2094 
Q 5113 2597 4934 2840 
Q 4756 3084 4391 3084 
Q 3944 3084 3684 2787 
Q 3425 2491 3425 1978 
L 3425 0 
L 2847 0 
L 2847 2094 
Q 2847 2600 2669 2842 
Q 2491 3084 2119 3084 
Q 1678 3084 1418 2786 
Q 1159 2488 1159 1978 
L 1159 0 
L 581 0 
L 581 3500 
L 1159 3500 
L 1159 2956 
Q 1356 3278 1631 3431 
Q 1906 3584 2284 3584 
Q 2666 3584 2933 3390 
Q 3200 3197 3328 2828 
z
" transform="scale(0.015625)"/>
       <path id="DejaVuSans-62" d="M 3116 1747 
Q 3116 2381 2855 2742 
Q 2594 3103 2138 3103 
Q 1681 3103 1420 2742 
Q 1159 2381 1159 1747 
Q 1159 1113 1420 752 
Q 1681 391 2138 391 
Q 2594 391 2855 752 
Q 3116 1113 3116 1747 
z
M 1159 2969 
Q 1341 3281 1617 3432 
Q 1894 3584 2278 3584 
Q 2916 3584 3314 3078 
Q 3713 2572 3713 1747 
Q 3713 922 3314 415 
Q 2916 -91 2278 -91 
Q 1894 -91 1617 61 
Q 1341 213 1159 525 
L 1159 0 
L 581 0 
L 581 4863 
L 1159 4863 
L 1159 2969 
z
" transform="scale(0.015625)"/>
       <path id="DejaVuSans-72" d="M 2631 2963 
Q 2534 3019 2420 3045 
Q 2306 3072 2169 3072 
Q 1681 3072 1420 2755 
Q 1159 2438 1159 1844 
L 1159 0 
L 581 0 
L 581 3500 
L 1159 3500 
L 1159 2956 
Q 1341 3275 1631 3429 
Q 1922 3584 2338 3584 
Q 2397 3584 2469 3576 
Q 2541 3569 2628 3553 
L 2631 2963 
z
" transform="scale(0.015625)"/>
      </defs>
      <use xlink:href="#DejaVuSans-42"/>
      <use xlink:href="#DejaVuSans-65" x="68.603516"/>
      <use xlink:href="#DejaVuSans-74" x="130.126953"/>
      <use xlink:href="#DejaVuSans-74" x="169.335938"/>
      <use xlink:href="#DejaVuSans-69" x="208.544922"/>
      <use xlink:href="#DejaVuSans-20" x="236.328125"/>
      <use xlink:href="#DejaVuSans-6e" x="268.115234"/>
      <use xlink:href="#DejaVuSans-75" x="331.494141"/>
      <use xlink:href="#DejaVuSans-6d" x="394.873047"/>
      <use xlink:href="#DejaVuSans-62" x="492.285156"/>
      <use xlink:href="#DejaVuSans-65" x="555.761719"/>
      <use xlink:href="#DejaVuSans-72" x="617.285156"/>
     </g>
    </g>
   </g>
   <g id="line2d_31">
    <path d="M 533.862628 491.408911 
L 533.619705 435.807696 
L 526.770016 403.28307 
L 526.561543 380.20648 
L 519.702849 362.306887 
L 517.727976 347.681854 
L 515.537117 335.316565 
L 514.260123 324.605265 
L 512.817455 315.157228 
L 511.538812 324.605265 
L 510.377862 315.157228 
L 508.896321 306.705671 
L 508.451599 299.060308 
L 508.343698 285.659965 
L 506.766768 279.715349 
L 505.754162 269.004049 
L 504.137914 274.181045 
L 499.305898 279.715349 
L 498.049061 274.181045 
L 497.360003 269.004049 
L 497.256709 264.141009 
L 496.613513 259.556012 
L 493.202333 264.141009 
L 491.449442 259.556012 
L 491.310337 255.218978 
L 490.225064 251.104456 
L 489.787881 247.190723 
L 489.177302 251.104456 
L 488.949013 255.218978 
L 487.776151 259.556012 
L 486.721191 255.218978 
L 485.876066 251.104456 
L 485.16502 243.459093 
L 485.041255 247.190723 
L 483.366632 243.459093 
L 483.266636 236.479423 
L 482.344786 233.204862 
L 482.02061 230.058749 
L 481.031014 227.031386 
L 480.731051 224.114134 
L 480.711759 227.031386 
L 480.228845 224.114134 
L 479.580021 221.299263 
L 478.153217 218.579829 
L 477.255633 206.214541 
L 475.244557 203.954797 
L 474.768476 206.214541 
L 474.464115 203.954797 
L 472.865223 206.214541 
L 472.588192 203.954797 
L 472.440318 206.214541 
L 472.313752 203.954797 
L 472.228336 206.214541 
L 471.978293 203.954797 
L 471.645452 206.214541 
L 471.240311 203.954797 
L 471.192642 201.756972 
L 471.189344 203.954797 
L 470.974483 201.756972 
L 470.948934 199.617762 
L 470.722137 197.534123 
L 470.646694 195.50324 
L 470.585597 197.534123 
L 469.303761 195.50324 
L 468.672424 197.534123 
L 468.465808 199.617762 
L 467.984492 195.50324 
L 467.837848 197.534123 
L 467.245043 195.50324 
L 467.046674 191.589508 
L 466.224637 189.701995 
L 466.192465 187.857877 
L 466.123698 189.701995 
L 465.822688 187.857877 
L 465.094208 189.701995 
L 464.776524 187.857877 
L 464.750059 186.055203 
L 464.226204 184.292152 
L 464.105371 182.567019 
L 463.618269 184.292152 
L 463.321998 182.567019 
L 462.863298 184.292152 
L 462.409781 187.857877 
L 461.671641 189.701995 
L 461.630674 191.589508 
L 460.30062 189.701995 
L 460.16785 187.857877 
L 459.67046 189.701995 
L 459.624598 187.857877 
L 459.341625 186.055203 
L 458.795677 184.292152 
L 458.69411 182.567019 
L 458.648536 184.292152 
L 458.48951 182.567019 
L 458.021125 186.055203 
L 457.50782 187.857877 
L 457.341072 186.055203 
L 457.202727 187.857877 
L 456.678139 186.055203 
L 456.590053 184.292152 
L 455.469572 182.567019 
L 455.259763 180.878207 
L 454.461862 179.224219 
L 454.41244 177.603647 
L 454.374143 179.224219 
L 453.573963 177.603647 
L 453.524672 179.224219 
L 453.469098 177.603647 
L 452.533087 172.929571 
L 452.384584 174.457534 
L 452.010122 172.929571 
L 451.977977 171.430171 
L 451.397999 172.929571 
L 451.153715 174.457534 
L 450.968957 171.430171 
L 449.573643 168.512918 
L 449.560686 167.093136 
L 449.332108 165.698047 
L 448.907465 164.326807 
L 448.322565 162.978614 
L 448.163906 161.652706 
L 448.134038 164.326807 
L 447.094182 160.348359 
L 446.880604 164.326807 
L 446.425595 162.978614 
L 445.950508 164.326807 
L 445.492855 162.978614 
L 445.396446 160.348359 
L 444.45046 159.064882 
L 443.911135 156.55794 
L 443.865221 155.333251 
L 443.568164 154.126979 
L 443.493559 155.333251 
L 442.715919 154.126979 
L 442.622467 152.938578 
L 442.414255 151.767526 
L 442.052619 150.613325 
L 441.794252 148.353581 
L 440.865439 150.613325 
L 440.724973 148.353581 
L 440.617255 145.079021 
L 440.568199 144.016547 
L 440.367709 142.967962 
L 440.197585 144.016547 
L 439.893722 145.079021 
L 439.504103 141.932908 
L 439.398976 142.967962 
L 439.391804 141.932908 
L 438.903314 140.911039 
L 438.630236 141.932908 
L 438.467938 140.911039 
L 438.212529 142.967962 
L 437.892724 141.932908 
L 437.829821 140.911039 
L 437.637838 139.902024 
L 437.347535 140.911039 
L 437.268481 137.921292 
L 437.187306 138.905545 
L 436.858234 139.902024 
L 436.747977 138.905545 
L 436.111299 139.902024 
L 435.838849 138.905545 
L 435.793144 136.94897 
L 435.283399 135.988292 
L 435.226856 135.038984 
L 435.128457 135.988292 
L 435.04134 134.100779 
L 434.522014 133.173421 
L 434.293724 131.350261 
L 433.808978 133.173421 
L 433.698537 131.350261 
L 433.660895 129.567619 
L 431.997214 128.690937 
L 431.629741 129.567619 
L 431.23261 127.823733 
L 431.178004 126.965804 
L 430.922438 128.690937 
L 430.876209 127.823733 
L 430.516878 126.965804 
L 430.516694 127.823733 
L 430.321361 126.965804 
L 429.986557 126.116953 
L 429.842479 125.276992 
L 429.588667 126.116953 
L 429.443253 125.276992 
L 429.26716 126.116953 
L 429.011175 123.623003 
L 428.808932 124.445735 
L 428.27992 122.808625 
L 427.832791 123.623003 
L 427.574921 124.445735 
L 427.337129 122.808625 
L 427.001827 124.445735 
L 426.956305 123.623003 
L 426.898428 124.445735 
L 426.889083 125.276992 
L 425.900194 124.445735 
L 425.567667 123.623003 
L 425.465158 125.276992 
L 425.347885 126.116953 
L 425.209722 124.445735 
L 425.036378 125.276992 
L 424.726521 126.116953 
L 424.562469 125.276992 
L 424.393732 126.116953 
L 424.152171 124.445735 
L 423.856135 123.623003 
L 423.841659 122.808625 
L 423.394712 121.204259 
L 423.363666 122.808625 
L 422.78484 123.623003 
L 422.653379 124.445735 
L 422.454015 123.623003 
L 422.227374 124.445735 
L 422.032329 123.623003 
L 421.863383 124.445735 
L 421.532662 122.002431 
L 421.251862 122.808625 
L 421.176838 122.002431 
L 420.874939 122.808625 
L 420.759446 122.002431 
L 420.745519 122.808625 
L 420.196771 123.623003 
L 420.118711 125.276992 
L 419.718831 126.116953 
L 419.429627 125.276992 
L 419.40413 126.116953 
L 419.156443 126.965804 
L 418.927159 126.116953 
L 418.732899 126.965804 
L 418.563508 129.567619 
L 418.382049 128.690937 
L 418.260797 125.276992 
L 417.535379 126.116953 
L 417.37939 127.823733 
L 417.219789 128.690937 
L 417.053303 127.823733 
L 416.951527 128.690937 
L 416.599498 127.823733 
L 416.309614 128.690937 
L 416.045043 127.823733 
L 416.013761 128.690937 
L 415.612651 129.567619 
L 415.56959 130.453988 
L 415.060159 129.567619 
L 414.654074 130.453988 
L 414.266733 129.567619 
L 414.242153 128.690937 
L 413.907061 129.567619 
L 413.71678 127.823733 
L 413.486815 128.690937 
L 413.138844 127.823733 
L 412.975578 128.690937 
L 412.922569 127.823733 
L 412.796527 128.690937 
L 412.397092 129.567619 
L 411.42938 127.823733 
L 411.304856 126.965804 
L 410.957748 127.823733 
L 410.809927 126.965804 
L 410.792179 127.823733 
L 410.493289 128.690937 
L 410.197411 131.350261 
L 409.741538 126.965804 
L 409.68777 127.823733 
L 409.275089 128.690937 
L 409.023816 129.567619 
L 408.963374 128.690937 
L 408.604958 129.567619 
L 408.577655 130.453988 
L 408.359208 131.350261 
L 408.213664 130.453988 
L 408.196099 131.350261 
L 407.84907 132.256661 
L 407.523009 135.038984 
L 407.40982 134.100779 
L 407.309824 135.988292 
L 407.234983 134.100779 
L 407.046666 135.038984 
L 406.706548 135.988292 
L 406.059216 134.100779 
L 405.924719 135.038984 
L 405.891579 134.100779 
L 405.886762 135.038984 
L 405.543006 133.173421 
L 405.272361 134.100779 
L 405.249247 135.038984 
L 404.844707 134.100779 
L 404.476842 135.038984 
L 404.41297 135.988292 
L 404.307005 135.038984 
L 404.154707 138.905545 
L 403.959165 139.902024 
L 403.577137 140.911039 
L 403.050142 141.932908 
L 403.004201 139.902024 
L 402.786539 138.905545 
L 402.678166 136.94897 
L 402.322002 135.038984 
L 402.02183 136.94897 
L 401.725506 137.921292 
L 401.465018 136.94897 
L 401.248875 135.038984 
L 401.240158 135.988292 
L 400.898234 135.038984 
L 399.996173 134.100779 
L 399.973844 133.173421 
L 399.94539 134.100779 
L 399.886309 135.038984 
L 399.543678 134.100779 
L 399.469099 135.038984 
L 399.314027 133.173421 
L 399.307875 132.256661 
L 399.264473 133.173421 
L 399.161598 132.256661 
L 398.890037 131.350261 
L 398.750906 130.453988 
L 398.161766 129.567619 
L 397.900755 131.350261 
L 397.86861 130.453988 
L 397.576579 129.567619 
L 397.261251 127.823733 
L 397.03584 128.690937 
L 397.031495 127.823733 
L 396.881396 126.965804 
L 396.876161 127.823733 
L 396.868229 126.965804 
L 396.712999 126.116953 
L 396.608631 126.965804 
L 396.398116 126.116953 
L 396.334087 126.965804 
L 396.039517 127.823733 
L 395.94083 126.116953 
L 395.506972 126.965804 
L 395.419383 126.116953 
L 395.322136 126.965804 
L 395.260908 126.116953 
L 395.256876 126.965804 
L 395.199025 128.690937 
L 394.926836 127.823733 
L 394.783831 128.690937 
L 394.147259 127.823733 
L 394.092575 126.965804 
L 393.998154 127.823733 
L 393.771749 126.965804 
L 393.753242 127.823733 
L 393.314463 128.690937 
L 393.30983 129.567619 
L 393.203132 128.690937 
L 393.087927 130.453988 
L 393.081932 129.567619 
L 392.713543 130.453988 
L 392.42269 129.567619 
L 392.303061 128.690937 
L 392.167621 129.567619 
L 391.797138 130.453988 
L 391.629422 127.823733 
L 391.473616 128.690937 
L 391.437728 126.965804 
L 391.331868 126.116953 
L 390.78448 127.823733 
L 390.247197 125.276992 
L 389.902524 126.116953 
L 389.759807 125.276992 
L 389.602378 126.116953 
L 388.777645 125.276992 
L 388.742254 126.116953 
L 388.683696 125.276992 
L 388.563491 124.445735 
L 388.496923 126.116953 
L 388.166464 126.965804 
L 388.052699 125.276992 
L 387.742972 126.965804 
L 387.581617 128.690937 
L 387.096583 129.567619 
L 386.981483 130.453988 
L 386.915569 129.567619 
L 386.739712 130.453988 
L 386.270515 131.350261 
L 386.210517 132.256661 
L 385.815872 131.350261 
L 385.798936 132.256661 
L 385.592478 131.350261 
L 385.487036 132.256661 
L 385.401438 129.567619 
L 385.349817 130.453988 
L 385.137783 129.567619 
L 385.057576 132.256661 
L 384.9836 131.350261 
L 384.245879 132.256661 
L 383.891233 130.453988 
L 383.35107 129.567619 
L 383.187307 128.690937 
L 383.125372 129.567619 
L 383.08218 128.690937 
L 382.820383 127.823733 
L 382.800122 128.690937 
L 382.776825 127.823733 
L 382.539844 128.690937 
L 382.375819 131.350261 
L 382.35171 130.453988 
L 382.098578 127.823733 
L 382.073893 128.690937 
L 381.706813 127.823733 
L 381.685453 126.965804 
L 381.67561 127.823733 
L 381.170603 132.256661 
L 380.733237 131.350261 
L 380.718055 132.256661 
L 380.496963 133.173421 
L 380.392098 132.256661 
L 380.237314 133.173421 
L 380.236659 132.256661 
L 379.769923 134.100779 
L 379.081363 135.038984 
L 378.660593 134.100779 
L 378.426047 135.038984 
L 378.31935 134.100779 
L 378.270268 135.038984 
L 377.898004 133.173421 
L 377.461843 127.823733 
L 376.87532 126.965804 
L 376.46942 127.823733 
L 376.316755 128.690937 
L 375.818764 129.567619 
L 375.500425 127.823733 
L 375.292108 128.690937 
L 375.225173 126.965804 
L 375.195829 127.823733 
L 374.907594 128.690937 
L 374.851078 130.453988 
L 374.776499 129.567619 
L 374.734642 130.453988 
L 374.556298 131.350261 
L 374.121498 132.256661 
L 374.030219 130.453988 
L 373.848943 129.567619 
L 373.665363 130.453988 
L 373.123682 128.690937 
L 372.993085 130.453988 
L 372.871022 129.567619 
L 372.522632 128.690937 
L 372.455304 127.823733 
L 371.825302 126.965804 
L 371.77232 126.116953 
L 371.253517 126.965804 
L 371.234958 127.823733 
L 370.181307 126.965804 
L 370.174186 127.823733 
L 370.12178 126.965804 
L 369.650725 126.116953 
L 369.34982 125.276992 
L 369.297073 126.116953 
L 369.053444 126.965804 
L 368.431033 127.823733 
L 368.116856 128.690937 
L 368.086569 127.823733 
L 367.86197 128.690937 
L 367.759409 129.567619 
L 367.742289 128.690937 
L 367.399789 129.567619 
L 367.229874 128.690937 
L 367.207152 129.567619 
L 367.154981 128.690937 
L 367.090507 129.567619 
L 366.864835 128.690937 
L 366.617227 133.173421 
L 365.031213 131.350261 
L 364.719183 130.453988 
L 364.484533 131.350261 
L 363.931229 129.567619 
L 363.832751 130.453988 
L 363.314629 129.567619 
L 363.21746 131.350261 
L 363.174294 130.453988 
L 362.905901 131.350261 
L 362.852448 130.453988 
L 362.839385 131.350261 
L 362.256161 132.256661 
L 362.177604 133.173421 
L 361.99481 132.256661 
L 361.701942 133.173421 
L 361.469908 132.256661 
L 361.410644 133.173421 
L 361.153062 134.100779 
L 361.085761 135.988292 
L 361.034454 135.038984 
L 360.533059 134.100779 
L 360.468925 131.350261 
L 359.984546 130.453988 
L 359.819631 129.567619 
L 359.81217 130.453988 
L 359.791726 129.567619 
L 359.700237 128.690937 
L 359.648511 129.567619 
L 359.49569 128.690937 
L 359.425981 129.567619 
L 359.145363 128.690937 
L 358.86396 129.567619 
L 358.757498 127.823733 
L 358.35411 126.965804 
L 357.913813 127.823733 
L 357.816931 126.965804 
L 357.802534 127.823733 
L 357.573904 126.965804 
L 357.347447 127.823733 
L 357.071567 126.965804 
L 356.675509 127.823733 
L 356.451905 128.690937 
L 356.200553 127.823733 
L 356.131027 130.453988 
L 355.827138 128.690937 
L 355.601675 127.823733 
L 355.381631 129.567619 
L 355.363935 130.453988 
L 355.090202 129.567619 
L 354.960809 130.453988 
L 354.477215 128.690937 
L 354.032048 129.567619 
L 354.011369 128.690937 
L 353.686093 127.823733 
L 353.507723 126.965804 
L 353.481807 126.116953 
L 352.861177 124.445735 
L 352.78864 125.276992 
L 352.445983 126.116953 
L 352.324888 125.276992 
L 352.057647 127.823733 
L 351.70033 128.690937 
L 351.598842 127.823733 
L 351.420734 128.690937 
L 350.950202 129.567619 
L 350.33868 130.453988 
L 350.28685 131.350261 
L 349.936968 130.453988 
L 349.7998 131.350261 
L 349.616928 128.690937 
L 349.616247 129.567619 
L 349.311232 130.453988 
L 349.295919 129.567619 
L 349.233722 131.350261 
L 348.895724 132.256661 
L 348.745416 130.453988 
L 348.53812 133.173421 
L 348.150648 132.256661 
L 348.059473 131.350261 
L 347.336333 130.453988 
L 347.269058 131.350261 
L 347.08362 130.453988 
L 347.074929 131.350261 
L 346.970745 130.453988 
L 346.708582 131.350261 
L 346.620915 134.100779 
L 346.58021 135.038984 
L 346.365323 135.988292 
L 345.959893 135.038984 
L 345.942799 135.988292 
L 345.531035 133.173421 
L 345.335781 134.100779 
L 345.042153 132.256661 
L 344.792817 133.173421 
L 344.653712 135.988292 
L 344.611358 136.94897 
L 344.608426 135.988292 
L 344.184489 135.038984 
L 344.104099 135.988292 
L 343.988868 135.038984 
L 343.694455 136.94897 
L 343.361222 135.988292 
L 343.154345 135.038984 
L 343.078117 135.988292 
L 343.017648 135.038984 
L 342.872078 135.988292 
L 342.711115 135.038984 
L 342.26286 136.94897 
L 341.855834 135.988292 
L 341.828243 136.94897 
L 341.18476 138.905545 
L 340.900739 137.921292 
L 340.800795 138.905545 
L 340.734096 137.921292 
L 340.523057 138.905545 
L 339.960277 139.902024 
L 339.88884 141.932908 
L 339.776933 140.911039 
L 339.281036 141.932908 
L 339.079839 139.902024 
L 338.941755 140.911039 
L 338.589596 141.932908 
L 338.457873 142.967962 
L 338.2672 141.932908 
L 338.081055 144.016547 
L 337.941348 141.932908 
L 337.576571 144.016547 
L 337.273127 139.902024 
L 337.242055 138.905545 
L 336.740059 139.902024 
L 336.521035 141.932908 
L 336.517423 142.967962 
L 336.198823 141.932908 
L 336.131783 140.911039 
L 335.849281 139.902024 
L 335.678083 142.967962 
L 335.162134 144.016547 
L 334.779269 142.967962 
L 334.718329 141.932908 
L 334.716863 142.967962 
L 333.861215 145.079021 
L 333.642637 146.155756 
L 333.401782 145.079021 
L 333.373039 144.016547 
L 333.20569 142.967962 
L 333.173885 140.911039 
L 332.943893 142.967962 
L 332.909156 144.016547 
L 332.885754 142.967962 
L 332.792773 144.016547 
L 332.500036 142.967962 
L 332.251642 144.016547 
L 331.86506 145.079021 
L 331.654937 144.016547 
L 331.577636 142.967962 
L 331.442955 144.016547 
L 331.066006 145.079021 
L 330.837716 144.016547 
L 330.799577 145.079021 
L 330.607647 146.155756 
L 330.195934 147.247142 
L 330.012015 146.155756 
L 330.004842 147.247142 
L 329.801368 149.475496 
L 329.753203 150.613325 
L 329.713754 149.475496 
L 329.476956 150.613325 
L 329.316596 154.126979 
L 329.184245 151.767526 
L 328.969332 150.613325 
L 328.824756 152.938578 
L 328.50749 151.767526 
L 328.332497 150.613325 
L 328.252081 151.767526 
L 328.176744 150.613325 
L 327.928376 151.767526 
L 327.744247 156.55794 
L 327.418396 159.064882 
L 327.027887 157.801618 
L 327.009327 159.064882 
L 326.82868 160.348359 
L 326.3999 161.652706 
L 326.243545 162.978614 
L 326.128549 160.348359 
L 325.750788 161.652706 
L 325.687623 160.348359 
L 325.384755 159.064882 
L 324.79462 157.801618 
L 324.44733 156.55794 
L 324.316157 160.348359 
L 324.023498 161.652706 
L 324.014336 162.978614 
L 323.697044 164.326807 
L 323.489513 162.978614 
L 323.471058 161.652706 
L 323.417631 162.978614 
L 323.252637 164.326807 
L 322.472326 162.978614 
L 322.023783 161.652706 
L 321.827102 164.326807 
L 321.749422 162.978614 
L 321.410272 161.652706 
L 321.315184 159.064882 
L 321.223892 160.348359 
L 321.074015 159.064882 
L 320.977671 160.348359 
L 320.81625 159.064882 
L 320.729526 161.652706 
L 320.463318 162.978614 
L 320.347511 165.698047 
L 319.745309 164.326807 
L 319.618782 162.978614 
L 319.447519 164.326807 
L 319.360193 162.978614 
L 319.282316 164.326807 
L 319.169441 162.978614 
L 319.060204 164.326807 
L 318.919424 162.978614 
L 318.596203 161.652706 
L 318.546846 162.978614 
L 318.056368 161.652706 
L 317.794165 160.348359 
L 317.50398 162.978614 
L 317.143889 164.326807 
L 317.043003 162.978614 
L 316.402137 164.326807 
L 316.201843 162.978614 
L 315.923385 164.326807 
L 315.836766 165.698047 
L 315.560886 162.978614 
L 315.438417 164.326807 
L 314.991902 165.698047 
L 314.966419 164.326807 
L 314.33982 162.978614 
L 314.020709 161.652706 
L 314.016965 162.978614 
L 313.851422 164.326807 
L 313.544627 165.698047 
L 313.514052 167.093136 
L 313.243984 168.512918 
L 313.156304 167.093136 
L 313.143949 168.512918 
L 313.018548 171.430171 
L 312.888278 169.958284 
L 312.826788 171.430171 
L 312.734435 169.958284 
L 312.392917 168.512918 
L 312.210581 169.958284 
L 312.049082 165.698047 
L 311.929571 167.093136 
L 311.9191 165.698047 
L 311.066632 164.326807 
L 310.909059 165.698047 
L 310.909059 167.093136 
L 310.84274 164.326807 
L 310.630536 162.978614 
L 310.438253 165.698047 
L 309.928298 164.326807 
L 309.882122 165.698047 
L 309.182934 164.326807 
L 309.146914 162.978614 
L 308.977994 164.326807 
L 308.921386 165.698047 
L 308.417256 169.958284 
L 308.324694 171.430171 
L 308.213729 169.958284 
L 307.853534 171.430171 
L 307.68227 172.929571 
L 307.660491 174.457534 
L 307.638398 172.929571 
L 307.333907 174.457534 
L 306.896881 172.929571 
L 306.803874 174.457534 
L 306.119044 172.929571 
L 305.752605 174.457534 
L 305.650345 176.015167 
L 305.425536 177.603647 
L 305.363863 174.457534 
L 305.099921 177.603647 
L 304.961915 176.015167 
L 304.653 174.457534 
L 304.442288 176.015167 
L 303.831068 177.603647 
L 303.831068 179.224219 
L 303.584415 182.567019 
L 303.351649 180.878207 
L 302.320418 179.224219 
L 302.207739 180.878207 
L 301.691528 182.567019 
L 301.522713 186.055203 
L 300.68302 191.589508 
L 299.992679 187.857877 
L 298.602679 189.701995 
L 298.31341 191.589508 
L 298.31341 193.522507 
L 297.95116 195.50324 
L 297.95116 197.534123 
L 297.831151 195.50324 
L 297.667597 197.534123 
L 297.504187 193.522507 
L 296.850206 195.50324 
L 296.393378 193.522507 
L 296.374806 191.589508 
L 296.119423 187.857877 
L 296.097329 186.055203 
L 295.783859 187.857877 
L 295.702239 189.701995 
L 295.502561 186.055203 
L 295.240019 187.857877 
L 294.915568 193.522507 
L 294.346793 195.50324 
L 294.236876 197.534123 
L 293.578864 195.50324 
L 293.078346 197.534123 
L 293.000836 195.50324 
L 292.410322 193.522507 
L 292.102506 191.589508 
L 292.063974 193.522507 
L 291.899019 195.50324 
L 291.3779 193.522507 
L 291.260523 195.50324 
L 290.803747 197.534123 
L 290.678542 195.50324 
L 290.405843 193.522507 
L 290.249488 195.50324 
L 290.248899 197.534123 
L 289.62599 199.617762 
L 289.486899 201.756972 
L 288.946958 203.954797 
L 288.934851 206.214541 
L 288.447501 210.934466 
L 288.438836 208.539793 
L 287.801975 210.934466 
L 287.504081 213.402833 
L 287.181933 210.934466 
L 287.128951 213.402833 
L 286.903266 215.949574 
L 286.86756 213.402833 
L 286.31016 215.949574 
L 286.160362 218.579829 
L 285.748755 221.299263 
L 285.6683 224.114134 
L 285.458399 221.299263 
L 284.447574 218.579829 
L 284.260251 221.299263 
L 283.47265 224.114134 
L 282.978532 221.299263 
L 281.25632 218.579829 
L 281.15779 210.934466 
L 280.897354 215.949574 
L 280.188546 221.299263 
L 280.143443 224.114134 
L 279.095813 227.031386 
L 278.218359 221.299263 
L 278.089149 218.579829 
L 276.798413 215.949574 
L 276.253224 213.402833 
L 275.562478 218.579829 
L 274.460478 224.114134 
L 274.150659 227.031386 
L 273.423488 224.114134 
L 273.404549 221.299263 
L 272.487502 218.579829 
L 272.324433 215.949574 
L 272.258833 218.579829 
L 271.047321 221.299263 
L 270.587535 218.579829 
L 270.18933 221.299263 
L 269.712856 218.579829 
L 269.708903 215.949574 
L 269.404386 221.299263 
L 269.159369 218.579829 
L 267.933434 215.949574 
L 267.911615 218.579829 
L 267.265056 215.949574 
L 267.023246 218.579829 
L 266.396699 213.402833 
L 266.340575 210.934466 
L 265.841785 206.214541 
L 265.546103 208.539793 
L 264.842464 206.214541 
L 264.346881 210.934466 
L 264.032848 208.539793 
L 262.782542 206.214541 
L 262.700451 203.954797 
L 262.386379 206.214541 
L 262.143574 203.954797 
L 261.703905 201.756972 
L 261.524161 203.954797 
L 261.510182 206.214541 
L 260.740316 203.954797 
L 260.691679 201.756972 
L 260.085013 199.617762 
L 260.019388 201.756972 
L 259.712043 203.954797 
L 259.384163 201.756972 
L 258.728965 203.954797 
L 258.416726 201.756972 
L 256.994751 203.954797 
L 256.213053 206.214541 
L 255.456916 201.756972 
L 254.867122 206.214541 
L 254.625639 210.934466 
L 254.078421 213.402833 
L 251.899485 215.949574 
L 251.788744 213.402833 
L 251.764792 215.949574 
L 251.540756 213.402833 
L 251.27909 215.949574 
L 251.124436 213.402833 
L 251.110366 210.934466 
L 250.961301 208.539793 
L 250.648198 210.934466 
L 249.599952 215.949574 
L 249.440076 213.402833 
L 248.260016 215.949574 
L 248.08107 218.579829 
L 248.036294 215.949574 
L 247.93563 218.579829 
L 247.577254 221.299263 
L 247.4126 213.402833 
L 246.455189 210.934466 
L 245.610417 213.402833 
L 245.481024 210.934466 
L 245.166756 215.949574 
L 245.104533 213.402833 
L 243.211869 215.949574 
L 242.858191 213.402833 
L 242.431113 215.949574 
L 241.876828 213.402833 
L 241.45988 215.949574 
L 241.168164 213.402833 
L 240.063428 210.934466 
L 239.11048 213.402833 
L 238.204257 210.934466 
L 237.902593 213.402833 
L 237.406081 210.934466 
L 236.638113 213.402833 
L 236.085437 215.949574 
L 235.204528 218.579829 
L 235.182906 221.299263 
L 235.049037 218.579829 
L 234.629641 215.949574 
L 233.382738 213.402833 
L 232.952427 208.539793 
L 232.941106 210.934466 
L 232.657949 213.402833 
L 232.459174 210.934466 
L 232.324244 206.214541 
L 232.05661 208.539793 
L 232.05661 210.934466 
L 231.234888 208.539793 
L 230.738048 206.214541 
L 230.496879 208.539793 
L 229.888001 206.214541 
L 229.445427 208.539793 
L 229.060637 206.214541 
L 229.015574 203.954797 
L 228.797912 201.756972 
L 228.747979 203.954797 
L 228.481903 201.756972 
L 227.828852 199.617762 
L 227.416053 201.756972 
L 226.895366 199.617762 
L 226.834465 197.534123 
L 226.484648 195.50324 
L 226.341329 193.522507 
L 226.054403 191.589508 
L 225.926096 193.522507 
L 225.854829 191.589508 
L 225.728578 193.522507 
L 225.301787 195.50324 
L 225.146165 193.522507 
L 225.132409 191.589508 
L 224.815484 189.701995 
L 224.310123 191.589508 
L 224.197575 193.522507 
L 224.145575 191.589508 
L 223.673891 193.522507 
L 222.582348 195.50324 
L 222.377919 191.589508 
L 222.030118 193.522507 
L 221.510072 195.50324 
L 221.482691 193.522507 
L 220.658063 191.589508 
L 220.101251 189.701995 
L 219.610301 191.589508 
L 219.587161 193.522507 
L 219.313912 195.50324 
L 218.80363 197.534123 
L 218.774207 199.617762 
L 218.529897 201.756972 
L 218.377102 206.214541 
L 217.824243 203.954797 
L 216.989183 201.756972 
L 216.422791 203.954797 
L 216.219409 206.214541 
L 216.004548 203.954797 
L 215.632284 208.539793 
L 215.110157 206.214541 
L 214.739648 203.954797 
L 214.620909 201.756972 
L 214.492118 203.954797 
L 213.768323 206.214541 
L 213.616339 208.539793 
L 213.50705 206.214541 
L 212.903618 201.756972 
L 212.784277 197.534123 
L 212.725823 199.617762 
L 212.714934 201.756972 
L 212.67898 199.617762 
L 212.500263 201.756972 
L 211.140059 199.617762 
L 210.986269 197.534123 
L 210.393909 195.50324 
L 210.233647 193.522507 
L 209.836005 195.50324 
L 209.769201 197.534123 
L 209.470639 193.522507 
L 208.794244 191.589508 
L 208.177704 193.522507 
L 208.080135 195.50324 
L 208.048618 193.522507 
L 207.824713 197.534123 
L 207.213342 195.50324 
L 206.976388 193.522507 
L 206.407843 195.50324 
L 205.982185 193.522507 
L 205.961806 191.589508 
L 205.744373 193.522507 
L 205.688793 191.589508 
L 205.653774 193.522507 
L 205.618991 197.534123 
L 204.728554 195.50324 
L 204.545485 193.522507 
L 204.541506 195.50324 
L 203.883625 191.589508 
L 203.555509 193.522507 
L 203.528181 195.50324 
L 202.967135 197.534123 
L 202.433438 193.522507 
L 202.273215 187.857877 
L 201.789902 191.589508 
L 200.866881 193.522507 
L 200.680062 195.50324 
L 200.66626 197.534123 
L 200.328092 195.50324 
L 200.161672 193.522507 
L 199.537716 191.589508 
L 199.32474 189.701995 
L 199.316907 187.857877 
L 199.031472 186.055203 
L 198.624053 184.292152 
L 198.573708 182.567019 
L 198.552603 184.292152 
L 198.06931 182.567019 
L 197.364795 184.292152 
L 197.17954 182.567019 
L 197.102226 186.055203 
L 196.902633 184.292152 
L 196.646851 187.857877 
L 196.575944 189.701995 
L 196.447486 187.857877 
L 196.351868 189.701995 
L 195.448133 186.055203 
L 195.443231 184.292152 
L 194.62942 186.055203 
L 194.16663 184.292152 
L 194.155826 186.055203 
L 193.763465 182.567019 
L 193.373552 180.878207 
L 193.212425 182.567019 
L 192.736089 179.224219 
L 191.62367 177.603647 
L 191.376598 176.015167 
L 190.885288 174.457534 
L 190.242695 176.015167 
L 190.204791 174.457534 
L 190.043036 176.015167 
L 189.986579 174.457534 
L 189.715346 176.015167 
L 189.588394 177.603647 
L 189.438242 176.015167 
L 188.836884 177.603647 
L 188.711948 179.224219 
L 188.398786 180.878207 
L 187.765721 179.224219 
L 187.76417 177.603647 
L 187.48791 179.224219 
L 187.023006 180.878207 
L 186.981791 179.224219 
L 186.956242 180.878207 
L 186.424744 179.224219 
L 186.127039 177.603647 
L 185.450664 179.224219 
L 185.434585 180.878207 
L 185.017552 182.567019 
L 184.947568 184.292152 
L 184.940487 182.567019 
L 184.662841 179.224219 
L 184.1468 186.055203 
L 184.133607 187.857877 
L 183.762063 186.055203 
L 183.635995 187.857877 
L 183.577273 186.055203 
L 183.327603 184.292152 
L 183.2768 182.567019 
L 183.267632 184.292152 
L 182.994677 182.567019 
L 182.95426 180.878207 
L 182.283539 177.603647 
L 182.050629 179.224219 
L 182.041081 177.603647 
L 181.63414 176.015167 
L 180.787221 177.603647 
L 180.643811 180.878207 
L 180.553389 179.224219 
L 180.289479 182.567019 
L 180.193527 186.055203 
L 179.922163 193.522507 
L 179.808535 191.589508 
L 179.425971 189.701995 
L 179.316322 187.857877 
L 179.178107 191.589508 
L 178.705206 193.522507 
L 178.494448 195.50324 
L 178.489128 193.522507 
L 178.241434 191.589508 
L 178.087304 193.522507 
L 178.022339 191.589508 
L 177.631863 189.701995 
L 176.959218 191.589508 
L 176.481579 199.617762 
L 176.481579 201.756972 
L 176.292228 199.617762 
L 175.344077 201.756972 
L 174.654594 203.954797 
L 174.412888 201.756972 
L 174.322669 203.954797 
L 174.309685 201.756972 
L 173.80424 203.954797 
L 173.80424 206.214541 
L 173.514198 203.954797 
L 173.19048 206.214541 
L 173.168701 203.954797 
L 173.11882 206.214541 
L 172.906348 203.954797 
L 172.346867 208.539793 
L 171.987679 210.934466 
L 171.831369 213.402833 
L 171.408519 215.949574 
L 171.101973 206.214541 
L 170.731601 203.954797 
L 170.599668 206.214541 
L 170.16513 208.539793 
L 170.003336 213.402833 
L 169.483899 215.949574 
L 168.415039 213.402833 
L 168.244031 215.949574 
L 166.808987 218.579829 
L 166.260775 221.299263 
L 166.018186 224.114134 
L 165.953771 227.031386 
L 165.304286 224.114134 
L 165.160627 218.579829 
L 165.050893 221.299263 
L 164.891651 218.579829 
L 164.18923 215.949574 
L 163.989362 213.402833 
L 163.809179 218.579829 
L 163.061943 215.949574 
L 162.780697 213.402833 
L 162.492626 215.949574 
L 162.242327 213.402833 
L 162.10516 206.214541 
L 161.649182 201.756972 
L 161.026294 203.954797 
L 160.923261 206.214541 
L 160.83191 203.954797 
L 160.565787 201.756972 
L 160.415636 197.534123 
L 160.066624 195.50324 
L 159.439292 193.522507 
L 159.324159 191.589508 
L 157.643971 189.701995 
L 156.752234 187.857877 
L 156.591069 189.701995 
L 155.984011 187.857877 
L 155.747959 189.701995 
L 155.715958 187.857877 
L 155.375113 186.055203 
L 155.365775 184.292152 
L 155.100611 182.567019 
L 154.801437 186.055203 
L 154.624481 182.567019 
L 154.465158 184.292152 
L 154.26814 182.567019 
L 153.816095 180.878207 
L 153.628039 184.292152 
L 153.34696 182.567019 
L 153.280238 180.878207 
L 153.121419 182.567019 
L 153.086738 180.878207 
L 152.323877 184.292152 
L 152.31948 186.055203 
L 152.153874 184.292152 
L 151.864755 182.567019 
L 151.783083 184.292152 
L 151.733952 182.567019 
L 151.525416 184.292152 
L 150.757026 182.567019 
L 150.742409 180.878207 
L 150.308037 186.055203 
L 150.108801 187.857877 
L 149.508025 189.701995 
L 149.419946 187.857877 
L 149.17292 186.055203 
L 149.009657 187.857877 
L 148.547142 186.055203 
L 148.323358 184.292152 
L 147.879062 187.857877 
L 146.241094 191.589508 
L 146.177094 193.522507 
L 145.854426 195.50324 
L 144.915028 197.534123 
L 144.789251 195.50324 
L 144.540968 193.522507 
L 144.180478 195.50324 
L 144.15095 193.522507 
L 144.132397 195.50324 
L 143.829457 193.522507 
L 143.645714 195.50324 
L 143.23107 193.522507 
L 143.06961 197.534123 
L 142.358348 201.756972 
L 141.690772 203.954797 
L 141.612074 201.756972 
L 141.608681 203.954797 
L 141.365591 201.756972 
L 140.674393 203.954797 
L 140.237381 206.214541 
L 139.308957 208.539793 
L 139.256728 210.934466 
L 139.024443 213.402833 
L 139.003043 210.934466 
L 138.934773 213.402833 
L 138.866922 210.934466 
L 137.84007 213.402833 
L 137.344676 215.949574 
L 137.017608 213.402833 
L 136.882495 210.934466 
L 136.874576 208.539793 
L 136.428939 210.934466 
L 136.113182 208.539793 
L 135.679062 213.402833 
L 135.538881 210.934466 
L 134.45938 213.402833 
L 134.172774 210.934466 
L 133.813501 218.579829 
L 133.5573 215.949574 
L 133.529281 218.579829 
L 133.301142 213.402833 
L 132.542093 215.949574 
L 131.879124 213.402833 
L 131.555576 208.539793 
L 130.844399 206.214541 
L 129.179079 208.539793 
L 129.035293 210.934466 
L 128.833416 208.539793 
L 128.816872 206.214541 
L 128.169943 208.539793 
L 128.121275 210.934466 
L 127.398497 208.539793 
L 127.134171 206.214541 
L 127.103848 203.954797 
L 126.957424 201.756972 
L 126.757264 203.954797 
L 126.264382 201.756972 
L 126.010234 199.617762 
L 125.093872 197.534123 
L 124.941793 201.756972 
L 124.836207 199.617762 
L 124.74444 201.756972 
L 124.447026 203.954797 
L 123.90133 206.214541 
L 123.739787 208.539793 
L 123.648356 206.214541 
L 123.52346 208.539793 
L 122.2647 203.954797 
L 122.171427 208.539793 
L 121.939394 206.214541 
L 121.186752 208.539793 
L 121.052726 210.934466 
L 120.445043 213.402833 
L 120.100888 215.949574 
L 120.038733 213.402833 
L 119.778135 210.934466 
L 119.696421 208.539793 
L 119.501204 206.214541 
L 119.40839 208.539793 
L 118.793377 210.934466 
L 118.586055 213.402833 
L 118.391508 210.934466 
L 117.560461 208.539793 
L 117.526619 206.214541 
L 116.98444 208.539793 
L 116.806687 210.934466 
L 116.668431 215.949574 
L 115.99964 218.579829 
L 115.304085 215.949574 
L 115.195817 218.579829 
L 114.645974 224.114134 
L 113.362922 227.031386 
L 113.111498 224.114134 
L 112.389305 227.031386 
L 112.389305 230.058749 
L 111.788448 227.031386 
L 110.612199 230.058749 
L 110.395789 236.479423 
L 110.367057 233.204862 
L 109.453249 236.479423 
L 109.295349 230.058749 
L 108.953414 227.031386 
L 108.126471 230.058749 
L 107.945955 227.031386 
L 107.885308 230.058749 
L 106.502533 227.031386 
L 106.226313 230.058749 
L 105.458845 227.031386 
L 105.395308 230.058749 
L 104.865778 236.479423 
L 104.412685 233.204862 
L 102.866524 236.479423 
L 102.866524 577 
L 102.866524 577 
" clip-path="url(#p5c09515537)" style="fill: none; stroke: #1f77b4; stroke-width: 1.5; stroke-linecap: square"/>
   </g>
   <g id="line2d_32">
    <path d="M 446.434469 491.408911 
L 446.432645 577 
M 435.644364 577 
L 435.641186 491.408911 
L 423.03271 435.807696 
L 421.831499 403.28307 
L 420.743425 380.20648 
L 420.310562 347.681854 
L 419.226022 335.316565 
L 418.131613 324.605265 
L 416.761194 315.157228 
L 415.412894 306.705671 
L 415.095 299.060308 
L 412.640119 292.080638 
L 412.632554 299.060308 
L 412.554547 292.080638 
L 410.957748 285.659965 
L 409.993675 292.080638 
L 409.766694 285.659965 
L 409.386237 279.715349 
L 409.258127 269.004049 
L 408.650689 264.141009 
L 407.444295 251.104456 
L 406.492315 247.190723 
L 406.388785 243.459093 
L 405.629259 239.893368 
L 404.49582 236.479423 
L 403.95283 239.893368 
L 403.637711 236.479423 
L 403.621769 233.204862 
L 402.659109 230.058749 
L 402.368859 233.204862 
L 401.989868 230.058749 
L 401.690874 233.204862 
L 401.240158 230.058749 
L 400.949855 233.204862 
L 400.729654 230.058749 
L 399.548442 236.479423 
L 399.442346 233.204862 
L 398.299274 230.058749 
L 397.220991 224.114134 
L 396.619128 227.031386 
L 396.03559 233.204862 
L 394.277437 230.058749 
L 393.299045 227.031386 
L 392.197516 230.058749 
L 392.105032 227.031386 
L 389.991316 221.299263 
L 389.868284 218.579829 
L 388.120026 215.949574 
L 386.981483 213.402833 
L 386.255568 210.934466 
L 386.057355 213.402833 
L 385.67292 210.934466 
L 384.833553 213.402833 
L 384.244256 215.949574 
L 384.044604 210.934466 
L 383.455438 208.539793 
L 383.402927 206.214541 
L 383.245655 208.539793 
L 382.174125 206.214541 
L 382.138315 208.539793 
L 381.425672 206.214541 
L 381.409573 203.954797 
L 380.602405 201.756972 
L 380.580049 199.617762 
L 380.112423 197.534123 
L 379.40135 199.617762 
L 378.802185 197.534123 
L 378.417723 195.50324 
L 378.416021 193.522507 
L 378.135037 195.50324 
L 377.436739 193.522507 
L 377.231694 191.589508 
L 376.308352 193.522507 
L 376.110114 191.589508 
L 375.709134 193.522507 
L 375.589767 195.50324 
L 375.320144 193.522507 
L 374.523394 195.50324 
L 373.815881 193.522507 
L 373.576178 191.589508 
L 373.567435 189.701995 
L 373.163026 191.589508 
L 372.744848 189.701995 
L 372.744848 187.857877 
L 372.389757 186.055203 
L 372.278688 184.292152 
L 371.860039 180.878207 
L 371.542407 182.567019 
L 370.988318 180.878207 
L 370.86327 179.224219 
L 370.539906 177.603647 
L 370.308893 179.224219 
L 370.229629 176.015167 
L 369.731795 174.457534 
L 369.657635 172.929571 
L 368.861042 174.457534 
L 368.803139 172.929571 
L 368.136855 174.457534 
L 367.879561 176.015167 
L 367.412458 174.457534 
L 367.095795 172.929571 
L 366.955957 169.958284 
L 365.895029 168.512918 
L 365.832859 167.093136 
L 365.575853 168.512918 
L 365.468658 165.698047 
L 365.166444 167.093136 
L 364.981137 168.512918 
L 364.560498 169.958284 
L 364.184282 168.512918 
L 364.111458 169.958284 
L 362.905142 168.512918 
L 362.714757 165.698047 
L 361.688225 167.093136 
L 361.282978 169.958284 
L 360.404137 168.512918 
L 360.399582 167.093136 
L 360.281393 165.698047 
L 359.933501 167.093136 
L 359.903921 165.698047 
L 359.597492 164.326807 
L 359.006441 162.978614 
L 359.001782 161.652706 
L 358.528815 162.978614 
L 358.489576 161.652706 
L 358.030641 159.064882 
L 357.388806 160.348359 
L 357.005575 157.801618 
L 356.942436 159.064882 
L 356.434104 156.55794 
L 356.337668 157.801618 
L 355.823708 156.55794 
L 355.566153 159.064882 
L 355.036487 157.801618 
L 354.665951 159.064882 
L 354.408893 160.348359 
L 354.352769 159.064882 
L 353.635728 157.801618 
L 353.274643 159.064882 
L 353.233047 160.348359 
L 352.928635 159.064882 
L 352.73961 160.348359 
L 352.675136 161.652706 
L 352.32083 160.348359 
L 351.460523 159.064882 
L 350.474722 156.55794 
L 350.423677 155.333251 
L 349.949611 156.55794 
L 349.571982 154.126979 
L 349.41238 155.333251 
L 349.047028 156.55794 
L 348.068949 157.801618 
L 347.651426 156.55794 
L 347.010325 155.333251 
L 346.787558 154.126979 
L 346.420111 155.333251 
L 346.25339 154.126979 
L 346.121903 155.333251 
L 346.056957 154.126979 
L 345.220235 152.938578 
L 344.990087 154.126979 
L 344.86962 152.938578 
L 344.389403 151.767526 
L 344.158966 150.613325 
L 342.924249 152.938578 
L 342.737711 150.613325 
L 342.517458 151.767526 
L 341.387867 152.938578 
L 340.903488 151.767526 
L 340.650434 149.475496 
L 340.28605 148.353581 
L 339.733767 147.247142 
L 339.599348 146.155756 
L 339.473306 147.247142 
L 338.327721 146.155756 
L 337.795385 145.079021 
L 337.640182 146.155756 
L 337.566965 145.079021 
L 337.545866 146.155756 
L 337.242841 145.079021 
L 337.199753 146.155756 
L 336.532658 147.247142 
L 336.259161 146.155756 
L 336.14283 147.247142 
L 335.12923 148.353581 
L 334.42724 147.247142 
L 334.414309 146.155756 
L 333.804803 145.079021 
L 333.612114 146.155756 
L 333.147236 144.016547 
L 332.516606 142.967962 
L 332.364439 144.016547 
L 332.355172 142.967962 
L 332.082826 144.016547 
L 331.905346 142.967962 
L 331.850689 144.016547 
L 331.77221 142.967962 
L 331.586196 145.079021 
L 331.400837 144.016547 
L 331.395523 142.967962 
L 330.181432 144.016547 
L 330.056568 145.079021 
L 330.052039 146.155756 
L 329.952933 144.016547 
L 329.736816 145.079021 
L 329.692524 144.016547 
L 329.45557 145.079021 
L 328.935354 146.155756 
L 328.925302 145.079021 
L 328.904753 146.155756 
L 328.156902 145.079021 
L 327.910314 146.155756 
L 327.293636 147.247142 
L 326.895588 146.155756 
L 326.806377 147.247142 
L 326.741929 146.155756 
L 325.963896 144.016547 
L 325.797645 145.079021 
L 325.513468 146.155756 
L 325.258582 145.079021 
L 324.399635 146.155756 
L 323.891435 145.079021 
L 323.640633 146.155756 
L 323.399961 145.079021 
L 322.533659 142.967962 
L 321.766489 141.932908 
L 320.65246 139.902024 
L 320.398478 138.905545 
L 320.188878 135.988292 
L 319.886835 135.038984 
L 319.844389 134.100779 
L 319.59822 133.173421 
L 319.087768 132.256661 
L 319.087768 131.350261 
L 318.566531 132.256661 
L 318.489506 131.350261 
L 318.139637 129.567619 
L 318.036682 128.690937 
L 317.941922 130.453988 
L 317.514883 129.567619 
L 317.355334 128.690937 
L 316.849672 129.567619 
L 316.83072 128.690937 
L 316.783117 129.567619 
L 316.705947 128.690937 
L 316.366405 129.567619 
L 316.30519 128.690937 
L 316.025031 127.823733 
L 315.882366 128.690937 
L 315.333355 127.823733 
L 315.320764 128.690937 
L 315.248542 127.823733 
L 314.916408 126.965804 
L 314.745393 126.116953 
L 314.360172 126.965804 
L 314.045341 126.116953 
L 313.191944 129.567619 
L 313.101267 127.823733 
L 313.024725 128.690937 
L 312.840609 127.823733 
L 312.175648 126.965804 
L 311.977566 126.116953 
L 311.871052 126.965804 
L 311.607672 125.276992 
L 310.776852 124.445735 
L 310.762717 123.623003 
L 310.704146 124.445735 
L 310.561847 125.276992 
L 310.36357 123.623003 
L 309.337012 125.276992 
L 309.194779 124.445735 
L 308.998621 125.276992 
L 308.978596 124.445735 
L 308.659825 123.623003 
L 308.385424 121.204259 
L 307.660491 120.413952 
L 307.64862 119.631354 
L 307.607077 121.204259 
L 306.989352 118.856318 
L 306.904774 117.328356 
L 306.675568 116.575152 
L 306.645412 115.828955 
L 306.329992 116.575152 
L 306.328814 115.828955 
L 306.073954 115.089636 
L 306.050395 115.828955 
L 305.614273 116.575152 
L 305.567049 115.089636 
L 305.566565 115.828955 
L 304.995422 115.089636 
L 304.756059 114.357068 
L 304.616274 115.089636 
L 304.598788 115.828955 
L 304.462013 116.575152 
L 304.445325 115.828955 
L 303.819367 116.575152 
L 303.681519 115.089636 
L 303.450009 114.357068 
L 302.833619 113.63113 
L 302.823318 114.357068 
L 302.512126 115.089636 
L 302.490425 115.828955 
L 302.097456 117.328356 
L 301.294855 116.575152 
L 301.004657 115.828955 
L 300.99662 115.089636 
L 300.871599 115.828955 
L 300.360833 113.63113 
L 300.261674 115.089636 
L 300.251805 115.828955 
L 300.237421 115.089636 
L 300.01239 114.357068 
L 299.98658 115.089636 
L 299.941372 113.63113 
L 299.160211 112.911703 
L 298.968006 113.63113 
L 298.497801 114.357068 
L 298.350123 115.089636 
L 298.259695 113.63113 
L 298.128901 114.357068 
L 298.09279 113.63113 
L 297.96451 114.357068 
L 297.940257 113.63113 
L 297.870979 114.357068 
L 297.823376 115.089636 
L 297.656995 114.357068 
L 297.634444 113.63113 
L 297.503284 114.357068 
L 297.286918 113.63113 
L 297.238202 114.357068 
L 296.970385 112.911703 
L 296.479448 113.63113 
L 296.177261 112.911703 
L 296.126019 111.491921 
L 296.11882 112.198671 
L 296.044726 112.911703 
L 296.005539 112.198671 
L 295.796503 112.911703 
L 295.676782 111.491921 
L 295.54841 112.198671 
L 295.095966 111.491921 
L 295.018705 112.198671 
L 294.812325 111.491921 
L 294.687304 112.198671 
L 294.551354 111.491921 
L 294.292476 112.198671 
L 294.279322 110.791343 
L 294.007487 110.096832 
L 293.796997 110.791343 
L 293.513108 110.096832 
L 292.40972 109.408282 
L 292.403372 108.725591 
L 292.110778 109.408282 
L 292.056225 108.725591 
L 291.604554 108.048663 
L 291.30272 107.377398 
L 290.753199 108.048663 
L 290.73799 107.377398 
L 290.397545 106.711705 
L 290.308831 106.051491 
L 290.026747 105.396666 
L 289.504987 104.747143 
L 289.490393 104.102838 
L 289.363762 103.463666 
L 288.730252 102.200402 
L 288.717569 102.829548 
L 288.581593 103.463666 
L 288.403798 102.829548 
L 288.283633 103.463666 
L 287.779175 102.829548 
L 287.713628 102.200402 
L 287.601525 102.829548 
L 287.287532 102.200402 
L 286.829447 101.576153 
L 286.692423 102.829548 
L 286.576053 102.200402 
L 286.355145 102.829548 
L 286.305409 102.200402 
L 286.003575 101.576153 
L 284.491878 100.342043 
L 283.829796 99.732035 
L 283.53003 100.956725 
L 283.47265 100.342043 
L 283.376894 100.956725 
L 283.141864 99.732035 
L 283.067691 100.342043 
L 282.302537 99.126632 
L 282.169086 98.525763 
L 282.025008 99.126632 
L 281.489021 99.732035 
L 281.467896 99.126632 
L 281.1216 100.956725 
L 280.901883 101.576153 
L 280.51229 102.200402 
L 280.507317 101.576153 
L 280.217799 102.200402 
L 280.109033 101.576153 
L 280.095919 102.200402 
L 280.058394 101.576153 
L 279.838952 100.342043 
L 279.397882 100.956725 
L 279.322964 101.576153 
L 279.237653 100.342043 
L 278.622532 100.956725 
L 278.405145 101.576153 
L 277.769881 102.200402 
L 277.28613 101.576153 
L 276.986809 102.200402 
L 276.919939 101.576153 
L 276.809158 102.200402 
L 276.757603 101.576153 
L 276.727944 102.200402 
L 276.127784 101.576153 
L 275.930762 102.200402 
L 275.56736 101.576153 
L 275.485255 102.200402 
L 275.23355 100.956725 
L 274.156667 100.342043 
L 274.140607 100.956725 
L 273.849454 101.576153 
L 273.662864 100.956725 
L 273.31662 101.576153 
L 272.976044 100.956725 
L 272.933886 100.342043 
L 272.470029 99.732035 
L 272.037192 100.342043 
L 271.958583 100.956725 
L 271.945219 100.342043 
L 271.648699 101.576153 
L 271.41397 100.956725 
L 270.855666 100.342043 
L 270.853232 99.732035 
L 270.106441 98.525763 
L 270.059806 97.929362 
L 269.956747 98.525763 
L 269.86484 97.929362 
L 269.848623 98.525763 
L 269.706495 97.929362 
L 269.605242 99.126632 
L 269.560362 99.732035 
L 269.506686 99.126632 
L 269.309992 98.525763 
L 269.225885 99.126632 
L 266.610447 100.342043 
L 266.283143 100.956725 
L 266.098111 100.342043 
L 265.936939 98.525763 
L 264.986804 99.126632 
L 264.215001 98.525763 
L 264.10549 99.732035 
L 264.072925 99.126632 
L 263.488092 97.929362 
L 263.28823 98.525763 
L 263.283139 99.126632 
L 262.629302 99.732035 
L 261.954812 99.126632 
L 261.342963 95.587134 
L 260.993238 96.166311 
L 260.868479 95.587134 
L 260.514866 96.166311 
L 260.434738 95.587134 
L 260.377555 96.166311 
L 259.90324 97.337362 
L 259.866422 96.749699 
L 259.53383 97.337362 
L 258.876774 96.749699 
L 258.785416 97.929362 
L 258.598368 98.525763 
L 258.116698 97.929362 
L 258.06903 97.337362 
L 257.643247 98.525763 
L 257.517427 99.126632 
L 257.36191 98.525763 
L 257.0759 99.126632 
L 256.87435 98.525763 
L 256.851065 99.126632 
L 256.4707 98.525763 
L 255.480201 99.732035 
L 254.955574 98.525763 
L 254.343176 100.342043 
L 254.194019 100.956725 
L 254.162031 101.576153 
L 253.972391 99.732035 
L 253.619591 99.126632 
L 253.477083 99.732035 
L 253.452594 100.342043 
L 253.251869 100.956725 
L 253.209344 101.576153 
L 252.817684 100.956725 
L 252.315569 101.576153 
L 252.146636 100.956725 
L 252.133168 101.576153 
L 251.966852 102.829548 
L 250.668707 104.102838 
L 250.205374 103.463666 
L 249.99533 104.102838 
L 249.949926 104.747143 
L 249.930777 104.102838 
L 249.816004 104.747143 
L 249.472391 103.463666 
L 249.442419 102.829548 
L 248.695169 102.200402 
L 248.589519 102.829548 
L 248.295132 103.463666 
L 248.250684 102.829548 
L 247.849861 102.200402 
L 247.562307 103.463666 
L 246.747913 104.102838 
L 246.747809 104.747143 
L 246.475018 104.102838 
L 246.442493 103.463666 
L 246.416826 104.102838 
L 246.243822 104.747143 
L 245.648243 105.396666 
L 245.346199 106.711705 
L 244.890287 105.396666 
L 244.232668 106.051491 
L 244.015045 106.711705 
L 243.548388 106.051491 
L 243.398825 106.711705 
L 242.903635 106.051491 
L 242.730002 105.396666 
L 242.14293 106.051491 
L 241.824906 104.102838 
L 241.425719 105.396666 
L 241.408744 106.051491 
L 241.100117 106.711705 
L 240.839132 106.051491 
L 240.256196 108.048663 
L 240.071032 108.725591 
L 239.898617 108.048663 
L 239.858475 108.725591 
L 239.481879 110.096832 
L 239.12866 110.791343 
L 239.096999 111.491921 
L 238.542779 110.791343 
L 237.74506 111.491921 
L 237.652341 110.791343 
L 237.617526 112.198671 
L 237.581074 111.491921 
L 237.38455 110.791343 
L 237.267487 111.491921 
L 237.023962 110.791343 
L 236.793813 111.491921 
L 236.664106 110.791343 
L 236.079783 111.491921 
L 235.853718 112.198671 
L 234.64701 111.491921 
L 234.601331 112.198671 
L 234.567824 111.491921 
L 234.481676 110.791343 
L 234.031968 111.491921 
L 233.902051 110.791343 
L 233.838349 111.491921 
L 233.595715 110.791343 
L 232.920662 111.491921 
L 232.829592 112.198671 
L 232.517562 112.911703 
L 232.51014 112.198671 
L 232.354296 111.491921 
L 232.345526 112.198671 
L 231.89057 113.63113 
L 231.786385 114.357068 
L 230.704594 113.63113 
L 230.666859 112.911703 
L 230.181289 111.491921 
L 229.364801 110.791343 
L 229.18041 111.491921 
L 228.543301 112.198671 
L 227.949881 111.491921 
L 227.722926 112.198671 
L 227.567749 111.491921 
L 227.252499 110.791343 
L 226.883927 112.198671 
L 226.556858 111.491921 
L 226.392191 112.198671 
L 226.265861 111.491921 
L 226.123667 112.198671 
L 226.017886 110.791343 
L 225.657062 111.491921 
L 225.414689 112.911703 
L 224.649325 113.63113 
L 224.270374 112.198671 
L 223.923031 111.491921 
L 223.357385 110.791343 
L 223.157117 110.096832 
L 223.002738 110.791343 
L 222.921184 110.096832 
L 222.912977 110.791343 
L 222.135415 112.198671 
L 222.08937 112.911703 
L 221.371216 113.63113 
L 221.004398 114.357068 
L 219.791708 115.828955 
L 219.743019 115.089636 
L 219.443501 114.357068 
L 219.379498 115.828955 
L 219.119024 115.089636 
L 219.07752 115.828955 
L 218.741303 116.575152 
L 218.611438 117.328356 
L 218.598716 116.575152 
L 217.667142 115.828955 
L 217.446273 118.856318 
L 217.114846 119.631354 
L 217.016525 120.413952 
L 216.770827 119.631354 
L 216.620899 120.413952 
L 216.206215 119.631354 
L 215.72732 120.413952 
L 215.691654 119.631354 
L 215.46805 118.856318 
L 215.396429 120.413952 
L 214.734399 122.808625 
L 214.140639 123.623003 
L 213.791058 125.276992 
L 213.779606 126.116953 
L 213.285318 127.823733 
L 213.209994 126.965804 
L 213.020393 127.823733 
L 212.416241 126.965804 
L 212.112882 126.116953 
L 211.866255 126.965804 
L 210.738549 126.116953 
L 210.670423 125.276992 
L 210.405303 124.445735 
L 210.338623 122.808625 
L 209.840697 123.623003 
L 209.608474 122.808625 
L 209.423834 123.623003 
L 208.557879 124.445735 
L 208.397754 125.276992 
L 208.341212 124.445735 
L 207.783118 126.965804 
L 207.568407 126.116953 
L 207.065579 125.276992 
L 206.783241 124.445735 
L 206.672505 123.623003 
L 206.588169 124.445735 
L 205.45282 125.276992 
L 205.030761 124.445735 
L 204.881722 125.276992 
L 204.813642 123.623003 
L 204.329138 125.276992 
L 204.137392 124.445735 
L 204.076118 126.116953 
L 203.737407 126.965804 
L 203.629139 127.823733 
L 203.47635 126.965804 
L 203.333653 128.690937 
L 203.252235 127.823733 
L 202.746581 126.965804 
L 202.594145 126.116953 
L 201.638475 125.276992 
L 201.309187 124.445735 
L 201.034263 125.276992 
L 200.945242 124.445735 
L 200.612689 125.276992 
L 200.58038 124.445735 
L 200.358333 123.623003 
L 200.185584 122.002431 
L 200.033319 122.808625 
L 199.303151 122.002431 
L 199.058343 124.445735 
L 199.002449 123.623003 
L 198.798078 124.445735 
L 198.720993 125.276992 
L 198.344064 124.445735 
L 198.269427 123.623003 
L 198.056915 122.808625 
L 197.934616 123.623003 
L 197.48087 122.808625 
L 196.893314 123.623003 
L 196.227534 122.808625 
L 196.035251 122.002431 
L 196.016802 121.204259 
L 195.990036 122.002431 
L 195.889955 122.808625 
L 195.824768 120.413952 
L 195.629926 119.631354 
L 195.584901 118.856318 
L 195.204811 119.631354 
L 195.003477 120.413952 
L 194.949048 119.631354 
L 194.741019 118.856318 
L 194.47353 119.631354 
L 194.281619 121.204259 
L 193.804131 118.088699 
L 193.512872 121.204259 
L 193.272593 122.002431 
L 193.187858 123.623003 
L 192.181764 124.445735 
L 191.96261 123.623003 
L 191.271642 124.445735 
L 190.791431 125.276992 
L 190.002076 126.116953 
L 189.509614 125.276992 
L 189.417805 124.445735 
L 189.012166 125.276992 
L 188.573733 124.445735 
L 188.418641 123.623003 
L 188.301702 125.276992 
L 187.212194 124.445735 
L 186.96755 125.276992 
L 185.949834 126.965804 
L 185.820873 125.276992 
L 185.329249 126.965804 
L 184.608268 127.823733 
L 184.225331 126.965804 
L 183.103574 127.823733 
L 182.827144 126.965804 
L 182.78924 126.116953 
L 182.415851 126.965804 
L 182.368857 127.823733 
L 182.143021 126.116953 
L 181.038141 125.276992 
L 180.204331 124.445735 
L 179.97841 128.690937 
L 178.892882 127.823733 
L 178.740093 129.567619 
L 178.386808 130.453988 
L 178.343669 131.350261 
L 177.888568 132.256661 
L 177.793617 133.173421 
L 177.215125 134.100779 
L 177.19862 135.038984 
L 176.778787 135.988292 
L 176.564803 136.94897 
L 176.081889 135.988292 
L 175.900744 135.038984 
L 175.65841 136.94897 
L 175.215201 137.921292 
L 174.358688 138.905545 
L 173.155887 139.902024 
L 173.050256 138.905545 
L 172.45501 139.902024 
L 170.809333 140.911039 
L 170.534245 139.902024 
L 170.515313 140.911039 
L 170.015312 142.967962 
L 169.658048 144.016547 
L 169.233771 142.967962 
L 169.144311 144.016547 
L 168.991352 142.967962 
L 168.93104 145.079021 
L 167.989001 144.016547 
L 167.794918 145.079021 
L 167.531807 144.016547 
L 167.326324 141.932908 
L 166.290342 142.967962 
L 166.158285 144.016547 
L 165.967717 142.967962 
L 164.128748 144.016547 
L 164.036356 146.155756 
L 163.530996 148.353581 
L 162.596326 145.079021 
L 161.842807 144.016547 
L 161.554984 145.079021 
L 160.875259 146.155756 
L 160.726953 144.016547 
L 160.723812 142.967962 
L 160.635019 145.079021 
L 160.611774 144.016547 
L 160.574537 145.079021 
L 160.455674 144.016547 
L 160.307617 145.079021 
L 160.253005 144.016547 
L 160.071101 145.079021 
L 159.889622 144.016547 
L 159.710486 145.079021 
L 159.63028 144.016547 
L 158.903108 145.079021 
L 158.654656 146.155756 
L 158.307692 142.967962 
L 157.984105 144.016547 
L 157.674879 142.967962 
L 156.818243 144.016547 
L 156.163523 145.079021 
L 156.003362 146.155756 
L 155.336623 147.247142 
L 155.144337 146.155756 
L 154.086576 147.247142 
L 151.708865 146.155756 
L 150.852019 147.247142 
L 150.47201 146.155756 
L 150.228168 145.079021 
L 150.059837 141.932908 
L 149.893393 142.967962 
L 149.813187 141.932908 
L 149.679707 142.967962 
L 149.645612 141.932908 
L 148.925848 139.902024 
L 148.64188 140.911039 
L 148.252493 139.902024 
L 148.083452 140.911039 
L 147.984189 139.902024 
L 147.724889 140.911039 
L 147.477107 139.902024 
L 147.449592 140.911039 
L 147.15423 138.905545 
L 146.508976 139.902024 
L 146.314933 140.911039 
L 146.044871 139.902024 
L 146.0344 140.911039 
L 145.976307 139.902024 
L 145.58604 140.911039 
L 145.53578 139.902024 
L 145.128171 140.911039 
L 145.112256 139.902024 
L 144.976259 140.911039 
L 144.546956 138.905545 
L 144.401792 139.902024 
L 144.302443 138.905545 
L 144.174071 139.902024 
L 144.083898 138.905545 
L 143.818816 139.902024 
L 143.52618 138.905545 
L 143.453346 136.94897 
L 143.167532 135.988292 
L 143.025967 135.038984 
L 142.773329 135.988292 
L 142.757247 135.038984 
L 142.430138 135.988292 
L 142.144871 135.038984 
L 141.890974 135.988292 
L 141.091423 135.038984 
L 140.765489 134.100779 
L 140.752882 135.038984 
L 140.41388 135.988292 
L 139.499189 136.94897 
L 138.821813 138.905545 
L 138.680123 137.921292 
L 138.640962 138.905545 
L 138.352721 137.921292 
L 138.048648 138.905545 
L 137.553798 139.902024 
L 137.402096 137.921292 
L 137.317452 138.905545 
L 136.979536 137.921292 
L 136.862515 135.988292 
L 136.563384 137.921292 
L 136.283732 136.94897 
L 136.211107 137.921292 
L 136.051571 136.94897 
L 135.451721 135.988292 
L 135.416287 136.94897 
L 134.591692 137.921292 
L 134.122724 136.94897 
L 133.594157 135.038984 
L 133.252433 135.988292 
L 132.81333 135.038984 
L 131.467831 136.94897 
L 130.890261 138.905545 
L 129.468575 139.902024 
L 129.425184 140.911039 
L 129.280394 139.902024 
L 129.171414 140.911039 
L 129.035293 138.905545 
L 128.981348 137.921292 
L 128.376218 138.905545 
L 127.619807 137.921292 
L 127.594551 136.94897 
L 127.404653 135.988292 
L 126.71492 136.94897 
L 126.282768 135.988292 
L 125.315099 136.94897 
L 125.234181 137.921292 
L 124.713908 138.905545 
L 124.586792 137.921292 
L 124.372517 138.905545 
L 124.173781 136.94897 
L 124.109155 137.921292 
L 123.938021 136.94897 
L 123.90489 137.921292 
L 123.490665 136.94897 
L 122.629965 135.988292 
L 121.689184 136.94897 
L 121.519221 137.921292 
L 121.17758 136.94897 
L 120.788233 137.921292 
L 120.745931 136.94897 
L 120.459409 135.988292 
L 120.434781 136.94897 
L 120.177659 137.921292 
L 120.106919 136.94897 
L 119.857797 138.905545 
L 119.793339 137.921292 
L 119.576551 136.94897 
L 119.15973 135.988292 
L 119.11994 135.038984 
L 118.613991 134.100779 
L 118.37999 135.038984 
L 118.050076 134.100779 
L 118.027919 135.038984 
L 117.974518 134.100779 
L 117.697502 135.038984 
L 117.052291 134.100779 
L 116.509149 135.038984 
L 115.592618 133.173421 
L 115.136719 134.100779 
L 114.875368 135.038984 
L 113.733589 135.988292 
L 113.590348 135.038984 
L 112.909537 134.100779 
L 112.736015 135.038984 
L 112.72391 135.988292 
L 112.592648 136.94897 
L 112.400111 135.988292 
L 112.337789 135.038984 
L 111.845242 134.100779 
L 111.839923 133.173421 
L 111.519139 132.256661 
L 111.432692 135.038984 
L 111.336905 135.988292 
L 111.311063 135.038984 
L 111.06613 135.988292 
L 110.670208 135.038984 
L 110.631717 135.988292 
L 110.379245 135.038984 
L 109.453249 133.173421 
L 108.396618 135.038984 
L 107.695367 133.173421 
L 106.821474 134.100779 
L 106.466094 135.038984 
L 106.339523 137.921292 
L 105.856526 136.94897 
L 105.849322 137.921292 
L 105.129307 136.94897 
L 104.983512 135.038984 
L 104.919472 136.94897 
L 104.627128 137.921292 
L 104.27334 136.94897 
L 104.224504 135.988292 
L 103.963655 137.921292 
L 103.62348 139.902024 
L 103.424241 138.905545 
L 102.96696 137.921292 
L 102.866524 139.902024 
L 102.866524 577 
L 102.866524 577 
" clip-path="url(#p5c09515537)" style="fill: none; stroke: #ff7f0e; stroke-width: 1.5; stroke-linecap: square"/>
   </g>
   <g id="patch_3">
    <path d="M 81.316719 511.2 
L 81.316719 10.8 
" style="fill: none; stroke: #000000; stroke-width: 0.8; stroke-linejoin: miter; stroke-linecap: square"/>
   </g>
   <g id="patch_4">
    <path d="M 555.412433 511.2 
L 555.412433 10.8 
" style="fill: none; stroke: #000000; stroke-width: 0.8; stroke-linejoin: miter; stroke-linecap: square"/>
   </g>
   <g id="patch_5">
    <path d="M 81.316719 511.2 
L 555.412433 511.2 
" style="fill: none; stroke: #000000; stroke-width: 0.8; stroke-linejoin: miter; stroke-linecap: square"/>
   </g>
   <g id="patch_6">
    <path d="M 81.316719 10.8 
L 555.412433 10.8 
" style="fill: none; stroke: #000000; stroke-width: 0.8; stroke-linejoin: miter; stroke-linecap: square"/>
   </g>
   <g id="legend_1">
    <g id="patch_7">
     <path d="M 438.931733 75.3516 
L 543.316433 75.3516 
Q 546.772433 75.3516 546.772433 71.8956 
L 546.772433 22.896 
Q 546.772433 19.44 543.316433 19.44 
L 438.931733 19.44 
Q 435.475733 19.44 435.475733 22.896 
L 435.475733 71.8956 
Q 435.475733 75.3516 438.931733 75.3516 
z
" style="fill: #ffffff; opacity: 0.8; stroke: #cccccc; stroke-linejoin: miter"/>
    </g>
    <g id="line2d_33">
     <path d="M 442.387733 33.4341 
L 459.667733 33.4341 
L 476.947733 33.4341 
" style="fill: none; stroke: #1f77b4; stroke-width: 1.5; stroke-linecap: square"/>
    </g>
    <g id="text_12">
     <!-- dim 0 -->
     <g transform="translate(490.771733 39.4821)scale(0.1728 -0.1728)">
      <defs>
       <path id="DejaVuSans-64" d="M 2906 2969 
L 2906 4863 
L 3481 4863 
L 3481 0 
L 2906 0 
L 2906 525 
Q 2725 213 2448 61 
Q 2172 -91 1784 -91 
Q 1150 -91 751 415 
Q 353 922 353 1747 
Q 353 2572 751 3078 
Q 1150 3584 1784 3584 
Q 2172 3584 2448 3432 
Q 2725 3281 2906 2969 
z
M 947 1747 
Q 947 1113 1208 752 
Q 1469 391 1925 391 
Q 2381 391 2643 752 
Q 2906 1113 2906 1747 
Q 2906 2381 2643 2742 
Q 2381 3103 1925 3103 
Q 1469 3103 1208 2742 
Q 947 2381 947 1747 
z
" transform="scale(0.015625)"/>
      </defs>
      <use xlink:href="#DejaVuSans-64"/>
      <use xlink:href="#DejaVuSans-69" x="63.476562"/>
      <use xlink:href="#DejaVuSans-6d" x="91.259766"/>
      <use xlink:href="#DejaVuSans-20" x="188.671875"/>
      <use xlink:href="#DejaVuSans-30" x="220.458984"/>
     </g>
    </g>
    <g id="line2d_34">
     <path d="M 442.387733 58.7979 
L 459.667733 58.7979 
L 476.947733 58.7979 
" style="fill: none; stroke: #ff7f0e; stroke-width: 1.5; stroke-linecap: square"/>
    </g>
    <g id="text_13">
     <!-- dim 1 -->
     <g transform="translate(490.771733 64.8459)scale(0.1728 -0.1728)">
      <use xlink:href="#DejaVuSans-64"/>
      <use xlink:href="#DejaVuSans-69" x="63.476562"/>
      <use xlink:href="#DejaVuSans-6d" x="91.259766"/>
      <use xlink:href="#DejaVuSans-20" x="188.671875"/>
      <use xlink:href="#DejaVuSans-31" x="220.458984"/>
     </g>
    </g>
   </g>
  </g>
 </g>
 <defs>
  <clipPath id="p5c09515537">
   <rect x="81.316719" y="10.8" width="474.095714" height="500.4"/>
  </clipPath>
 </defs>
</svg>
