<?xml version="1.0" encoding="utf-8" standalone="no"?>
<!DOCTYPE svg PUBLIC "-//W3C//DTD SVG 1.1//EN"
  "http://www.w3.org/Graphics/SVG/1.1/DTD/svg11.dtd">
<svg xmlns:xlink="http://www.w3.org/1999/xlink" width="576pt" height="576pt" viewBox="0 0 576 576" xmlns="http://www.w3.org/2000/svg" version="1.1">
 <metadata>
  <rdf:RDF xmlns:dc="http://purl.org/dc/elements/1.1/" xmlns:cc="http://creativecommons.org/ns#" xmlns:rdf="http://www.w3.org/1999/02/22-rdf-syntax-ns#">
   <cc:Work>
    <dc:type rdf:resource="http://purl.org/dc/dcmitype/StillImage"/>
    <dc:date>2023-06-07T19:41:04.208930</dc:date>
    <dc:format>image/svg+xml</dc:format>
    <dc:creator>
     <cc:Agent>
      <dc:title>Matplotlib v3.5.1, https://matplotlib.org/</dc:title>
     </cc:Agent>
    </dc:creator>
   </cc:Work>
  </rdf:RDF>
 </metadata>
 <defs>
  <style type="text/css">*{stroke-linejoin: round; stroke-linecap: butt}</style>
 </defs>
 <g id="figure_1">
  <g id="patch_1">
   <path d="M 0 576 
L 576 576 
L 576 0 
L 0 0 
L 0 576 
z
" style="fill: none"/>
  </g>
  <g id="axes_1">
   <g id="patch_2">
    <path d="M 81.316719 511.2 
L 562.312079 511.2 
L 562.312079 10.8 
L 81.316719 10.8 
z
" style="fill: #ffffff"/>
   </g>
   <g id="matplotlib.axis_1">
    <g id="xtick_1">
     <g id="line2d_1">
      <defs>
       <path id="mda3749ffc6" d="M 0 0 
L 0 3.5 
" style="stroke: #000000; stroke-width: 0.8"/>
      </defs>
      <g>
       <use xlink:href="#mda3749ffc6" x="103.180144" y="511.2" style="stroke: #000000; stroke-width: 0.8"/>
      </g>
     </g>
     <g id="text_1">
      <!-- 0.0 -->
      <g transform="translate(87.277019 533.396875)scale(0.2 -0.2)">
       <defs>
        <path id="DejaVuSans-30" d="M 2034 4250 
Q 1547 4250 1301 3770 
Q 1056 3291 1056 2328 
Q 1056 1369 1301 889 
Q 1547 409 2034 409 
Q 2525 409 2770 889 
Q 3016 1369 3016 2328 
Q 3016 3291 2770 3770 
Q 2525 4250 2034 4250 
z
M 2034 4750 
Q 2819 4750 3233 4129 
Q 3647 3509 3647 2328 
Q 3647 1150 3233 529 
Q 2819 -91 2034 -91 
Q 1250 -91 836 529 
Q 422 1150 422 2328 
Q 422 3509 836 4129 
Q 1250 4750 2034 4750 
z
" transform="scale(0.015625)"/>
        <path id="DejaVuSans-2e" d="M 684 794 
L 1344 794 
L 1344 0 
L 684 0 
L 684 794 
z
" transform="scale(0.015625)"/>
       </defs>
       <use xlink:href="#DejaVuSans-30"/>
       <use xlink:href="#DejaVuSans-2e" x="63.623047"/>
       <use xlink:href="#DejaVuSans-30" x="95.410156"/>
      </g>
     </g>
    </g>
    <g id="xtick_2">
     <g id="line2d_2">
      <g>
       <use xlink:href="#mda3749ffc6" x="190.807071" y="511.2" style="stroke: #000000; stroke-width: 0.8"/>
      </g>
     </g>
     <g id="text_2">
      <!-- 0.2 -->
      <g transform="translate(174.903946 533.396875)scale(0.2 -0.2)">
       <defs>
        <path id="DejaVuSans-32" d="M 1228 531 
L 3431 531 
L 3431 0 
L 469 0 
L 469 531 
Q 828 903 1448 1529 
Q 2069 2156 2228 2338 
Q 2531 2678 2651 2914 
Q 2772 3150 2772 3378 
Q 2772 3750 2511 3984 
Q 2250 4219 1831 4219 
Q 1534 4219 1204 4116 
Q 875 4013 500 3803 
L 500 4441 
Q 881 4594 1212 4672 
Q 1544 4750 1819 4750 
Q 2544 4750 2975 4387 
Q 3406 4025 3406 3419 
Q 3406 3131 3298 2873 
Q 3191 2616 2906 2266 
Q 2828 2175 2409 1742 
Q 1991 1309 1228 531 
z
" transform="scale(0.015625)"/>
       </defs>
       <use xlink:href="#DejaVuSans-30"/>
       <use xlink:href="#DejaVuSans-2e" x="63.623047"/>
       <use xlink:href="#DejaVuSans-32" x="95.410156"/>
      </g>
     </g>
    </g>
    <g id="xtick_3">
     <g id="line2d_3">
      <g>
       <use xlink:href="#mda3749ffc6" x="278.433998" y="511.2" style="stroke: #000000; stroke-width: 0.8"/>
      </g>
     </g>
     <g id="text_3">
      <!-- 0.4 -->
      <g transform="translate(262.530873 533.396875)scale(0.2 -0.2)">
       <defs>
        <path id="DejaVuSans-34" d="M 2419 4116 
L 825 1625 
L 2419 1625 
L 2419 4116 
z
M 2253 4666 
L 3047 4666 
L 3047 1625 
L 3713 1625 
L 3713 1100 
L 3047 1100 
L 3047 0 
L 2419 0 
L 2419 1100 
L 313 1100 
L 313 1709 
L 2253 4666 
z
" transform="scale(0.015625)"/>
       </defs>
       <use xlink:href="#DejaVuSans-30"/>
       <use xlink:href="#DejaVuSans-2e" x="63.623047"/>
       <use xlink:href="#DejaVuSans-34" x="95.410156"/>
      </g>
     </g>
    </g>
    <g id="xtick_4">
     <g id="line2d_4">
      <g>
       <use xlink:href="#mda3749ffc6" x="366.060925" y="511.2" style="stroke: #000000; stroke-width: 0.8"/>
      </g>
     </g>
     <g id="text_4">
      <!-- 0.6 -->
      <g transform="translate(350.1578 533.396875)scale(0.2 -0.2)">
       <defs>
        <path id="DejaVuSans-36" d="M 2113 2584 
Q 1688 2584 1439 2293 
Q 1191 2003 1191 1497 
Q 1191 994 1439 701 
Q 1688 409 2113 409 
Q 2538 409 2786 701 
Q 3034 994 3034 1497 
Q 3034 2003 2786 2293 
Q 2538 2584 2113 2584 
z
M 3366 4563 
L 3366 3988 
Q 3128 4100 2886 4159 
Q 2644 4219 2406 4219 
Q 1781 4219 1451 3797 
Q 1122 3375 1075 2522 
Q 1259 2794 1537 2939 
Q 1816 3084 2150 3084 
Q 2853 3084 3261 2657 
Q 3669 2231 3669 1497 
Q 3669 778 3244 343 
Q 2819 -91 2113 -91 
Q 1303 -91 875 529 
Q 447 1150 447 2328 
Q 447 3434 972 4092 
Q 1497 4750 2381 4750 
Q 2619 4750 2861 4703 
Q 3103 4656 3366 4563 
z
" transform="scale(0.015625)"/>
       </defs>
       <use xlink:href="#DejaVuSans-30"/>
       <use xlink:href="#DejaVuSans-2e" x="63.623047"/>
       <use xlink:href="#DejaVuSans-36" x="95.410156"/>
      </g>
     </g>
    </g>
    <g id="xtick_5">
     <g id="line2d_5">
      <g>
       <use xlink:href="#mda3749ffc6" x="453.687852" y="511.2" style="stroke: #000000; stroke-width: 0.8"/>
      </g>
     </g>
     <g id="text_5">
      <!-- 0.8 -->
      <g transform="translate(437.784727 533.396875)scale(0.2 -0.2)">
       <defs>
        <path id="DejaVuSans-38" d="M 2034 2216 
Q 1584 2216 1326 1975 
Q 1069 1734 1069 1313 
Q 1069 891 1326 650 
Q 1584 409 2034 409 
Q 2484 409 2743 651 
Q 3003 894 3003 1313 
Q 3003 1734 2745 1975 
Q 2488 2216 2034 2216 
z
M 1403 2484 
Q 997 2584 770 2862 
Q 544 3141 544 3541 
Q 544 4100 942 4425 
Q 1341 4750 2034 4750 
Q 2731 4750 3128 4425 
Q 3525 4100 3525 3541 
Q 3525 3141 3298 2862 
Q 3072 2584 2669 2484 
Q 3125 2378 3379 2068 
Q 3634 1759 3634 1313 
Q 3634 634 3220 271 
Q 2806 -91 2034 -91 
Q 1263 -91 848 271 
Q 434 634 434 1313 
Q 434 1759 690 2068 
Q 947 2378 1403 2484 
z
M 1172 3481 
Q 1172 3119 1398 2916 
Q 1625 2713 2034 2713 
Q 2441 2713 2670 2916 
Q 2900 3119 2900 3481 
Q 2900 3844 2670 4047 
Q 2441 4250 2034 4250 
Q 1625 4250 1398 4047 
Q 1172 3844 1172 3481 
z
" transform="scale(0.015625)"/>
       </defs>
       <use xlink:href="#DejaVuSans-30"/>
       <use xlink:href="#DejaVuSans-2e" x="63.623047"/>
       <use xlink:href="#DejaVuSans-38" x="95.410156"/>
      </g>
     </g>
    </g>
    <g id="xtick_6">
     <g id="line2d_6">
      <g>
       <use xlink:href="#mda3749ffc6" x="541.314779" y="511.2" style="stroke: #000000; stroke-width: 0.8"/>
      </g>
     </g>
     <g id="text_6">
      <!-- 1.0 -->
      <g transform="translate(525.411654 533.396875)scale(0.2 -0.2)">
       <defs>
        <path id="DejaVuSans-31" d="M 794 531 
L 1825 531 
L 1825 4091 
L 703 3866 
L 703 4441 
L 1819 4666 
L 2450 4666 
L 2450 531 
L 3481 531 
L 3481 0 
L 794 0 
L 794 531 
z
" transform="scale(0.015625)"/>
       </defs>
       <use xlink:href="#DejaVuSans-31"/>
       <use xlink:href="#DejaVuSans-2e" x="63.623047"/>
       <use xlink:href="#DejaVuSans-30" x="95.410156"/>
      </g>
     </g>
    </g>
    <g id="text_7">
     <!-- Intensity level -->
     <g transform="translate(233.70893 560.552344)scale(0.25 -0.25)">
      <defs>
       <path id="DejaVuSans-49" d="M 628 4666 
L 1259 4666 
L 1259 0 
L 628 0 
L 628 4666 
z
" transform="scale(0.015625)"/>
       <path id="DejaVuSans-6e" d="M 3513 2113 
L 3513 0 
L 2938 0 
L 2938 2094 
Q 2938 2591 2744 2837 
Q 2550 3084 2163 3084 
Q 1697 3084 1428 2787 
Q 1159 2491 1159 1978 
L 1159 0 
L 581 0 
L 581 3500 
L 1159 3500 
L 1159 2956 
Q 1366 3272 1645 3428 
Q 1925 3584 2291 3584 
Q 2894 3584 3203 3211 
Q 3513 2838 3513 2113 
z
" transform="scale(0.015625)"/>
       <path id="DejaVuSans-74" d="M 1172 4494 
L 1172 3500 
L 2356 3500 
L 2356 3053 
L 1172 3053 
L 1172 1153 
Q 1172 725 1289 603 
Q 1406 481 1766 481 
L 2356 481 
L 2356 0 
L 1766 0 
Q 1100 0 847 248 
Q 594 497 594 1153 
L 594 3053 
L 172 3053 
L 172 3500 
L 594 3500 
L 594 4494 
L 1172 4494 
z
" transform="scale(0.015625)"/>
       <path id="DejaVuSans-65" d="M 3597 1894 
L 3597 1613 
L 953 1613 
Q 991 1019 1311 708 
Q 1631 397 2203 397 
Q 2534 397 2845 478 
Q 3156 559 3463 722 
L 3463 178 
Q 3153 47 2828 -22 
Q 2503 -91 2169 -91 
Q 1331 -91 842 396 
Q 353 884 353 1716 
Q 353 2575 817 3079 
Q 1281 3584 2069 3584 
Q 2775 3584 3186 3129 
Q 3597 2675 3597 1894 
z
M 3022 2063 
Q 3016 2534 2758 2815 
Q 2500 3097 2075 3097 
Q 1594 3097 1305 2825 
Q 1016 2553 972 2059 
L 3022 2063 
z
" transform="scale(0.015625)"/>
       <path id="DejaVuSans-73" d="M 2834 3397 
L 2834 2853 
Q 2591 2978 2328 3040 
Q 2066 3103 1784 3103 
Q 1356 3103 1142 2972 
Q 928 2841 928 2578 
Q 928 2378 1081 2264 
Q 1234 2150 1697 2047 
L 1894 2003 
Q 2506 1872 2764 1633 
Q 3022 1394 3022 966 
Q 3022 478 2636 193 
Q 2250 -91 1575 -91 
Q 1294 -91 989 -36 
Q 684 19 347 128 
L 347 722 
Q 666 556 975 473 
Q 1284 391 1588 391 
Q 1994 391 2212 530 
Q 2431 669 2431 922 
Q 2431 1156 2273 1281 
Q 2116 1406 1581 1522 
L 1381 1569 
Q 847 1681 609 1914 
Q 372 2147 372 2553 
Q 372 3047 722 3315 
Q 1072 3584 1716 3584 
Q 2034 3584 2315 3537 
Q 2597 3491 2834 3397 
z
" transform="scale(0.015625)"/>
       <path id="DejaVuSans-69" d="M 603 3500 
L 1178 3500 
L 1178 0 
L 603 0 
L 603 3500 
z
M 603 4863 
L 1178 4863 
L 1178 4134 
L 603 4134 
L 603 4863 
z
" transform="scale(0.015625)"/>
       <path id="DejaVuSans-79" d="M 2059 -325 
Q 1816 -950 1584 -1140 
Q 1353 -1331 966 -1331 
L 506 -1331 
L 506 -850 
L 844 -850 
Q 1081 -850 1212 -737 
Q 1344 -625 1503 -206 
L 1606 56 
L 191 3500 
L 800 3500 
L 1894 763 
L 2988 3500 
L 3597 3500 
L 2059 -325 
z
" transform="scale(0.015625)"/>
       <path id="DejaVuSans-20" transform="scale(0.015625)"/>
       <path id="DejaVuSans-6c" d="M 603 4863 
L 1178 4863 
L 1178 0 
L 603 0 
L 603 4863 
z
" transform="scale(0.015625)"/>
       <path id="DejaVuSans-76" d="M 191 3500 
L 800 3500 
L 1894 563 
L 2988 3500 
L 3597 3500 
L 2284 0 
L 1503 0 
L 191 3500 
z
" transform="scale(0.015625)"/>
      </defs>
      <use xlink:href="#DejaVuSans-49"/>
      <use xlink:href="#DejaVuSans-6e" x="29.492188"/>
      <use xlink:href="#DejaVuSans-74" x="92.871094"/>
      <use xlink:href="#DejaVuSans-65" x="132.080078"/>
      <use xlink:href="#DejaVuSans-6e" x="193.603516"/>
      <use xlink:href="#DejaVuSans-73" x="256.982422"/>
      <use xlink:href="#DejaVuSans-69" x="309.082031"/>
      <use xlink:href="#DejaVuSans-74" x="336.865234"/>
      <use xlink:href="#DejaVuSans-79" x="376.074219"/>
      <use xlink:href="#DejaVuSans-20" x="435.253906"/>
      <use xlink:href="#DejaVuSans-6c" x="467.041016"/>
      <use xlink:href="#DejaVuSans-65" x="494.824219"/>
      <use xlink:href="#DejaVuSans-76" x="556.347656"/>
      <use xlink:href="#DejaVuSans-65" x="615.527344"/>
      <use xlink:href="#DejaVuSans-6c" x="677.050781"/>
     </g>
    </g>
   </g>
   <g id="matplotlib.axis_2">
    <g id="ytick_1">
     <g id="line2d_7">
      <defs>
       <path id="me14cc32071" d="M 0 0 
L -3.5 0 
" style="stroke: #000000; stroke-width: 0.8"/>
      </defs>
      <g>
       <use xlink:href="#me14cc32071" x="81.316719" y="489.59488" style="stroke: #000000; stroke-width: 0.8"/>
      </g>
     </g>
     <g id="text_8">
      <!-- $\mathdefault{10^{0}}$ -->
      <g transform="translate(39.116719 497.193318)scale(0.2 -0.2)">
       <use xlink:href="#DejaVuSans-31" transform="translate(0 0.765625)"/>
       <use xlink:href="#DejaVuSans-30" transform="translate(63.623047 0.765625)"/>
       <use xlink:href="#DejaVuSans-30" transform="translate(128.203125 39.046875)scale(0.7)"/>
      </g>
     </g>
    </g>
    <g id="ytick_2">
     <g id="line2d_8">
      <g>
       <use xlink:href="#me14cc32071" x="81.316719" y="305.588792" style="stroke: #000000; stroke-width: 0.8"/>
      </g>
     </g>
     <g id="text_9">
      <!-- $\mathdefault{10^{1}}$ -->
      <g transform="translate(39.116719 313.18723)scale(0.2 -0.2)">
       <use xlink:href="#DejaVuSans-31" transform="translate(0 0.684375)"/>
       <use xlink:href="#DejaVuSans-30" transform="translate(63.623047 0.684375)"/>
       <use xlink:href="#DejaVuSans-31" transform="translate(128.203125 38.965625)scale(0.7)"/>
      </g>
     </g>
    </g>
    <g id="ytick_3">
     <g id="line2d_9">
      <g>
       <use xlink:href="#me14cc32071" x="81.316719" y="121.582704" style="stroke: #000000; stroke-width: 0.8"/>
      </g>
     </g>
     <g id="text_10">
      <!-- $\mathdefault{10^{2}}$ -->
      <g transform="translate(39.116719 129.181141)scale(0.2 -0.2)">
       <use xlink:href="#DejaVuSans-31" transform="translate(0 0.765625)"/>
       <use xlink:href="#DejaVuSans-30" transform="translate(63.623047 0.765625)"/>
       <use xlink:href="#DejaVuSans-32" transform="translate(128.203125 39.046875)scale(0.7)"/>
      </g>
     </g>
    </g>
    <g id="ytick_4">
     <g id="line2d_10">
      <defs>
       <path id="mfda165eced" d="M 0 0 
L -2 0 
" style="stroke: #000000; stroke-width: 0.6"/>
      </defs>
      <g>
       <use xlink:href="#mfda165eced" x="81.316719" y="507.426913" style="stroke: #000000; stroke-width: 0.6"/>
      </g>
     </g>
    </g>
    <g id="ytick_5">
     <g id="line2d_11">
      <g>
       <use xlink:href="#mfda165eced" x="81.316719" y="498.014537" style="stroke: #000000; stroke-width: 0.6"/>
      </g>
     </g>
    </g>
    <g id="ytick_6">
     <g id="line2d_12">
      <g>
       <use xlink:href="#mfda165eced" x="81.316719" y="434.203528" style="stroke: #000000; stroke-width: 0.6"/>
      </g>
     </g>
    </g>
    <g id="ytick_7">
     <g id="line2d_13">
      <g>
       <use xlink:href="#mfda165eced" x="81.316719" y="401.801665" style="stroke: #000000; stroke-width: 0.6"/>
      </g>
     </g>
    </g>
    <g id="ytick_8">
     <g id="line2d_14">
      <g>
       <use xlink:href="#mfda165eced" x="81.316719" y="378.812177" style="stroke: #000000; stroke-width: 0.6"/>
      </g>
     </g>
    </g>
    <g id="ytick_9">
     <g id="line2d_15">
      <g>
       <use xlink:href="#mfda165eced" x="81.316719" y="360.980144" style="stroke: #000000; stroke-width: 0.6"/>
      </g>
     </g>
    </g>
    <g id="ytick_10">
     <g id="line2d_16">
      <g>
       <use xlink:href="#mfda165eced" x="81.316719" y="346.410313" style="stroke: #000000; stroke-width: 0.6"/>
      </g>
     </g>
    </g>
    <g id="ytick_11">
     <g id="line2d_17">
      <g>
       <use xlink:href="#mfda165eced" x="81.316719" y="334.091696" style="stroke: #000000; stroke-width: 0.6"/>
      </g>
     </g>
    </g>
    <g id="ytick_12">
     <g id="line2d_18">
      <g>
       <use xlink:href="#mfda165eced" x="81.316719" y="323.420825" style="stroke: #000000; stroke-width: 0.6"/>
      </g>
     </g>
    </g>
    <g id="ytick_13">
     <g id="line2d_19">
      <g>
       <use xlink:href="#mfda165eced" x="81.316719" y="314.008449" style="stroke: #000000; stroke-width: 0.6"/>
      </g>
     </g>
    </g>
    <g id="ytick_14">
     <g id="line2d_20">
      <g>
       <use xlink:href="#mfda165eced" x="81.316719" y="250.19744" style="stroke: #000000; stroke-width: 0.6"/>
      </g>
     </g>
    </g>
    <g id="ytick_15">
     <g id="line2d_21">
      <g>
       <use xlink:href="#mfda165eced" x="81.316719" y="217.795576" style="stroke: #000000; stroke-width: 0.6"/>
      </g>
     </g>
    </g>
    <g id="ytick_16">
     <g id="line2d_22">
      <g>
       <use xlink:href="#mfda165eced" x="81.316719" y="194.806088" style="stroke: #000000; stroke-width: 0.6"/>
      </g>
     </g>
    </g>
    <g id="ytick_17">
     <g id="line2d_23">
      <g>
       <use xlink:href="#mfda165eced" x="81.316719" y="176.974056" style="stroke: #000000; stroke-width: 0.6"/>
      </g>
     </g>
    </g>
    <g id="ytick_18">
     <g id="line2d_24">
      <g>
       <use xlink:href="#mfda165eced" x="81.316719" y="162.404224" style="stroke: #000000; stroke-width: 0.6"/>
      </g>
     </g>
    </g>
    <g id="ytick_19">
     <g id="line2d_25">
      <g>
       <use xlink:href="#mfda165eced" x="81.316719" y="150.085608" style="stroke: #000000; stroke-width: 0.6"/>
      </g>
     </g>
    </g>
    <g id="ytick_20">
     <g id="line2d_26">
      <g>
       <use xlink:href="#mfda165eced" x="81.316719" y="139.414736" style="stroke: #000000; stroke-width: 0.6"/>
      </g>
     </g>
    </g>
    <g id="ytick_21">
     <g id="line2d_27">
      <g>
       <use xlink:href="#mfda165eced" x="81.316719" y="130.002361" style="stroke: #000000; stroke-width: 0.6"/>
      </g>
     </g>
    </g>
    <g id="ytick_22">
     <g id="line2d_28">
      <g>
       <use xlink:href="#mfda165eced" x="81.316719" y="66.191352" style="stroke: #000000; stroke-width: 0.6"/>
      </g>
     </g>
    </g>
    <g id="ytick_23">
     <g id="line2d_29">
      <g>
       <use xlink:href="#mfda165eced" x="81.316719" y="33.789488" style="stroke: #000000; stroke-width: 0.6"/>
      </g>
     </g>
    </g>
    <g id="ytick_24">
     <g id="line2d_30">
      <g>
       <use xlink:href="#mfda165eced" x="81.316719" y="10.8" style="stroke: #000000; stroke-width: 0.6"/>
      </g>
     </g>
    </g>
    <g id="text_11">
     <!-- Betti number -->
     <g transform="translate(29.9175 343.298828)rotate(-90)scale(0.25 -0.25)">
      <defs>
       <path id="DejaVuSans-42" d="M 1259 2228 
L 1259 519 
L 2272 519 
Q 2781 519 3026 730 
Q 3272 941 3272 1375 
Q 3272 1813 3026 2020 
Q 2781 2228 2272 2228 
L 1259 2228 
z
M 1259 4147 
L 1259 2741 
L 2194 2741 
Q 2656 2741 2882 2914 
Q 3109 3088 3109 3444 
Q 3109 3797 2882 3972 
Q 2656 4147 2194 4147 
L 1259 4147 
z
M 628 4666 
L 2241 4666 
Q 2963 4666 3353 4366 
Q 3744 4066 3744 3513 
Q 3744 3084 3544 2831 
Q 3344 2578 2956 2516 
Q 3422 2416 3680 2098 
Q 3938 1781 3938 1306 
Q 3938 681 3513 340 
Q 3088 0 2303 0 
L 628 0 
L 628 4666 
z
" transform="scale(0.015625)"/>
       <path id="DejaVuSans-75" d="M 544 1381 
L 544 3500 
L 1119 3500 
L 1119 1403 
Q 1119 906 1312 657 
Q 1506 409 1894 409 
Q 2359 409 2629 706 
Q 2900 1003 2900 1516 
L 2900 3500 
L 3475 3500 
L 3475 0 
L 2900 0 
L 2900 538 
Q 2691 219 2414 64 
Q 2138 -91 1772 -91 
Q 1169 -91 856 284 
Q 544 659 544 1381 
z
M 1991 3584 
L 1991 3584 
z
" transform="scale(0.015625)"/>
       <path id="DejaVuSans-6d" d="M 3328 2828 
Q 3544 3216 3844 3400 
Q 4144 3584 4550 3584 
Q 5097 3584 5394 3201 
Q 5691 2819 5691 2113 
L 5691 0 
L 5113 0 
L 5113 2094 
Q 5113 2597 4934 2840 
Q 4756 3084 4391 3084 
Q 3944 3084 3684 2787 
Q 3425 2491 3425 1978 
L 3425 0 
L 2847 0 
L 2847 2094 
Q 2847 2600 2669 2842 
Q 2491 3084 2119 3084 
Q 1678 3084 1418 2786 
Q 1159 2488 1159 1978 
L 1159 0 
L 581 0 
L 581 3500 
L 1159 3500 
L 1159 2956 
Q 1356 3278 1631 3431 
Q 1906 3584 2284 3584 
Q 2666 3584 2933 3390 
Q 3200 3197 3328 2828 
z
" transform="scale(0.015625)"/>
       <path id="DejaVuSans-62" d="M 3116 1747 
Q 3116 2381 2855 2742 
Q 2594 3103 2138 3103 
Q 1681 3103 1420 2742 
Q 1159 2381 1159 1747 
Q 1159 1113 1420 752 
Q 1681 391 2138 391 
Q 2594 391 2855 752 
Q 3116 1113 3116 1747 
z
M 1159 2969 
Q 1341 3281 1617 3432 
Q 1894 3584 2278 3584 
Q 2916 3584 3314 3078 
Q 3713 2572 3713 1747 
Q 3713 922 3314 415 
Q 2916 -91 2278 -91 
Q 1894 -91 1617 61 
Q 1341 213 1159 525 
L 1159 0 
L 581 0 
L 581 4863 
L 1159 4863 
L 1159 2969 
z
" transform="scale(0.015625)"/>
       <path id="DejaVuSans-72" d="M 2631 2963 
Q 2534 3019 2420 3045 
Q 2306 3072 2169 3072 
Q 1681 3072 1420 2755 
Q 1159 2438 1159 1844 
L 1159 0 
L 581 0 
L 581 3500 
L 1159 3500 
L 1159 2956 
Q 1341 3275 1631 3429 
Q 1922 3584 2338 3584 
Q 2397 3584 2469 3576 
Q 2541 3569 2628 3553 
L 2631 2963 
z
" transform="scale(0.015625)"/>
      </defs>
      <use xlink:href="#DejaVuSans-42"/>
      <use xlink:href="#DejaVuSans-65" x="68.603516"/>
      <use xlink:href="#DejaVuSans-74" x="130.126953"/>
      <use xlink:href="#DejaVuSans-74" x="169.335938"/>
      <use xlink:href="#DejaVuSans-69" x="208.544922"/>
      <use xlink:href="#DejaVuSans-20" x="236.328125"/>
      <use xlink:href="#DejaVuSans-6e" x="268.115234"/>
      <use xlink:href="#DejaVuSans-75" x="331.494141"/>
      <use xlink:href="#DejaVuSans-6d" x="394.873047"/>
      <use xlink:href="#DejaVuSans-62" x="492.285156"/>
      <use xlink:href="#DejaVuSans-65" x="555.761719"/>
      <use xlink:href="#DejaVuSans-72" x="617.285156"/>
     </g>
    </g>
   </g>
   <g id="line2d_31">
    <path d="M 540.448654 489.59488 
L 540.245872 434.203528 
L 536.277197 401.801665 
L 533.152789 378.812177 
L 532.910443 360.980144 
L 526.07702 346.410313 
L 525.869041 334.091696 
L 525.857577 323.420825 
L 525.412214 314.008449 
L 524.231849 305.588792 
L 519.417992 297.972286 
L 518.080859 291.018961 
L 517.056451 278.700344 
L 514.870794 273.186928 
L 512.157591 268.029473 
L 510.881985 273.186928 
L 509.723791 268.029473 
L 508.418335 273.186928 
L 508.245768 268.029473 
L 506.61184 258.617097 
L 505.57978 254.296432 
L 505.122457 250.19744 
L 505.111071 246.29848 
L 504.238443 242.580934 
L 503.983954 239.028668 
L 503.884795 242.580934 
L 502.329421 239.028668 
L 500.408542 235.627609 
L 498.794356 232.365408 
L 498.678119 235.627609 
L 497.491904 232.365408 
L 497.273845 226.215233 
L 496.939522 223.308992 
L 495.992128 220.504745 
L 495.887511 215.175249 
L 495.164025 210.17907 
L 495.016137 207.793436 
L 494.526849 205.47696 
L 493.520408 207.793436 
L 493.3984 205.47696 
L 492.689277 203.225745 
L 492.589048 205.47696 
L 492.525902 203.225745 
L 492.040845 201.036216 
L 491.161505 198.905081 
L 490.790831 194.806088 
L 490.574365 190.907128 
L 489.744957 192.832832 
L 489.744957 194.806088 
L 489.57004 190.907128 
L 489.515016 189.02674 
L 489.182704 187.189582 
L 488.722952 185.393713 
L 488.573575 187.189582 
L 488.15323 183.637316 
L 487.175751 185.393713 
L 486.411526 183.637316 
L 485.651427 185.393713 
L 485.601391 183.637316 
L 485.280178 181.918694 
L 484.981894 178.588511 
L 484.482291 172.317623 
L 484.447349 173.839818 
L 484.404024 172.317623 
L 484.106524 173.839818 
L 483.866763 172.317623 
L 483.2826 173.839818 
L 483.263588 172.317623 
L 482.699612 170.823881 
L 482.643334 169.35755 
L 482.078679 170.823881 
L 481.433877 165.113393 
L 481.094593 163.747329 
L 480.572792 162.404224 
L 480.147381 158.505264 
L 479.646367 157.246769 
L 479.542117 156.007785 
L 478.999084 153.585999 
L 478.980334 152.402084 
L 478.821869 151.235452 
L 478.102404 150.085608 
L 477.575668 147.834393 
L 477.307129 143.513729 
L 477.015452 142.469102 
L 476.863437 143.513729 
L 476.685647 142.469102 
L 476.594794 140.419942 
L 476.287683 141.437954 
L 476.095869 142.469102 
L 475.519175 141.437954 
L 475.356114 139.414736 
L 475.140144 138.422018 
L 475.129959 137.44148 
L 475.067649 138.422018 
L 474.9652 136.472828 
L 474.344293 134.570051 
L 474.188362 132.71153 
L 472.300231 133.635388 
L 472.098024 130.895251 
L 472.057598 132.71153 
L 472.023858 131.79823 
L 471.750069 130.002361 
L 471.534152 129.119337 
L 471.450219 130.002361 
L 471.083357 130.895251 
L 471.071187 131.79823 
L 470.859448 130.895251 
L 470.814348 129.119337 
L 470.762405 130.002361 
L 470.413981 127.382033 
L 470.383818 126.527342 
L 470.086971 125.681696 
L 470.026019 126.527342 
L 470.022258 125.681696 
L 469.62398 126.527342 
L 469.510955 124.844905 
L 468.974034 124.016785 
L 468.521019 124.844905 
L 468.512976 125.681696 
L 468.351403 124.844905 
L 468.343543 124.016785 
L 468.200355 123.197159 
L 467.902515 126.527342 
L 467.620057 125.681696 
L 467.503793 126.527342 
L 467.500607 125.681696 
L 467.284794 127.382033 
L 466.693397 125.681696 
L 465.762611 124.844905 
L 465.643318 123.197159 
L 465.604668 121.582704 
L 465.574715 123.197159 
L 465.27442 122.385855 
L 464.783878 121.582704 
L 464.609666 122.385855 
L 464.501237 124.844905 
L 464.399624 124.016785 
L 464.305036 124.844905 
L 464.23074 124.016785 
L 464.056449 124.844905 
L 463.924752 124.016785 
L 463.858185 124.844905 
L 463.561181 123.197159 
L 463.274805 122.385855 
L 463.262557 123.197159 
L 463.075235 124.016785 
L 462.895905 123.197159 
L 462.840176 124.016785 
L 462.802936 123.197159 
L 462.674633 121.582704 
L 462.112851 123.197159 
L 461.392289 124.016785 
L 461.13323 124.844905 
L 460.409979 125.681696 
L 460.382271 124.844905 
L 459.63301 122.385855 
L 459.571796 123.197159 
L 459.293778 124.016785 
L 459.136801 124.844905 
L 459.091048 123.197159 
L 459.034327 124.016785 
L 458.828176 124.844905 
L 458.753043 123.197159 
L 458.264095 121.582704 
L 458.162769 120.787545 
L 458.117303 121.582704 
L 457.958394 119.220576 
L 457.798624 120.00022 
L 457.739761 119.220576 
L 457.491382 120.787545 
L 457.485872 120.00022 
L 457.33135 119.220576 
L 457.30675 118.448466 
L 457.272566 119.220576 
L 457.053123 117.683744 
L 456.979296 118.448466 
L 456.718722 116.17591 
L 456.674927 116.926271 
L 456.322324 115.432529 
L 456.151925 116.17591 
L 456.063709 114.696 
L 455.813111 113.966198 
L 455.797233 114.696 
L 455.653993 113.966198 
L 455.571757 114.696 
L 455.283084 113.966198 
L 455.252895 115.432529 
L 454.945889 114.696 
L 454.732582 112.526288 
L 454.404684 113.966198 
L 454.322788 113.243 
L 453.759256 112.526288 
L 453.567651 111.111865 
L 453.485598 111.815947 
L 453.252627 111.111865 
L 453.169347 110.413932 
L 453.005607 111.111865 
L 452.950165 110.413932 
L 452.851712 111.111865 
L 452.546873 110.413932 
L 452.431785 109.03609 
L 452.095478 109.722041 
L 452.061555 110.413932 
L 452.042334 109.722041 
L 451.983341 109.03609 
L 451.868226 109.722041 
L 451.581355 110.413932 
L 451.462584 108.355977 
L 451.010797 107.681603 
L 450.990741 107.012873 
L 450.9365 107.681603 
L 450.732021 109.03609 
L 450.455961 108.355977 
L 450.352259 109.03609 
L 450.09051 108.355977 
L 450.078157 109.03609 
L 449.776191 107.681603 
L 449.577274 108.355977 
L 449.531573 107.681603 
L 449.129561 107.012873 
L 449.062341 105.691969 
L 449.051034 105.039616 
L 448.822999 104.392545 
L 448.450627 101.233524 
L 448.257455 100.004072 
L 448.16587 100.616433 
L 447.815853 100.004072 
L 447.716695 99.396366 
L 447.648039 100.616433 
L 447.539192 101.855417 
L 447.002271 100.616433 
L 446.501153 101.233524 
L 446.501153 101.855417 
L 446.425524 101.233524 
L 446.380319 100.616433 
L 446.377316 101.233524 
L 445.990242 102.482187 
L 445.923388 101.855417 
L 445.786337 102.482187 
L 445.768526 101.855417 
L 445.703944 103.113913 
L 445.143076 105.691969 
L 445.111033 106.349692 
L 444.957477 104.392545 
L 444.896682 103.750671 
L 444.345867 105.691969 
L 444.289929 106.349692 
L 443.942236 107.012873 
L 443.678841 106.349692 
L 443.369093 105.039616 
L 443.298505 105.691969 
L 443.072742 105.039616 
L 442.990167 104.392545 
L 442.517618 105.039616 
L 442.274228 106.349692 
L 442.12929 105.039616 
L 441.560796 103.113913 
L 441.555521 103.750671 
L 441.303042 103.113913 
L 441.171449 104.392545 
L 440.84282 105.039616 
L 440.835299 104.392545 
L 440.82877 105.039616 
L 440.506017 107.012873 
L 440.458618 108.355977 
L 440.355908 107.681603 
L 440.337445 108.355977 
L 439.551231 103.750671 
L 439.440844 104.392545 
L 439.430267 103.750671 
L 439.407025 104.392545 
L 439.018331 102.482187 
L 438.729553 103.750671 
L 438.655361 103.113913 
L 438.454146 102.482187 
L 438.418969 101.855417 
L 438.146539 102.482187 
L 438.006093 101.855417 
L 437.973894 101.233524 
L 437.898239 101.855417 
L 437.729824 103.113913 
L 437.410779 102.482187 
L 437.403049 103.113913 
L 437.348025 102.482187 
L 437.257929 103.113913 
L 437.08941 101.233524 
L 436.866885 101.855417 
L 436.847586 100.616433 
L 436.666636 100.004072 
L 436.640495 100.616433 
L 436.192651 102.482187 
L 436.130341 103.113913 
L 436.055026 102.482187 
L 435.633585 103.113913 
L 435.444513 103.750671 
L 435.316185 102.482187 
L 434.901454 103.113913 
L 434.751242 101.855417 
L 434.653076 102.482187 
L 434.642082 101.855417 
L 434.566166 100.616433 
L 434.566035 101.233524 
L 434.06873 100.004072 
L 433.938991 98.793248 
L 433.928885 99.396366 
L 433.720984 98.194647 
L 433.44025 100.004072 
L 433.231514 99.396366 
L 433.212659 98.793248 
L 433.052183 98.194647 
L 432.962583 99.396366 
L 432.053185 97.600497 
L 431.890359 98.194647 
L 431.282353 97.600497 
L 431.281152 98.194647 
L 431.130704 97.600497 
L 431.022406 98.194647 
L 430.925676 97.010732 
L 430.786641 97.600497 
L 430.712004 96.425287 
L 430.577696 97.010732 
L 430.510136 96.425287 
L 430.457045 97.010732 
L 430.447722 96.425287 
L 430.364154 95.26711 
L 430.052265 95.8441 
L 429.857396 95.26711 
L 429.849483 94.694256 
L 429.627167 95.26711 
L 429.523386 94.694256 
L 429.422923 95.26711 
L 429.37965 94.694256 
L 429.203923 94.125479 
L 429.161539 93.560721 
L 429.126441 94.125479 
L 428.981373 92.999927 
L 428.786634 94.125479 
L 428.68288 93.560721 
L 428.601741 94.125479 
L 428.550321 93.560721 
L 428.348557 94.125479 
L 428.120366 93.560721 
L 428.024054 92.999927 
L 427.975376 93.560721 
L 427.537613 92.999927 
L 427.493557 92.443041 
L 427.117477 94.694256 
L 426.942638 94.125479 
L 426.548277 95.8441 
L 426.50033 95.26711 
L 426.44259 95.8441 
L 426.433267 96.425287 
L 426.202699 95.8441 
L 425.810794 96.425287 
L 425.446726 95.8441 
L 425.341275 97.010732 
L 425.337697 96.425287 
L 425.098981 97.010732 
L 425.040797 96.425287 
L 425.012724 97.010732 
L 424.895729 97.600497 
L 424.757895 96.425287 
L 424.584962 97.010732 
L 424.382598 95.8441 
L 424.352226 95.26711 
L 424.275841 95.8441 
L 424.122625 96.425287 
L 424.112179 95.8441 
L 423.943842 96.425287 
L 423.702854 95.26711 
L 423.407521 94.125479 
L 423.39308 93.560721 
L 423.277861 94.125479 
L 423.219259 93.560721 
L 422.949963 92.999927 
L 422.947195 92.443041 
L 422.916223 93.560721 
L 422.739869 92.999927 
L 422.338771 93.560721 
L 422.207622 94.125479 
L 422.009358 93.560721 
L 421.793284 94.125479 
L 421.588047 93.560721 
L 421.437704 94.125479 
L 421.419502 94.694256 
L 420.905091 95.8441 
L 420.809432 96.425287 
L 420.484825 95.8441 
L 420.433405 96.425287 
L 420.268176 95.26711 
L 420.103443 96.425287 
L 420.014444 98.194647 
L 419.80025 99.396366 
L 419.756847 100.616433 
L 419.742614 100.004072 
L 419.601307 99.396366 
L 419.319815 100.004072 
L 419.280042 100.616433 
L 418.926342 100.004072 
L 418.642839 101.855417 
L 418.639079 101.233524 
L 418.474085 100.616433 
L 418.127463 103.750671 
L 417.914757 103.113913 
L 417.82547 101.855417 
L 417.616708 101.233524 
L 417.521206 101.855417 
L 417.101775 102.482187 
L 416.946157 104.392545 
L 416.786935 105.691969 
L 416.620844 105.039616 
L 416.519309 105.691969 
L 416.282631 106.349692 
L 416.168117 105.691969 
L 415.794074 107.012873 
L 415.614978 106.349692 
L 415.583771 107.012873 
L 415.20756 106.349692 
L 415.140654 107.012873 
L 415.03199 107.681603 
L 415.021805 107.012873 
L 414.87295 107.681603 
L 414.77912 107.012873 
L 414.227313 107.681603 
L 414.032391 105.039616 
L 413.851415 104.392545 
L 413.816369 103.750671 
L 413.493616 103.113913 
L 413.482073 103.750671 
L 413.414644 102.482187 
L 413.294777 103.750671 
L 413.292244 103.113913 
L 413.168486 101.233524 
L 413.062825 101.855417 
L 413.027936 101.233524 
L 412.88104 100.616433 
L 412.852914 99.396366 
L 412.71568 98.793248 
L 412.552802 99.396366 
L 412.382063 98.793248 
L 412.374176 99.396366 
L 412.173066 100.004072 
L 412.000342 99.396366 
L 411.97569 100.004072 
L 411.887004 99.396366 
L 411.602038 100.004072 
L 411.330026 98.793248 
L 411.049369 99.396366 
L 410.886047 97.600497 
L 410.590531 98.194647 
L 410.528482 99.396366 
L 410.479543 98.793248 
L 410.076408 100.616433 
L 410.034598 100.004072 
L 409.781232 100.616433 
L 409.701268 100.004072 
L 409.615037 100.616433 
L 409.472267 100.004072 
L 409.272802 101.233524 
L 409.086394 100.004072 
L 408.861101 100.616433 
L 408.622881 99.396366 
L 408.525917 100.004072 
L 408.187886 100.616433 
L 408.114973 100.004072 
L 407.864036 100.616433 
L 407.784672 101.233524 
L 407.729675 100.616433 
L 407.548673 100.004072 
L 407.314501 101.233524 
L 407.113181 103.113913 
L 407.00026 102.482187 
L 406.815994 103.750671 
L 406.298659 104.392545 
L 405.992279 103.750671 
L 405.718961 104.392545 
L 405.652864 103.750671 
L 405.639493 104.392545 
L 405.518686 105.039616 
L 405.46899 107.012873 
L 405.006156 106.349692 
L 404.844818 107.012873 
L 404.725369 106.349692 
L 404.474771 105.691969 
L 404.441239 105.039616 
L 404.129924 105.691969 
L 404.025308 107.012873 
L 403.880684 105.691969 
L 403.846578 106.349692 
L 403.834617 107.012873 
L 403.5578 108.355977 
L 403.540407 109.03609 
L 403.502332 108.355977 
L 403.248077 109.03609 
L 403.176679 109.722041 
L 403.072272 108.355977 
L 402.91796 110.413932 
L 402.912397 109.722041 
L 402.855832 109.03609 
L 402.650935 109.722041 
L 402.360512 109.03609 
L 402.279843 108.355977 
L 402.074032 109.722041 
L 402.026555 109.03609 
L 401.780213 107.681603 
L 401.776766 108.355977 
L 401.67625 107.681603 
L 401.576779 109.03609 
L 401.336809 108.355977 
L 401.329445 109.03609 
L 401.244441 108.355977 
L 401.155259 109.03609 
L 400.955611 108.355977 
L 399.989648 109.03609 
L 399.719829 108.355977 
L 399.581943 107.681603 
L 399.494615 109.03609 
L 399.327793 108.355977 
L 399.078396 109.03609 
L 399.023921 109.722041 
L 399.006032 109.03609 
L 398.923692 107.012873 
L 398.283303 103.750671 
L 398.175057 103.113913 
L 397.938822 104.392545 
L 397.774168 103.750671 
L 397.622179 105.039616 
L 397.481708 104.392545 
L 397.378972 105.039616 
L 397.19037 104.392545 
L 397.162689 103.750671 
L 397.050499 104.392545 
L 396.875791 103.750671 
L 396.663686 104.392545 
L 396.646581 103.750671 
L 396.547814 104.392545 
L 396.411416 103.113913 
L 396.405044 103.750671 
L 396.224721 104.392545 
L 396.187037 103.750671 
L 395.975089 104.392545 
L 395.963416 103.750671 
L 395.564146 103.113913 
L 395.443286 101.855417 
L 395.220709 101.233524 
L 395.125677 101.855417 
L 395.038297 101.233524 
L 394.92723 101.855417 
L 394.880198 101.233524 
L 394.867662 101.855417 
L 394.698908 103.750671 
L 394.489154 104.392545 
L 394.421046 103.750671 
L 394.404254 104.392545 
L 394.400677 105.039616 
L 394.156241 106.349692 
L 394.126523 105.691969 
L 394.043321 106.349692 
L 393.798598 107.012873 
L 393.638828 105.039616 
L 393.620443 105.691969 
L 393.376112 106.349692 
L 393.237338 108.355977 
L 393.169283 107.681603 
L 392.938375 108.355977 
L 392.827308 107.681603 
L 392.80673 108.355977 
L 392.648526 107.681603 
L 392.641318 108.355977 
L 392.338882 109.03609 
L 392.098704 108.355977 
L 391.991999 107.012873 
L 391.883517 107.681603 
L 391.424653 108.355977 
L 391.257335 107.012873 
L 391.1019 107.681603 
L 390.95469 107.012873 
L 390.4144 108.355977 
L 390.407166 107.012873 
L 390.088043 106.349692 
L 389.950234 105.039616 
L 389.878392 104.392545 
L 389.852095 105.039616 
L 389.678901 106.349692 
L 389.54232 105.691969 
L 389.534538 106.349692 
L 389.27117 105.039616 
L 389.190658 106.349692 
L 388.916504 105.039616 
L 388.765717 105.691969 
L 388.524206 107.681603 
L 388.41233 107.012873 
L 388.168365 107.681603 
L 388.016795 109.03609 
L 387.93119 108.355977 
L 387.802601 109.03609 
L 387.689105 108.355977 
L 387.508782 109.03609 
L 387.426677 108.355977 
L 387.411635 109.03609 
L 387.219142 109.722041 
L 387.200392 110.413932 
L 387.181642 109.722041 
L 387.032108 110.413932 
L 386.73526 111.111865 
L 386.554676 110.413932 
L 386.536239 111.111865 
L 386.388951 110.413932 
L 385.911154 111.111865 
L 385.47796 110.413932 
L 385.33062 109.03609 
L 385.129536 109.722041 
L 385.04414 107.681603 
L 385.010452 108.355977 
L 384.781111 107.681603 
L 384.701095 109.03609 
L 384.627295 108.355977 
L 384.475985 106.349692 
L 383.815462 105.039616 
L 383.635714 103.750671 
L 383.622578 103.113913 
L 383.443561 103.750671 
L 383.065182 101.855417 
L 382.917555 103.113913 
L 382.813305 102.482187 
L 382.67278 103.750671 
L 382.640137 103.113913 
L 382.622379 103.750671 
L 382.449002 105.039616 
L 382.42576 104.392545 
L 382.298084 103.750671 
L 382.033541 105.039616 
L 381.929055 103.113913 
L 381.776754 103.750671 
L 381.749124 103.113913 
L 381.67313 103.750671 
L 381.67313 104.392545 
L 381.336979 103.113913 
L 381.335517 102.482187 
L 381.294438 103.750671 
L 381.227271 104.392545 
L 381.097297 103.750671 
L 380.371879 107.012873 
L 380.267654 106.349692 
L 380.151312 107.681603 
L 380.046696 106.349692 
L 379.892279 107.012873 
L 379.891626 106.349692 
L 379.153855 107.681603 
L 379.127271 109.03609 
L 379.094131 108.355977 
L 378.949219 109.03609 
L 378.74192 108.355977 
L 378.739073 109.03609 
L 378.330219 110.413932 
L 378.319303 109.722041 
L 378.059225 110.413932 
L 377.942831 109.03609 
L 377.929904 109.722041 
L 377.484176 109.03609 
L 377.323752 108.355977 
L 377.050042 109.03609 
L 376.741234 108.355977 
L 376.565403 109.03609 
L 376.538269 108.355977 
L 376.286287 109.03609 
L 375.779111 112.526288 
L 375.481375 113.243 
L 375.409742 114.696 
L 375.407627 115.432529 
L 375.188471 116.17591 
L 375.166639 115.432529 
L 374.958817 116.17591 
L 374.880864 114.696 
L 374.862766 115.432529 
L 374.642174 116.926271 
L 374.119381 123.197159 
L 373.812427 124.016785 
L 373.790986 124.844905 
L 373.519078 123.197159 
L 373.335935 124.016785 
L 372.79554 123.197159 
L 372.665253 124.844905 
L 372.616601 125.681696 
L 372.424396 124.844905 
L 372.238458 125.681696 
L 372.128749 124.016785 
L 371.909515 125.681696 
L 371.866347 124.844905 
L 371.735016 125.681696 
L 370.992022 123.197159 
L 370.929816 124.016785 
L 370.819899 123.197159 
L 370.551151 122.385855 
L 370.278172 124.016785 
L 370.150836 125.681696 
L 369.882689 126.527342 
L 369.853048 127.382033 
L 369.330829 126.527342 
L 369.116714 127.382033 
L 368.978018 129.119337 
L 368.730423 131.79823 
L 368.483846 130.895251 
L 368.168927 131.79823 
L 368.114034 132.71153 
L 367.903496 133.635388 
L 367.731582 132.71153 
L 367.576851 133.635388 
L 367.546323 135.515776 
L 367.085239 136.472828 
L 367.000888 137.44148 
L 366.915727 136.472828 
L 366.89306 137.44148 
L 366.49708 138.422018 
L 366.487888 137.44148 
L 366.485093 138.422018 
L 366.305789 140.419942 
L 366.181691 139.414736 
L 366.091255 136.472828 
L 366.030669 135.515776 
L 365.947858 136.472828 
L 365.665557 135.515776 
L 365.658793 136.472828 
L 365.057603 137.44148 
L 364.805542 136.472828 
L 364.755637 137.44148 
L 364.722288 136.472828 
L 363.879849 135.515776 
L 363.642491 134.570051 
L 363.526671 135.515776 
L 363.46914 133.635388 
L 363.110427 132.71153 
L 363.057283 131.79823 
L 362.912842 133.635388 
L 362.577449 134.570051 
L 362.45779 135.515776 
L 362.454944 136.472828 
L 361.467593 137.44148 
L 361.442366 136.472828 
L 361.16944 135.515776 
L 360.973683 136.472828 
L 360.853345 137.44148 
L 360.786204 138.422018 
L 360.733739 136.472828 
L 360.685453 137.44148 
L 360.555506 136.472828 
L 360.326086 138.422018 
L 360.22719 136.472828 
L 360.174202 135.515776 
L 359.88626 136.472828 
L 359.793866 137.44148 
L 359.523081 136.472828 
L 359.515638 137.44148 
L 359.403971 136.472828 
L 359.352368 137.44148 
L 359.199909 135.515776 
L 359.081557 136.472828 
L 358.850414 135.515776 
L 358.479818 134.570051 
L 358.377265 133.635388 
L 358.146775 134.570051 
L 358.06104 133.635388 
L 357.99954 134.570051 
L 357.621788 136.472828 
L 357.383804 139.414736 
L 357.056767 140.419942 
L 357.008272 139.414736 
L 356.828236 138.422018 
L 356.748795 139.414736 
L 356.531206 138.422018 
L 356.386425 139.414736 
L 356.287789 138.422018 
L 356.163352 139.414736 
L 355.8951 140.419942 
L 355.883244 141.437954 
L 355.728879 139.414736 
L 355.667692 138.422018 
L 355.184149 139.414736 
L 355.077966 142.469102 
L 355.01623 141.437954 
L 354.804883 140.419942 
L 354.642396 142.469102 
L 354.57677 143.513729 
L 354.193377 144.572192 
L 354.026869 143.513729 
L 353.811604 144.572192 
L 353.749242 145.644864 
L 353.728611 144.572192 
L 353.226161 143.513729 
L 353.026278 141.437954 
L 352.961409 142.469102 
L 352.839896 141.437954 
L 352.363405 142.469102 
L 352.298927 141.437954 
L 352.145502 143.513729 
L 352.046135 142.469102 
L 351.805774 145.644864 
L 351.423061 146.73213 
L 351.301601 147.834393 
L 350.585166 148.952073 
L 350.393587 147.834393 
L 349.663886 146.73213 
L 349.447393 145.644864 
L 349.442536 146.73213 
L 349.344605 144.572192 
L 349.343926 145.644864 
L 349.244794 144.572192 
L 349.085859 145.644864 
L 349.024359 144.572192 
L 348.810504 150.085608 
L 348.475712 151.235452 
L 348.475163 150.085608 
L 348.26836 151.235452 
L 348.121751 148.952073 
L 347.883662 150.085608 
L 347.883662 151.235452 
L 347.79085 150.085608 
L 347.681977 148.952073 
L 347.458721 147.834393 
L 347.271503 148.952073 
L 346.817314 147.834393 
L 346.808644 148.952073 
L 346.704706 147.834393 
L 346.443166 148.952073 
L 346.371063 151.235452 
L 346.315099 152.402084 
L 345.696255 151.235452 
L 345.099687 147.834393 
L 345.073625 148.952073 
L 344.854834 146.73213 
L 344.059115 154.787718 
L 343.729911 153.585999 
L 343.552643 154.787718 
L 343.257336 156.007785 
L 343.103755 153.585999 
L 343.084612 154.787718 
L 342.897369 153.585999 
L 342.782046 156.007785 
L 342.643141 154.787718 
L 342.626244 153.585999 
L 342.615772 154.787718 
L 342.26189 156.007785 
L 342.230186 157.246769 
L 341.808849 158.505264 
L 341.748367 159.783897 
L 341.113202 161.083321 
L 340.649115 159.783897 
L 340.501435 158.505264 
L 340.272329 159.783897 
L 340.212918 161.083321 
L 340.208243 159.783897 
L 340.088037 161.083321 
L 339.710886 162.404224 
L 339.691692 163.747329 
L 339.186787 167.91764 
L 338.832539 165.113393 
L 338.694783 166.503217 
L 338.579068 163.747329 
L 338.073014 165.113393 
L 338.021829 163.747329 
L 337.836126 165.113393 
L 337.810116 166.503217 
L 337.792123 163.747329 
L 337.696751 161.083321 
L 337.467567 162.404224 
L 337.392148 161.083321 
L 337.332841 162.404224 
L 336.866351 157.246769 
L 336.498314 158.505264 
L 336.454598 157.246769 
L 336.277095 156.007785 
L 336.195278 157.246769 
L 336.180888 156.007785 
L 335.915352 154.787718 
L 335.792456 153.585999 
L 335.572987 154.787718 
L 335.559511 156.007785 
L 335.381408 154.787718 
L 334.924137 156.007785 
L 334.863968 153.585999 
L 334.542181 152.402084 
L 334.479923 153.585999 
L 334.053128 154.787718 
L 333.951254 153.585999 
L 332.972338 151.235452 
L 332.849442 147.834393 
L 332.843383 146.73213 
L 332.802957 147.834393 
L 332.676509 150.085608 
L 332.602186 148.952073 
L 332.26836 147.834393 
L 331.729663 148.952073 
L 331.634892 150.085608 
L 331.631419 148.952073 
L 331.324308 147.834393 
L 331.196136 146.73213 
L 330.724763 148.952073 
L 330.609988 147.834393 
L 330.571939 148.952073 
L 330.530468 147.834393 
L 330.405483 146.73213 
L 330.262138 148.952073 
L 330.078263 147.834393 
L 329.576101 152.402084 
L 329.546695 151.235452 
L 329.040015 150.085608 
L 328.88847 152.402084 
L 328.702115 153.585999 
L 328.689005 152.402084 
L 328.654142 154.787718 
L 328.453084 153.585999 
L 328.437989 154.787718 
L 328.307519 153.585999 
L 328.123383 156.007785 
L 327.727273 154.787718 
L 327.567894 153.585999 
L 327.326071 154.787718 
L 327.087015 153.585999 
L 326.610471 156.007785 
L 326.320309 159.783897 
L 326.026726 161.083321 
L 325.912003 158.505264 
L 325.75312 156.007785 
L 325.416291 158.505264 
L 325.169976 157.246769 
L 325.134877 156.007785 
L 324.989 157.246769 
L 324.846595 156.007785 
L 324.581242 154.787718 
L 324.457275 156.007785 
L 324.234776 154.787718 
L 324.103915 156.007785 
L 323.813178 157.246769 
L 323.802811 159.783897 
L 323.416337 158.505264 
L 323.342327 156.007785 
L 322.941751 159.783897 
L 322.434862 158.505264 
L 322.264463 157.246769 
L 321.944425 158.505264 
L 321.62077 161.083321 
L 321.543275 158.505264 
L 321.430968 159.783897 
L 321.20493 158.505264 
L 321.149045 159.783897 
L 320.850708 162.404224 
L 320.608389 165.113393 
L 320.480008 166.503217 
L 320.144693 167.91764 
L 319.603776 166.503217 
L 319.543921 165.113393 
L 319.246838 166.503217 
L 319.159719 162.404224 
L 319.082027 163.747329 
L 318.96942 162.404224 
L 318.664751 163.747329 
L 318.511783 162.404224 
L 318.171115 161.083321 
L 317.49427 163.747329 
L 317.473208 162.404224 
L 317.030379 163.747329 
L 316.860802 165.113393 
L 316.270188 166.503217 
L 316.208688 167.91764 
L 316.025126 166.503217 
L 315.301771 167.91764 
L 315.247256 169.35755 
L 315.151362 167.91764 
L 315.003866 170.823881 
L 314.807861 169.35755 
L 314.776379 167.91764 
L 313.949021 166.503217 
L 313.847212 167.91764 
L 313.832915 166.503217 
L 313.593206 169.35755 
L 313.200334 166.503217 
L 312.919299 169.35755 
L 312.142996 170.823881 
L 312.027085 173.839818 
L 311.992339 172.317623 
L 311.945881 173.839818 
L 311.027539 172.317623 
L 310.728654 173.839818 
L 310.662492 172.317623 
L 310.450792 170.823881 
L 310.185322 172.317623 
L 310.167146 175.391572 
L 309.704155 176.974056 
L 309.528833 178.588511 
L 309.217753 180.236257 
L 308.822439 178.588511 
L 308.632245 176.974056 
L 308.55851 175.391572 
L 308.551654 176.974056 
L 308.449493 178.588511 
L 308.255721 176.974056 
L 308.150426 178.588511 
L 307.680384 180.236257 
L 307.488009 178.588511 
L 307.4878 180.236257 
L 307.138305 185.393713 
L 306.143055 187.189582 
L 305.462632 189.02674 
L 305.459851 187.189582 
L 305.34676 189.02674 
L 305.197383 187.189582 
L 305.196626 185.393713 
L 304.888118 187.189582 
L 304.728674 185.393713 
L 304.191413 183.637316 
L 304.14596 181.918694 
L 303.744536 178.588511 
L 303.510599 183.637316 
L 303.328147 181.918694 
L 302.480811 185.393713 
L 301.462058 187.189582 
L 301.084502 189.02674 
L 300.566801 187.189582 
L 300.177964 185.393713 
L 299.873817 187.189582 
L 299.838197 185.393713 
L 299.70821 187.189582 
L 299.344103 185.393713 
L 299.143254 187.189582 
L 298.581314 189.02674 
L 298.54444 187.189582 
L 298.156844 189.02674 
L 297.491437 190.907128 
L 297.491437 192.832832 
L 297.039141 189.02674 
L 295.974137 187.189582 
L 295.952097 185.393713 
L 295.557945 194.806088 
L 295.35229 192.832832 
L 295.2269 194.806088 
L 294.205913 190.907128 
L 294.205718 192.832832 
L 293.410259 194.806088 
L 293.013261 196.829306 
L 292.940283 198.905081 
L 292.2684 201.036216 
L 291.96676 196.829306 
L 291.928319 198.905081 
L 291.462561 196.829306 
L 291.460837 194.806088 
L 291.442034 196.829306 
L 290.805589 198.905081 
L 290.570529 196.829306 
L 290.523757 192.832832 
L 290.118141 194.806088 
L 290.117554 196.829306 
L 290.00808 194.806088 
L 289.496125 196.829306 
L 289.357363 198.905081 
L 288.9559 201.036216 
L 288.818705 203.225745 
L 288.242442 201.036216 
L 287.695479 205.47696 
L 287.676441 207.793436 
L 287.483022 205.47696 
L 287.168873 203.225745 
L 286.607051 201.036216 
L 286.417692 203.225745 
L 286.410354 205.47696 
L 286.038726 207.793436 
L 285.950497 205.47696 
L 284.753444 201.036216 
L 284.167427 205.47696 
L 284.039464 207.793436 
L 283.6175 205.47696 
L 282.981708 196.829306 
L 282.416491 198.905081 
L 281.627639 190.907128 
L 281.448426 192.832832 
L 281.448426 194.806088 
L 281.090195 196.829306 
L 281.048033 194.806088 
L 280.851819 196.829306 
L 280.62667 194.806088 
L 280.241188 192.832832 
L 279.360869 196.829306 
L 278.999923 201.036216 
L 278.906902 203.225745 
L 278.836078 201.036216 
L 278.498518 198.905081 
L 278.495123 201.036216 
L 278.204334 198.905081 
L 278.129254 201.036216 
L 277.517957 198.905081 
L 277.446232 201.036216 
L 277.425798 198.905081 
L 277.138142 201.036216 
L 276.699008 198.905081 
L 276.489763 201.036216 
L 276.155114 198.905081 
L 275.501237 196.829306 
L 275.481664 194.806088 
L 274.982635 192.832832 
L 274.92957 189.02674 
L 274.768976 187.189582 
L 274.741477 185.393713 
L 273.655935 187.189582 
L 273.157441 189.02674 
L 272.678181 187.189582 
L 272.663988 189.02674 
L 272.147123 190.907128 
L 272.057601 192.832832 
L 271.278673 190.907128 
L 271.256632 192.832832 
L 271.092657 194.806088 
L 270.795 192.832832 
L 270.790978 194.806088 
L 270.746178 192.832832 
L 270.65522 190.907128 
L 270.201984 192.832832 
L 269.925545 196.829306 
L 269.630277 194.806088 
L 269.580084 190.907128 
L 269.500081 192.832832 
L 269.13305 194.806088 
L 268.894948 192.832832 
L 268.774741 190.907128 
L 268.105221 189.02674 
L 267.85508 185.393713 
L 267.739548 187.189582 
L 267.323904 189.02674 
L 266.463302 190.907128 
L 266.4416 192.832832 
L 266.306482 190.907128 
L 266.084245 192.832832 
L 266.084245 194.806088 
L 265.975228 190.907128 
L 265.544346 189.02674 
L 264.51166 190.907128 
L 263.392991 187.189582 
L 263.208098 189.02674 
L 263.138123 190.907128 
L 262.432552 192.832832 
L 262.07897 190.907128 
L 260.769492 194.806088 
L 260.630522 189.02674 
L 260.091237 190.907128 
L 259.891654 187.189582 
L 259.735631 189.02674 
L 259.326111 187.189582 
L 258.757251 185.393713 
L 258.504929 187.189582 
L 257.991054 185.393713 
L 257.146291 183.637316 
L 256.942373 185.393713 
L 256.445472 183.637316 
L 255.032854 181.918694 
L 254.578886 183.637316 
L 254.552876 185.393713 
L 254.169183 183.637316 
L 254.018292 181.918694 
L 253.643335 183.637316 
L 253.573699 181.918694 
L 253.430146 183.637316 
L 253.424113 181.918694 
L 253.136236 183.637316 
L 252.103929 185.393713 
L 251.970848 183.637316 
L 251.513028 187.189582 
L 251.440599 183.637316 
L 251.085998 180.236257 
L 250.61089 181.918694 
L 250.451342 180.236257 
L 249.966519 178.588511 
L 249.886764 176.974056 
L 249.405637 175.391572 
L 249.028891 178.588511 
L 248.941668 180.236257 
L 248.479526 178.588511 
L 248.060343 181.918694 
L 248.049858 183.637316 
L 247.904764 185.393713 
L 247.547239 187.189582 
L 247.382976 183.637316 
L 247.023479 185.393713 
L 246.233687 183.637316 
L 245.684257 181.918694 
L 245.27065 187.189582 
L 243.961355 189.02674 
L 243.304723 190.907128 
L 243.19222 192.832832 
L 242.839382 190.907128 
L 242.413318 192.832832 
L 241.998092 190.907128 
L 241.930311 192.832832 
L 241.750562 187.189582 
L 241.453075 185.393713 
L 240.76171 183.637316 
L 240.663884 181.918694 
L 240.034203 183.637316 
L 239.745947 185.393713 
L 239.683532 187.189582 
L 239.677565 185.393713 
L 239.361262 187.189582 
L 239.196647 189.02674 
L 239.10057 194.806088 
L 238.914632 192.832832 
L 238.787375 196.829306 
L 238.3312 198.905081 
L 238.205536 196.829306 
L 238.19808 198.905081 
L 238.069386 201.036216 
L 237.647827 203.225745 
L 237.567315 201.036216 
L 236.657812 203.225745 
L 236.082711 205.47696 
L 236.002408 203.225745 
L 235.779348 205.47696 
L 235.411024 203.225745 
L 235.283231 201.036216 
L 235.203894 203.225745 
L 233.933589 205.47696 
L 233.923378 207.793436 
L 233.457711 205.47696 
L 232.957141 201.036216 
L 232.923636 198.905081 
L 232.747034 201.036216 
L 232.683287 198.905081 
L 232.493093 201.036216 
L 232.206247 194.806088 
L 232.063451 196.829306 
L 232.063451 198.905081 
L 231.755844 196.829306 
L 231.573641 198.905081 
L 231.252219 201.036216 
L 230.74802 198.905081 
L 230.256786 201.036216 
L 230.165345 198.905081 
L 230.045608 201.036216 
L 229.899992 198.905081 
L 229.396001 201.036216 
L 229.240252 203.225745 
L 229.074593 201.036216 
L 228.822845 203.225745 
L 228.790607 201.036216 
L 228.762677 203.225745 
L 227.41438 205.47696 
L 227.331857 207.793436 
L 226.853707 205.47696 
L 226.504721 203.225745 
L 226.469361 201.036216 
L 226.30032 198.905081 
L 225.495329 196.829306 
L 225.252213 194.806088 
L 225.169416 192.832832 
L 224.784574 190.907128 
L 224.710369 192.832832 
L 224.335359 194.806088 
L 223.75984 196.829306 
L 223.700638 198.905081 
L 222.728473 196.829306 
L 222.546805 198.905081 
L 222.493609 201.036216 
L 222.407743 198.905081 
L 221.690316 196.829306 
L 221.387383 198.905081 
L 221.19668 196.829306 
L 220.691971 194.806088 
L 220.515121 192.832832 
L 220.136482 190.907128 
L 220.073323 192.832832 
L 218.812589 194.806088 
L 218.782583 196.829306 
L 218.704343 194.806088 
L 218.41533 196.829306 
L 217.937375 194.806088 
L 217.776403 190.907128 
L 217.706207 192.832832 
L 217.578583 190.907128 
L 217.568869 194.806088 
L 217.204096 196.829306 
L 216.770864 201.036216 
L 216.242508 196.829306 
L 216.18422 198.905081 
L 216.049506 196.829306 
L 215.678127 198.905081 
L 215.621183 196.829306 
L 214.977099 198.905081 
L 214.930328 201.036216 
L 214.750553 203.225745 
L 214.31911 201.036216 
L 214.209427 198.905081 
L 213.818592 201.036216 
L 213.780961 198.905081 
L 213.666969 201.036216 
L 213.095393 198.905081 
L 212.836882 196.829306 
L 212.793636 198.905081 
L 212.127224 201.036216 
L 211.772225 203.225745 
L 211.196569 201.036216 
L 211.043144 198.905081 
L 210.452191 196.829306 
L 210.177214 192.832832 
L 209.998001 194.806088 
L 209.927178 192.832832 
L 209.895611 194.806088 
L 209.828966 196.829306 
L 209.682057 194.806088 
L 209.309679 196.829306 
L 209.172941 194.806088 
L 209.12017 196.829306 
L 208.856325 194.806088 
L 208.605916 198.905081 
L 207.889096 201.036216 
L 207.798569 203.225745 
L 207.30853 198.905081 
L 207.279177 196.829306 
L 207.042785 194.806088 
L 206.030612 192.832832 
L 205.758247 190.907128 
L 205.575567 194.806088 
L 204.800289 192.832832 
L 204.54704 190.907128 
L 203.602766 194.806088 
L 202.776472 192.832832 
L 202.355814 189.02674 
L 202.35078 187.189582 
L 201.687816 189.02674 
L 201.584675 190.907128 
L 201.565389 189.02674 
L 200.761411 190.907128 
L 200.300868 192.832832 
L 199.621778 190.907128 
L 199.401492 189.02674 
L 199.308608 185.393713 
L 198.703893 187.189582 
L 198.639004 189.02674 
L 197.454016 190.907128 
L 197.389708 192.832832 
L 196.94964 190.907128 
L 196.83954 189.02674 
L 196.800224 190.907128 
L 196.704454 189.02674 
L 196.667038 190.907128 
L 196.541458 189.02674 
L 196.538886 187.189582 
L 196.495868 189.02674 
L 196.106776 190.907128 
L 195.970085 189.02674 
L 195.850061 190.907128 
L 195.541905 189.02674 
L 195.537015 187.189582 
L 195.13815 190.907128 
L 194.407163 194.806088 
L 194.263446 192.832832 
L 194.050101 194.806088 
L 194.046921 190.907128 
L 193.861238 189.02674 
L 193.311507 190.907128 
L 192.849607 187.189582 
L 192.836302 185.393713 
L 192.795203 187.189582 
L 192.140497 185.393713 
L 191.726525 181.918694 
L 190.989896 180.236257 
L 190.778451 181.918694 
L 190.311014 180.236257 
L 190.149644 181.918694 
L 190.093321 180.236257 
L 189.546286 178.588511 
L 189.401466 180.236257 
L 189.019563 178.588511 
L 188.509298 181.918694 
L 187.876189 180.236257 
L 187.600586 181.918694 
L 187.136786 183.637316 
L 187.095668 181.918694 
L 186.539944 178.588511 
L 186.242946 176.974056 
L 186.197402 175.391572 
L 185.647442 173.839818 
L 185.552136 178.588511 
L 185.476925 180.236257 
L 185.136094 181.918694 
L 185.066276 183.637316 
L 185.059212 181.918694 
L 184.859903 178.588511 
L 184.782224 176.974056 
L 183.931174 185.393713 
L 183.883586 183.637316 
L 183.699235 181.918694 
L 183.612448 185.393713 
L 182.738959 187.189582 
L 181.909009 185.393713 
L 181.760716 183.637316 
L 181.751399 181.918694 
L 181.459539 183.637316 
L 180.915808 185.393713 
L 180.772738 189.02674 
L 180.682531 187.189582 
L 180.419247 189.02674 
L 180.323523 192.832832 
L 180.282321 194.806088 
L 180.109839 196.829306 
L 180.052804 198.905081 
L 179.76554 201.036216 
L 179.448401 196.829306 
L 179.361909 198.905081 
L 178.848556 196.829306 
L 178.623172 194.806088 
L 178.157492 192.832832 
L 177.923339 194.806088 
L 177.648735 192.832832 
L 176.018541 194.806088 
L 175.770718 192.832832 
L 175.485589 194.806088 
L 174.466607 196.829306 
L 173.949409 198.905081 
L 173.949409 201.036216 
L 173.265617 205.47696 
L 172.821456 207.793436 
L 172.536862 215.175249 
L 171.981223 217.795576 
L 171.927407 220.504745 
L 171.559377 223.308992 
L 171.253559 215.175249 
L 171.19243 217.795576 
L 170.508221 215.175249 
L 170.31894 217.795576 
L 170.245649 215.175249 
L 170.157531 217.795576 
L 169.639327 220.504745 
L 169.402537 217.795576 
L 168.152413 215.175249 
L 167.74506 212.638121 
L 167.302067 215.175249 
L 167.013511 212.638121 
L 166.970767 215.175249 
L 166.877923 212.638121 
L 166.591704 215.175249 
L 166.423857 217.795576 
L 166.117582 220.504745 
L 165.46964 217.795576 
L 165.441103 215.175249 
L 165.297197 217.795576 
L 165.284165 215.175249 
L 164.879072 212.638121 
L 164.19436 215.175249 
L 164.06955 220.504745 
L 163.901286 229.23117 
L 163.232621 226.215233 
L 162.355665 223.308992 
L 162.215356 226.215233 
L 161.857517 223.308992 
L 161.823215 220.504745 
L 161.183297 226.215233 
L 161.138294 223.308992 
L 161.099018 226.215233 
L 161.007883 223.308992 
L 160.331659 226.215233 
L 160.244415 223.308992 
L 159.700932 226.215233 
L 159.639549 223.308992 
L 159.339248 226.215233 
L 159.245071 229.23117 
L 159.177212 226.215233 
L 158.608496 223.308992 
L 158.094555 226.215233 
L 157.927629 223.308992 
L 157.769017 226.215233 
L 156.937895 223.308992 
L 156.443593 226.215233 
L 155.955977 220.504745 
L 155.290195 217.795576 
L 154.991731 220.504745 
L 154.883263 217.795576 
L 154.4597 215.175249 
L 154.29641 217.795576 
L 154.008729 215.175249 
L 153.540708 212.638121 
L 153.281104 210.17907 
L 152.515667 215.175249 
L 152.062023 212.638121 
L 151.93153 210.17907 
L 151.507467 212.638121 
L 151.433343 210.17907 
L 150.835042 212.638121 
L 150.826725 215.175249 
L 150.696738 217.795576 
L 150.567247 215.175249 
L 150.509001 220.504745 
L 150.310238 223.308992 
L 149.710889 226.215233 
L 149.623019 220.504745 
L 149.369643 223.308992 
L 149.233761 226.215233 
L 148.752287 223.308992 
L 148.085794 226.215233 
L 147.986515 229.23117 
L 147.249952 226.215233 
L 146.451715 229.23117 
L 145.958249 232.365408 
L 145.447566 226.215233 
L 145.128799 229.23117 
L 145.00332 223.308992 
L 143.481725 226.215233 
L 143.287763 229.23117 
L 142.954622 232.365408 
L 142.050878 229.23117 
L 141.912199 232.365408 
L 141.182403 235.627609 
L 140.898234 239.028668 
L 140.462259 242.580934 
L 139.162745 246.29848 
L 137.250132 242.580934 
L 136.838604 239.028668 
L 136.662861 242.580934 
L 135.914765 246.29848 
L 134.264433 250.19744 
L 133.770088 254.296432 
L 133.364201 250.19744 
L 132.785245 254.296432 
L 132.195548 263.184788 
L 132.063512 258.617097 
L 131.788117 263.184788 
L 131.091582 258.617097 
L 130.307633 263.184788 
L 128.110099 258.617097 
L 127.014153 268.029473 
L 126.797336 263.184788 
L 124.709401 268.029473 
L 124.41633 263.184788 
L 123.788028 268.029473 
L 122.516255 273.186928 
L 122.207723 268.029473 
L 119.682729 273.186928 
L 118.539233 278.700344 
L 117.94465 273.186928 
L 117.805427 268.029473 
L 117.522133 273.186928 
L 117.397366 268.029473 
L 117.105506 273.186928 
L 117.02875 284.622522 
L 116.537205 291.018961 
L 116.282074 297.972286 
L 115.244917 305.588792 
L 114.931622 314.008449 
L 114.413838 305.588792 
L 114.1506 314.008449 
L 114.1506 323.420825 
L 113.845202 334.091696 
L 113.40079 323.420825 
L 111.044477 334.091696 
L 109.690265 323.420825 
L 109.656755 334.091696 
L 109.105251 323.420825 
L 107.723921 314.008449 
L 105.390255 323.420825 
L 104.758401 314.008449 
L 103.833768 323.420825 
L 103.180144 334.091696 
L 103.180144 577 
L 103.180144 577 
" clip-path="url(#pbe6ba0e6fb)" style="fill: none; stroke: #1f77b4; stroke-width: 1.5; stroke-linecap: square"/>
   </g>
   <g id="line2d_32">
    <path d="M 468.194583 489.59488 
L 463.241718 434.203528 
L 463.241718 401.801665 
L 461.511582 378.812177 
L 457.07109 360.980144 
L 455.877876 378.812177 
L 454.775829 401.801665 
L 451.526801 378.812177 
L 451.319161 360.980144 
L 450.9365 346.410313 
L 449.281837 334.091696 
L 448.965325 323.420825 
L 445.93224 314.008449 
L 443.432657 305.588792 
L 442.005819 314.008449 
L 437.608521 323.420825 
L 437.220872 334.091696 
L 435.164588 323.420825 
L 434.968126 314.008449 
L 431.971863 305.588792 
L 430.756713 314.008449 
L 427.545212 305.588792 
L 427.090134 297.972286 
L 425.09932 291.018961 
L 424.492829 284.622522 
L 422.586052 278.700344 
L 422.225015 273.186928 
L 421.387694 268.029473 
L 420.302204 263.184788 
L 420.088793 254.296432 
L 419.134791 250.19744 
L 418.788403 246.29848 
L 418.325021 250.19744 
L 417.778464 246.29848 
L 417.696593 242.580934 
L 416.629645 246.29848 
L 416.329428 242.580934 
L 416.310939 239.028668 
L 415.535537 235.627609 
L 414.98433 232.365408 
L 413.59959 235.627609 
L 413.271639 232.365408 
L 413.027283 235.627609 
L 412.21814 232.365408 
L 412.13277 229.23117 
L 411.397324 226.215233 
L 411.16182 223.308992 
L 410.566923 220.504745 
L 410.539764 217.795576 
L 409.57798 220.504745 
L 409.351538 217.795576 
L 409.001077 215.175249 
L 408.172478 196.829306 
L 407.82737 194.806088 
L 407.822069 192.832832 
L 407.034654 190.907128 
L 407.030345 189.02674 
L 406.084935 187.189582 
L 405.98165 185.393713 
L 404.591948 187.189582 
L 404.349811 189.02674 
L 404.09318 187.189582 
L 403.893115 183.637316 
L 403.55148 185.393713 
L 403.237109 183.637316 
L 403.221205 181.918694 
L 402.792478 183.637316 
L 402.627745 181.918694 
L 402.260831 180.236257 
L 401.97127 181.918694 
L 401.842967 180.236257 
L 401.593179 178.588511 
L 401.294895 180.236257 
L 400.769151 173.839818 
L 400.555635 175.391572 
L 400.335957 173.839818 
L 399.958101 175.391572 
L 399.794857 176.974056 
L 399.709148 175.391572 
L 399.15755 176.974056 
L 399.023085 175.391572 
L 397.875337 173.839818 
L 397.723244 172.317623 
L 397.388216 170.823881 
L 397.301828 169.35755 
L 397.035979 167.91764 
L 396.235193 169.35755 
L 395.824459 167.91764 
L 395.815815 169.35755 
L 395.774736 167.91764 
L 395.531345 169.35755 
L 394.133757 167.91764 
L 393.68116 165.113393 
L 392.922993 162.404224 
L 392.809759 159.783897 
L 392.67297 161.083321 
L 391.950633 159.783897 
L 391.82408 161.083321 
L 391.272378 162.404224 
L 390.694769 161.083321 
L 390.037092 163.747329 
L 389.774612 162.404224 
L 389.636386 161.083321 
L 389.50038 158.505264 
L 388.683507 159.783897 
L 388.371173 158.505264 
L 387.756273 157.246769 
L 387.667221 153.585999 
L 387.588615 154.787718 
L 387.376302 156.007785 
L 386.861134 157.246769 
L 386.468654 156.007785 
L 386.379236 153.585999 
L 385.896242 152.402084 
L 385.380395 153.585999 
L 385.331221 152.402084 
L 384.958431 150.085608 
L 384.685218 146.73213 
L 384.477605 147.834393 
L 384.461753 146.73213 
L 384.02412 145.644864 
L 383.874586 146.73213 
L 383.690529 145.644864 
L 383.102762 144.572192 
L 383.050375 143.513729 
L 382.893477 144.572192 
L 382.132125 143.513729 
L 382.037406 142.469102 
L 381.788766 143.513729 
L 381.358811 142.469102 
L 381.294438 141.437954 
L 380.874642 139.414736 
L 380.256503 138.422018 
L 380.234201 137.44148 
L 379.767685 136.472828 
L 379.077757 135.515776 
L 378.834314 136.472828 
L 378.734007 135.515776 
L 378.075312 133.635388 
L 378.046559 134.570051 
L 377.961451 133.635388 
L 377.794995 134.570051 
L 377.459445 135.515776 
L 377.299831 133.635388 
L 376.911085 131.79823 
L 376.893797 130.895251 
L 376.564541 130.002361 
L 376.098286 129.119337 
L 375.972648 130.895251 
L 375.77488 128.245964 
L 375.616885 129.119337 
L 375.583562 128.245964 
L 374.910217 127.382033 
L 374.842606 126.527342 
L 374.798498 127.382033 
L 374.30921 125.681696 
L 374.263691 124.016785 
L 374.191928 124.844905 
L 373.913517 126.527342 
L 373.625679 125.681696 
L 373.238239 124.016785 
L 373.093249 123.197159 
L 372.834791 124.016785 
L 372.73733 123.197159 
L 372.501983 124.844905 
L 372.44957 125.681696 
L 372.392013 124.844905 
L 372.063358 121.582704 
L 371.981906 122.385855 
L 371.952552 121.582704 
L 371.769226 120.787545 
L 371.737732 121.582704 
L 371.698037 120.787545 
L 371.534897 120.00022 
L 370.86338 119.220576 
L 370.494038 117.683744 
L 370.115006 116.926271 
L 370.073458 117.683744 
L 369.622794 114.696 
L 369.310094 113.243 
L 369.279879 112.526288 
L 369.081903 113.243 
L 369.060619 112.526288 
L 369.023928 113.243 
L 368.628052 112.526288 
L 368.485256 110.413932 
L 368.258658 111.111865 
L 368.090661 110.413932 
L 368.028925 111.111865 
L 367.587663 112.526288 
L 367.563872 113.243 
L 367.308521 113.966198 
L 367.097878 113.243 
L 366.723156 112.526288 
L 366.685969 113.243 
L 366.679649 112.526288 
L 366.642461 111.815947 
L 366.366062 112.526288 
L 366.322737 111.815947 
L 366.195976 112.526288 
L 365.611107 109.722041 
L 365.522029 108.355977 
L 365.265634 109.03609 
L 365.158693 107.681603 
L 364.857197 108.355977 
L 364.729391 107.681603 
L 364.67233 109.03609 
L 364.526244 109.722041 
L 364.252691 110.413932 
L 363.877368 109.722041 
L 363.804716 110.413932 
L 363.178325 109.722041 
L 363.178325 109.03609 
L 362.601265 108.355977 
L 362.463927 107.012873 
L 362.411332 106.349692 
L 362.132739 107.012873 
L 361.598011 105.039616 
L 361.422023 105.691969 
L 361.387238 106.349692 
L 361.168317 105.691969 
L 361.162728 106.349692 
L 360.905471 107.681603 
L 360.685453 107.012873 
L 360.574413 105.691969 
L 360.401114 106.349692 
L 360.106199 105.039616 
L 360.101655 104.392545 
L 359.983747 103.750671 
L 359.943347 105.039616 
L 359.698468 103.750671 
L 359.610748 105.039616 
L 359.607171 104.392545 
L 359.355919 105.039616 
L 359.046798 102.482187 
L 358.949102 103.113913 
L 358.728327 102.482187 
L 358.707174 101.855417 
L 358.235331 103.113913 
L 358.085745 101.855417 
L 357.738339 100.616433 
L 357.684386 101.233524 
L 357.573711 100.616433 
L 357.063348 101.233524 
L 356.893993 100.616433 
L 356.734066 101.233524 
L 356.62911 100.616433 
L 356.051319 98.793248 
L 356.049387 99.396366 
L 355.805422 98.194647 
L 355.536647 97.600497 
L 355.49805 97.010732 
L 355.44958 97.600497 
L 354.751295 97.010732 
L 354.621374 97.600497 
L 354.289193 96.425287 
L 354.283004 95.8441 
L 353.72297 94.125479 
L 353.696072 94.694256 
L 353.4496 93.560721 
L 353.353863 92.999927 
L 353.149096 94.125479 
L 352.952138 95.8441 
L 352.648448 94.694256 
L 352.171069 95.8441 
L 352.056268 95.26711 
L 351.623727 94.125479 
L 351.191004 94.694256 
L 351.183823 94.125479 
L 350.917686 93.560721 
L 350.580543 91.890009 
L 350.311639 91.340778 
L 350.254029 91.890009 
L 350.200363 91.340778 
L 350.012937 90.795296 
L 349.676499 91.340778 
L 349.644848 90.795296 
L 349.580057 91.340778 
L 349.479671 90.795296 
L 349.140544 91.340778 
L 349.123595 90.795296 
L 348.854638 90.253512 
L 348.789221 89.715376 
L 348.776059 90.253512 
L 348.451529 90.795296 
L 348.331505 91.340778 
L 347.995825 90.253512 
L 347.800303 90.795296 
L 347.634369 89.715376 
L 347.374631 89.18084 
L 347.364107 88.649856 
L 347.288582 89.18084 
L 346.96387 88.649856 
L 346.873643 89.18084 
L 346.776783 87.598356 
L 346.635972 86.560513 
L 346.286137 85.02859 
L 346.152012 85.535975 
L 345.872948 84.524407 
L 345.85788 85.02859 
L 345.793089 84.524407 
L 345.714744 85.02859 
L 345.292885 84.524407 
L 345.290012 84.023384 
L 345.227467 84.524407 
L 344.738258 85.02859 
L 344.728752 85.535975 
L 344.71572 85.02859 
L 344.487033 83.525484 
L 343.899605 82.538893 
L 343.296952 83.030666 
L 343.232684 83.525484 
L 343.069022 83.030666 
L 343.0609 83.525484 
L 342.895097 83.030666 
L 342.667819 83.525484 
L 342.608982 83.030666 
L 342.452476 83.525484 
L 342.321458 82.538893 
L 342.191589 83.030666 
L 341.599016 82.538893 
L 341.513412 81.564334 
L 341.135582 82.050128 
L 341.135086 82.538893 
L 340.401572 83.030666 
L 340.062157 82.538893 
L 340.035885 82.050128 
L 339.976056 82.538893 
L 339.922495 83.030666 
L 339.690255 82.050128 
L 339.369199 79.650163 
L 339.260117 79.178699 
L 339.161534 79.650163 
L 338.871816 80.601517 
L 338.844656 81.081476 
L 338.545275 80.601517 
L 338.432773 80.124424 
L 338.03473 79.650163 
L 337.977356 79.178699 
L 337.811918 79.650163 
L 337.323257 78.710001 
L 337.302208 79.178699 
L 337.274108 78.710001 
L 336.999902 78.244036 
L 336.956917 78.710001 
L 336.895521 78.244036 
L 336.659051 77.780772 
L 336.297047 77.320178 
L 336.119336 77.780772 
L 336.018558 76.862223 
L 335.965623 75.954113 
L 335.633808 75.056207 
L 335.568651 75.503899 
L 335.49506 75.056207 
L 335.26504 74.611009 
L 335.100934 75.503899 
L 335.06803 75.954113 
L 334.89131 76.406878 
L 334.682914 75.954113 
L 334.589188 76.862223 
L 334.576861 76.406878 
L 334.520035 75.503899 
L 334.467074 75.954113 
L 334.178087 75.503899 
L 333.597972 75.954113 
L 333.570029 75.503899 
L 333.377798 75.954113 
L 333.349567 76.406878 
L 333.135164 75.954113 
L 332.914024 74.611009 
L 332.55975 75.056207 
L 332.407187 75.503899 
L 332.284891 75.056207 
L 332.234202 75.954113 
L 332.12384 75.503899 
L 332.111305 75.954113 
L 331.675083 75.503899 
L 331.471178 74.168277 
L 331.466059 74.611009 
L 331.366013 75.503899 
L 331.35669 75.954113 
L 331.171771 75.503899 
L 331.16647 75.056207 
L 330.688359 74.611009 
L 330.582489 74.168277 
L 330.479701 75.056207 
L 330.079256 74.611009 
L 329.830695 75.503899 
L 329.826177 75.954113 
L 329.727306 75.056207 
L 329.635512 74.611009 
L 329.511702 75.056207 
L 329.467515 74.611009 
L 329.231124 75.056207 
L 329.178711 74.611009 
L 328.702115 74.168277 
L 328.577364 75.503899 
L 328.418142 74.611009 
L 328.35719 73.727985 
L 328.305822 74.168277 
L 328.223534 74.611009 
L 327.935539 73.727985 
L 327.689537 74.611009 
L 327.431731 75.503899 
L 327.232788 75.056207 
L 327.074323 75.954113 
L 327.063773 75.503899 
L 326.588221 75.954113 
L 326.41696 74.611009 
L 326.35089 75.056207 
L 326.16174 74.168277 
L 325.747741 73.727985 
L 325.434467 74.168277 
L 325.302117 73.727985 
L 325.298382 74.168277 
L 325.084737 73.727985 
L 325.044102 73.290106 
L 324.500835 73.727985 
L 324.187195 74.611009 
L 324.043276 74.168277 
L 323.680201 73.727985 
L 323.655053 73.290106 
L 323.429995 73.727985 
L 323.189895 72.421479 
L 322.327086 71.990681 
L 322.292536 71.13599 
L 321.097572 69.453553 
L 321.041621 68.21457 
L 320.871183 67.805807 
L 320.204 66.994503 
L 319.986437 66.191352 
L 319.708706 65.792783 
L 319.642766 65.001561 
L 319.425255 65.396193 
L 319.316931 65.001561 
L 318.953856 64.608868 
L 318.887942 63.829224 
L 318.807325 64.218095 
L 318.362276 64.608868 
L 318.2911 64.218095 
L 318.165775 64.608868 
L 317.942062 64.218095 
L 317.839352 63.442237 
L 317.822913 63.829224 
L 317.744816 64.218095 
L 317.65028 63.829224 
L 317.39365 64.218095 
L 317.159621 63.057114 
L 316.959725 62.673838 
L 316.953118 62.292392 
L 316.65516 62.673838 
L 316.58593 63.442237 
L 316.579467 63.829224 
L 316.511777 63.442237 
L 316.429698 63.829224 
L 316.128332 63.442237 
L 315.959252 64.218095 
L 315.919022 64.608868 
L 315.814301 64.218095 
L 315.690151 64.608868 
L 315.633795 64.218095 
L 315.478556 64.608868 
L 315.364107 65.396193 
L 315.129883 66.191352 
L 315.093165 66.994503 
L 315.057832 66.591918 
L 314.37314 65.792783 
L 314.239745 65.396193 
L 314.171572 65.792783 
L 313.857489 65.396193 
L 313.730779 65.001561 
L 313.371269 65.792783 
L 313.034035 65.396193 
L 313.006118 65.792783 
L 312.930725 65.396193 
L 312.655618 65.001561 
L 312.652262 65.396193 
L 312.076429 65.001561 
L 311.992235 64.608868 
L 311.688362 65.396193 
L 311.65786 65.792783 
L 311.609456 65.396193 
L 311.578145 65.001561 
L 311.425608 64.608868 
L 311.003069 65.001561 
L 310.728654 64.608868 
L 310.64732 65.396193 
L 310.620852 65.001561 
L 310.582659 64.218095 
L 310.524227 64.608868 
L 310.382267 65.001561 
L 310.356113 64.608868 
L 310.28525 65.001561 
L 310.281137 65.396193 
L 310.280171 65.001561 
L 309.840841 64.608868 
L 309.513726 65.792783 
L 308.898342 66.591918 
L 308.802775 66.191352 
L 308.554266 65.792783 
L 308.37329 65.001561 
L 308.363484 65.396193 
L 308.226577 65.001561 
L 308.068804 65.396193 
L 307.682787 65.001561 
L 307.594832 64.608868 
L 307.578327 65.001561 
L 307.268945 66.591918 
L 307.201438 66.191352 
L 306.927402 65.792783 
L 306.809023 64.218095 
L 306.785089 64.608868 
L 306.701364 63.829224 
L 306.505216 63.442237 
L 306.475131 63.057114 
L 306.316144 63.442237 
L 305.905031 62.292392 
L 305.881528 62.673838 
L 305.638659 62.292392 
L 305.446441 63.057114 
L 305.399656 62.673838 
L 305.398847 63.057114 
L 304.926794 64.218095 
L 304.82906 63.829224 
L 304.711268 63.442237 
L 304.623523 64.608868 
L 304.590265 64.218095 
L 304.553783 63.829224 
L 304.296917 64.608868 
L 304.250707 63.829224 
L 304.044021 63.442237 
L 304.012056 64.218095 
L 303.62207 63.829224 
L 303.370179 64.218095 
L 303.287317 63.829224 
L 303.050455 64.218095 
L 302.962304 64.608868 
L 302.758465 63.829224 
L 302.662114 64.218095 
L 302.627094 63.829224 
L 302.61038 64.218095 
L 302.113401 65.396193 
L 302.105149 65.792783 
L 301.959911 65.396193 
L 301.937975 65.792783 
L 301.20053 66.591918 
L 301.13728 66.191352 
L 300.847771 65.792783 
L 300.643056 66.191352 
L 300.516347 65.396193 
L 300.205476 65.001561 
L 300.096708 66.191352 
L 300.082357 65.792783 
L 299.90398 65.396193 
L 299.808674 64.218095 
L 299.392599 63.829224 
L 299.173338 63.442237 
L 299.007705 62.292392 
L 298.815956 62.673838 
L 298.570268 62.292392 
L 298.346868 62.673838 
L 298.270992 62.292392 
L 298.199541 62.673838 
L 297.812454 63.442237 
L 297.790648 63.057114 
L 297.674045 63.442237 
L 297.664605 63.057114 
L 297.387996 62.292392 
L 297.282949 63.442237 
L 297.255411 62.673838 
L 297.13886 62.292392 
L 296.976112 63.057114 
L 296.494306 63.442237 
L 296.031838 63.057114 
L 296.009027 62.673838 
L 295.973537 63.057114 
L 295.729742 63.442237 
L 295.651985 63.829224 
L 295.43181 63.057114 
L 295.427292 63.442237 
L 295.404481 63.829224 
L 295.256436 64.218095 
L 295.2269 63.829224 
L 294.987897 64.218095 
L 294.953112 63.829224 
L 294.904159 64.218095 
L 294.876034 64.608868 
L 294.800366 64.218095 
L 294.670144 63.442237 
L 294.54542 63.829224 
L 294.522987 64.218095 
L 293.867217 62.292392 
L 293.433645 63.057114 
L 293.222441 62.673838 
L 293.130543 63.442237 
L 292.891853 63.057114 
L 292.830248 62.673838 
L 292.639453 63.057114 
L 292.618274 63.442237 
L 292.528269 63.057114 
L 292.301866 63.442237 
L 292.266911 63.057114 
L 292.090897 62.673838 
L 291.706996 63.057114 
L 291.513759 62.673838 
L 291.497776 62.292392 
L 291.361143 62.673838 
L 291.168873 62.292392 
L 290.81691 61.912758 
L 290.799635 61.534919 
L 290.660887 61.158858 
L 290.620657 61.534919 
L 290.605484 61.158858 
L 290.296793 60.412003 
L 290.277233 60.784558 
L 290.248011 60.412003 
L 290.177344 60.041177 
L 290.074451 60.412003 
L 289.89593 59.672064 
L 289.596602 60.041177 
L 289.375409 59.672064 
L 289.368253 60.041177 
L 289.234519 59.672064 
L 289.20796 60.041177 
L 289.018392 59.672064 
L 289.018392 59.304648 
L 288.887231 59.672064 
L 288.862226 59.304648 
L 288.602513 58.574846 
L 288.454207 59.304648 
L 288.379976 59.672064 
L 288.276835 58.938914 
L 288.156955 59.304648 
L 288.092777 58.938914 
L 287.866349 59.304648 
L 287.860016 58.938914 
L 287.839072 59.304648 
L 287.588304 58.574846 
L 287.163219 57.851648 
L 287.160164 58.212429 
L 286.706222 57.851648 
L 286.611791 58.574846 
L 286.45343 58.212429 
L 286.233047 58.574846 
L 286.183429 58.212429 
L 285.8923 57.851648 
L 285.882311 57.492489 
L 285.0824 58.574846 
L 285.07309 58.212429 
L 284.657772 57.492489 
L 284.460684 58.212429 
L 284.374204 57.492489 
L 284.147867 58.212429 
L 283.569227 58.574846 
L 283.261868 59.672064 
L 283.027396 59.304648 
L 282.953399 59.672064 
L 282.919972 59.304648 
L 282.563766 58.938914 
L 282.360801 59.304648 
L 282.221465 58.938914 
L 282.216725 59.304648 
L 282.16682 58.574846 
L 282.056928 58.212429 
L 281.962915 58.574846 
L 281.574783 58.938914 
L 281.357403 58.574846 
L 281.129054 59.304648 
L 280.860189 58.938914 
L 280.792734 59.304648 
L 280.001767 58.938914 
L 279.988684 59.304648 
L 279.951248 58.938914 
L 279.677499 57.851648 
L 279.633887 58.212429 
L 279.292305 58.574846 
L 279.217564 58.938914 
L 279.132456 58.574846 
L 279.054033 58.938914 
L 278.816335 58.574846 
L 278.773455 58.938914 
L 278.518796 59.304648 
L 278.507815 58.938914 
L 278.363569 59.304648 
L 278.2659 58.938914 
L 278.029508 58.212429 
L 277.821451 58.574846 
L 277.320058 58.938914 
L 277.185567 58.574846 
L 276.886957 58.938914 
L 276.678038 58.212429 
L 276.613038 57.851648 
L 276.243865 57.492489 
L 276.126179 58.212429 
L 276.029971 57.851648 
L 275.833418 58.212429 
L 275.640298 57.851648 
L 275.176029 58.574846 
L 274.643142 58.212429 
L 274.632905 57.851648 
L 274.549925 58.212429 
L 274.047514 58.938914 
L 273.910032 59.304648 
L 273.772773 58.938914 
L 273.757052 59.304648 
L 273.570905 58.938914 
L 272.886278 59.672064 
L 272.843658 58.938914 
L 272.668271 59.672064 
L 272.657577 59.304648 
L 272.455591 59.672064 
L 271.949094 60.041177 
L 271.737211 60.412003 
L 271.561523 61.158858 
L 271.342746 60.784558 
L 271.327351 60.412003 
L 271.29553 60.784558 
L 271.098755 60.412003 
L 271.097723 60.041177 
L 270.894288 60.412003 
L 270.767945 60.041177 
L 270.754117 60.412003 
L 270.407821 60.041177 
L 270.295057 60.784558 
L 270.022927 60.412003 
L 269.873589 60.784558 
L 269.7819 60.041177 
L 269.765722 60.412003 
L 269.623931 60.041177 
L 269.615222 60.412003 
L 269.478145 60.784558 
L 269.362182 60.412003 
L 269.144462 61.912758 
L 268.757479 62.292392 
L 268.660006 62.673838 
L 268.387406 63.057114 
L 268.386896 63.442237 
L 268.076025 63.829224 
L 267.739548 63.442237 
L 267.437778 63.829224 
L 267.322246 64.608868 
L 266.580114 64.218095 
L 266.535235 64.608868 
L 266.498988 64.218095 
L 266.330194 63.829224 
L 266.330194 63.442237 
L 266.1242 64.218095 
L 266.093437 63.829224 
L 265.881463 62.292392 
L 265.061704 61.912758 
L 264.926952 61.534919 
L 264.915448 61.912758 
L 264.788948 61.534919 
L 264.627989 61.912758 
L 264.239609 62.292392 
L 264.036226 63.442237 
L 263.792405 63.057114 
L 263.57492 63.442237 
L 263.434161 62.292392 
L 263.420294 61.912758 
L 263.220907 62.292392 
L 263.215828 62.673838 
L 262.959967 63.057114 
L 262.957682 62.673838 
L 262.563544 63.057114 
L 262.559653 63.442237 
L 262.357811 63.829224 
L 262.334086 64.218095 
L 262.312463 63.829224 
L 261.945888 64.218095 
L 261.857711 63.442237 
L 261.85399 63.829224 
L 261.751032 64.218095 
L 261.636414 63.442237 
L 261.495551 63.829224 
L 261.310566 63.442237 
L 261.28752 63.829224 
L 261.243399 63.057114 
L 260.987878 62.673838 
L 260.987878 62.292392 
L 260.931365 62.673838 
L 260.645786 63.057114 
L 260.471678 62.673838 
L 260.374192 62.292392 
L 260.362205 62.673838 
L 260.087333 62.292392 
L 259.943022 63.057114 
L 259.83757 63.442237 
L 259.475423 63.829224 
L 259.474091 64.218095 
L 259.299865 63.829224 
L 258.768363 64.218095 
L 258.671986 65.001561 
L 258.588392 64.608868 
L 258.459972 65.396193 
L 257.92343 65.792783 
L 257.401485 66.994503 
L 257.368476 67.399125 
L 257.30866 66.994503 
L 257.096241 66.591918 
L 257.023329 66.994503 
L 256.799028 67.399125 
L 256.491121 66.994503 
L 256.460449 67.399125 
L 256.049153 66.994503 
L 255.763979 67.399125 
L 255.47016 66.994503 
L 255.43138 66.591918 
L 255.365087 66.994503 
L 255.288257 66.591918 
L 255.182349 66.994503 
L 255.021155 66.191352 
L 254.962866 66.591918 
L 254.908038 66.191352 
L 254.671477 66.591918 
L 254.116379 66.994503 
L 253.92719 66.591918 
L 253.575227 66.191352 
L 253.335989 66.591918 
L 253.199212 67.399125 
L 253.169206 66.994503 
L 253.165955 67.399125 
L 253.05246 66.994503 
L 253.045618 67.399125 
L 252.634296 66.994503 
L 252.274302 67.399125 
L 252.149186 66.994503 
L 251.926413 68.21457 
L 251.703014 67.805807 
L 251.612852 69.03842 
L 251.301563 69.453553 
L 251.067482 70.290344 
L 250.815304 70.712049 
L 250.169118 70.290344 
L 249.96302 70.712049 
L 249.914276 71.13599 
L 249.437876 70.712049 
L 249.380593 70.290344 
L 248.834479 70.712049 
L 248.677855 71.13599 
L 248.638631 70.290344 
L 248.263413 71.13599 
L 248.24777 71.562193 
L 247.819199 70.712049 
L 247.504254 71.562193 
L 247.000668 71.13599 
L 246.719763 71.562193 
L 246.632278 71.990681 
L 246.571444 71.562193 
L 246.550265 71.990681 
L 246.547875 72.421479 
L 246.415173 71.990681 
L 246.216974 72.854612 
L 246.047567 71.990681 
L 245.321482 72.421479 
L 244.866653 71.562193 
L 244.463622 71.13599 
L 244.210595 71.562193 
L 244.090206 71.990681 
L 244.020401 71.562193 
L 243.994221 71.990681 
L 243.903746 71.562193 
L 243.588383 71.990681 
L 243.52794 71.562193 
L 243.247858 72.421479 
L 242.914149 71.990681 
L 242.12582 72.421479 
L 242.039301 71.990681 
L 241.868771 72.854612 
L 241.808551 72.421479 
L 241.581234 71.990681 
L 241.393376 72.421479 
L 241.18216 74.168277 
L 241.078027 73.727985 
L 240.825117 73.290106 
L 240.722956 72.854612 
L 240.713607 73.290106 
L 240.667383 73.727985 
L 239.685791 75.954113 
L 239.657208 76.406878 
L 239.118707 77.780772 
L 239.046212 78.244036 
L 238.421479 79.178699 
L 237.983246 80.124424 
L 237.738393 81.564334 
L 237.363096 80.124424 
L 237.261954 80.601517 
L 237.019007 80.124424 
L 236.539473 81.564334 
L 235.660173 82.050128 
L 235.055039 83.030666 
L 234.63109 83.525484 
L 234.602129 84.023384 
L 234.560058 83.525484 
L 234.482758 83.030666 
L 234.304041 84.023384 
L 233.913297 84.524407 
L 233.840959 85.02859 
L 233.626164 84.524407 
L 233.48141 85.02859 
L 233.176676 85.535975 
L 232.753824 84.023384 
L 231.897805 85.02859 
L 231.817162 84.023384 
L 231.793868 84.524407 
L 231.750517 85.02859 
L 231.354146 84.524407 
L 231.03873 85.02859 
L 230.280747 85.535975 
L 230.213344 86.046602 
L 230.192583 85.535975 
L 229.378034 85.02859 
L 229.246729 85.535975 
L 229.194081 86.560513 
L 228.72955 87.07775 
L 228.558498 87.598356 
L 228.430287 87.07775 
L 228.240549 87.598356 
L 227.966474 87.07775 
L 227.740058 87.598356 
L 227.420647 86.560513 
L 227.140591 86.046602 
L 227.088388 86.560513 
L 227.075787 86.046602 
L 226.936791 85.535975 
L 226.714397 86.560513 
L 226.576759 86.046602 
L 226.412483 86.560513 
L 226.403526 87.07775 
L 226.144597 87.598356 
L 226.039067 87.07775 
L 225.679099 88.122377 
L 225.416462 89.715376 
L 224.765354 90.795296 
L 224.673756 91.340778 
L 224.406509 90.795296 
L 224.200998 91.890009 
L 223.840339 91.340778 
L 223.840339 90.795296 
L 223.384883 90.253512 
L 223.284654 90.795296 
L 222.949718 90.253512 
L 222.941531 90.795296 
L 222.165815 92.999927 
L 222.050936 94.125479 
L 221.403431 94.694256 
L 221.037483 95.26711 
L 220.758512 96.425287 
L 220.640002 95.8441 
L 220.121988 97.600497 
L 220.087673 98.194647 
L 219.827673 98.793248 
L 219.7791 98.194647 
L 219.597393 97.600497 
L 219.416443 99.396366 
L 218.955045 98.194647 
L 218.950932 97.600497 
L 218.650207 98.793248 
L 218.637515 98.194647 
L 218.299641 97.010732 
L 218.20628 97.600497 
L 217.708152 97.010732 
L 217.059081 97.600497 
L 217.039325 98.194647 
L 216.948589 97.600497 
L 216.780409 98.194647 
L 216.718987 97.600497 
L 216.664394 98.194647 
L 216.278899 97.600497 
L 216.250695 97.010732 
L 215.821406 98.194647 
L 215.772937 98.793248 
L 215.737355 98.194647 
L 215.691628 97.600497 
L 215.61596 98.194647 
L 215.59264 97.600497 
L 215.459271 97.010732 
L 215.442832 97.600497 
L 215.326464 97.010732 
L 215.228168 98.194647 
L 215.1891 98.793248 
L 214.89506 99.396366 
L 214.782374 101.233524 
L 214.141737 100.616433 
L 213.829848 101.855417 
L 213.125726 101.233524 
L 213.072438 101.855417 
L 212.812138 101.233524 
L 212.805127 101.855417 
L 212.685266 102.482187 
L 212.297741 101.855417 
L 211.921041 103.750671 
L 211.874661 104.392545 
L 211.401231 105.039616 
L 211.078928 105.691969 
L 210.957337 106.349692 
L 210.609383 105.039616 
L 210.121727 105.691969 
L 209.585576 107.012873 
L 209.015123 107.681603 
L 208.867332 108.355977 
L 208.710291 107.681603 
L 208.620521 108.355977 
L 208.178109 107.681603 
L 208.147444 108.355977 
L 207.721543 109.03609 
L 207.45711 108.355977 
L 206.198374 109.03609 
L 205.873296 109.722041 
L 205.749845 109.03609 
L 205.486607 109.722041 
L 205.403732 109.03609 
L 205.131092 109.722041 
L 204.65133 112.526288 
L 204.149402 113.966198 
L 204.010308 112.526288 
L 203.703484 113.966198 
L 203.551059 113.243 
L 203.48805 115.432529 
L 203.327476 114.696 
L 203.113001 115.432529 
L 202.643704 114.696 
L 202.607287 113.966198 
L 202.425926 115.432529 
L 202.393628 116.17591 
L 201.508629 114.696 
L 201.389042 113.966198 
L 201.138046 113.243 
L 201.114771 113.966198 
L 200.978725 112.526288 
L 200.70527 113.243 
L 200.694197 113.966198 
L 200.6502 113.243 
L 200.440446 112.526288 
L 200.376869 111.815947 
L 199.644759 111.111865 
L 199.428443 110.413932 
L 199.397666 111.111865 
L 199.241898 111.815947 
L 198.806994 112.526288 
L 198.3565 111.815947 
L 198.050642 112.526288 
L 198.022484 113.243 
L 197.792171 112.526288 
L 197.35632 111.815947 
L 197.123088 111.111865 
L 196.731842 111.815947 
L 196.578248 112.526288 
L 196.545571 111.815947 
L 196.127629 111.111865 
L 195.982679 111.815947 
L 195.917646 111.111865 
L 195.679204 111.815947 
L 195.663999 111.111865 
L 195.571866 111.815947 
L 195.098305 113.243 
L 194.378162 113.966198 
L 194.345845 113.243 
L 193.845693 112.526288 
L 193.755042 113.243 
L 192.679175 112.526288 
L 192.356226 113.243 
L 192.266162 113.966198 
L 191.375332 114.696 
L 191.373014 115.432529 
L 190.108781 116.926271 
L 189.420981 116.17591 
L 189.121221 116.926271 
L 188.529106 116.17591 
L 188.412444 116.926271 
L 188.01228 117.683744 
L 186.757219 118.448466 
L 186.551643 119.220576 
L 186.303532 117.683744 
L 186.066161 119.220576 
L 185.937507 118.448466 
L 185.476925 117.683744 
L 185.375391 118.448466 
L 185.00945 117.683744 
L 184.976774 116.926271 
L 184.955464 117.683744 
L 184.908581 118.448466 
L 184.317132 119.220576 
L 183.536069 120.787545 
L 183.278263 121.582704 
L 183.071388 123.197159 
L 182.913073 122.385855 
L 182.302442 123.197159 
L 182.226814 121.582704 
L 181.808728 120.787545 
L 181.712292 121.582704 
L 181.166132 120.787545 
L 180.75122 121.582704 
L 180.338481 120.787545 
L 180.334302 120.00022 
L 180.213214 120.787545 
L 179.446939 119.220576 
L 179.36187 118.448466 
L 179.025967 117.683744 
L 178.873542 119.220576 
L 178.521095 120.00022 
L 178.347275 121.582704 
L 178.288151 120.787545 
L 177.96654 121.582704 
L 177.352194 122.385855 
L 177.335729 123.197159 
L 176.955457 124.016785 
L 176.83211 125.681696 
L 176.703416 126.527342 
L 176.547106 125.681696 
L 176.258628 124.844905 
L 176.221649 124.016785 
L 175.799176 124.844905 
L 175.663418 124.016785 
L 175.645203 124.844905 
L 175.371434 124.016785 
L 175.292881 125.681696 
L 174.823819 126.527342 
L 174.698885 125.681696 
L 174.367749 124.844905 
L 174.066279 125.681696 
L 173.729874 124.016785 
L 173.263149 124.844905 
L 173.197216 124.016785 
L 172.544801 123.197159 
L 172.427892 124.016785 
L 172.140419 124.844905 
L 170.84458 124.016785 
L 170.68718 123.197159 
L 170.455782 124.016785 
L 170.17491 123.197159 
L 170.107763 122.385855 
L 169.813063 123.197159 
L 169.441024 122.385855 
L 169.389793 120.787545 
L 169.315627 121.582704 
L 169.14795 120.787545 
L 168.956372 121.582704 
L 168.438671 120.787545 
L 168.251603 121.582704 
L 167.596016 120.787545 
L 167.404646 120.00022 
L 167.040461 119.220576 
L 166.86497 118.448466 
L 166.503076 119.220576 
L 166.321611 120.787545 
L 166.002801 119.220576 
L 165.953202 120.00022 
L 164.886671 120.787545 
L 164.865825 120.00022 
L 164.296893 120.787545 
L 163.999353 120.00022 
L 163.924939 120.787545 
L 163.340214 120.00022 
L 162.943099 119.220576 
L 162.818459 118.448466 
L 162.63762 119.220576 
L 161.322646 120.00022 
L 160.900042 117.683744 
L 160.890099 118.448466 
L 160.669565 119.220576 
L 160.632541 118.448466 
L 160.484835 119.220576 
L 160.430353 118.448466 
L 160.248881 119.220576 
L 160.067833 118.448466 
L 159.889123 119.220576 
L 159.814499 118.448466 
L 158.994617 119.220576 
L 158.835799 120.00022 
L 158.48966 116.17591 
L 157.117899 119.220576 
L 157.075573 120.00022 
L 156.273409 120.787545 
L 155.96592 118.448466 
L 155.425408 119.220576 
L 155.030466 120.00022 
L 154.941885 119.220576 
L 154.278567 120.00022 
L 154.003545 121.582704 
L 153.830103 120.00022 
L 153.367348 121.582704 
L 153.303334 120.787545 
L 153.063746 120.00022 
L 153.023715 120.787545 
L 152.430846 121.582704 
L 152.194099 122.385855 
L 151.906502 121.582704 
L 151.886237 120.787545 
L 151.533373 121.582704 
L 151.349942 120.787545 
L 150.768606 121.582704 
L 150.429322 120.787545 
L 150.26139 120.00022 
L 149.882163 121.582704 
L 149.848149 120.00022 
L 149.755725 120.787545 
L 148.930871 120.00022 
L 148.588035 122.385855 
L 148.458339 121.582704 
L 147.657344 122.385855 
L 147.362683 120.787545 
L 146.718962 121.582704 
L 146.349593 122.385855 
L 146.255958 121.582704 
L 146.245512 122.385855 
L 145.963929 123.197159 
L 145.784885 124.844905 
L 145.325558 124.016785 
L 145.065871 122.385855 
L 144.75897 123.197159 
L 144.616781 124.016785 
L 144.517668 122.385855 
L 144.306076 123.197159 
L 144.299642 122.385855 
L 143.731673 124.016785 
L 143.695697 123.197159 
L 143.090837 120.787545 
L 142.998286 120.00022 
L 142.992185 120.787545 
L 142.658832 121.582704 
L 142.64981 122.385855 
L 142.376041 121.582704 
L 142.36522 120.787545 
L 142.264269 121.582704 
L 142.207486 120.787545 
L 142.111925 121.582704 
L 140.989113 120.787545 
L 140.976536 121.582704 
L 140.638339 122.385855 
L 139.790419 121.582704 
L 139.72582 122.385855 
L 139.050053 124.016785 
L 138.959676 123.197159 
L 138.774949 124.844905 
L 138.599121 124.016785 
L 138.165072 123.197159 
L 137.837696 124.016785 
L 137.728726 123.197159 
L 137.259157 124.844905 
L 137.095408 123.197159 
L 136.918078 124.016785 
L 136.859205 124.844905 
L 136.517998 123.197159 
L 136.445546 124.016785 
L 136.286389 123.197159 
L 135.97886 124.844905 
L 135.687964 124.016785 
L 135.605104 124.844905 
L 135.396646 124.016785 
L 134.362122 123.197159 
L 134.290169 121.582704 
L 133.831762 122.385855 
L 133.782705 123.197159 
L 133.745978 122.385855 
L 133.493897 123.197159 
L 133.025792 122.385855 
L 132.343881 123.197159 
L 132.160995 124.016785 
L 132.026912 123.197159 
L 132.009193 124.016785 
L 131.713533 124.844905 
L 131.137335 125.681696 
L 130.775488 126.527342 
L 130.536566 128.245964 
L 129.675737 129.119337 
L 129.531291 128.245964 
L 129.505594 127.382033 
L 129.232955 125.681696 
L 127.874272 126.527342 
L 127.660004 125.681696 
L 127.448996 126.527342 
L 126.971909 127.382033 
L 126.841503 128.245964 
L 126.104437 129.119337 
L 125.575412 130.002361 
L 125.006108 129.119337 
L 124.981456 130.002361 
L 124.665361 130.895251 
L 124.548158 130.002361 
L 124.378098 131.79823 
L 124.339699 132.71153 
L 124.003005 133.635388 
L 123.720421 132.71153 
L 123.639527 133.635388 
L 123.29665 132.71153 
L 123.099806 133.635388 
L 122.214199 134.570051 
L 122.007161 133.635388 
L 121.958107 134.570051 
L 121.788548 135.515776 
L 121.76891 134.570051 
L 121.510978 136.472828 
L 121.483945 135.515776 
L 121.122641 136.472828 
L 121.059296 137.44148 
L 121.017094 136.472828 
L 120.99144 135.515776 
L 120.706683 136.472828 
L 120.52509 138.422018 
L 120.450172 139.414736 
L 120.379599 138.422018 
L 120.131069 140.419942 
L 119.850491 139.414736 
L 119.735294 141.437954 
L 119.128259 142.469102 
L 118.741968 140.419942 
L 118.593761 139.414736 
L 118.529789 140.419942 
L 118.327641 139.414736 
L 118.290411 138.422018 
L 117.975905 141.437954 
L 116.790373 142.469102 
L 115.876019 140.419942 
L 115.717031 141.437954 
L 115.683103 142.469102 
L 115.132519 144.572192 
L 113.904786 145.644864 
L 113.878504 144.572192 
L 113.199308 143.513729 
L 113.026199 145.644864 
L 112.883172 146.73213 
L 112.830149 144.572192 
L 112.628918 143.513729 
L 112.499597 144.572192 
L 111.761487 145.644864 
L 111.615494 146.73213 
L 111.604631 145.644864 
L 111.593684 146.73213 
L 111.443805 147.834393 
L 110.794485 146.73213 
L 110.417553 147.834393 
L 110.166726 146.73213 
L 109.549036 145.644864 
L 108.697107 146.73213 
L 108.625865 147.834393 
L 107.895986 144.572192 
L 107.859927 145.644864 
L 107.219214 146.73213 
L 106.710372 147.834393 
L 106.644896 148.952073 
L 106.536008 147.834393 
L 105.570343 148.952073 
L 104.84857 150.085608 
L 104.439215 151.235452 
L 104.164361 150.085608 
L 103.935302 152.402084 
L 103.832514 151.235452 
L 103.769839 152.402084 
L 103.280342 151.235452 
L 103.180144 153.585999 
L 103.180144 577 
L 103.180144 577 
" clip-path="url(#pbe6ba0e6fb)" style="fill: none; stroke: #ff7f0e; stroke-width: 1.5; stroke-linecap: square"/>
   </g>
   <g id="patch_3">
    <path d="M 81.316719 511.2 
L 81.316719 10.8 
" style="fill: none; stroke: #000000; stroke-width: 0.8; stroke-linejoin: miter; stroke-linecap: square"/>
   </g>
   <g id="patch_4">
    <path d="M 562.312079 511.2 
L 562.312079 10.8 
" style="fill: none; stroke: #000000; stroke-width: 0.8; stroke-linejoin: miter; stroke-linecap: square"/>
   </g>
   <g id="patch_5">
    <path d="M 81.316719 511.2 
L 562.312079 511.2 
" style="fill: none; stroke: #000000; stroke-width: 0.8; stroke-linejoin: miter; stroke-linecap: square"/>
   </g>
   <g id="patch_6">
    <path d="M 81.316719 10.8 
L 562.312079 10.8 
" style="fill: none; stroke: #000000; stroke-width: 0.8; stroke-linejoin: miter; stroke-linecap: square"/>
   </g>
   <g id="legend_1">
    <g id="patch_7">
     <path d="M 445.831379 75.3516 
L 550.216079 75.3516 
Q 553.672079 75.3516 553.672079 71.8956 
L 553.672079 22.896 
Q 553.672079 19.44 550.216079 19.44 
L 445.831379 19.44 
Q 442.375379 19.44 442.375379 22.896 
L 442.375379 71.8956 
Q 442.375379 75.3516 445.831379 75.3516 
z
" style="fill: #ffffff; opacity: 0.8; stroke: #cccccc; stroke-linejoin: miter"/>
    </g>
    <g id="line2d_33">
     <path d="M 449.287379 33.4341 
L 466.567379 33.4341 
L 483.847379 33.4341 
" style="fill: none; stroke: #1f77b4; stroke-width: 1.5; stroke-linecap: square"/>
    </g>
    <g id="text_12">
     <!-- dim 0 -->
     <g transform="translate(497.671379 39.4821)scale(0.1728 -0.1728)">
      <defs>
       <path id="DejaVuSans-64" d="M 2906 2969 
L 2906 4863 
L 3481 4863 
L 3481 0 
L 2906 0 
L 2906 525 
Q 2725 213 2448 61 
Q 2172 -91 1784 -91 
Q 1150 -91 751 415 
Q 353 922 353 1747 
Q 353 2572 751 3078 
Q 1150 3584 1784 3584 
Q 2172 3584 2448 3432 
Q 2725 3281 2906 2969 
z
M 947 1747 
Q 947 1113 1208 752 
Q 1469 391 1925 391 
Q 2381 391 2643 752 
Q 2906 1113 2906 1747 
Q 2906 2381 2643 2742 
Q 2381 3103 1925 3103 
Q 1469 3103 1208 2742 
Q 947 2381 947 1747 
z
" transform="scale(0.015625)"/>
      </defs>
      <use xlink:href="#DejaVuSans-64"/>
      <use xlink:href="#DejaVuSans-69" x="63.476562"/>
      <use xlink:href="#DejaVuSans-6d" x="91.259766"/>
      <use xlink:href="#DejaVuSans-20" x="188.671875"/>
      <use xlink:href="#DejaVuSans-30" x="220.458984"/>
     </g>
    </g>
    <g id="line2d_34">
     <path d="M 449.287379 58.7979 
L 466.567379 58.7979 
L 483.847379 58.7979 
" style="fill: none; stroke: #ff7f0e; stroke-width: 1.5; stroke-linecap: square"/>
    </g>
    <g id="text_13">
     <!-- dim 1 -->
     <g transform="translate(497.671379 64.8459)scale(0.1728 -0.1728)">
      <use xlink:href="#DejaVuSans-64"/>
      <use xlink:href="#DejaVuSans-69" x="63.476562"/>
      <use xlink:href="#DejaVuSans-6d" x="91.259766"/>
      <use xlink:href="#DejaVuSans-20" x="188.671875"/>
      <use xlink:href="#DejaVuSans-31" x="220.458984"/>
     </g>
    </g>
   </g>
  </g>
 </g>
 <defs>
  <clipPath id="pbe6ba0e6fb">
   <rect x="81.316719" y="10.8" width="480.995361" height="500.4"/>
  </clipPath>
 </defs>
</svg>
