<?xml version="1.0" encoding="utf-8" standalone="no"?>
<!DOCTYPE svg PUBLIC "-//W3C//DTD SVG 1.1//EN"
  "http://www.w3.org/Graphics/SVG/1.1/DTD/svg11.dtd">
<svg xmlns:xlink="http://www.w3.org/1999/xlink" width="576pt" height="576pt" viewBox="0 0 576 576" xmlns="http://www.w3.org/2000/svg" version="1.1">
 <metadata>
  <rdf:RDF xmlns:dc="http://purl.org/dc/elements/1.1/" xmlns:cc="http://creativecommons.org/ns#" xmlns:rdf="http://www.w3.org/1999/02/22-rdf-syntax-ns#">
   <cc:Work>
    <dc:type rdf:resource="http://purl.org/dc/dcmitype/StillImage"/>
    <dc:date>2023-06-07T23:34:21.998147</dc:date>
    <dc:format>image/svg+xml</dc:format>
    <dc:creator>
     <cc:Agent>
      <dc:title>Matplotlib v3.5.1, https://matplotlib.org/</dc:title>
     </cc:Agent>
    </dc:creator>
   </cc:Work>
  </rdf:RDF>
 </metadata>
 <defs>
  <style type="text/css">*{stroke-linejoin: round; stroke-linecap: butt}</style>
 </defs>
 <g id="figure_1">
  <g id="patch_1">
   <path d="M 0 576 
L 576 576 
L 576 0 
L 0 0 
L 0 576 
z
" style="fill: none"/>
  </g>
  <g id="axes_1">
   <g id="patch_2">
    <path d="M 81.316719 511.2 
L 561.118545 511.2 
L 561.118545 10.8 
L 81.316719 10.8 
z
" style="fill: #ffffff"/>
   </g>
   <g id="matplotlib.axis_1">
    <g id="xtick_1">
     <g id="line2d_1">
      <defs>
       <path id="m347ed725ff" d="M 0 0 
L 0 3.5 
" style="stroke: #000000; stroke-width: 0.8"/>
      </defs>
      <g>
       <use xlink:href="#m347ed725ff" x="103.125893" y="511.2" style="stroke: #000000; stroke-width: 0.8"/>
      </g>
     </g>
     <g id="text_1">
      <!-- 0.0 -->
      <g transform="translate(87.222768 533.396875)scale(0.2 -0.2)">
       <defs>
        <path id="DejaVuSans-30" d="M 2034 4250 
Q 1547 4250 1301 3770 
Q 1056 3291 1056 2328 
Q 1056 1369 1301 889 
Q 1547 409 2034 409 
Q 2525 409 2770 889 
Q 3016 1369 3016 2328 
Q 3016 3291 2770 3770 
Q 2525 4250 2034 4250 
z
M 2034 4750 
Q 2819 4750 3233 4129 
Q 3647 3509 3647 2328 
Q 3647 1150 3233 529 
Q 2819 -91 2034 -91 
Q 1250 -91 836 529 
Q 422 1150 422 2328 
Q 422 3509 836 4129 
Q 1250 4750 2034 4750 
z
" transform="scale(0.015625)"/>
        <path id="DejaVuSans-2e" d="M 684 794 
L 1344 794 
L 1344 0 
L 684 0 
L 684 794 
z
" transform="scale(0.015625)"/>
       </defs>
       <use xlink:href="#DejaVuSans-30"/>
       <use xlink:href="#DejaVuSans-2e" x="63.623047"/>
       <use xlink:href="#DejaVuSans-30" x="95.410156"/>
      </g>
     </g>
    </g>
    <g id="xtick_2">
     <g id="line2d_2">
      <g>
       <use xlink:href="#m347ed725ff" x="190.791952" y="511.2" style="stroke: #000000; stroke-width: 0.8"/>
      </g>
     </g>
     <g id="text_2">
      <!-- 0.2 -->
      <g transform="translate(174.888827 533.396875)scale(0.2 -0.2)">
       <defs>
        <path id="DejaVuSans-32" d="M 1228 531 
L 3431 531 
L 3431 0 
L 469 0 
L 469 531 
Q 828 903 1448 1529 
Q 2069 2156 2228 2338 
Q 2531 2678 2651 2914 
Q 2772 3150 2772 3378 
Q 2772 3750 2511 3984 
Q 2250 4219 1831 4219 
Q 1534 4219 1204 4116 
Q 875 4013 500 3803 
L 500 4441 
Q 881 4594 1212 4672 
Q 1544 4750 1819 4750 
Q 2544 4750 2975 4387 
Q 3406 4025 3406 3419 
Q 3406 3131 3298 2873 
Q 3191 2616 2906 2266 
Q 2828 2175 2409 1742 
Q 1991 1309 1228 531 
z
" transform="scale(0.015625)"/>
       </defs>
       <use xlink:href="#DejaVuSans-30"/>
       <use xlink:href="#DejaVuSans-2e" x="63.623047"/>
       <use xlink:href="#DejaVuSans-32" x="95.410156"/>
      </g>
     </g>
    </g>
    <g id="xtick_3">
     <g id="line2d_3">
      <g>
       <use xlink:href="#m347ed725ff" x="278.458011" y="511.2" style="stroke: #000000; stroke-width: 0.8"/>
      </g>
     </g>
     <g id="text_3">
      <!-- 0.4 -->
      <g transform="translate(262.554886 533.396875)scale(0.2 -0.2)">
       <defs>
        <path id="DejaVuSans-34" d="M 2419 4116 
L 825 1625 
L 2419 1625 
L 2419 4116 
z
M 2253 4666 
L 3047 4666 
L 3047 1625 
L 3713 1625 
L 3713 1100 
L 3047 1100 
L 3047 0 
L 2419 0 
L 2419 1100 
L 313 1100 
L 313 1709 
L 2253 4666 
z
" transform="scale(0.015625)"/>
       </defs>
       <use xlink:href="#DejaVuSans-30"/>
       <use xlink:href="#DejaVuSans-2e" x="63.623047"/>
       <use xlink:href="#DejaVuSans-34" x="95.410156"/>
      </g>
     </g>
    </g>
    <g id="xtick_4">
     <g id="line2d_4">
      <g>
       <use xlink:href="#m347ed725ff" x="366.12407" y="511.2" style="stroke: #000000; stroke-width: 0.8"/>
      </g>
     </g>
     <g id="text_4">
      <!-- 0.6 -->
      <g transform="translate(350.220945 533.396875)scale(0.2 -0.2)">
       <defs>
        <path id="DejaVuSans-36" d="M 2113 2584 
Q 1688 2584 1439 2293 
Q 1191 2003 1191 1497 
Q 1191 994 1439 701 
Q 1688 409 2113 409 
Q 2538 409 2786 701 
Q 3034 994 3034 1497 
Q 3034 2003 2786 2293 
Q 2538 2584 2113 2584 
z
M 3366 4563 
L 3366 3988 
Q 3128 4100 2886 4159 
Q 2644 4219 2406 4219 
Q 1781 4219 1451 3797 
Q 1122 3375 1075 2522 
Q 1259 2794 1537 2939 
Q 1816 3084 2150 3084 
Q 2853 3084 3261 2657 
Q 3669 2231 3669 1497 
Q 3669 778 3244 343 
Q 2819 -91 2113 -91 
Q 1303 -91 875 529 
Q 447 1150 447 2328 
Q 447 3434 972 4092 
Q 1497 4750 2381 4750 
Q 2619 4750 2861 4703 
Q 3103 4656 3366 4563 
z
" transform="scale(0.015625)"/>
       </defs>
       <use xlink:href="#DejaVuSans-30"/>
       <use xlink:href="#DejaVuSans-2e" x="63.623047"/>
       <use xlink:href="#DejaVuSans-36" x="95.410156"/>
      </g>
     </g>
    </g>
    <g id="xtick_5">
     <g id="line2d_5">
      <g>
       <use xlink:href="#m347ed725ff" x="453.790129" y="511.2" style="stroke: #000000; stroke-width: 0.8"/>
      </g>
     </g>
     <g id="text_5">
      <!-- 0.8 -->
      <g transform="translate(437.887004 533.396875)scale(0.2 -0.2)">
       <defs>
        <path id="DejaVuSans-38" d="M 2034 2216 
Q 1584 2216 1326 1975 
Q 1069 1734 1069 1313 
Q 1069 891 1326 650 
Q 1584 409 2034 409 
Q 2484 409 2743 651 
Q 3003 894 3003 1313 
Q 3003 1734 2745 1975 
Q 2488 2216 2034 2216 
z
M 1403 2484 
Q 997 2584 770 2862 
Q 544 3141 544 3541 
Q 544 4100 942 4425 
Q 1341 4750 2034 4750 
Q 2731 4750 3128 4425 
Q 3525 4100 3525 3541 
Q 3525 3141 3298 2862 
Q 3072 2584 2669 2484 
Q 3125 2378 3379 2068 
Q 3634 1759 3634 1313 
Q 3634 634 3220 271 
Q 2806 -91 2034 -91 
Q 1263 -91 848 271 
Q 434 634 434 1313 
Q 434 1759 690 2068 
Q 947 2378 1403 2484 
z
M 1172 3481 
Q 1172 3119 1398 2916 
Q 1625 2713 2034 2713 
Q 2441 2713 2670 2916 
Q 2900 3119 2900 3481 
Q 2900 3844 2670 4047 
Q 2441 4250 2034 4250 
Q 1625 4250 1398 4047 
Q 1172 3844 1172 3481 
z
" transform="scale(0.015625)"/>
       </defs>
       <use xlink:href="#DejaVuSans-30"/>
       <use xlink:href="#DejaVuSans-2e" x="63.623047"/>
       <use xlink:href="#DejaVuSans-38" x="95.410156"/>
      </g>
     </g>
    </g>
    <g id="xtick_6">
     <g id="line2d_6">
      <g>
       <use xlink:href="#m347ed725ff" x="541.456188" y="511.2" style="stroke: #000000; stroke-width: 0.8"/>
      </g>
     </g>
     <g id="text_6">
      <!-- 1.0 -->
      <g transform="translate(525.553063 533.396875)scale(0.2 -0.2)">
       <defs>
        <path id="DejaVuSans-31" d="M 794 531 
L 1825 531 
L 1825 4091 
L 703 3866 
L 703 4441 
L 1819 4666 
L 2450 4666 
L 2450 531 
L 3481 531 
L 3481 0 
L 794 0 
L 794 531 
z
" transform="scale(0.015625)"/>
       </defs>
       <use xlink:href="#DejaVuSans-31"/>
       <use xlink:href="#DejaVuSans-2e" x="63.623047"/>
       <use xlink:href="#DejaVuSans-30" x="95.410156"/>
      </g>
     </g>
    </g>
    <g id="text_7">
     <!-- Intensity level -->
     <g transform="translate(233.112163 560.552344)scale(0.25 -0.25)">
      <defs>
       <path id="DejaVuSans-49" d="M 628 4666 
L 1259 4666 
L 1259 0 
L 628 0 
L 628 4666 
z
" transform="scale(0.015625)"/>
       <path id="DejaVuSans-6e" d="M 3513 2113 
L 3513 0 
L 2938 0 
L 2938 2094 
Q 2938 2591 2744 2837 
Q 2550 3084 2163 3084 
Q 1697 3084 1428 2787 
Q 1159 2491 1159 1978 
L 1159 0 
L 581 0 
L 581 3500 
L 1159 3500 
L 1159 2956 
Q 1366 3272 1645 3428 
Q 1925 3584 2291 3584 
Q 2894 3584 3203 3211 
Q 3513 2838 3513 2113 
z
" transform="scale(0.015625)"/>
       <path id="DejaVuSans-74" d="M 1172 4494 
L 1172 3500 
L 2356 3500 
L 2356 3053 
L 1172 3053 
L 1172 1153 
Q 1172 725 1289 603 
Q 1406 481 1766 481 
L 2356 481 
L 2356 0 
L 1766 0 
Q 1100 0 847 248 
Q 594 497 594 1153 
L 594 3053 
L 172 3053 
L 172 3500 
L 594 3500 
L 594 4494 
L 1172 4494 
z
" transform="scale(0.015625)"/>
       <path id="DejaVuSans-65" d="M 3597 1894 
L 3597 1613 
L 953 1613 
Q 991 1019 1311 708 
Q 1631 397 2203 397 
Q 2534 397 2845 478 
Q 3156 559 3463 722 
L 3463 178 
Q 3153 47 2828 -22 
Q 2503 -91 2169 -91 
Q 1331 -91 842 396 
Q 353 884 353 1716 
Q 353 2575 817 3079 
Q 1281 3584 2069 3584 
Q 2775 3584 3186 3129 
Q 3597 2675 3597 1894 
z
M 3022 2063 
Q 3016 2534 2758 2815 
Q 2500 3097 2075 3097 
Q 1594 3097 1305 2825 
Q 1016 2553 972 2059 
L 3022 2063 
z
" transform="scale(0.015625)"/>
       <path id="DejaVuSans-73" d="M 2834 3397 
L 2834 2853 
Q 2591 2978 2328 3040 
Q 2066 3103 1784 3103 
Q 1356 3103 1142 2972 
Q 928 2841 928 2578 
Q 928 2378 1081 2264 
Q 1234 2150 1697 2047 
L 1894 2003 
Q 2506 1872 2764 1633 
Q 3022 1394 3022 966 
Q 3022 478 2636 193 
Q 2250 -91 1575 -91 
Q 1294 -91 989 -36 
Q 684 19 347 128 
L 347 722 
Q 666 556 975 473 
Q 1284 391 1588 391 
Q 1994 391 2212 530 
Q 2431 669 2431 922 
Q 2431 1156 2273 1281 
Q 2116 1406 1581 1522 
L 1381 1569 
Q 847 1681 609 1914 
Q 372 2147 372 2553 
Q 372 3047 722 3315 
Q 1072 3584 1716 3584 
Q 2034 3584 2315 3537 
Q 2597 3491 2834 3397 
z
" transform="scale(0.015625)"/>
       <path id="DejaVuSans-69" d="M 603 3500 
L 1178 3500 
L 1178 0 
L 603 0 
L 603 3500 
z
M 603 4863 
L 1178 4863 
L 1178 4134 
L 603 4134 
L 603 4863 
z
" transform="scale(0.015625)"/>
       <path id="DejaVuSans-79" d="M 2059 -325 
Q 1816 -950 1584 -1140 
Q 1353 -1331 966 -1331 
L 506 -1331 
L 506 -850 
L 844 -850 
Q 1081 -850 1212 -737 
Q 1344 -625 1503 -206 
L 1606 56 
L 191 3500 
L 800 3500 
L 1894 763 
L 2988 3500 
L 3597 3500 
L 2059 -325 
z
" transform="scale(0.015625)"/>
       <path id="DejaVuSans-20" transform="scale(0.015625)"/>
       <path id="DejaVuSans-6c" d="M 603 4863 
L 1178 4863 
L 1178 0 
L 603 0 
L 603 4863 
z
" transform="scale(0.015625)"/>
       <path id="DejaVuSans-76" d="M 191 3500 
L 800 3500 
L 1894 563 
L 2988 3500 
L 3597 3500 
L 2284 0 
L 1503 0 
L 191 3500 
z
" transform="scale(0.015625)"/>
      </defs>
      <use xlink:href="#DejaVuSans-49"/>
      <use xlink:href="#DejaVuSans-6e" x="29.492188"/>
      <use xlink:href="#DejaVuSans-74" x="92.871094"/>
      <use xlink:href="#DejaVuSans-65" x="132.080078"/>
      <use xlink:href="#DejaVuSans-6e" x="193.603516"/>
      <use xlink:href="#DejaVuSans-73" x="256.982422"/>
      <use xlink:href="#DejaVuSans-69" x="309.082031"/>
      <use xlink:href="#DejaVuSans-74" x="336.865234"/>
      <use xlink:href="#DejaVuSans-79" x="376.074219"/>
      <use xlink:href="#DejaVuSans-20" x="435.253906"/>
      <use xlink:href="#DejaVuSans-6c" x="467.041016"/>
      <use xlink:href="#DejaVuSans-65" x="494.824219"/>
      <use xlink:href="#DejaVuSans-76" x="556.347656"/>
      <use xlink:href="#DejaVuSans-65" x="615.527344"/>
      <use xlink:href="#DejaVuSans-6c" x="677.050781"/>
     </g>
    </g>
   </g>
   <g id="matplotlib.axis_2">
    <g id="ytick_1">
     <g id="line2d_7">
      <defs>
       <path id="m009fc1f9ba" d="M 0 0 
L -3.5 0 
" style="stroke: #000000; stroke-width: 0.8"/>
      </defs>
      <g>
       <use xlink:href="#m009fc1f9ba" x="81.316719" y="490.128087" style="stroke: #000000; stroke-width: 0.8"/>
      </g>
     </g>
     <g id="text_8">
      <!-- $\mathdefault{10^{0}}$ -->
      <g transform="translate(39.116719 497.726525)scale(0.2 -0.2)">
       <use xlink:href="#DejaVuSans-31" transform="translate(0 0.765625)"/>
       <use xlink:href="#DejaVuSans-30" transform="translate(63.623047 0.765625)"/>
       <use xlink:href="#DejaVuSans-30" transform="translate(128.203125 39.046875)scale(0.7)"/>
      </g>
     </g>
    </g>
    <g id="ytick_2">
     <g id="line2d_8">
      <g>
       <use xlink:href="#m009fc1f9ba" x="81.316719" y="305.917082" style="stroke: #000000; stroke-width: 0.8"/>
      </g>
     </g>
     <g id="text_9">
      <!-- $\mathdefault{10^{1}}$ -->
      <g transform="translate(39.116719 313.515519)scale(0.2 -0.2)">
       <use xlink:href="#DejaVuSans-31" transform="translate(0 0.684375)"/>
       <use xlink:href="#DejaVuSans-30" transform="translate(63.623047 0.684375)"/>
       <use xlink:href="#DejaVuSans-31" transform="translate(128.203125 38.965625)scale(0.7)"/>
      </g>
     </g>
    </g>
    <g id="ytick_3">
     <g id="line2d_9">
      <g>
       <use xlink:href="#m009fc1f9ba" x="81.316719" y="121.706076" style="stroke: #000000; stroke-width: 0.8"/>
      </g>
     </g>
     <g id="text_10">
      <!-- $\mathdefault{10^{2}}$ -->
      <g transform="translate(39.116719 129.304514)scale(0.2 -0.2)">
       <use xlink:href="#DejaVuSans-31" transform="translate(0 0.765625)"/>
       <use xlink:href="#DejaVuSans-30" transform="translate(63.623047 0.765625)"/>
       <use xlink:href="#DejaVuSans-32" transform="translate(128.203125 39.046875)scale(0.7)"/>
      </g>
     </g>
    </g>
    <g id="ytick_4">
     <g id="line2d_10">
      <defs>
       <path id="mcae65155af" d="M 0 0 
L -2 0 
" style="stroke: #000000; stroke-width: 0.6"/>
      </defs>
      <g>
       <use xlink:href="#mcae65155af" x="81.316719" y="507.979978" style="stroke: #000000; stroke-width: 0.6"/>
      </g>
     </g>
    </g>
    <g id="ytick_5">
     <g id="line2d_11">
      <g>
       <use xlink:href="#mcae65155af" x="81.316719" y="498.55712" style="stroke: #000000; stroke-width: 0.6"/>
      </g>
     </g>
    </g>
    <g id="ytick_6">
     <g id="line2d_12">
      <g>
       <use xlink:href="#mcae65155af" x="81.316719" y="434.675049" style="stroke: #000000; stroke-width: 0.6"/>
      </g>
     </g>
    </g>
    <g id="ytick_7">
     <g id="line2d_13">
      <g>
       <use xlink:href="#mcae65155af" x="81.316719" y="402.237101" style="stroke: #000000; stroke-width: 0.6"/>
      </g>
     </g>
    </g>
    <g id="ytick_8">
     <g id="line2d_14">
      <g>
       <use xlink:href="#mcae65155af" x="81.316719" y="379.222011" style="stroke: #000000; stroke-width: 0.6"/>
      </g>
     </g>
    </g>
    <g id="ytick_9">
     <g id="line2d_15">
      <g>
       <use xlink:href="#mcae65155af" x="81.316719" y="361.37012" style="stroke: #000000; stroke-width: 0.6"/>
      </g>
     </g>
    </g>
    <g id="ytick_10">
     <g id="line2d_16">
      <g>
       <use xlink:href="#mcae65155af" x="81.316719" y="346.784063" style="stroke: #000000; stroke-width: 0.6"/>
      </g>
     </g>
    </g>
    <g id="ytick_11">
     <g id="line2d_17">
      <g>
       <use xlink:href="#mcae65155af" x="81.316719" y="334.451728" style="stroke: #000000; stroke-width: 0.6"/>
      </g>
     </g>
    </g>
    <g id="ytick_12">
     <g id="line2d_18">
      <g>
       <use xlink:href="#mcae65155af" x="81.316719" y="323.768973" style="stroke: #000000; stroke-width: 0.6"/>
      </g>
     </g>
    </g>
    <g id="ytick_13">
     <g id="line2d_19">
      <g>
       <use xlink:href="#mcae65155af" x="81.316719" y="314.346115" style="stroke: #000000; stroke-width: 0.6"/>
      </g>
     </g>
    </g>
    <g id="ytick_14">
     <g id="line2d_20">
      <g>
       <use xlink:href="#mcae65155af" x="81.316719" y="250.464044" style="stroke: #000000; stroke-width: 0.6"/>
      </g>
     </g>
    </g>
    <g id="ytick_15">
     <g id="line2d_21">
      <g>
       <use xlink:href="#mcae65155af" x="81.316719" y="218.026096" style="stroke: #000000; stroke-width: 0.6"/>
      </g>
     </g>
    </g>
    <g id="ytick_16">
     <g id="line2d_22">
      <g>
       <use xlink:href="#mcae65155af" x="81.316719" y="195.011005" style="stroke: #000000; stroke-width: 0.6"/>
      </g>
     </g>
    </g>
    <g id="ytick_17">
     <g id="line2d_23">
      <g>
       <use xlink:href="#mcae65155af" x="81.316719" y="177.159114" style="stroke: #000000; stroke-width: 0.6"/>
      </g>
     </g>
    </g>
    <g id="ytick_18">
     <g id="line2d_24">
      <g>
       <use xlink:href="#mcae65155af" x="81.316719" y="162.573058" style="stroke: #000000; stroke-width: 0.6"/>
      </g>
     </g>
    </g>
    <g id="ytick_19">
     <g id="line2d_25">
      <g>
       <use xlink:href="#mcae65155af" x="81.316719" y="150.240722" style="stroke: #000000; stroke-width: 0.6"/>
      </g>
     </g>
    </g>
    <g id="ytick_20">
     <g id="line2d_26">
      <g>
       <use xlink:href="#mcae65155af" x="81.316719" y="139.557967" style="stroke: #000000; stroke-width: 0.6"/>
      </g>
     </g>
    </g>
    <g id="ytick_21">
     <g id="line2d_27">
      <g>
       <use xlink:href="#mcae65155af" x="81.316719" y="130.13511" style="stroke: #000000; stroke-width: 0.6"/>
      </g>
     </g>
    </g>
    <g id="ytick_22">
     <g id="line2d_28">
      <g>
       <use xlink:href="#mcae65155af" x="81.316719" y="66.253038" style="stroke: #000000; stroke-width: 0.6"/>
      </g>
     </g>
    </g>
    <g id="ytick_23">
     <g id="line2d_29">
      <g>
       <use xlink:href="#mcae65155af" x="81.316719" y="33.81509" style="stroke: #000000; stroke-width: 0.6"/>
      </g>
     </g>
    </g>
    <g id="ytick_24">
     <g id="line2d_30">
      <g>
       <use xlink:href="#mcae65155af" x="81.316719" y="10.8" style="stroke: #000000; stroke-width: 0.6"/>
      </g>
     </g>
    </g>
    <g id="text_11">
     <!-- Betti number -->
     <g transform="translate(29.9175 343.298828)rotate(-90)scale(0.25 -0.25)">
      <defs>
       <path id="DejaVuSans-42" d="M 1259 2228 
L 1259 519 
L 2272 519 
Q 2781 519 3026 730 
Q 3272 941 3272 1375 
Q 3272 1813 3026 2020 
Q 2781 2228 2272 2228 
L 1259 2228 
z
M 1259 4147 
L 1259 2741 
L 2194 2741 
Q 2656 2741 2882 2914 
Q 3109 3088 3109 3444 
Q 3109 3797 2882 3972 
Q 2656 4147 2194 4147 
L 1259 4147 
z
M 628 4666 
L 2241 4666 
Q 2963 4666 3353 4366 
Q 3744 4066 3744 3513 
Q 3744 3084 3544 2831 
Q 3344 2578 2956 2516 
Q 3422 2416 3680 2098 
Q 3938 1781 3938 1306 
Q 3938 681 3513 340 
Q 3088 0 2303 0 
L 628 0 
L 628 4666 
z
" transform="scale(0.015625)"/>
       <path id="DejaVuSans-75" d="M 544 1381 
L 544 3500 
L 1119 3500 
L 1119 1403 
Q 1119 906 1312 657 
Q 1506 409 1894 409 
Q 2359 409 2629 706 
Q 2900 1003 2900 1516 
L 2900 3500 
L 3475 3500 
L 3475 0 
L 2900 0 
L 2900 538 
Q 2691 219 2414 64 
Q 2138 -91 1772 -91 
Q 1169 -91 856 284 
Q 544 659 544 1381 
z
M 1991 3584 
L 1991 3584 
z
" transform="scale(0.015625)"/>
       <path id="DejaVuSans-6d" d="M 3328 2828 
Q 3544 3216 3844 3400 
Q 4144 3584 4550 3584 
Q 5097 3584 5394 3201 
Q 5691 2819 5691 2113 
L 5691 0 
L 5113 0 
L 5113 2094 
Q 5113 2597 4934 2840 
Q 4756 3084 4391 3084 
Q 3944 3084 3684 2787 
Q 3425 2491 3425 1978 
L 3425 0 
L 2847 0 
L 2847 2094 
Q 2847 2600 2669 2842 
Q 2491 3084 2119 3084 
Q 1678 3084 1418 2786 
Q 1159 2488 1159 1978 
L 1159 0 
L 581 0 
L 581 3500 
L 1159 3500 
L 1159 2956 
Q 1356 3278 1631 3431 
Q 1906 3584 2284 3584 
Q 2666 3584 2933 3390 
Q 3200 3197 3328 2828 
z
" transform="scale(0.015625)"/>
       <path id="DejaVuSans-62" d="M 3116 1747 
Q 3116 2381 2855 2742 
Q 2594 3103 2138 3103 
Q 1681 3103 1420 2742 
Q 1159 2381 1159 1747 
Q 1159 1113 1420 752 
Q 1681 391 2138 391 
Q 2594 391 2855 752 
Q 3116 1113 3116 1747 
z
M 1159 2969 
Q 1341 3281 1617 3432 
Q 1894 3584 2278 3584 
Q 2916 3584 3314 3078 
Q 3713 2572 3713 1747 
Q 3713 922 3314 415 
Q 2916 -91 2278 -91 
Q 1894 -91 1617 61 
Q 1341 213 1159 525 
L 1159 0 
L 581 0 
L 581 4863 
L 1159 4863 
L 1159 2969 
z
" transform="scale(0.015625)"/>
       <path id="DejaVuSans-72" d="M 2631 2963 
Q 2534 3019 2420 3045 
Q 2306 3072 2169 3072 
Q 1681 3072 1420 2755 
Q 1159 2438 1159 1844 
L 1159 0 
L 581 0 
L 581 3500 
L 1159 3500 
L 1159 2956 
Q 1341 3275 1631 3429 
Q 1922 3584 2338 3584 
Q 2397 3584 2469 3576 
Q 2541 3569 2628 3553 
L 2631 2963 
z
" transform="scale(0.015625)"/>
      </defs>
      <use xlink:href="#DejaVuSans-42"/>
      <use xlink:href="#DejaVuSans-65" x="68.603516"/>
      <use xlink:href="#DejaVuSans-74" x="130.126953"/>
      <use xlink:href="#DejaVuSans-74" x="169.335938"/>
      <use xlink:href="#DejaVuSans-69" x="208.544922"/>
      <use xlink:href="#DejaVuSans-20" x="236.328125"/>
      <use xlink:href="#DejaVuSans-6e" x="268.115234"/>
      <use xlink:href="#DejaVuSans-75" x="331.494141"/>
      <use xlink:href="#DejaVuSans-6d" x="394.873047"/>
      <use xlink:href="#DejaVuSans-62" x="492.285156"/>
      <use xlink:href="#DejaVuSans-65" x="555.761719"/>
      <use xlink:href="#DejaVuSans-72" x="617.285156"/>
     </g>
    </g>
   </g>
   <g id="line2d_31">
    <path d="M 539.309371 490.128087 
L 539.306989 577 
M 520.77126 577 
L 520.764897 490.128087 
L 517.481159 434.675049 
L 514.948585 402.237101 
L 512.984288 379.222011 
L 510.394314 361.37012 
L 509.160959 346.784063 
L 508.611388 361.37012 
L 508.205147 346.784063 
L 507.074391 334.451728 
L 505.591319 323.768973 
L 504.504037 314.346115 
L 503.108855 305.917082 
L 502.702875 298.292094 
L 502.561583 291.331025 
L 501.948864 298.292094 
L 501.945833 291.331025 
L 501.70479 284.927462 
L 499.834078 291.331025 
L 499.772106 284.927462 
L 499.502899 291.331025 
L 499.059584 284.927462 
L 499.053392 278.998689 
L 498.343325 273.479134 
L 496.808941 278.998689 
L 496.738608 273.479134 
L 496.575997 278.998689 
L 496.28014 273.479134 
L 495.978222 278.998689 
L 495.886309 284.927462 
L 495.339585 278.998689 
L 495.282107 284.927462 
L 494.678898 291.331025 
L 494.593569 284.927462 
L 492.811322 278.998689 
L 492.797475 273.479134 
L 491.590978 268.315935 
L 491.278139 273.479134 
L 491.050133 268.315935 
L 490.19415 263.465854 
L 488.762965 258.893077 
L 488.534645 254.567601 
L 488.526024 258.893077 
L 488.349879 263.465854 
L 487.849216 258.893077 
L 487.188476 254.567601 
L 486.999791 263.465854 
L 486.359665 258.893077 
L 486.048027 263.465854 
L 485.561682 258.893077 
L 484.404774 254.567601 
L 484.393931 258.893077 
L 484.356623 254.567601 
L 484.058597 250.464044 
L 483.883445 254.567601 
L 483.662598 250.464044 
L 481.566415 246.560741 
L 481.5365 250.464044 
L 481.354999 246.560741 
L 481.05747 242.839055 
L 479.327816 239.282833 
L 478.824358 235.877987 
L 478.635907 229.474424 
L 478.358078 226.455129 
L 476.638038 223.545651 
L 475.962302 226.455129 
L 475.426734 223.545651 
L 474.567407 220.738282 
L 474.512384 218.026096 
L 474.14562 212.862896 
L 473.22534 210.401108 
L 473.213165 208.012816 
L 472.920626 205.69376 
L 472.535469 208.012816 
L 471.561603 203.440039 
L 471.004194 199.114562 
L 471.001999 197.036476 
L 470.23704 195.011005 
L 469.862621 193.035551 
L 469.672368 189.225221 
L 469.307328 191.107703 
L 468.976984 189.225221 
L 468.838409 187.386017 
L 467.995725 185.588148 
L 467.90112 183.829795 
L 467.873243 185.588148 
L 467.724923 183.829795 
L 466.278768 185.588148 
L 465.509394 183.829795 
L 464.63716 180.424948 
L 464.041711 178.775368 
L 464.008138 177.159114 
L 463.978223 178.775368 
L 463.350847 180.424948 
L 462.783379 177.159114 
L 462.620898 178.775368 
L 462.182887 177.159114 
L 461.824144 178.775368 
L 460.599411 180.424948 
L 460.599411 182.10926 
L 460.304495 183.829795 
L 460.06575 180.424948 
L 459.429413 178.775368 
L 458.977973 180.424948 
L 458.884753 178.775368 
L 458.658994 177.159114 
L 458.563632 178.775368 
L 458.34558 180.424948 
L 457.481524 182.10926 
L 456.668676 180.424948 
L 456.480904 182.10926 
L 456.270194 180.424948 
L 456.250704 182.10926 
L 456.111083 180.424948 
L 455.355452 182.10926 
L 454.77466 178.775368 
L 454.596163 180.424948 
L 454.399352 178.775368 
L 454.356478 175.574868 
L 454.224696 177.159114 
L 453.839539 175.574868 
L 453.595361 172.497496 
L 452.99095 171.002091 
L 451.06519 172.497496 
L 450.883323 171.002091 
L 450.831514 172.497496 
L 450.330721 171.002091 
L 450.143786 169.534126 
L 449.791783 168.092613 
L 449.440617 169.534126 
L 449.376868 171.002091 
L 449.136687 172.497496 
L 449.1022 174.021386 
L 449.063324 172.497496 
L 449.028366 171.002091 
L 448.47289 169.534126 
L 447.603452 172.497496 
L 447.579677 171.002091 
L 446.926514 174.021386 
L 446.861119 172.497496 
L 446.417987 171.002091 
L 446.325316 172.497496 
L 445.936528 171.002091 
L 445.776947 169.534126 
L 445.376845 171.002091 
L 445.113699 172.497496 
L 444.994928 171.002091 
L 443.823101 169.534126 
L 443.614925 168.092613 
L 443.286384 169.534126 
L 442.803487 171.002091 
L 442.751104 169.534126 
L 442.377573 168.092613 
L 442.24195 166.676615 
L 441.838792 168.092613 
L 441.806447 169.534126 
L 441.330004 171.002091 
L 441.178496 172.497496 
L 441.03015 169.534126 
L 440.736409 168.092613 
L 440.686612 166.676615 
L 440.585058 168.092613 
L 440.256178 166.676615 
L 440.138634 163.917658 
L 440.041836 162.573058 
L 439.765156 161.250683 
L 439.732942 159.949812 
L 439.208243 158.669755 
L 438.591187 159.949812 
L 437.106808 158.669755 
L 436.483247 157.409858 
L 436.161081 154.948069 
L 436.123249 153.745012 
L 435.784101 152.559778 
L 435.692972 151.391847 
L 435.163805 150.240722 
L 435.053394 147.987001 
L 435.022043 149.105925 
L 434.829673 147.987001 
L 434.806708 149.105925 
L 434.465522 146.88351 
L 434.177163 147.987001 
L 434.044885 146.88351 
L 433.86955 147.987001 
L 433.407397 146.88351 
L 432.642857 147.987001 
L 432.567456 146.88351 
L 432.496131 147.987001 
L 432.455791 146.88351 
L 432.274029 147.987001 
L 432.025305 146.88351 
L 431.84895 147.987001 
L 431.780995 146.88351 
L 431.707188 147.987001 
L 431.677796 146.88351 
L 431.277354 145.795033 
L 430.901446 146.88351 
L 430.847443 145.795033 
L 430.536485 143.661524 
L 429.830964 144.721167 
L 429.788665 143.661524 
L 429.55047 141.583438 
L 429.518935 140.564293 
L 429.041995 138.564143 
L 428.987208 139.557967 
L 428.780077 138.564143 
L 428.647354 136.612782 
L 428.444717 135.654665 
L 428.43006 136.612782 
L 428.032127 135.654665 
L 427.652874 133.772182 
L 427.575801 132.847296 
L 427.484698 134.707887 
L 427.185053 135.654665 
L 427.159815 134.707887 
L 427.016014 133.772182 
L 426.711875 132.847296 
L 426.279194 133.772182 
L 426.13636 132.847296 
L 425.845206 133.772182 
L 425.212448 134.707887 
L 424.806965 133.772182 
L 424.527306 132.847296 
L 424.415354 131.028994 
L 424.066722 131.932979 
L 424.01554 131.028994 
L 423.761277 131.932979 
L 423.449378 129.251103 
L 423.433859 130.13511 
L 423.38333 129.251103 
L 422.895104 128.376757 
L 422.667412 129.251103 
L 422.650952 128.376757 
L 422.577458 130.13511 
L 422.419001 131.028994 
L 421.642416 125.809633 
L 421.530829 124.142868 
L 421.515728 124.97191 
L 421.128377 126.656221 
L 421.046914 127.511864 
L 421.046836 126.656221 
L 420.912807 127.511864 
L 420.840488 125.809633 
L 420.81141 126.656221 
L 420.49797 127.511864 
L 420.277044 125.809633 
L 420.115686 126.656221 
L 420.04423 125.809633 
L 419.996654 126.656221 
L 419.62085 127.511864 
L 419.219442 126.656221 
L 419.200553 127.511864 
L 419.196529 126.656221 
L 418.949999 125.809633 
L 418.925832 124.97191 
L 418.631334 126.656221 
L 418.330827 124.97191 
L 418.321056 124.142868 
L 418.189038 123.32233 
L 417.679806 121.706076 
L 417.635104 120.910032 
L 417.374858 120.12183 
L 417.293082 119.341318 
L 417.084487 121.706076 
L 416.686345 122.510122 
L 416.482271 120.12183 
L 416.30239 118.568348 
L 416.090635 117.044457 
L 416.078956 117.802774 
L 415.913653 117.044457 
L 415.85884 117.802774 
L 415.763321 117.044457 
L 415.359014 116.293261 
L 415.321548 115.549053 
L 415.009336 114.811704 
L 414.84082 114.081088 
L 414.732865 115.549053 
L 414.446127 114.081088 
L 413.569268 114.811704 
L 413.454782 114.081088 
L 413.165039 113.357085 
L 413.143772 114.081088 
L 413.129951 113.357085 
L 412.989939 111.928443 
L 412.964466 112.639575 
L 412.680993 111.928443 
L 412.643736 112.639575 
L 412.63629 111.928443 
L 412.461791 111.223576 
L 412.047895 111.928443 
L 411.937667 112.639575 
L 411.141879 111.928443 
L 411.049679 112.639575 
L 410.786428 111.223576 
L 410.696422 111.928443 
L 410.373002 112.639575 
L 410.365373 111.928443 
L 410.140502 110.524866 
L 409.99503 109.14549 
L 409.470566 110.524866 
L 409.347432 109.14549 
L 409.20256 109.832205 
L 409.142965 107.789495 
L 409.072215 108.464619 
L 409.010948 109.832205 
L 408.952111 109.14549 
L 408.887239 109.832205 
L 408.442801 108.464619 
L 408.283612 107.120019 
L 408.276688 107.789495 
L 408.270444 108.464619 
L 408.182946 107.789495 
L 408.071334 107.120019 
L 408.057644 107.789495 
L 408.010903 107.120019 
L 407.810199 108.464619 
L 407.800245 107.789495 
L 407.725863 107.120019 
L 407.40179 109.14549 
L 407.176997 107.120019 
L 407.00707 107.789495 
L 406.823087 107.120019 
L 406.479131 107.789495 
L 406.074144 107.120019 
L 405.839397 105.144565 
L 405.789888 106.4561 
L 405.233758 107.789495 
L 405.14451 107.120019 
L 404.849725 108.464619 
L 404.399852 109.14549 
L 404.320036 110.524866 
L 404.003382 111.223576 
L 403.865486 109.14549 
L 403.656422 109.832205 
L 403.647043 110.524866 
L 403.465594 111.223576 
L 403.316176 109.832205 
L 403.274531 110.524866 
L 403.22408 111.223576 
L 403.221546 110.524866 
L 402.888119 107.789495 
L 402.705835 109.832205 
L 402.613556 110.524866 
L 402.46568 109.14549 
L 402.446738 109.832205 
L 402.083919 111.223576 
L 401.987538 110.524866 
L 401.78464 112.639575 
L 401.565386 111.928443 
L 401.392272 110.524866 
L 401.176728 111.223576 
L 401.17597 111.928443 
L 400.865665 109.832205 
L 400.273847 109.14549 
L 399.953066 108.464619 
L 399.850572 109.832205 
L 399.809475 109.14549 
L 399.565714 111.223576 
L 399.422097 110.524866 
L 399.175671 111.223576 
L 399.005535 112.639575 
L 398.934471 111.928443 
L 398.851128 113.357085 
L 398.651286 114.081088 
L 398.651286 114.811704 
L 398.456199 115.549053 
L 398.317232 114.081088 
L 397.645415 113.357085 
L 397.570745 112.639575 
L 397.454796 113.357085 
L 397.318886 112.639575 
L 397.202596 113.357085 
L 396.961318 114.081088 
L 396.840143 114.811704 
L 396.519466 113.357085 
L 396.178855 114.081088 
L 396.022226 112.639575 
L 395.954036 111.928443 
L 395.339279 111.223576 
L 395.301657 111.928443 
L 394.95872 111.223576 
L 394.871928 110.524866 
L 394.853509 111.223576 
L 394.792738 111.928443 
L 394.462917 110.524866 
L 394.443662 109.832205 
L 394.396582 110.524866 
L 394.330351 109.832205 
L 394.207661 110.524866 
L 393.798624 106.4561 
L 393.712093 105.797645 
L 393.616575 106.4561 
L 393.42431 104.496774 
L 393.125474 103.854185 
L 393.023215 103.216717 
L 392.714504 102.584289 
L 392.707816 103.216717 
L 392.556047 103.854185 
L 392.437981 103.216717 
L 392.270824 103.854185 
L 391.975646 103.216717 
L 391.95464 102.584289 
L 391.953386 103.216717 
L 391.707248 103.854185 
L 391.59851 103.216717 
L 391.584062 103.854185 
L 391.318094 104.496774 
L 391.235978 103.854185 
L 391.224247 104.496774 
L 390.952532 103.854185 
L 390.938502 104.496774 
L 390.92408 103.854185 
L 390.557002 103.216717 
L 390.508773 103.854185 
L 390.501353 103.216717 
L 390.426605 101.95682 
L 390.072068 101.334235 
L 389.977046 100.716457 
L 389.970383 101.334235 
L 389.693129 100.716457 
L 389.673978 100.103413 
L 389.430322 100.716457 
L 389.376606 101.334235 
L 388.718165 101.95682 
L 388.672757 103.216717 
L 388.661471 102.584289 
L 388.471662 103.216717 
L 388.183747 101.95682 
L 388.008543 100.716457 
L 387.392375 103.216717 
L 387.36455 102.584289 
L 387.230443 103.216717 
L 386.825534 103.854185 
L 386.756664 104.496774 
L 386.293859 101.95682 
L 386.208373 102.584289 
L 385.815169 103.854185 
L 385.788625 103.216717 
L 385.530808 102.584289 
L 385.380659 103.216717 
L 385.317198 102.584289 
L 385.201353 103.216717 
L 385.152705 104.496774 
L 384.894941 105.797645 
L 384.757097 104.496774 
L 384.731781 103.854185 
L 384.630828 104.496774 
L 384.320628 105.144565 
L 384.20844 106.4561 
L 384.006012 105.144565 
L 383.692494 105.797645 
L 383.692494 106.4561 
L 383.641051 105.144565 
L 383.505114 106.4561 
L 383.363744 105.797645 
L 383.338192 105.144565 
L 382.949847 105.797645 
L 382.758706 106.4561 
L 382.712906 107.120019 
L 382.696002 106.4561 
L 382.594631 105.797645 
L 382.278291 105.144565 
L 382.226587 105.797645 
L 381.952781 106.4561 
L 381.546801 105.797645 
L 381.407886 105.144565 
L 381.371805 105.797645 
L 381.353804 105.144565 
L 380.677702 105.797645 
L 380.638303 106.4561 
L 380.363374 107.120019 
L 380.235537 108.464619 
L 380.088654 106.4561 
L 379.807585 105.797645 
L 379.667233 106.4561 
L 379.5505 108.464619 
L 379.279019 109.832205 
L 379.187916 108.464619 
L 379.136603 109.14549 
L 379.047642 108.464619 
L 378.569396 109.14549 
L 378.475681 109.832205 
L 378.463662 109.14549 
L 378.316857 107.789495 
L 378.097891 109.14549 
L 377.766006 109.832205 
L 377.629939 109.14549 
L 377.3171 108.464619 
L 377.194958 109.14549 
L 377.187408 109.832205 
L 377.085854 109.14549 
L 376.920839 110.524866 
L 376.908377 109.832205 
L 376.859154 111.928443 
L 376.374664 111.223576 
L 376.323221 110.524866 
L 376.182791 111.223576 
L 376.086489 110.524866 
L 375.986842 111.928443 
L 375.860259 112.639575 
L 375.696446 111.928443 
L 375.596564 112.639575 
L 375.463162 111.928443 
L 375.414723 112.639575 
L 375.400772 111.928443 
L 375.237455 111.223576 
L 374.95973 111.928443 
L 374.821077 113.357085 
L 374.73546 112.639575 
L 374.332145 114.811704 
L 374.169272 113.357085 
L 373.868634 114.081088 
L 373.684782 116.293261 
L 373.48528 117.044457 
L 373.238645 115.549053 
L 373.2289 116.293261 
L 373.206249 117.802774 
L 372.996557 117.044457 
L 372.725677 119.341318 
L 372.677239 118.568348 
L 372.665273 119.341318 
L 372.477946 118.568348 
L 372.239698 120.910032 
L 371.903476 120.12183 
L 371.724039 120.910032 
L 371.673824 120.12183 
L 371.364851 120.910032 
L 371.02377 120.12183 
L 371.006892 120.910032 
L 370.658704 121.706076 
L 370.648149 122.510122 
L 370.277152 124.142868 
L 370.119348 123.32233 
L 369.805098 122.510122 
L 369.761388 121.706076 
L 369.756842 122.510122 
L 369.5709 124.142868 
L 369.16701 122.510122 
L 369.10765 123.32233 
L 369.100413 122.510122 
L 368.839566 121.706076 
L 368.835804 120.910032 
L 368.756197 122.510122 
L 368.604323 123.32233 
L 368.489262 122.510122 
L 368.489027 121.706076 
L 368.345279 122.510122 
L 367.895876 123.32233 
L 367.86894 124.142868 
L 367.634794 122.510122 
L 366.879372 123.32233 
L 366.355326 120.910032 
L 366.115694 122.510122 
L 365.779471 123.32233 
L 365.762881 122.510122 
L 365.614378 123.32233 
L 365.487952 126.656221 
L 365.084009 125.809633 
L 364.955336 129.251103 
L 364.812659 128.376757 
L 364.736396 130.13511 
L 364.379299 131.028994 
L 364.23576 130.13511 
L 364.213369 129.251103 
L 363.852797 132.847296 
L 363.301789 131.932979 
L 363.196577 134.707887 
L 362.892203 133.772182 
L 362.870518 132.847296 
L 362.755875 133.772182 
L 362.659181 131.932979 
L 362.36578 132.847296 
L 362.252051 131.932979 
L 362.014274 133.772182 
L 361.857828 132.847296 
L 361.503422 131.932979 
L 361.451064 132.847296 
L 361.404716 131.932979 
L 361.080721 130.13511 
L 361.066822 131.028994 
L 361.043909 130.13511 
L 360.830063 131.028994 
L 360.800697 130.13511 
L 360.782304 131.028994 
L 360.732324 131.932979 
L 360.616845 131.028994 
L 360.459876 131.932979 
L 360.205456 130.13511 
L 359.91182 127.511864 
L 359.7119 128.376757 
L 359.599661 126.656221 
L 359.256985 127.511864 
L 359.143387 128.376757 
L 358.860123 127.511864 
L 358.776675 126.656221 
L 358.553346 125.809633 
L 358.546553 124.97191 
L 358.036145 124.142868 
L 357.930934 124.97191 
L 357.818198 124.142868 
L 357.428939 124.97191 
L 357.40357 124.142868 
L 357.209633 123.32233 
L 356.985127 124.142868 
L 356.884488 123.32233 
L 356.603053 122.510122 
L 356.506071 120.910032 
L 356.496222 121.706076 
L 356.070281 120.910032 
L 356.03697 121.706076 
L 355.990334 120.910032 
L 355.792556 121.706076 
L 355.729774 120.910032 
L 355.527712 121.706076 
L 355.432115 120.910032 
L 355.423127 121.706076 
L 355.404133 122.510122 
L 355.060987 123.32233 
L 355.054247 122.510122 
L 355.006879 123.32233 
L 354.794157 124.142868 
L 354.365526 124.97191 
L 354.26358 123.32233 
L 354.198055 124.142868 
L 354.044483 122.510122 
L 354.003255 123.32233 
L 353.641743 125.809633 
L 353.623846 124.97191 
L 353.569869 125.809633 
L 353.487204 126.656221 
L 353.38066 125.809633 
L 353.02129 127.511864 
L 352.997802 128.376757 
L 352.807183 127.511864 
L 352.748033 128.376757 
L 352.247344 129.251103 
L 352.237756 130.13511 
L 351.459264 129.251103 
L 351.250748 128.376757 
L 351.23387 127.511864 
L 351.084662 128.376757 
L 350.94883 127.511864 
L 350.946583 128.376757 
L 350.84691 127.511864 
L 350.678081 128.376757 
L 350.676905 127.511864 
L 350.216477 124.97191 
L 350.194453 124.142868 
L 350.021312 123.32233 
L 349.866434 124.142868 
L 349.583771 123.32233 
L 349.288254 124.142868 
L 349.260325 124.97191 
L 348.808258 124.142868 
L 348.682302 124.97191 
L 348.64157 124.142868 
L 348.43248 123.32233 
L 348.410168 122.510122 
L 348.331788 123.32233 
L 348.329855 124.97191 
L 348.179549 124.142868 
L 348.161861 124.97191 
L 348.007401 125.809633 
L 347.811296 124.97191 
L 347.4751 124.142868 
L 347.067003 124.97191 
L 346.902485 126.656221 
L 346.588104 127.511864 
L 346.502671 128.376757 
L 346.367805 127.511864 
L 346.163156 129.251103 
L 346.081589 130.13511 
L 346.040022 129.251103 
L 345.743904 128.376757 
L 345.730397 129.251103 
L 345.632945 128.376757 
L 345.579124 127.511864 
L 345.418786 128.376757 
L 345.4023 127.511864 
L 345.335102 128.376757 
L 345.184352 129.251103 
L 344.857614 128.376757 
L 344.74561 127.511864 
L 344.461536 128.376757 
L 344.308644 129.251103 
L 344.095216 131.932979 
L 343.86465 132.847296 
L 343.003598 133.772182 
L 342.792731 135.654665 
L 342.338129 136.612782 
L 342.338129 137.582513 
L 342.256144 136.612782 
L 342.021841 137.582513 
L 341.822705 136.612782 
L 341.774763 138.564143 
L 341.379234 135.654665 
L 341.224565 136.612782 
L 341.108693 134.707887 
L 340.841654 135.654665 
L 340.760871 134.707887 
L 340.647116 133.772182 
L 340.347419 132.847296 
L 340.262952 133.772182 
L 340.221724 132.847296 
L 339.921269 133.772182 
L 339.808272 132.847296 
L 339.699324 133.772182 
L 339.522317 132.847296 
L 339.503532 133.772182 
L 339.45883 132.847296 
L 339.128878 131.932979 
L 339.096533 132.847296 
L 338.685459 133.772182 
L 338.503017 136.612782 
L 338.367447 135.654665 
L 338.361882 136.612782 
L 338.279818 135.654665 
L 338.096593 137.582513 
L 338.031904 136.612782 
L 337.597367 135.654665 
L 337.573566 136.612782 
L 337.309009 137.582513 
L 336.61245 136.612782 
L 336.564063 137.582513 
L 336.299767 138.564143 
L 335.413739 137.582513 
L 335.326973 136.612782 
L 335.171076 138.564143 
L 334.944872 137.582513 
L 334.78051 138.564143 
L 334.136492 139.557967 
L 334.107569 138.564143 
L 333.739003 137.582513 
L 333.717239 136.612782 
L 333.706919 137.582513 
L 333.556091 136.612782 
L 333.195153 135.654665 
L 332.886625 133.772182 
L 332.748677 134.707887 
L 332.74818 133.772182 
L 332.621571 134.707887 
L 332.581363 133.772182 
L 332.434871 134.707887 
L 332.375825 136.612782 
L 332.362527 135.654665 
L 331.951635 136.612782 
L 331.875816 137.582513 
L 331.323135 134.707887 
L 331.017115 135.654665 
L 330.91436 136.612782 
L 330.886796 135.654665 
L 330.56531 134.707887 
L 330.52855 135.654665 
L 330.422293 133.772182 
L 330.253359 134.707887 
L 329.573651 135.654665 
L 329.337363 139.557967 
L 329.253601 138.564143 
L 328.765009 137.582513 
L 328.413059 139.557967 
L 328.344607 138.564143 
L 328.34385 139.557967 
L 328.195765 138.564143 
L 327.728779 137.582513 
L 327.5675 138.564143 
L 326.903913 137.582513 
L 326.802045 139.557967 
L 326.372473 140.564293 
L 326.367901 141.583438 
L 326.108778 142.615734 
L 326.084167 140.564293 
L 325.840015 141.583438 
L 325.801452 140.564293 
L 325.410991 139.557967 
L 324.498653 140.564293 
L 324.439111 141.583438 
L 323.810715 139.557967 
L 323.329987 140.564293 
L 323.269609 139.557967 
L 323.245677 140.564293 
L 322.645551 145.795033 
L 322.530803 144.721167 
L 321.784891 143.661524 
L 321.464253 142.615734 
L 320.733612 146.88351 
L 320.654619 144.721167 
L 320.63957 145.795033 
L 320.499283 146.88351 
L 320.439689 145.795033 
L 320.433588 146.88351 
L 320.212519 149.105925 
L 320.013774 150.240722 
L 319.962814 151.391847 
L 319.935094 150.240722 
L 319.78791 151.391847 
L 319.758466 150.240722 
L 319.686853 151.391847 
L 319.586318 153.745012 
L 319.271781 156.169495 
L 319.123487 154.948069 
L 319.097582 156.169495 
L 318.682576 157.409858 
L 318.261142 156.169495 
L 318.023639 157.409858 
L 317.979681 158.669755 
L 317.776416 159.949812 
L 317.622623 158.669755 
L 317.608305 159.949812 
L 317.442337 161.250683 
L 317.347732 159.949812 
L 317.115716 162.573058 
L 316.513317 163.917658 
L 316.475512 165.285243 
L 315.815804 166.676615 
L 315.428818 168.092613 
L 315.227618 166.676615 
L 314.970559 168.092613 
L 314.550444 169.534126 
L 314.383861 168.092613 
L 314.141512 169.534126 
L 314.106711 171.002091 
L 313.997542 169.534126 
L 313.195 171.002091 
L 313.086771 174.021386 
L 312.77998 172.497496 
L 312.731947 171.002091 
L 312.671673 172.497496 
L 312.469898 175.574868 
L 311.974892 174.021386 
L 311.948217 171.002091 
L 311.65539 174.021386 
L 311.394465 169.534126 
L 310.760701 168.092613 
L 310.739316 166.676615 
L 310.609872 168.092613 
L 310.559879 171.002091 
L 310.548292 169.534126 
L 310.330554 168.092613 
L 309.862236 166.676615 
L 309.203495 165.285243 
L 309.123352 162.573058 
L 309.093829 163.917658 
L 309.00121 165.285243 
L 308.930433 163.917658 
L 308.912354 165.285243 
L 308.732943 166.676615 
L 308.68602 163.917658 
L 308.437635 162.573058 
L 308.389223 163.917658 
L 308.23215 161.250683 
L 307.686981 162.573058 
L 307.643258 161.250683 
L 307.404174 162.573058 
L 307.392313 161.250683 
L 307.06453 162.573058 
L 306.933309 163.917658 
L 306.804701 162.573058 
L 306.680888 159.949812 
L 306.536565 158.669755 
L 306.387618 159.949812 
L 306.147593 158.669755 
L 306.118227 159.949812 
L 305.981115 157.409858 
L 305.813644 158.669755 
L 305.470995 159.949812 
L 305.447167 161.250683 
L 305.361969 159.949812 
L 305.310957 158.669755 
L 304.754945 157.409858 
L 304.549643 158.669755 
L 304.397508 161.250683 
L 304.146354 162.573058 
L 303.977955 161.250683 
L 303.779067 162.573058 
L 303.777055 161.250683 
L 303.724593 162.573058 
L 303.531571 163.917658 
L 302.655784 159.949812 
L 302.38071 162.573058 
L 302.274702 161.250683 
L 302.21064 162.573058 
L 301.992536 159.949812 
L 301.512017 163.917658 
L 301.075403 169.534126 
L 300.272823 168.092613 
L 300.157448 169.534126 
L 300.156547 171.002091 
L 299.950069 172.497496 
L 299.735283 168.092613 
L 299.34686 165.285243 
L 299.152139 166.676615 
L 298.642959 168.092613 
L 298.469087 169.534126 
L 298.30833 168.092613 
L 298.24095 165.285243 
L 298.231153 168.092613 
L 298.093766 169.534126 
L 297.7055 168.092613 
L 297.695925 166.676615 
L 297.412739 168.092613 
L 296.756363 175.574868 
L 296.448253 174.021386 
L 295.367346 172.497496 
L 295.234023 171.002091 
L 295.172129 172.497496 
L 294.674784 174.021386 
L 294.491729 175.574868 
L 294.29787 171.002091 
L 294.255428 172.497496 
L 294.069968 174.021386 
L 294.025214 177.159114 
L 293.678214 178.775368 
L 292.823838 177.159114 
L 292.684283 175.574868 
L 292.667249 174.021386 
L 292.437701 172.497496 
L 291.965425 177.159114 
L 291.359786 178.775368 
L 291.158364 177.159114 
L 291.087012 178.775368 
L 290.881736 180.424948 
L 290.255888 182.10926 
L 289.908366 180.424948 
L 289.797864 182.10926 
L 289.537135 183.829795 
L 289.427351 182.10926 
L 289.325262 183.829795 
L 288.203872 185.588148 
L 288.127896 182.10926 
L 287.972117 183.829795 
L 286.787736 182.10926 
L 286.423337 180.424948 
L 286.155971 182.10926 
L 286.151621 183.829795 
L 286.005822 182.10926 
L 285.604153 180.424948 
L 285.347473 177.159114 
L 285.232829 178.775368 
L 285.113771 177.159114 
L 284.420099 175.574868 
L 284.319446 174.021386 
L 284.188513 175.574868 
L 283.323921 174.021386 
L 283.103871 175.574868 
L 282.507376 177.159114 
L 281.698303 178.775368 
L 281.496123 177.159114 
L 280.641145 178.775368 
L 280.399436 180.424948 
L 280.235662 183.829795 
L 280.16209 185.588148 
L 279.412964 189.225221 
L 279.142567 187.386017 
L 278.89865 189.225221 
L 277.499 193.035551 
L 277.443011 195.011005 
L 277.114379 193.035551 
L 276.858443 195.011005 
L 276.723251 197.036476 
L 275.736531 199.114562 
L 275.460322 195.011005 
L 275.075687 197.036476 
L 274.835584 199.114562 
L 274.601909 195.011005 
L 274.555926 197.036476 
L 274.395418 199.114562 
L 273.633908 201.248071 
L 273.536521 203.440039 
L 273.492302 201.248071 
L 272.928662 199.114562 
L 272.891353 203.440039 
L 272.87906 201.248071 
L 272.540996 199.114562 
L 271.892601 197.036476 
L 271.588789 195.011005 
L 271.468973 193.035551 
L 270.862054 195.011005 
L 270.751421 193.035551 
L 270.394807 191.107703 
L 270.196219 193.035551 
L 269.799371 195.011005 
L 269.782558 193.035551 
L 269.557295 195.011005 
L 269.459177 199.114562 
L 269.191994 201.248071 
L 269.074216 199.114562 
L 268.981205 201.248071 
L 268.671371 203.440039 
L 268.3746 201.248071 
L 267.660444 203.440039 
L 267.022343 201.248071 
L 266.847714 199.114562 
L 266.190984 201.248071 
L 266.106831 197.036476 
L 265.393616 201.248071 
L 265.148079 199.114562 
L 265.077746 197.036476 
L 264.778585 199.114562 
L 264.663955 203.440039 
L 264.397947 205.69376 
L 264.350358 203.440039 
L 263.489672 201.248071 
L 263.228276 203.440039 
L 263.010551 201.248071 
L 262.752316 203.440039 
L 262.752316 205.69376 
L 262.412149 203.440039 
L 262.320667 201.248071 
L 261.883557 199.114562 
L 261.347767 201.248071 
L 260.358879 203.440039 
L 260.262785 201.248071 
L 259.929411 199.114562 
L 259.763925 197.036476 
L 259.245928 199.114562 
L 259.075178 201.248071 
L 258.938053 197.036476 
L 258.760824 201.248071 
L 258.760824 203.440039 
L 258.667461 201.248071 
L 258.159443 199.114562 
L 258.021326 195.011005 
L 257.790576 193.035551 
L 257.666332 195.011005 
L 256.506196 197.036476 
L 256.110262 199.114562 
L 255.954208 197.036476 
L 255.707639 199.114562 
L 255.403252 197.036476 
L 255.375832 195.011005 
L 254.976763 199.114562 
L 254.244384 201.248071 
L 254.131779 203.440039 
L 253.733898 205.69376 
L 253.497884 203.440039 
L 253.397571 201.248071 
L 253.097521 203.440039 
L 252.839287 201.248071 
L 252.767491 199.114562 
L 252.68386 201.248071 
L 252.164661 203.440039 
L 251.12877 201.248071 
L 250.803861 203.440039 
L 250.489154 201.248071 
L 249.905135 205.69376 
L 249.837467 208.012816 
L 249.641832 205.69376 
L 249.323428 208.012816 
L 249.267125 203.440039 
L 249.159954 205.69376 
L 248.992705 201.248071 
L 248.371795 199.114562 
L 248.127708 195.011005 
L 247.731447 193.035551 
L 247.176389 191.107703 
L 247.078559 195.011005 
L 245.991539 197.036476 
L 245.941611 195.011005 
L 245.730639 197.036476 
L 244.710451 199.114562 
L 243.985649 197.036476 
L 243.548212 195.011005 
L 242.507619 193.035551 
L 242.376216 191.107703 
L 242.137315 195.011005 
L 242.010784 193.035551 
L 241.821641 197.036476 
L 241.695711 195.011005 
L 241.629873 197.036476 
L 241.509233 195.011005 
L 241.187498 199.114562 
L 240.887043 201.248071 
L 239.570711 203.440039 
L 239.325396 205.69376 
L 239.310216 203.440039 
L 238.715616 201.248071 
L 238.689646 203.440039 
L 237.914916 201.248071 
L 237.790201 199.114562 
L 237.76478 201.248071 
L 237.457036 203.440039 
L 237.420524 208.012816 
L 236.659733 205.69376 
L 236.069052 197.036476 
L 235.683398 199.114562 
L 235.605201 201.248071 
L 235.454921 199.114562 
L 235.193369 201.248071 
L 234.133756 199.114562 
L 233.923751 197.036476 
L 233.741962 193.035551 
L 233.642107 197.036476 
L 232.984136 201.248071 
L 232.002667 197.036476 
L 231.852584 199.114562 
L 231.342176 201.248071 
L 231.297526 203.440039 
L 230.324718 205.69376 
L 230.008548 208.012816 
L 229.819483 205.69376 
L 229.357645 203.440039 
L 229.295816 205.69376 
L 229.234079 203.440039 
L 229.08973 205.69376 
L 228.735598 203.440039 
L 228.609303 201.248071 
L 228.338371 208.012816 
L 228.025401 210.401108 
L 227.808577 205.69376 
L 226.882313 203.440039 
L 226.273121 208.012816 
L 225.754314 201.248071 
L 224.386368 203.440039 
L 224.199433 208.012816 
L 223.181152 210.401108 
L 222.979664 208.012816 
L 222.753879 210.401108 
L 221.965341 212.862896 
L 221.728361 215.40285 
L 221.537114 212.862896 
L 220.815069 215.40285 
L 220.815069 218.026096 
L 220.698976 215.40285 
L 219.630558 210.401108 
L 219.612008 208.012816 
L 219.608768 210.401108 
L 219.230874 212.862896 
L 218.527365 210.401108 
L 218.256303 208.012816 
L 217.562082 205.69376 
L 217.337355 203.440039 
L 216.561606 201.248071 
L 216.490058 203.440039 
L 215.694388 201.248071 
L 215.402006 197.036476 
L 215.083406 199.114562 
L 214.94649 201.248071 
L 214.506049 199.114562 
L 214.103688 201.248071 
L 213.903938 203.440039 
L 213.903938 205.69376 
L 213.638544 203.440039 
L 213.375633 205.69376 
L 213.338612 203.440039 
L 212.993977 205.69376 
L 212.867629 203.440039 
L 212.610211 205.69376 
L 212.042469 208.012816 
L 211.308438 210.401108 
L 210.962692 212.862896 
L 210.962692 215.40285 
L 210.702178 212.862896 
L 210.348281 215.40285 
L 210.275917 218.026096 
L 209.997304 220.738282 
L 209.491351 223.545651 
L 209.296343 226.455129 
L 209.065822 223.545651 
L 208.738822 229.474424 
L 208.673989 223.545651 
L 207.898117 220.738282 
L 206.964185 218.026096 
L 206.619713 215.40285 
L 205.540727 212.862896 
L 205.257953 210.401108 
L 204.984925 212.862896 
L 204.968452 210.401108 
L 204.704783 208.012816 
L 204.11819 210.401108 
L 202.134038 212.862896 
L 201.957945 215.40285 
L 201.694799 212.862896 
L 201.691768 210.401108 
L 200.61433 212.862896 
L 200.025085 215.40285 
L 199.698275 218.026096 
L 199.661633 215.40285 
L 198.931743 212.862896 
L 198.90495 215.40285 
L 198.456325 218.026096 
L 197.946211 210.401108 
L 197.788694 212.862896 
L 197.045636 215.40285 
L 196.846389 218.026096 
L 196.764077 226.455129 
L 196.615261 223.545651 
L 195.977316 218.026096 
L 195.964606 215.40285 
L 195.920818 218.026096 
L 194.90899 220.738282 
L 194.704511 223.545651 
L 194.631487 226.455129 
L 194.42337 223.545651 
L 194.269517 229.474424 
L 193.504284 232.612153 
L 193.224228 226.455129 
L 192.134497 223.545651 
L 192.063224 229.474424 
L 191.506291 223.545651 
L 191.464972 226.455129 
L 191.147483 229.474424 
L 190.681425 226.455129 
L 190.40871 229.474424 
L 190.084192 226.455129 
L 189.774815 229.474424 
L 189.408626 226.455129 
L 189.336392 229.474424 
L 189.139418 232.612153 
L 188.744633 229.474424 
L 188.239118 226.455129 
L 187.368543 229.474424 
L 187.145233 223.545651 
L 186.65811 226.455129 
L 186.130564 232.612153 
L 185.504905 229.474424 
L 185.263372 226.455129 
L 185.206939 229.474424 
L 184.981624 226.455129 
L 184.811945 229.474424 
L 184.227756 226.455129 
L 183.784859 223.545651 
L 183.606866 220.738282 
L 183.30016 223.545651 
L 183.262662 226.455129 
L 182.866042 229.474424 
L 182.362322 226.455129 
L 181.368972 223.545651 
L 181.334818 220.738282 
L 180.880635 218.026096 
L 179.796404 215.40285 
L 179.654067 212.862896 
L 179.641611 210.401108 
L 178.865006 208.012816 
L 178.728646 205.69376 
L 178.642324 208.012816 
L 178.47804 205.69376 
L 177.383613 203.440039 
L 177.205071 199.114562 
L 176.518466 201.248071 
L 175.946903 199.114562 
L 175.944937 201.248071 
L 175.897661 199.114562 
L 175.563032 197.036476 
L 175.507892 199.114562 
L 175.260174 201.248071 
L 175.064747 199.114562 
L 174.582347 197.036476 
L 174.315523 199.114562 
L 173.961163 197.036476 
L 173.581682 199.114562 
L 173.581682 201.248071 
L 173.352101 203.440039 
L 172.613158 199.114562 
L 172.543224 201.248071 
L 171.384004 203.440039 
L 171.331411 201.248071 
L 170.933079 199.114562 
L 170.839605 197.036476 
L 170.559823 199.114562 
L 170.535284 197.036476 
L 170.199486 195.011005 
L 170.097031 197.036476 
L 169.317918 195.011005 
L 168.747772 197.036476 
L 168.222819 195.011005 
L 168.088169 193.035551 
L 167.963141 189.225221 
L 167.953859 191.107703 
L 166.614594 193.035551 
L 166.425314 191.107703 
L 166.365491 195.011005 
L 166.160162 197.036476 
L 165.715927 195.011005 
L 165.372853 191.107703 
L 164.888278 193.035551 
L 164.724288 195.011005 
L 164.719148 199.114562 
L 164.527065 197.036476 
L 164.414029 199.114562 
L 164.163005 201.248071 
L 164.069623 199.114562 
L 164.006331 201.248071 
L 163.818259 199.114562 
L 163.407511 197.036476 
L 163.396728 201.248071 
L 162.25234 199.114562 
L 162.188258 201.248071 
L 160.62326 203.440039 
L 160.309448 205.69376 
L 159.874579 203.440039 
L 159.474862 205.69376 
L 159.424699 208.012816 
L 158.981345 205.69376 
L 158.346033 210.401108 
L 158.161972 208.012816 
L 157.935364 210.401108 
L 157.511738 208.012816 
L 156.998486 210.401108 
L 156.322835 208.012816 
L 156.113489 205.69376 
L 155.537367 203.440039 
L 154.946908 205.69376 
L 154.624069 208.012816 
L 154.131385 210.401108 
L 153.942519 212.862896 
L 153.91928 210.401108 
L 153.410544 212.862896 
L 153.197894 215.40285 
L 152.633518 212.862896 
L 151.897505 215.40285 
L 151.771092 220.738282 
L 151.457283 215.40285 
L 151.067642 218.026096 
L 150.100627 215.40285 
L 149.24259 218.026096 
L 148.928317 220.738282 
L 148.869879 223.545651 
L 146.920004 229.474424 
L 146.785443 232.612153 
L 146.230558 226.455129 
L 146.121117 232.612153 
L 145.231101 229.474424 
L 144.730517 226.455129 
L 143.466581 223.545651 
L 143.025604 220.738282 
L 143.023723 218.026096 
L 142.549645 223.545651 
L 142.549645 226.455129 
L 142.393637 229.474424 
L 141.975446 226.455129 
L 141.834444 229.474424 
L 140.302512 226.455129 
L 140.14897 229.474424 
L 140.135554 226.455129 
L 137.562444 223.545651 
L 136.591583 226.455129 
L 136.316314 229.474424 
L 135.79232 226.455129 
L 134.997114 229.474424 
L 134.509655 232.612153 
L 133.705167 229.474424 
L 132.779162 226.455129 
L 132.678209 232.612153 
L 132.65442 229.474424 
L 131.983243 223.545651 
L 131.899302 226.455129 
L 130.383797 235.877987 
L 130.369166 239.282833 
L 129.401314 235.877987 
L 129.392536 239.282833 
L 129.353702 235.877987 
L 129.28084 239.282833 
L 129.068902 232.612153 
L 129.04311 235.877987 
L 127.814453 246.560741 
L 127.754675 242.839055 
L 125.500353 239.282833 
L 125.232274 242.839055 
L 125.145826 246.560741 
L 124.686334 242.839055 
L 124.586802 239.282833 
L 124.575266 242.839055 
L 124.013691 239.282833 
L 123.799287 246.560741 
L 123.747494 242.839055 
L 123.653688 246.560741 
L 123.605784 242.839055 
L 123.533715 246.560741 
L 123.092783 250.464044 
L 122.109088 246.560741 
L 121.731487 242.839055 
L 121.634631 239.282833 
L 121.003832 242.839055 
L 120.855058 239.282833 
L 120.841973 242.839055 
L 120.705655 239.282833 
L 120.437786 235.877987 
L 120.426583 239.282833 
L 119.892766 235.877987 
L 119.046476 239.282833 
L 118.645339 242.839055 
L 117.519181 246.560741 
L 115.846206 242.839055 
L 115.322924 239.282833 
L 115.008945 235.877987 
L 113.728662 229.474424 
L 113.119099 232.612153 
L 112.613875 235.877987 
L 112.414101 229.474424 
L 112.046156 223.545651 
L 112.02793 226.455129 
L 111.611077 223.545651 
L 111.50749 220.738282 
L 111.179048 223.545651 
L 111.125332 226.455129 
L 110.9947 223.545651 
L 110.284434 226.455129 
L 110.205595 223.545651 
L 110.059453 226.455129 
L 109.8583 223.545651 
L 108.868962 226.455129 
L 108.238916 223.545651 
L 108.141432 226.455129 
L 108.099505 223.545651 
L 107.642395 226.455129 
L 107.538976 229.474424 
L 107.000853 226.455129 
L 106.095203 223.545651 
L 106.01582 220.738282 
L 105.626013 218.026096 
L 105.004745 215.40285 
L 104.793601 212.862896 
L 104.591319 215.40285 
L 104.13793 208.012816 
L 104.025607 210.401108 
L 103.715934 208.012816 
L 103.557921 203.440039 
L 103.206279 201.248071 
L 103.125893 205.69376 
L 103.125893 577 
L 103.125893 577 
" clip-path="url(#pc249dc044b)" style="fill: none; stroke: #1f77b4; stroke-width: 1.5; stroke-linecap: square"/>
   </g>
   <g id="line2d_32">
    <path d="M 483.083529 490.128087 
L 480.626382 434.675049 
L 475.72186 402.237101 
L 470.982299 379.222011 
L 470.501519 361.37012 
L 467.090414 346.784063 
L 463.387476 334.451728 
L 463.387476 323.768973 
L 454.923842 314.346115 
L 449.526338 305.917082 
L 447.858734 298.292094 
L 447.683896 305.917082 
L 447.216832 298.292094 
L 445.932922 284.927462 
L 444.271171 291.331025 
L 440.757389 284.927462 
L 439.320561 291.331025 
L 438.591187 284.927462 
L 435.276071 291.331025 
L 434.65857 284.927462 
L 433.78038 278.998689 
L 430.367681 273.479134 
L 429.885098 268.315935 
L 428.43006 263.465854 
L 428.369603 258.893077 
L 427.786956 263.465854 
L 426.498291 258.893077 
L 425.832718 254.567601 
L 425.589585 263.465854 
L 423.588842 273.479134 
L 421.606858 278.998689 
L 421.233013 273.479134 
L 420.616584 268.315935 
L 420.172407 263.465854 
L 419.322407 258.893077 
L 419.116922 254.567601 
L 418.587233 250.464044 
L 415.559273 246.560741 
L 415.340516 242.839055 
L 414.566152 239.282833 
L 413.196939 235.877987 
L 413.196939 232.612153 
L 411.629792 229.474424 
L 410.89258 232.612153 
L 409.95085 229.474424 
L 408.805933 232.612153 
L 407.603512 223.545651 
L 407.18844 220.738282 
L 407.041871 226.455129 
L 406.733969 229.474424 
L 406.677771 232.612153 
L 405.572933 229.474424 
L 404.832272 226.455129 
L 404.27515 223.545651 
L 404.191206 220.738282 
L 403.967301 218.026096 
L 403.557011 215.40285 
L 402.801588 212.862896 
L 402.314773 210.401108 
L 401.851654 205.69376 
L 401.608573 203.440039 
L 399.902981 195.011005 
L 399.896607 193.035551 
L 397.799744 191.107703 
L 397.337122 193.035551 
L 397.293229 191.107703 
L 396.50912 193.035551 
L 396.403151 195.011005 
L 396.191108 193.035551 
L 396.033017 195.011005 
L 395.973422 193.035551 
L 395.448279 195.011005 
L 395.348737 193.035551 
L 395.041254 191.107703 
L 394.989001 193.035551 
L 393.22499 191.107703 
L 393.22499 189.225221 
L 392.600593 191.107703 
L 391.991035 189.225221 
L 391.589183 187.386017 
L 391.3855 185.588148 
L 391.380118 182.10926 
L 390.701116 183.829795 
L 389.818614 178.775368 
L 389.625801 180.424948 
L 389.415979 178.775368 
L 388.702803 180.424948 
L 388.287966 172.497496 
L 388.031848 171.002091 
L 387.374217 172.497496 
L 387.18655 171.002091 
L 386.790655 169.534126 
L 384.988735 168.092613 
L 384.365748 163.917658 
L 383.983491 162.573058 
L 383.940069 158.669755 
L 383.073295 157.409858 
L 382.845994 156.169495 
L 382.34366 154.948069 
L 382.2953 153.745012 
L 382.088325 156.169495 
L 381.651673 154.948069 
L 381.560648 157.409858 
L 381.528329 156.169495 
L 381.522843 151.391847 
L 381.516233 152.559778 
L 380.205465 146.88351 
L 379.491401 147.987001 
L 379.286517 149.105925 
L 378.811929 147.987001 
L 378.693158 149.105925 
L 378.658854 146.88351 
L 378.426406 149.105925 
L 378.334676 146.88351 
L 378.16744 142.615734 
L 377.486452 141.583438 
L 376.944013 139.557967 
L 376.922302 138.564143 
L 376.752715 137.582513 
L 376.457851 136.612782 
L 376.413436 135.654665 
L 376.03643 134.707887 
L 375.90086 136.612782 
L 375.854851 134.707887 
L 375.351079 133.772182 
L 375.257076 134.707887 
L 375.02037 131.028994 
L 374.611829 130.13511 
L 374.539616 131.028994 
L 374.241172 131.932979 
L 374.115452 131.028994 
L 373.646872 130.13511 
L 373.646872 129.251103 
L 373.367919 130.13511 
L 373.186837 129.251103 
L 372.783103 128.376757 
L 372.760765 126.656221 
L 372.341252 124.142868 
L 372.193898 124.97191 
L 372.099007 124.142868 
L 371.820916 123.32233 
L 371.766782 122.510122 
L 370.829388 121.706076 
L 370.154775 120.910032 
L 370.026964 122.510122 
L 369.737143 123.32233 
L 369.638071 121.706076 
L 368.31505 120.910032 
L 368.061309 120.12183 
L 367.626433 120.910032 
L 367.111872 119.341318 
L 367.100036 120.12183 
L 367.053557 119.341318 
L 366.695467 118.568348 
L 366.215183 119.341318 
L 365.861744 120.12183 
L 365.105355 119.341318 
L 364.991548 120.910032 
L 364.540081 121.706076 
L 364.53193 122.510122 
L 364.351343 123.32233 
L 364.211802 122.510122 
L 363.773973 124.142868 
L 363.695202 123.32233 
L 363.682139 124.142868 
L 363.656117 124.97191 
L 363.396106 122.510122 
L 363.119086 121.706076 
L 363.051392 120.910032 
L 362.425688 118.568348 
L 362.362018 119.341318 
L 362.042595 120.12183 
L 361.965914 120.910032 
L 361.835725 120.12183 
L 361.41663 119.341318 
L 361.315546 120.910032 
L 361.119597 120.12183 
L 360.849815 120.910032 
L 360.640515 119.341318 
L 360.447153 120.12183 
L 360.202765 119.341318 
L 359.42409 118.568348 
L 359.211734 117.802774 
L 359.211734 117.044457 
L 358.875329 117.802774 
L 358.347364 118.568348 
L 358.289781 117.802774 
L 357.870634 117.044457 
L 357.733704 116.293261 
L 357.288482 117.044457 
L 357.161743 115.549053 
L 356.65771 114.811704 
L 356.425184 114.081088 
L 356.263957 115.549053 
L 355.845515 116.293261 
L 355.716345 115.549053 
L 355.705633 114.811704 
L 355.166277 113.357085 
L 355.00991 112.639575 
L 354.50431 111.928443 
L 354.100524 110.524866 
L 353.923857 111.223576 
L 353.867188 111.928443 
L 353.778123 110.524866 
L 353.726628 111.223576 
L 353.708444 111.928443 
L 353.535225 111.223576 
L 353.522841 111.928443 
L 353.507348 111.223576 
L 353.174731 110.524866 
L 353.001329 111.223576 
L 352.451079 111.928443 
L 351.69981 111.223576 
L 351.312406 111.928443 
L 351.165915 112.639575 
L 350.639439 109.832205 
L 350.62217 109.14549 
L 350.56733 109.832205 
L 350.431969 110.524866 
L 350.412426 109.832205 
L 349.952495 108.464619 
L 349.891751 107.120019 
L 349.67976 107.789495 
L 349.32943 107.120019 
L 349.144219 107.789495 
L 348.889276 107.120019 
L 348.797023 107.789495 
L 348.438097 107.120019 
L 348.134272 107.789495 
L 348.018296 109.14549 
L 347.160902 107.789495 
L 346.176559 108.464619 
L 345.793571 107.120019 
L 345.358904 107.789495 
L 345.344926 108.464619 
L 345.028769 107.789495 
L 344.229193 108.464619 
L 343.925002 109.832205 
L 343.484613 108.464619 
L 343.427396 107.120019 
L 343.188182 107.789495 
L 343.015538 109.14549 
L 342.868236 107.789495 
L 342.841613 108.464619 
L 342.746983 109.832205 
L 342.536586 110.524866 
L 342.435581 109.832205 
L 341.624248 110.524866 
L 341.112743 109.832205 
L 340.858793 111.928443 
L 340.775058 110.524866 
L 340.692211 111.223576 
L 340.512774 110.524866 
L 340.082 109.832205 
L 339.871211 109.14549 
L 339.212039 108.464619 
L 339.124044 109.14549 
L 338.685459 108.464619 
L 338.626282 107.789495 
L 338.194019 108.464619 
L 338.095104 107.789495 
L 337.828613 108.464619 
L 337.718986 109.14549 
L 337.502998 108.464619 
L 337.482724 107.789495 
L 337.477525 108.464619 
L 337.070657 107.120019 
L 337.069455 107.789495 
L 336.090729 108.464619 
L 335.978725 107.789495 
L 335.141553 108.464619 
L 334.95352 109.14549 
L 334.927341 110.524866 
L 334.433106 109.832205 
L 334.254479 111.223576 
L 334.029373 110.524866 
L 333.981248 111.223576 
L 333.504047 112.639575 
L 333.433871 113.357085 
L 333.029824 112.639575 
L 333.008453 111.928443 
L 332.86669 111.223576 
L 332.672779 111.928443 
L 332.515837 111.223576 
L 332.031347 110.524866 
L 331.625263 111.223576 
L 331.360366 111.928443 
L 331.289484 111.223576 
L 331.242431 111.928443 
L 331.024039 112.639575 
L 330.827933 111.928443 
L 330.348407 112.639575 
L 329.916902 114.081088 
L 329.782454 113.357085 
L 329.651143 111.223576 
L 329.634709 111.928443 
L 328.671372 111.223576 
L 328.598766 111.928443 
L 328.533345 111.223576 
L 328.493215 111.928443 
L 328.41784 111.223576 
L 327.691235 111.928443 
L 327.538761 110.524866 
L 327.404784 109.832205 
L 326.886434 110.524866 
L 326.215453 111.223576 
L 326.025487 111.928443 
L 325.850674 110.524866 
L 325.795208 109.14549 
L 324.907637 108.464619 
L 324.282142 107.789495 
L 324.143515 108.464619 
L 324.040028 107.789495 
L 323.776333 107.120019 
L 323.338844 107.789495 
L 323.055215 109.832205 
L 322.871049 108.464619 
L 322.683382 107.120019 
L 322.176397 106.4561 
L 321.638426 105.144565 
L 320.925002 104.496774 
L 320.640719 103.854185 
L 320.48447 104.496774 
L 320.197182 105.144565 
L 319.98173 107.120019 
L 319.839354 107.789495 
L 319.531348 108.464619 
L 319.412172 107.120019 
L 319.200652 106.4561 
L 319.034866 107.120019 
L 318.980248 106.4561 
L 318.67816 105.797645 
L 318.645724 105.144565 
L 318.537743 105.797645 
L 318.086617 106.4561 
L 317.51877 105.144565 
L 317.438026 105.797645 
L 316.974463 105.144565 
L 316.829239 103.854185 
L 316.635406 103.216717 
L 316.473526 103.854185 
L 316.313044 105.144565 
L 316.20262 105.797645 
L 315.816705 106.4561 
L 315.799227 107.789495 
L 315.762127 107.120019 
L 314.840383 106.4561 
L 314.407689 107.120019 
L 314.198951 107.789495 
L 314.163576 108.464619 
L 313.823996 109.14549 
L 313.456305 108.464619 
L 313.286665 109.832205 
L 313.057118 109.14549 
L 312.918268 109.832205 
L 312.70936 109.14549 
L 312.684671 109.832205 
L 312.311506 107.789495 
L 312.228489 108.464619 
L 311.332179 107.789495 
L 311.273303 106.4561 
L 310.882842 107.120019 
L 309.759088 106.4561 
L 309.63146 107.789495 
L 309.568548 109.14549 
L 309.152496 108.464619 
L 309.108917 107.789495 
L 308.961054 108.464619 
L 308.425591 107.789495 
L 308.304782 107.120019 
L 308.032269 106.4561 
L 307.888704 105.797645 
L 307.724172 106.4561 
L 307.382372 105.797645 
L 307.357016 105.144565 
L 307.101002 104.496774 
L 306.97758 105.144565 
L 306.566427 105.797645 
L 306.274437 105.144565 
L 306.268089 105.797645 
L 306.181701 105.144565 
L 305.698426 105.797645 
L 305.688785 105.144565 
L 305.287404 104.496774 
L 304.714606 105.797645 
L 304.557259 106.4561 
L 304.517755 105.797645 
L 304.393458 106.4561 
L 304.388207 107.120019 
L 304.20553 105.797645 
L 304.140423 106.4561 
L 304.08092 107.789495 
L 303.87874 108.464619 
L 303.212932 107.120019 
L 303.09612 106.4561 
L 302.806821 105.797645 
L 302.755051 107.120019 
L 302.741047 106.4561 
L 302.593772 105.797645 
L 302.584641 105.144565 
L 302.532453 105.797645 
L 302.473342 106.4561 
L 302.332285 105.797645 
L 301.846306 105.144565 
L 301.806201 105.797645 
L 301.553545 104.496774 
L 301.22665 105.144565 
L 301.094828 104.496774 
L 300.429621 105.144565 
L 300.016339 106.4561 
L 299.705315 105.797645 
L 299.540797 104.496774 
L 299.161061 105.144565 
L 299.146208 104.496774 
L 299.099637 105.144565 
L 298.647897 104.496774 
L 298.498897 105.144565 
L 298.469022 104.496774 
L 297.901266 105.144565 
L 297.891194 105.797645 
L 297.601712 105.144565 
L 297.574685 104.496774 
L 296.954559 102.584289 
L 296.605182 103.216717 
L 296.402348 102.584289 
L 296.339906 103.216717 
L 295.830413 101.334235 
L 295.66191 102.584289 
L 295.384355 103.854185 
L 295.271018 103.216717 
L 294.997917 102.584289 
L 294.910341 103.216717 
L 294.801616 102.584289 
L 294.741943 103.216717 
L 293.72391 100.716457 
L 293.605478 100.103413 
L 293.273841 99.495031 
L 293.226748 100.103413 
L 292.594382 98.891241 
L 292.589679 98.291974 
L 292.484154 98.891241 
L 292.105946 99.495031 
L 291.92425 100.103413 
L 291.905608 99.495031 
L 291.751566 100.103413 
L 291.57371 98.891241 
L 291.450837 99.495031 
L 291.247821 98.891241 
L 291.165862 98.291974 
L 291.079383 98.891241 
L 290.720548 97.697162 
L 290.454698 97.10674 
L 290.307958 95.938809 
L 290.271185 95.361176 
L 290.139913 95.938809 
L 289.483053 95.361176 
L 289.434928 95.938809 
L 288.999647 95.361176 
L 288.999647 94.787684 
L 288.852881 95.361176 
L 288.061744 93.652887 
L 287.956166 93.091469 
L 287.937133 93.652887 
L 287.829296 93.091469 
L 287.397007 93.652887 
L 287.00281 93.091469 
L 286.99842 93.652887 
L 286.715013 93.091469 
L 286.546406 91.980314 
L 286.530599 91.430472 
L 286.378595 90.884382 
L 286.369033 90.341995 
L 286.087624 90.884382 
L 285.74457 90.341995 
L 285.577595 90.884382 
L 285.570815 90.341995 
L 285.441123 89.80326 
L 285.297832 90.341995 
L 285.276212 90.884382 
L 285.264116 90.341995 
L 284.905203 89.80326 
L 284.691527 89.268128 
L 284.412809 89.80326 
L 284.351085 90.341995 
L 284.128905 89.80326 
L 283.911729 90.341995 
L 283.841932 90.884382 
L 283.605291 90.341995 
L 283.577871 89.80326 
L 283.096268 89.268128 
L 282.972755 88.208486 
L 282.661353 88.736553 
L 282.541523 88.208486 
L 282.192643 87.683882 
L 282.169194 88.208486 
L 281.813429 87.683882 
L 281.790503 87.162696 
L 281.62524 86.644883 
L 281.26344 87.162696 
L 281.105218 86.644883 
L 281.050039 87.162696 
L 280.678141 86.644883 
L 280.472642 86.1304 
L 280.375112 85.111255 
L 280.097361 85.619204 
L 279.646038 85.111255 
L 279.444655 84.60651 
L 279.32736 85.111255 
L 279.168354 84.60651 
L 278.862413 84.104929 
L 278.803941 83.606474 
L 278.795672 84.104929 
L 278.72632 84.60651 
L 278.683015 84.104929 
L 278.25987 84.60651 
L 278.100393 84.104929 
L 277.991328 84.60651 
L 277.935757 84.104929 
L 277.434389 83.606474 
L 277.304802 84.104929 
L 277.024373 82.618784 
L 276.42712 82.129475 
L 276.183974 81.159744 
L 275.862513 82.618784 
L 275.655722 82.129475 
L 275.44249 82.618784 
L 275.400805 83.111105 
L 275.38624 82.618784 
L 275.075687 82.129475 
L 275.054733 81.64314 
L 274.730451 82.618784 
L 274.33257 81.64314 
L 274.172611 82.618784 
L 274.119339 83.111105 
L 273.852574 83.606474 
L 273.83226 84.104929 
L 273.241239 83.111105 
L 273.207536 82.618784 
L 273.07079 83.111105 
L 272.934801 82.129475 
L 272.832359 82.618784 
L 272.495536 82.129475 
L 272.33427 82.618784 
L 272.311814 82.129475 
L 272.032417 81.64314 
L 271.965272 81.159744 
L 271.859643 81.64314 
L 271.512709 80.679251 
L 270.977637 81.159744 
L 270.659155 79.726837 
L 270.403311 80.201627 
L 270.125991 79.726837 
L 270.109231 80.201627 
L 269.796588 79.726837 
L 269.766151 80.201627 
L 269.603709 80.679251 
L 269.403253 80.201627 
L 269.181857 80.679251 
L 268.867712 78.319144 
L 268.47085 77.855364 
L 268.434939 77.394257 
L 268.368826 77.855364 
L 268.320466 78.319144 
L 268.09907 77.855364 
L 268.023512 77.394257 
L 267.267541 76.935793 
L 267.226679 76.479941 
L 267.129658 77.394257 
L 266.981129 76.935793 
L 266.965283 76.479941 
L 266.482948 75.575956 
L 266.400911 76.026672 
L 266.073115 76.479941 
L 265.987681 76.026672 
L 265.632517 75.575956 
L 265.52225 75.127765 
L 265.508938 75.575956 
L 265.38421 76.026672 
L 265.174049 75.127765 
L 265.172742 75.575956 
L 264.884619 74.682072 
L 264.776455 75.127765 
L 264.50824 74.682072 
L 264.461696 74.238847 
L 264.239817 73.798064 
L 264.224193 73.359697 
L 264.022627 72.923719 
L 263.983058 72.490104 
L 263.731499 73.359697 
L 263.697169 73.798064 
L 263.695941 73.359697 
L 263.259941 73.798064 
L 263.034025 73.359697 
L 262.944829 73.798064 
L 262.670253 73.359697 
L 262.142327 72.923719 
L 262.11462 72.058826 
L 261.928051 71.629861 
L 261.925529 71.203183 
L 261.756033 71.629861 
L 261.49324 71.203183 
L 261.430484 71.629861 
L 261.146018 72.058826 
L 261.117854 72.490104 
L 261.11144 72.058826 
L 260.872578 71.629861 
L 260.801357 72.058826 
L 260.420681 71.629861 
L 260.267161 71.203183 
L 260.142838 71.629861 
L 259.875682 70.356595 
L 259.760633 69.936637 
L 259.726303 70.356595 
L 259.582189 69.518872 
L 259.46526 69.936637 
L 259.356717 69.518872 
L 259.314484 69.936637 
L 259.241656 69.518872 
L 258.947981 69.103277 
L 258.691432 69.936637 
L 258.309423 70.356595 
L 258.254518 70.778769 
L 257.877591 71.203183 
L 257.835723 71.629861 
L 257.792875 71.203183 
L 257.689493 70.778769 
L 257.565588 71.203183 
L 257.286661 70.356595 
L 257.189078 71.203183 
L 256.986101 71.629861 
L 256.372807 72.490104 
L 255.724608 73.359697 
L 255.448817 74.238847 
L 255.327381 73.798064 
L 255.322312 73.359697 
L 255.104731 72.923719 
L 254.610574 72.490104 
L 254.574885 72.058826 
L 254.517041 72.490104 
L 254.382489 72.923719 
L 253.982374 73.359697 
L 253.980951 73.798064 
L 253.97775 73.359697 
L 253.42537 74.238847 
L 253.247984 73.798064 
L 253.221479 73.359697 
L 253.025739 72.923719 
L 252.755538 73.359697 
L 252.72015 72.923719 
L 252.553881 72.490104 
L 252.186895 72.923719 
L 252.164765 73.359697 
L 251.780235 73.798064 
L 251.248926 71.629861 
L 251.157092 72.058826 
L 250.674822 72.490104 
L 250.41178 72.923719 
L 250.40713 72.490104 
L 250.203604 72.058826 
L 250.162259 71.629861 
L 249.803986 71.203183 
L 249.742223 71.629861 
L 249.514112 71.203183 
L 249.439012 70.356595 
L 249.200607 70.778769 
L 249.010667 69.518872 
L 248.897814 70.356595 
L 248.817697 69.936637 
L 248.69438 70.356595 
L 248.382455 69.936637 
L 248.316342 69.518872 
L 248.304284 69.936637 
L 248.211653 70.356595 
L 247.964705 69.936637 
L 247.583754 69.518872 
L 247.449817 69.103277 
L 247.320569 69.936637 
L 246.853139 69.103277 
L 246.78777 68.68983 
L 246.420536 69.103277 
L 246.116371 68.68983 
L 245.945726 69.518872 
L 245.83781 69.103277 
L 245.551359 69.518872 
L 245.546931 69.936637 
L 245.542045 69.518872 
L 245.426161 69.936637 
L 245.156012 70.356595 
L 244.723044 70.778769 
L 244.533156 71.203183 
L 244.417429 70.778769 
L 244.010939 71.203183 
L 243.862083 71.629861 
L 243.750014 71.203183 
L 243.72454 71.629861 
L 243.410199 71.203183 
L 243.318155 70.778769 
L 242.879818 71.203183 
L 242.873913 71.629861 
L 242.549056 72.058826 
L 242.31086 71.203183 
L 242.244421 72.058826 
L 242.114049 71.629861 
L 242.087048 72.058826 
L 241.536235 72.490104 
L 241.152332 72.058826 
L 240.810022 72.490104 
L 240.659899 73.359697 
L 240.497223 72.923719 
L 240.150132 73.359697 
L 240.07136 72.490104 
L 239.963523 72.058826 
L 239.878142 72.490104 
L 239.647026 72.058826 
L 239.542625 72.923719 
L 239.310987 73.359697 
L 239.289198 73.798064 
L 238.956764 74.238847 
L 238.79973 74.682072 
L 238.675851 74.238847 
L 238.35102 75.127765 
L 238.221681 76.026672 
L 237.938051 74.682072 
L 237.910135 75.127765 
L 237.706035 74.682072 
L 237.448231 75.575956 
L 236.890365 76.026672 
L 236.459591 75.575956 
L 236.44351 76.026672 
L 236.201408 76.935793 
L 235.676396 77.394257 
L 235.645279 76.935793 
L 235.430206 76.479941 
L 235.347372 75.575956 
L 235.146067 76.479941 
L 234.551571 76.026672 
L 234.383865 75.575956 
L 234.182873 76.479941 
L 233.920001 76.935793 
L 233.892974 76.479941 
L 233.820028 76.935793 
L 233.669487 77.394257 
L 233.170314 78.319144 
L 233.116689 77.855364 
L 233.008081 78.785629 
L 232.798168 78.319144 
L 232.440156 78.785629 
L 232.090374 79.726837 
L 232.044261 79.254849 
L 231.571371 78.785629 
L 231.233359 79.254849 
L 231.23106 79.726837 
L 231.166606 79.254849 
L 231.073007 80.201627 
L 231.031584 80.679251 
L 230.894119 80.201627 
L 230.725655 80.679251 
L 230.568766 81.64314 
L 230.180552 81.159744 
L 230.005661 80.679251 
L 229.536794 81.159744 
L 229.468708 81.64314 
L 228.768883 81.159744 
L 228.647421 80.679251 
L 228.338371 80.201627 
L 228.173199 79.254849 
L 227.79503 78.319144 
L 227.748277 78.785629 
L 227.230985 78.319144 
L 226.957349 78.785629 
L 226.660969 77.855364 
L 226.596489 78.785629 
L 226.328849 79.254849 
L 226.306942 79.726837 
L 226.209111 79.254849 
L 225.378549 78.785629 
L 225.190334 79.254849 
L 225.006821 78.785629 
L 224.906979 79.254849 
L 224.351071 79.726837 
L 224.349425 79.254849 
L 224.198767 78.785629 
L 224.059565 79.726837 
L 223.130937 78.319144 
L 222.791187 77.394257 
L 222.594037 77.855364 
L 222.465129 77.394257 
L 222.355084 77.855364 
L 222.110565 78.319144 
L 222.108554 78.785629 
L 222.086242 78.319144 
L 221.503725 77.855364 
L 221.334817 78.319144 
L 221.190207 77.855364 
L 221.117549 78.319144 
L 220.837159 77.855364 
L 220.771764 77.394257 
L 220.489911 78.319144 
L 220.196393 78.785629 
L 219.939034 77.855364 
L 219.818368 78.785629 
L 219.282918 79.254849 
L 219.039798 80.201627 
L 219.03115 79.726837 
L 219.014338 80.201627 
L 218.833633 79.726837 
L 218.730734 80.201627 
L 218.544988 79.726837 
L 218.313729 80.679251 
L 218.197779 79.726837 
L 217.738619 80.201627 
L 217.677234 80.679251 
L 217.428771 81.159744 
L 217.316845 80.679251 
L 217.270849 81.159744 
L 216.851022 80.679251 
L 216.610724 81.159744 
L 215.642579 80.679251 
L 215.611018 81.64314 
L 214.717883 84.104929 
L 214.639595 85.111255 
L 214.398931 85.619204 
L 214.317377 86.1304 
L 213.968993 86.644883 
L 213.647493 86.1304 
L 213.598937 85.619204 
L 213.202023 86.1304 
L 213.168999 86.644883 
L 212.597148 87.683882 
L 212.51095 88.736553 
L 212.052083 88.208486 
L 211.937486 87.683882 
L 211.764045 88.736553 
L 211.277798 88.208486 
L 211.209033 87.683882 
L 210.764301 87.162696 
L 210.730519 87.683882 
L 210.546151 87.162696 
L 209.899153 87.683882 
L 209.887828 86.644883 
L 209.857939 87.162696 
L 209.642153 87.683882 
L 209.617157 88.208486 
L 209.579469 87.683882 
L 209.37 86.644883 
L 209.147382 87.683882 
L 208.660632 88.736553 
L 208.501698 89.80326 
L 208.177148 90.341995 
L 208.066077 91.430472 
L 208.024589 90.884382 
L 207.729921 91.980314 
L 207.514743 91.430472 
L 207.440752 90.884382 
L 207.203569 92.533962 
L 206.769451 93.091469 
L 206.316332 95.361176 
L 205.650125 94.787684 
L 205.462328 94.218274 
L 205.460865 94.787684 
L 205.190384 94.218274 
L 205.173075 95.361176 
L 204.984925 94.787684 
L 204.65688 95.361176 
L 204.453674 94.787684 
L 204.411709 94.218274 
L 204.400148 94.787684 
L 203.739401 95.938809 
L 203.284173 96.520643 
L 203.177995 95.938809 
L 202.950002 96.520643 
L 202.921596 95.938809 
L 202.66069 96.520643 
L 202.549848 97.697162 
L 202.369908 98.291974 
L 202.235931 97.697162 
L 202.039505 98.891241 
L 201.988546 98.291974 
L 201.970675 97.697162 
L 201.687529 97.10674 
L 201.618594 98.291974 
L 201.235246 98.891241 
L 200.880866 98.291974 
L 200.707131 97.697162 
L 200.21025 98.891241 
L 199.883205 100.716457 
L 199.470034 99.495031 
L 199.381537 100.716457 
L 199.374182 100.103413 
L 199.084302 101.334235 
L 198.410362 101.95682 
L 197.944617 104.496774 
L 197.349854 103.854185 
L 197.222232 105.797645 
L 196.878198 105.144565 
L 196.6927 104.496774 
L 196.546894 105.797645 
L 196.164735 106.4561 
L 195.768761 105.144565 
L 195.24111 104.496774 
L 195.064475 103.216717 
L 194.983209 103.854185 
L 194.569698 103.216717 
L 194.475832 101.95682 
L 194.403742 102.584289 
L 194.132177 103.216717 
L 193.681879 103.854185 
L 193.577288 103.216717 
L 193.495584 103.854185 
L 192.680189 104.496774 
L 192.636107 103.854185 
L 192.528152 104.496774 
L 192.488903 103.216717 
L 192.383476 103.854185 
L 192.244712 104.496774 
L 192.124549 103.854185 
L 191.764193 104.496774 
L 191.752384 105.144565 
L 191.2898 105.797645 
L 190.407495 109.832205 
L 189.609695 109.14549 
L 188.291037 111.223576 
L 188.179216 110.524866 
L 187.674034 111.223576 
L 187.336936 110.524866 
L 186.91933 113.357085 
L 186.852322 112.639575 
L 186.460842 113.357085 
L 186.335813 111.928443 
L 186.255592 112.639575 
L 186.171824 111.928443 
L 185.914112 112.639575 
L 185.525349 113.357085 
L 185.362986 112.639575 
L 185.170904 114.081088 
L 185.09014 113.357085 
L 184.815165 112.639575 
L 184.566023 115.549053 
L 184.402823 114.811704 
L 184.263582 115.549053 
L 183.310904 114.811704 
L 182.59349 115.549053 
L 182.26003 120.12183 
L 182.108163 120.910032 
L 181.716017 120.12183 
L 181.605698 120.910032 
L 181.151097 121.706076 
L 180.923443 123.32233 
L 180.260202 124.142868 
L 179.976239 124.97191 
L 179.382815 124.142868 
L 179.167741 124.97191 
L 179.16682 125.809633 
L 179.107252 124.97191 
L 178.705863 125.809633 
L 178.657497 124.97191 
L 178.172216 125.809633 
L 178.085267 126.656221 
L 177.862584 127.511864 
L 177.475663 126.656221 
L 177.291648 124.97191 
L 177.066875 126.656221 
L 177.02662 127.511864 
L 176.942846 126.656221 
L 176.888796 127.511864 
L 176.803853 126.656221 
L 176.674435 127.511864 
L 176.252687 128.376757 
L 175.589701 130.13511 
L 175.437416 129.251103 
L 175.155334 130.13511 
L 175.105047 129.251103 
L 175.009986 130.13511 
L 174.947367 129.251103 
L 174.496861 131.028994 
L 174.421911 131.932979 
L 174.257457 131.028994 
L 174.148438 131.932979 
L 174.10576 131.028994 
L 173.858995 130.13511 
L 173.831993 131.028994 
L 173.710766 130.13511 
L 172.710643 131.028994 
L 172.686437 130.13511 
L 172.47638 131.028994 
L 172.436086 131.932979 
L 172.279954 131.028994 
L 171.695889 131.932979 
L 171.014215 131.028994 
L 170.355285 131.932979 
L 169.923466 132.847296 
L 169.846758 133.772182 
L 169.654173 134.707887 
L 169.42556 133.772182 
L 169.009038 134.707887 
L 169.001637 135.654665 
L 168.549172 137.582513 
L 168.513679 136.612782 
L 168.23632 137.582513 
L 168.217299 136.612782 
L 167.798106 137.582513 
L 167.569571 138.564143 
L 166.970921 137.582513 
L 166.674665 138.564143 
L 166.046623 139.557967 
L 165.736116 138.564143 
L 165.662459 137.582513 
L 165.496712 138.564143 
L 165.2403 136.612782 
L 164.167186 138.564143 
L 163.96528 139.557967 
L 163.635792 140.564293 
L 163.520339 143.661524 
L 162.707948 144.721167 
L 162.657243 145.795033 
L 162.361111 146.88351 
L 162.313248 145.795033 
L 161.74348 146.88351 
L 161.242857 145.795033 
L 160.578407 146.88351 
L 158.884945 147.987001 
L 157.92441 149.105925 
L 157.740522 150.240722 
L 157.430475 149.105925 
L 157.384283 150.240722 
L 157.047898 151.391847 
L 155.705955 152.559778 
L 155.496276 151.391847 
L 154.737144 152.559778 
L 154.073488 151.391847 
L 153.126536 153.745012 
L 151.024879 152.559778 
L 150.846925 151.391847 
L 150.538841 150.240722 
L 150.194683 153.745012 
L 149.628678 154.948069 
L 149.457079 153.745012 
L 149.362981 154.948069 
L 149.013176 153.745012 
L 148.04106 154.948069 
L 147.516943 156.169495 
L 147.399981 157.409858 
L 147.006744 156.169495 
L 146.928992 154.948069 
L 146.088012 157.409858 
L 145.795728 158.669755 
L 145.759902 159.949812 
L 145.579067 161.250683 
L 145.561967 162.573058 
L 144.842799 161.250683 
L 143.887949 163.917658 
L 143.694025 165.285243 
L 143.693986 166.676615 
L 143.262291 165.285243 
L 142.804639 162.573058 
L 142.433473 163.917658 
L 141.988238 162.573058 
L 141.704647 161.250683 
L 141.607248 159.949812 
L 141.137597 161.250683 
L 140.869017 165.285243 
L 140.863292 163.917658 
L 140.828553 162.573058 
L 140.692695 163.917658 
L 139.890046 165.285243 
L 139.699636 166.676615 
L 139.689855 168.092613 
L 139.087397 171.002091 
L 138.560477 169.534126 
L 138.506889 171.002091 
L 138.049528 168.092613 
L 138.029211 166.676615 
L 137.829229 165.285243 
L 137.4227 166.676615 
L 136.297588 168.092613 
L 135.997028 169.534126 
L 135.770416 168.092613 
L 135.691495 169.534126 
L 135.44344 168.092613 
L 135.410331 166.676615 
L 134.748807 165.285243 
L 134.631636 168.092613 
L 134.256081 169.534126 
L 134.156049 172.497496 
L 133.772345 169.534126 
L 133.646183 171.002091 
L 133.644136 172.497496 
L 133.046779 171.002091 
L 132.701994 169.534126 
L 132.527968 168.092613 
L 132.186651 169.534126 
L 130.282927 171.002091 
L 129.31261 172.497496 
L 129.020035 175.574868 
L 128.964103 174.021386 
L 128.711282 175.574868 
L 128.503063 174.021386 
L 128.408967 175.574868 
L 127.875525 178.775368 
L 126.979449 185.588148 
L 126.974056 183.829795 
L 126.260279 182.10926 
L 125.959427 180.424948 
L 125.429373 178.775368 
L 124.666687 177.159114 
L 124.011434 178.775368 
L 123.469173 177.159114 
L 123.183746 175.574868 
L 122.677017 177.159114 
L 122.300669 175.574868 
L 121.33357 177.159114 
L 120.737133 175.574868 
L 119.875 174.021386 
L 119.649267 171.002091 
L 119.036944 169.534126 
L 118.719412 168.092613 
L 118.58368 171.002091 
L 118.40602 172.497496 
L 116.830821 174.021386 
L 116.693291 172.497496 
L 116.687397 174.021386 
L 115.659182 172.497496 
L 115.413969 174.021386 
L 114.967854 175.574868 
L 114.813603 174.021386 
L 114.777235 172.497496 
L 114.625617 171.002091 
L 113.078718 172.497496 
L 112.75918 174.021386 
L 112.219469 175.574868 
L 109.706348 177.159114 
L 108.863235 178.775368 
L 108.813657 180.424948 
L 108.440863 178.775368 
L 108.254508 180.424948 
L 107.949267 182.10926 
L 107.893544 180.424948 
L 107.806929 182.10926 
L 107.413359 183.829795 
L 107.359393 182.10926 
L 107.257687 183.829795 
L 106.755431 185.588148 
L 105.84652 183.829795 
L 104.475651 185.588148 
L 104.475233 187.386017 
L 104.308693 189.225221 
L 104.23604 187.386017 
L 104.028031 185.588148 
L 103.125893 187.386017 
L 103.125893 577 
L 103.125893 577 
" clip-path="url(#pc249dc044b)" style="fill: none; stroke: #ff7f0e; stroke-width: 1.5; stroke-linecap: square"/>
   </g>
   <g id="patch_3">
    <path d="M 81.316719 511.2 
L 81.316719 10.8 
" style="fill: none; stroke: #000000; stroke-width: 0.8; stroke-linejoin: miter; stroke-linecap: square"/>
   </g>
   <g id="patch_4">
    <path d="M 561.118545 511.2 
L 561.118545 10.8 
" style="fill: none; stroke: #000000; stroke-width: 0.8; stroke-linejoin: miter; stroke-linecap: square"/>
   </g>
   <g id="patch_5">
    <path d="M 81.316719 511.2 
L 561.118545 511.2 
" style="fill: none; stroke: #000000; stroke-width: 0.8; stroke-linejoin: miter; stroke-linecap: square"/>
   </g>
   <g id="patch_6">
    <path d="M 81.316719 10.8 
L 561.118545 10.8 
" style="fill: none; stroke: #000000; stroke-width: 0.8; stroke-linejoin: miter; stroke-linecap: square"/>
   </g>
   <g id="legend_1">
    <g id="patch_7">
     <path d="M 444.637845 75.3516 
L 549.022545 75.3516 
Q 552.478545 75.3516 552.478545 71.8956 
L 552.478545 22.896 
Q 552.478545 19.44 549.022545 19.44 
L 444.637845 19.44 
Q 441.181845 19.44 441.181845 22.896 
L 441.181845 71.8956 
Q 441.181845 75.3516 444.637845 75.3516 
z
" style="fill: #ffffff; opacity: 0.8; stroke: #cccccc; stroke-linejoin: miter"/>
    </g>
    <g id="line2d_33">
     <path d="M 448.093845 33.4341 
L 465.373845 33.4341 
L 482.653845 33.4341 
" style="fill: none; stroke: #1f77b4; stroke-width: 1.5; stroke-linecap: square"/>
    </g>
    <g id="text_12">
     <!-- dim 0 -->
     <g transform="translate(496.477845 39.4821)scale(0.1728 -0.1728)">
      <defs>
       <path id="DejaVuSans-64" d="M 2906 2969 
L 2906 4863 
L 3481 4863 
L 3481 0 
L 2906 0 
L 2906 525 
Q 2725 213 2448 61 
Q 2172 -91 1784 -91 
Q 1150 -91 751 415 
Q 353 922 353 1747 
Q 353 2572 751 3078 
Q 1150 3584 1784 3584 
Q 2172 3584 2448 3432 
Q 2725 3281 2906 2969 
z
M 947 1747 
Q 947 1113 1208 752 
Q 1469 391 1925 391 
Q 2381 391 2643 752 
Q 2906 1113 2906 1747 
Q 2906 2381 2643 2742 
Q 2381 3103 1925 3103 
Q 1469 3103 1208 2742 
Q 947 2381 947 1747 
z
" transform="scale(0.015625)"/>
      </defs>
      <use xlink:href="#DejaVuSans-64"/>
      <use xlink:href="#DejaVuSans-69" x="63.476562"/>
      <use xlink:href="#DejaVuSans-6d" x="91.259766"/>
      <use xlink:href="#DejaVuSans-20" x="188.671875"/>
      <use xlink:href="#DejaVuSans-30" x="220.458984"/>
     </g>
    </g>
    <g id="line2d_34">
     <path d="M 448.093845 58.7979 
L 465.373845 58.7979 
L 482.653845 58.7979 
" style="fill: none; stroke: #ff7f0e; stroke-width: 1.5; stroke-linecap: square"/>
    </g>
    <g id="text_13">
     <!-- dim 1 -->
     <g transform="translate(496.477845 64.8459)scale(0.1728 -0.1728)">
      <use xlink:href="#DejaVuSans-64"/>
      <use xlink:href="#DejaVuSans-69" x="63.476562"/>
      <use xlink:href="#DejaVuSans-6d" x="91.259766"/>
      <use xlink:href="#DejaVuSans-20" x="188.671875"/>
      <use xlink:href="#DejaVuSans-31" x="220.458984"/>
     </g>
    </g>
   </g>
  </g>
 </g>
 <defs>
  <clipPath id="pc249dc044b">
   <rect x="81.316719" y="10.8" width="479.801827" height="500.4"/>
  </clipPath>
 </defs>
</svg>
