<?xml version="1.0" encoding="utf-8" standalone="no"?>
<!DOCTYPE svg PUBLIC "-//W3C//DTD SVG 1.1//EN"
  "http://www.w3.org/Graphics/SVG/1.1/DTD/svg11.dtd">
<svg xmlns:xlink="http://www.w3.org/1999/xlink" width="576pt" height="576pt" viewBox="0 0 576 576" xmlns="http://www.w3.org/2000/svg" version="1.1">
 <metadata>
  <rdf:RDF xmlns:dc="http://purl.org/dc/elements/1.1/" xmlns:cc="http://creativecommons.org/ns#" xmlns:rdf="http://www.w3.org/1999/02/22-rdf-syntax-ns#">
   <cc:Work>
    <dc:type rdf:resource="http://purl.org/dc/dcmitype/StillImage"/>
    <dc:date>2023-06-07T19:41:03.758841</dc:date>
    <dc:format>image/svg+xml</dc:format>
    <dc:creator>
     <cc:Agent>
      <dc:title>Matplotlib v3.5.1, https://matplotlib.org/</dc:title>
     </cc:Agent>
    </dc:creator>
   </cc:Work>
  </rdf:RDF>
 </metadata>
 <defs>
  <style type="text/css">*{stroke-linejoin: round; stroke-linecap: butt}</style>
 </defs>
 <g id="figure_1">
  <g id="patch_1">
   <path d="M 0 576 
L 576 576 
L 576 0 
L 0 0 
L 0 576 
z
" style="fill: none"/>
  </g>
  <g id="axes_1">
   <g id="patch_2">
    <path d="M 81.316719 511.2 
L 559.21502 511.2 
L 559.21502 10.8 
L 81.316719 10.8 
z
" style="fill: #ffffff"/>
   </g>
   <g id="matplotlib.axis_1">
    <g id="xtick_1">
     <g id="line2d_1">
      <defs>
       <path id="m4576ada381" d="M 0 0 
L 0 3.5 
" style="stroke: #000000; stroke-width: 0.8"/>
      </defs>
      <g>
       <use xlink:href="#m4576ada381" x="103.039369" y="511.2" style="stroke: #000000; stroke-width: 0.8"/>
      </g>
     </g>
     <g id="text_1">
      <!-- 0.0 -->
      <g transform="translate(87.136244 533.396875)scale(0.2 -0.2)">
       <defs>
        <path id="DejaVuSans-30" d="M 2034 4250 
Q 1547 4250 1301 3770 
Q 1056 3291 1056 2328 
Q 1056 1369 1301 889 
Q 1547 409 2034 409 
Q 2525 409 2770 889 
Q 3016 1369 3016 2328 
Q 3016 3291 2770 3770 
Q 2525 4250 2034 4250 
z
M 2034 4750 
Q 2819 4750 3233 4129 
Q 3647 3509 3647 2328 
Q 3647 1150 3233 529 
Q 2819 -91 2034 -91 
Q 1250 -91 836 529 
Q 422 1150 422 2328 
Q 422 3509 836 4129 
Q 1250 4750 2034 4750 
z
" transform="scale(0.015625)"/>
        <path id="DejaVuSans-2e" d="M 684 794 
L 1344 794 
L 1344 0 
L 684 0 
L 684 794 
z
" transform="scale(0.015625)"/>
       </defs>
       <use xlink:href="#DejaVuSans-30"/>
       <use xlink:href="#DejaVuSans-2e" x="63.623047"/>
       <use xlink:href="#DejaVuSans-30" x="95.410156"/>
      </g>
     </g>
    </g>
    <g id="xtick_2">
     <g id="line2d_2">
      <g>
       <use xlink:href="#m4576ada381" x="190.765197" y="511.2" style="stroke: #000000; stroke-width: 0.8"/>
      </g>
     </g>
     <g id="text_2">
      <!-- 0.2 -->
      <g transform="translate(174.862072 533.396875)scale(0.2 -0.2)">
       <defs>
        <path id="DejaVuSans-32" d="M 1228 531 
L 3431 531 
L 3431 0 
L 469 0 
L 469 531 
Q 828 903 1448 1529 
Q 2069 2156 2228 2338 
Q 2531 2678 2651 2914 
Q 2772 3150 2772 3378 
Q 2772 3750 2511 3984 
Q 2250 4219 1831 4219 
Q 1534 4219 1204 4116 
Q 875 4013 500 3803 
L 500 4441 
Q 881 4594 1212 4672 
Q 1544 4750 1819 4750 
Q 2544 4750 2975 4387 
Q 3406 4025 3406 3419 
Q 3406 3131 3298 2873 
Q 3191 2616 2906 2266 
Q 2828 2175 2409 1742 
Q 1991 1309 1228 531 
z
" transform="scale(0.015625)"/>
       </defs>
       <use xlink:href="#DejaVuSans-30"/>
       <use xlink:href="#DejaVuSans-2e" x="63.623047"/>
       <use xlink:href="#DejaVuSans-32" x="95.410156"/>
      </g>
     </g>
    </g>
    <g id="xtick_3">
     <g id="line2d_3">
      <g>
       <use xlink:href="#m4576ada381" x="278.491025" y="511.2" style="stroke: #000000; stroke-width: 0.8"/>
      </g>
     </g>
     <g id="text_3">
      <!-- 0.4 -->
      <g transform="translate(262.5879 533.396875)scale(0.2 -0.2)">
       <defs>
        <path id="DejaVuSans-34" d="M 2419 4116 
L 825 1625 
L 2419 1625 
L 2419 4116 
z
M 2253 4666 
L 3047 4666 
L 3047 1625 
L 3713 1625 
L 3713 1100 
L 3047 1100 
L 3047 0 
L 2419 0 
L 2419 1100 
L 313 1100 
L 313 1709 
L 2253 4666 
z
" transform="scale(0.015625)"/>
       </defs>
       <use xlink:href="#DejaVuSans-30"/>
       <use xlink:href="#DejaVuSans-2e" x="63.623047"/>
       <use xlink:href="#DejaVuSans-34" x="95.410156"/>
      </g>
     </g>
    </g>
    <g id="xtick_4">
     <g id="line2d_4">
      <g>
       <use xlink:href="#m4576ada381" x="366.216853" y="511.2" style="stroke: #000000; stroke-width: 0.8"/>
      </g>
     </g>
     <g id="text_4">
      <!-- 0.6 -->
      <g transform="translate(350.313728 533.396875)scale(0.2 -0.2)">
       <defs>
        <path id="DejaVuSans-36" d="M 2113 2584 
Q 1688 2584 1439 2293 
Q 1191 2003 1191 1497 
Q 1191 994 1439 701 
Q 1688 409 2113 409 
Q 2538 409 2786 701 
Q 3034 994 3034 1497 
Q 3034 2003 2786 2293 
Q 2538 2584 2113 2584 
z
M 3366 4563 
L 3366 3988 
Q 3128 4100 2886 4159 
Q 2644 4219 2406 4219 
Q 1781 4219 1451 3797 
Q 1122 3375 1075 2522 
Q 1259 2794 1537 2939 
Q 1816 3084 2150 3084 
Q 2853 3084 3261 2657 
Q 3669 2231 3669 1497 
Q 3669 778 3244 343 
Q 2819 -91 2113 -91 
Q 1303 -91 875 529 
Q 447 1150 447 2328 
Q 447 3434 972 4092 
Q 1497 4750 2381 4750 
Q 2619 4750 2861 4703 
Q 3103 4656 3366 4563 
z
" transform="scale(0.015625)"/>
       </defs>
       <use xlink:href="#DejaVuSans-30"/>
       <use xlink:href="#DejaVuSans-2e" x="63.623047"/>
       <use xlink:href="#DejaVuSans-36" x="95.410156"/>
      </g>
     </g>
    </g>
    <g id="xtick_5">
     <g id="line2d_5">
      <g>
       <use xlink:href="#m4576ada381" x="453.942681" y="511.2" style="stroke: #000000; stroke-width: 0.8"/>
      </g>
     </g>
     <g id="text_5">
      <!-- 0.8 -->
      <g transform="translate(438.039556 533.396875)scale(0.2 -0.2)">
       <defs>
        <path id="DejaVuSans-38" d="M 2034 2216 
Q 1584 2216 1326 1975 
Q 1069 1734 1069 1313 
Q 1069 891 1326 650 
Q 1584 409 2034 409 
Q 2484 409 2743 651 
Q 3003 894 3003 1313 
Q 3003 1734 2745 1975 
Q 2488 2216 2034 2216 
z
M 1403 2484 
Q 997 2584 770 2862 
Q 544 3141 544 3541 
Q 544 4100 942 4425 
Q 1341 4750 2034 4750 
Q 2731 4750 3128 4425 
Q 3525 4100 3525 3541 
Q 3525 3141 3298 2862 
Q 3072 2584 2669 2484 
Q 3125 2378 3379 2068 
Q 3634 1759 3634 1313 
Q 3634 634 3220 271 
Q 2806 -91 2034 -91 
Q 1263 -91 848 271 
Q 434 634 434 1313 
Q 434 1759 690 2068 
Q 947 2378 1403 2484 
z
M 1172 3481 
Q 1172 3119 1398 2916 
Q 1625 2713 2034 2713 
Q 2441 2713 2670 2916 
Q 2900 3119 2900 3481 
Q 2900 3844 2670 4047 
Q 2441 4250 2034 4250 
Q 1625 4250 1398 4047 
Q 1172 3844 1172 3481 
z
" transform="scale(0.015625)"/>
       </defs>
       <use xlink:href="#DejaVuSans-30"/>
       <use xlink:href="#DejaVuSans-2e" x="63.623047"/>
       <use xlink:href="#DejaVuSans-38" x="95.410156"/>
      </g>
     </g>
    </g>
    <g id="xtick_6">
     <g id="line2d_6">
      <g>
       <use xlink:href="#m4576ada381" x="541.668509" y="511.2" style="stroke: #000000; stroke-width: 0.8"/>
      </g>
     </g>
     <g id="text_6">
      <!-- 1.0 -->
      <g transform="translate(525.765384 533.396875)scale(0.2 -0.2)">
       <defs>
        <path id="DejaVuSans-31" d="M 794 531 
L 1825 531 
L 1825 4091 
L 703 3866 
L 703 4441 
L 1819 4666 
L 2450 4666 
L 2450 531 
L 3481 531 
L 3481 0 
L 794 0 
L 794 531 
z
" transform="scale(0.015625)"/>
       </defs>
       <use xlink:href="#DejaVuSans-31"/>
       <use xlink:href="#DejaVuSans-2e" x="63.623047"/>
       <use xlink:href="#DejaVuSans-30" x="95.410156"/>
      </g>
     </g>
    </g>
    <g id="text_7">
     <!-- Intensity level -->
     <g transform="translate(232.1604 560.552344)scale(0.25 -0.25)">
      <defs>
       <path id="DejaVuSans-49" d="M 628 4666 
L 1259 4666 
L 1259 0 
L 628 0 
L 628 4666 
z
" transform="scale(0.015625)"/>
       <path id="DejaVuSans-6e" d="M 3513 2113 
L 3513 0 
L 2938 0 
L 2938 2094 
Q 2938 2591 2744 2837 
Q 2550 3084 2163 3084 
Q 1697 3084 1428 2787 
Q 1159 2491 1159 1978 
L 1159 0 
L 581 0 
L 581 3500 
L 1159 3500 
L 1159 2956 
Q 1366 3272 1645 3428 
Q 1925 3584 2291 3584 
Q 2894 3584 3203 3211 
Q 3513 2838 3513 2113 
z
" transform="scale(0.015625)"/>
       <path id="DejaVuSans-74" d="M 1172 4494 
L 1172 3500 
L 2356 3500 
L 2356 3053 
L 1172 3053 
L 1172 1153 
Q 1172 725 1289 603 
Q 1406 481 1766 481 
L 2356 481 
L 2356 0 
L 1766 0 
Q 1100 0 847 248 
Q 594 497 594 1153 
L 594 3053 
L 172 3053 
L 172 3500 
L 594 3500 
L 594 4494 
L 1172 4494 
z
" transform="scale(0.015625)"/>
       <path id="DejaVuSans-65" d="M 3597 1894 
L 3597 1613 
L 953 1613 
Q 991 1019 1311 708 
Q 1631 397 2203 397 
Q 2534 397 2845 478 
Q 3156 559 3463 722 
L 3463 178 
Q 3153 47 2828 -22 
Q 2503 -91 2169 -91 
Q 1331 -91 842 396 
Q 353 884 353 1716 
Q 353 2575 817 3079 
Q 1281 3584 2069 3584 
Q 2775 3584 3186 3129 
Q 3597 2675 3597 1894 
z
M 3022 2063 
Q 3016 2534 2758 2815 
Q 2500 3097 2075 3097 
Q 1594 3097 1305 2825 
Q 1016 2553 972 2059 
L 3022 2063 
z
" transform="scale(0.015625)"/>
       <path id="DejaVuSans-73" d="M 2834 3397 
L 2834 2853 
Q 2591 2978 2328 3040 
Q 2066 3103 1784 3103 
Q 1356 3103 1142 2972 
Q 928 2841 928 2578 
Q 928 2378 1081 2264 
Q 1234 2150 1697 2047 
L 1894 2003 
Q 2506 1872 2764 1633 
Q 3022 1394 3022 966 
Q 3022 478 2636 193 
Q 2250 -91 1575 -91 
Q 1294 -91 989 -36 
Q 684 19 347 128 
L 347 722 
Q 666 556 975 473 
Q 1284 391 1588 391 
Q 1994 391 2212 530 
Q 2431 669 2431 922 
Q 2431 1156 2273 1281 
Q 2116 1406 1581 1522 
L 1381 1569 
Q 847 1681 609 1914 
Q 372 2147 372 2553 
Q 372 3047 722 3315 
Q 1072 3584 1716 3584 
Q 2034 3584 2315 3537 
Q 2597 3491 2834 3397 
z
" transform="scale(0.015625)"/>
       <path id="DejaVuSans-69" d="M 603 3500 
L 1178 3500 
L 1178 0 
L 603 0 
L 603 3500 
z
M 603 4863 
L 1178 4863 
L 1178 4134 
L 603 4134 
L 603 4863 
z
" transform="scale(0.015625)"/>
       <path id="DejaVuSans-79" d="M 2059 -325 
Q 1816 -950 1584 -1140 
Q 1353 -1331 966 -1331 
L 506 -1331 
L 506 -850 
L 844 -850 
Q 1081 -850 1212 -737 
Q 1344 -625 1503 -206 
L 1606 56 
L 191 3500 
L 800 3500 
L 1894 763 
L 2988 3500 
L 3597 3500 
L 2059 -325 
z
" transform="scale(0.015625)"/>
       <path id="DejaVuSans-20" transform="scale(0.015625)"/>
       <path id="DejaVuSans-6c" d="M 603 4863 
L 1178 4863 
L 1178 0 
L 603 0 
L 603 4863 
z
" transform="scale(0.015625)"/>
       <path id="DejaVuSans-76" d="M 191 3500 
L 800 3500 
L 1894 563 
L 2988 3500 
L 3597 3500 
L 2284 0 
L 1503 0 
L 191 3500 
z
" transform="scale(0.015625)"/>
      </defs>
      <use xlink:href="#DejaVuSans-49"/>
      <use xlink:href="#DejaVuSans-6e" x="29.492188"/>
      <use xlink:href="#DejaVuSans-74" x="92.871094"/>
      <use xlink:href="#DejaVuSans-65" x="132.080078"/>
      <use xlink:href="#DejaVuSans-6e" x="193.603516"/>
      <use xlink:href="#DejaVuSans-73" x="256.982422"/>
      <use xlink:href="#DejaVuSans-69" x="309.082031"/>
      <use xlink:href="#DejaVuSans-74" x="336.865234"/>
      <use xlink:href="#DejaVuSans-79" x="376.074219"/>
      <use xlink:href="#DejaVuSans-20" x="435.253906"/>
      <use xlink:href="#DejaVuSans-6c" x="467.041016"/>
      <use xlink:href="#DejaVuSans-65" x="494.824219"/>
      <use xlink:href="#DejaVuSans-76" x="556.347656"/>
      <use xlink:href="#DejaVuSans-65" x="615.527344"/>
      <use xlink:href="#DejaVuSans-6c" x="677.050781"/>
     </g>
    </g>
   </g>
   <g id="matplotlib.axis_2">
    <g id="ytick_1">
     <g id="line2d_7">
      <defs>
       <path id="me4573a1ee9" d="M 0 0 
L -3.5 0 
" style="stroke: #000000; stroke-width: 0.8"/>
      </defs>
      <g>
       <use xlink:href="#me4573a1ee9" x="81.316719" y="489.59488" style="stroke: #000000; stroke-width: 0.8"/>
      </g>
     </g>
     <g id="text_8">
      <!-- $\mathdefault{10^{0}}$ -->
      <g transform="translate(39.116719 497.193318)scale(0.2 -0.2)">
       <use xlink:href="#DejaVuSans-31" transform="translate(0 0.765625)"/>
       <use xlink:href="#DejaVuSans-30" transform="translate(63.623047 0.765625)"/>
       <use xlink:href="#DejaVuSans-30" transform="translate(128.203125 39.046875)scale(0.7)"/>
      </g>
     </g>
    </g>
    <g id="ytick_2">
     <g id="line2d_8">
      <g>
       <use xlink:href="#me4573a1ee9" x="81.316719" y="305.588792" style="stroke: #000000; stroke-width: 0.8"/>
      </g>
     </g>
     <g id="text_9">
      <!-- $\mathdefault{10^{1}}$ -->
      <g transform="translate(39.116719 313.18723)scale(0.2 -0.2)">
       <use xlink:href="#DejaVuSans-31" transform="translate(0 0.684375)"/>
       <use xlink:href="#DejaVuSans-30" transform="translate(63.623047 0.684375)"/>
       <use xlink:href="#DejaVuSans-31" transform="translate(128.203125 38.965625)scale(0.7)"/>
      </g>
     </g>
    </g>
    <g id="ytick_3">
     <g id="line2d_9">
      <g>
       <use xlink:href="#me4573a1ee9" x="81.316719" y="121.582704" style="stroke: #000000; stroke-width: 0.8"/>
      </g>
     </g>
     <g id="text_10">
      <!-- $\mathdefault{10^{2}}$ -->
      <g transform="translate(39.116719 129.181141)scale(0.2 -0.2)">
       <use xlink:href="#DejaVuSans-31" transform="translate(0 0.765625)"/>
       <use xlink:href="#DejaVuSans-30" transform="translate(63.623047 0.765625)"/>
       <use xlink:href="#DejaVuSans-32" transform="translate(128.203125 39.046875)scale(0.7)"/>
      </g>
     </g>
    </g>
    <g id="ytick_4">
     <g id="line2d_10">
      <defs>
       <path id="m0cbdcd9aef" d="M 0 0 
L -2 0 
" style="stroke: #000000; stroke-width: 0.6"/>
      </defs>
      <g>
       <use xlink:href="#m0cbdcd9aef" x="81.316719" y="507.426913" style="stroke: #000000; stroke-width: 0.6"/>
      </g>
     </g>
    </g>
    <g id="ytick_5">
     <g id="line2d_11">
      <g>
       <use xlink:href="#m0cbdcd9aef" x="81.316719" y="498.014537" style="stroke: #000000; stroke-width: 0.6"/>
      </g>
     </g>
    </g>
    <g id="ytick_6">
     <g id="line2d_12">
      <g>
       <use xlink:href="#m0cbdcd9aef" x="81.316719" y="434.203528" style="stroke: #000000; stroke-width: 0.6"/>
      </g>
     </g>
    </g>
    <g id="ytick_7">
     <g id="line2d_13">
      <g>
       <use xlink:href="#m0cbdcd9aef" x="81.316719" y="401.801665" style="stroke: #000000; stroke-width: 0.6"/>
      </g>
     </g>
    </g>
    <g id="ytick_8">
     <g id="line2d_14">
      <g>
       <use xlink:href="#m0cbdcd9aef" x="81.316719" y="378.812177" style="stroke: #000000; stroke-width: 0.6"/>
      </g>
     </g>
    </g>
    <g id="ytick_9">
     <g id="line2d_15">
      <g>
       <use xlink:href="#m0cbdcd9aef" x="81.316719" y="360.980144" style="stroke: #000000; stroke-width: 0.6"/>
      </g>
     </g>
    </g>
    <g id="ytick_10">
     <g id="line2d_16">
      <g>
       <use xlink:href="#m0cbdcd9aef" x="81.316719" y="346.410313" style="stroke: #000000; stroke-width: 0.6"/>
      </g>
     </g>
    </g>
    <g id="ytick_11">
     <g id="line2d_17">
      <g>
       <use xlink:href="#m0cbdcd9aef" x="81.316719" y="334.091696" style="stroke: #000000; stroke-width: 0.6"/>
      </g>
     </g>
    </g>
    <g id="ytick_12">
     <g id="line2d_18">
      <g>
       <use xlink:href="#m0cbdcd9aef" x="81.316719" y="323.420825" style="stroke: #000000; stroke-width: 0.6"/>
      </g>
     </g>
    </g>
    <g id="ytick_13">
     <g id="line2d_19">
      <g>
       <use xlink:href="#m0cbdcd9aef" x="81.316719" y="314.008449" style="stroke: #000000; stroke-width: 0.6"/>
      </g>
     </g>
    </g>
    <g id="ytick_14">
     <g id="line2d_20">
      <g>
       <use xlink:href="#m0cbdcd9aef" x="81.316719" y="250.19744" style="stroke: #000000; stroke-width: 0.6"/>
      </g>
     </g>
    </g>
    <g id="ytick_15">
     <g id="line2d_21">
      <g>
       <use xlink:href="#m0cbdcd9aef" x="81.316719" y="217.795576" style="stroke: #000000; stroke-width: 0.6"/>
      </g>
     </g>
    </g>
    <g id="ytick_16">
     <g id="line2d_22">
      <g>
       <use xlink:href="#m0cbdcd9aef" x="81.316719" y="194.806088" style="stroke: #000000; stroke-width: 0.6"/>
      </g>
     </g>
    </g>
    <g id="ytick_17">
     <g id="line2d_23">
      <g>
       <use xlink:href="#m0cbdcd9aef" x="81.316719" y="176.974056" style="stroke: #000000; stroke-width: 0.6"/>
      </g>
     </g>
    </g>
    <g id="ytick_18">
     <g id="line2d_24">
      <g>
       <use xlink:href="#m0cbdcd9aef" x="81.316719" y="162.404224" style="stroke: #000000; stroke-width: 0.6"/>
      </g>
     </g>
    </g>
    <g id="ytick_19">
     <g id="line2d_25">
      <g>
       <use xlink:href="#m0cbdcd9aef" x="81.316719" y="150.085608" style="stroke: #000000; stroke-width: 0.6"/>
      </g>
     </g>
    </g>
    <g id="ytick_20">
     <g id="line2d_26">
      <g>
       <use xlink:href="#m0cbdcd9aef" x="81.316719" y="139.414736" style="stroke: #000000; stroke-width: 0.6"/>
      </g>
     </g>
    </g>
    <g id="ytick_21">
     <g id="line2d_27">
      <g>
       <use xlink:href="#m0cbdcd9aef" x="81.316719" y="130.002361" style="stroke: #000000; stroke-width: 0.6"/>
      </g>
     </g>
    </g>
    <g id="ytick_22">
     <g id="line2d_28">
      <g>
       <use xlink:href="#m0cbdcd9aef" x="81.316719" y="66.191352" style="stroke: #000000; stroke-width: 0.6"/>
      </g>
     </g>
    </g>
    <g id="ytick_23">
     <g id="line2d_29">
      <g>
       <use xlink:href="#m0cbdcd9aef" x="81.316719" y="33.789488" style="stroke: #000000; stroke-width: 0.6"/>
      </g>
     </g>
    </g>
    <g id="ytick_24">
     <g id="line2d_30">
      <g>
       <use xlink:href="#m0cbdcd9aef" x="81.316719" y="10.8" style="stroke: #000000; stroke-width: 0.6"/>
      </g>
     </g>
    </g>
    <g id="text_11">
     <!-- Betti number -->
     <g transform="translate(29.9175 343.298828)rotate(-90)scale(0.25 -0.25)">
      <defs>
       <path id="DejaVuSans-42" d="M 1259 2228 
L 1259 519 
L 2272 519 
Q 2781 519 3026 730 
Q 3272 941 3272 1375 
Q 3272 1813 3026 2020 
Q 2781 2228 2272 2228 
L 1259 2228 
z
M 1259 4147 
L 1259 2741 
L 2194 2741 
Q 2656 2741 2882 2914 
Q 3109 3088 3109 3444 
Q 3109 3797 2882 3972 
Q 2656 4147 2194 4147 
L 1259 4147 
z
M 628 4666 
L 2241 4666 
Q 2963 4666 3353 4366 
Q 3744 4066 3744 3513 
Q 3744 3084 3544 2831 
Q 3344 2578 2956 2516 
Q 3422 2416 3680 2098 
Q 3938 1781 3938 1306 
Q 3938 681 3513 340 
Q 3088 0 2303 0 
L 628 0 
L 628 4666 
z
" transform="scale(0.015625)"/>
       <path id="DejaVuSans-75" d="M 544 1381 
L 544 3500 
L 1119 3500 
L 1119 1403 
Q 1119 906 1312 657 
Q 1506 409 1894 409 
Q 2359 409 2629 706 
Q 2900 1003 2900 1516 
L 2900 3500 
L 3475 3500 
L 3475 0 
L 2900 0 
L 2900 538 
Q 2691 219 2414 64 
Q 2138 -91 1772 -91 
Q 1169 -91 856 284 
Q 544 659 544 1381 
z
M 1991 3584 
L 1991 3584 
z
" transform="scale(0.015625)"/>
       <path id="DejaVuSans-6d" d="M 3328 2828 
Q 3544 3216 3844 3400 
Q 4144 3584 4550 3584 
Q 5097 3584 5394 3201 
Q 5691 2819 5691 2113 
L 5691 0 
L 5113 0 
L 5113 2094 
Q 5113 2597 4934 2840 
Q 4756 3084 4391 3084 
Q 3944 3084 3684 2787 
Q 3425 2491 3425 1978 
L 3425 0 
L 2847 0 
L 2847 2094 
Q 2847 2600 2669 2842 
Q 2491 3084 2119 3084 
Q 1678 3084 1418 2786 
Q 1159 2488 1159 1978 
L 1159 0 
L 581 0 
L 581 3500 
L 1159 3500 
L 1159 2956 
Q 1356 3278 1631 3431 
Q 1906 3584 2284 3584 
Q 2666 3584 2933 3390 
Q 3200 3197 3328 2828 
z
" transform="scale(0.015625)"/>
       <path id="DejaVuSans-62" d="M 3116 1747 
Q 3116 2381 2855 2742 
Q 2594 3103 2138 3103 
Q 1681 3103 1420 2742 
Q 1159 2381 1159 1747 
Q 1159 1113 1420 752 
Q 1681 391 2138 391 
Q 2594 391 2855 752 
Q 3116 1113 3116 1747 
z
M 1159 2969 
Q 1341 3281 1617 3432 
Q 1894 3584 2278 3584 
Q 2916 3584 3314 3078 
Q 3713 2572 3713 1747 
Q 3713 922 3314 415 
Q 2916 -91 2278 -91 
Q 1894 -91 1617 61 
Q 1341 213 1159 525 
L 1159 0 
L 581 0 
L 581 4863 
L 1159 4863 
L 1159 2969 
z
" transform="scale(0.015625)"/>
       <path id="DejaVuSans-72" d="M 2631 2963 
Q 2534 3019 2420 3045 
Q 2306 3072 2169 3072 
Q 1681 3072 1420 2755 
Q 1159 2438 1159 1844 
L 1159 0 
L 581 0 
L 581 3500 
L 1159 3500 
L 1159 2956 
Q 1341 3275 1631 3429 
Q 1922 3584 2338 3584 
Q 2397 3584 2469 3576 
Q 2541 3569 2628 3553 
L 2631 2963 
z
" transform="scale(0.015625)"/>
      </defs>
      <use xlink:href="#DejaVuSans-42"/>
      <use xlink:href="#DejaVuSans-65" x="68.603516"/>
      <use xlink:href="#DejaVuSans-74" x="130.126953"/>
      <use xlink:href="#DejaVuSans-74" x="169.335938"/>
      <use xlink:href="#DejaVuSans-69" x="208.544922"/>
      <use xlink:href="#DejaVuSans-20" x="236.328125"/>
      <use xlink:href="#DejaVuSans-6e" x="268.115234"/>
      <use xlink:href="#DejaVuSans-75" x="331.494141"/>
      <use xlink:href="#DejaVuSans-6d" x="394.873047"/>
      <use xlink:href="#DejaVuSans-62" x="492.285156"/>
      <use xlink:href="#DejaVuSans-65" x="555.761719"/>
      <use xlink:href="#DejaVuSans-72" x="617.285156"/>
     </g>
    </g>
   </g>
   <g id="line2d_31">
    <path d="M 537.49237 489.59488 
L 525.433426 434.203528 
L 524.491106 401.801665 
L 522.807646 378.812177 
L 519.275494 360.980144 
L 518.771981 346.410313 
L 516.080186 323.420825 
L 515.578555 314.008449 
L 515.439127 305.588792 
L 515.00887 297.972286 
L 512.14013 291.018961 
L 511.10322 284.622522 
L 510.32391 291.018961 
L 508.645156 284.622522 
L 507.989456 278.700344 
L 507.79353 273.186928 
L 506.510523 268.029473 
L 506.321029 263.184788 
L 506.302467 258.617097 
L 505.162652 246.29848 
L 505.063356 250.19744 
L 503.689419 254.296432 
L 503.533834 250.19744 
L 503.506278 246.29848 
L 502.917638 242.580934 
L 501.583231 239.028668 
L 499.967198 235.627609 
L 499.379395 232.365408 
L 498.950758 229.23117 
L 498.663301 226.215233 
L 498.44497 220.504745 
L 498.154428 217.795576 
L 498.110296 215.175249 
L 497.080837 212.638121 
L 497.057072 210.17907 
L 496.332769 205.47696 
L 495.6949 203.225745 
L 495.611761 205.47696 
L 494.687297 207.793436 
L 494.417801 201.036216 
L 493.691695 198.905081 
L 493.206064 196.829306 
L 492.870632 192.832832 
L 492.325732 190.907128 
L 491.954665 187.189582 
L 491.737929 185.393713 
L 491.667993 183.637316 
L 491.190858 185.393713 
L 491.076425 183.637316 
L 490.732496 181.918694 
L 490.677384 178.588511 
L 489.985082 176.974056 
L 489.884452 175.391572 
L 489.534353 172.317623 
L 489.314087 169.35755 
L 488.603537 167.91764 
L 487.570391 166.503217 
L 486.886455 165.113393 
L 486.759342 163.747329 
L 486.245187 162.404224 
L 485.996267 159.783897 
L 485.638978 157.246769 
L 485.481694 153.585999 
L 485.390921 151.235452 
L 485.262788 152.402084 
L 485.219257 151.235452 
L 485.022809 150.085608 
L 484.437934 151.235452 
L 484.418901 150.085608 
L 483.797973 148.952073 
L 483.349493 146.73213 
L 483.232654 148.952073 
L 482.955864 147.834393 
L 482.878058 146.73213 
L 482.618863 145.644864 
L 482.247457 144.572192 
L 481.854795 145.644864 
L 481.725067 144.572192 
L 480.761753 143.513729 
L 480.693229 142.469102 
L 480.509042 141.437954 
L 480.130759 140.419942 
L 479.981737 139.414736 
L 479.972194 138.422018 
L 479.713208 137.44148 
L 479.30771 134.570051 
L 479.257879 135.515776 
L 479.251891 134.570051 
L 478.968278 133.635388 
L 478.563694 132.71153 
L 478.437077 131.79823 
L 478.120888 132.71153 
L 478.011526 133.635388 
L 477.833587 132.71153 
L 477.606576 130.002361 
L 477.000472 129.119337 
L 476.938745 130.002361 
L 476.870169 129.119337 
L 476.665746 128.245964 
L 476.502527 126.527342 
L 476.326027 125.681696 
L 476.111146 122.385855 
L 475.489539 121.582704 
L 475.451237 122.385855 
L 475.414217 121.582704 
L 475.238971 123.197159 
L 475.226135 122.385855 
L 474.562487 123.197159 
L 474.363032 122.385855 
L 473.92114 124.016785 
L 473.51253 123.197159 
L 473.240708 119.220576 
L 473.200262 120.787545 
L 472.686735 121.582704 
L 472.59225 122.385855 
L 472.421736 120.787545 
L 472.050618 122.385855 
L 471.955635 120.787545 
L 471.903634 121.582704 
L 471.606295 119.220576 
L 471.399519 117.683744 
L 471.326524 118.448466 
L 471.162625 117.683744 
L 470.113192 116.17591 
L 470.062027 115.432529 
L 469.651666 116.17591 
L 469.489911 115.432529 
L 469.482041 114.696 
L 469.145459 116.926271 
L 469.040516 117.683744 
L 468.786184 116.926271 
L 468.641318 117.683744 
L 468.532348 116.17591 
L 468.478334 116.926271 
L 468.184446 116.17591 
L 467.993357 114.696 
L 467.477242 113.966198 
L 467.445999 113.243 
L 466.802927 113.966198 
L 466.74005 112.526288 
L 465.950674 113.243 
L 465.841783 112.526288 
L 465.439003 114.696 
L 465.058237 113.243 
L 464.991621 113.966198 
L 464.885031 112.526288 
L 464.56139 111.815947 
L 464.407531 111.111865 
L 464.371504 112.526288 
L 464.028203 111.815947 
L 463.972437 112.526288 
L 463.935181 111.815947 
L 463.806656 111.111865 
L 463.546807 111.815947 
L 463.49376 112.526288 
L 463.012495 111.111865 
L 462.522916 111.815947 
L 462.425163 111.111865 
L 462.06424 110.413932 
L 461.938277 109.722041 
L 461.814222 110.413932 
L 461.539523 111.111865 
L 461.511784 110.413932 
L 461.261766 109.03609 
L 461.238001 108.355977 
L 461.062651 107.012873 
L 460.784972 105.691969 
L 460.422036 107.681603 
L 460.221248 107.012873 
L 460.162318 107.681603 
L 460.052225 107.012873 
L 459.955909 107.681603 
L 459.880718 107.012873 
L 459.638673 106.349692 
L 459.493729 105.039616 
L 459.252286 104.392545 
L 459.085172 102.482187 
L 458.925195 103.113913 
L 458.913587 103.750671 
L 458.866265 102.482187 
L 458.695752 103.750671 
L 458.036261 98.793248 
L 457.771393 99.396366 
L 457.659495 100.004072 
L 457.654345 99.396366 
L 457.490498 100.004072 
L 457.467151 99.396366 
L 457.276637 100.004072 
L 456.937441 99.396366 
L 456.891479 100.616433 
L 456.871636 99.396366 
L 456.729541 98.194647 
L 456.695815 98.793248 
L 456.385403 99.396366 
L 456.28514 100.004072 
L 456.281872 99.396366 
L 456.15081 100.004072 
L 456.019095 98.793248 
L 455.703637 98.194647 
L 455.632943 98.793248 
L 455.563974 98.194647 
L 455.527399 98.793248 
L 455.340623 97.600497 
L 455.160411 97.010732 
L 455.128802 97.600497 
L 454.881294 97.010732 
L 454.861947 97.600497 
L 454.444239 95.8441 
L 454.36225 96.425287 
L 454.290719 95.8441 
L 454.069983 95.26711 
L 454.062244 94.694256 
L 453.881665 95.26711 
L 453.863547 95.8441 
L 453.738237 95.26711 
L 453.728877 95.8441 
L 453.667517 94.694256 
L 453.539253 92.999927 
L 453.419616 91.890009 
L 453.215612 92.443041 
L 453.124342 93.560721 
L 453.103374 92.999927 
L 452.888285 92.443041 
L 452.700935 92.999927 
L 452.65926 92.443041 
L 452.370078 92.999927 
L 452.129707 92.443041 
L 452.109628 91.890009 
L 452.055326 92.443041 
L 451.853675 93.560721 
L 451.563996 91.890009 
L 451.526191 92.443041 
L 451.456124 93.560721 
L 451.208381 92.999927 
L 451.196014 93.560721 
L 451.010494 92.443041 
L 450.98001 91.890009 
L 450.941473 92.443041 
L 450.728763 92.999927 
L 450.671716 94.125479 
L 450.64884 93.560721 
L 450.581596 92.999927 
L 450.246348 92.443041 
L 450.174712 91.340778 
L 449.990368 91.890009 
L 449.960799 92.443041 
L 449.566673 90.253512 
L 449.388918 90.795296 
L 449.373284 90.253512 
L 449.308472 90.795296 
L 449.281596 91.340778 
L 448.870633 90.253512 
L 448.831913 89.715376 
L 448.763153 90.253512 
L 448.6694 89.715376 
L 448.597346 90.795296 
L 448.149807 89.715376 
L 448.055034 89.18084 
L 447.773486 88.649856 
L 447.640254 88.122377 
L 447.605718 88.649856 
L 447.112897 89.715376 
L 447.103485 90.253512 
L 446.816865 91.340778 
L 446.816865 91.890009 
L 446.799662 91.340778 
L 446.674509 91.890009 
L 446.616547 91.340778 
L 446.597723 91.890009 
L 446.495028 92.999927 
L 446.308462 92.443041 
L 446.223284 94.125479 
L 446.003305 94.694256 
L 445.861812 94.125479 
L 445.827406 94.694256 
L 445.401253 96.425287 
L 445.362037 97.010732 
L 445.301382 96.425287 
L 445.053194 98.194647 
L 444.620322 94.694256 
L 444.40871 95.26711 
L 444.19749 94.694256 
L 444.100024 92.999927 
L 443.530417 93.560721 
L 443.429735 92.999927 
L 442.913699 92.443041 
L 442.873044 91.890009 
L 442.663759 93.560721 
L 442.57994 94.125479 
L 442.559783 93.560721 
L 442.358236 94.125479 
L 442.179356 95.26711 
L 442.178415 94.694256 
L 442.091224 94.125479 
L 441.950254 94.694256 
L 441.899168 93.560721 
L 441.804264 94.125479 
L 441.588834 93.560721 
L 441.565618 94.694256 
L 441.444309 95.26711 
L 441.39887 94.694256 
L 441.133086 95.8441 
L 441.104929 95.26711 
L 440.955043 94.694256 
L 440.947801 94.125479 
L 440.770072 93.560721 
L 440.697914 94.125479 
L 440.657207 93.560721 
L 440.546695 94.125479 
L 440.536107 93.560721 
L 440.091444 91.890009 
L 439.834602 92.999927 
L 439.760352 92.443041 
L 439.55891 91.890009 
L 439.379743 92.443041 
L 439.375089 91.890009 
L 439.134561 92.443041 
L 439.078089 91.890009 
L 438.970401 92.443041 
L 438.855183 91.890009 
L 438.586707 91.340778 
L 438.483071 90.253512 
L 438.327773 91.340778 
L 438.313106 90.795296 
L 437.582947 87.07775 
L 437.560829 87.598356 
L 437.55764 88.122377 
L 437.272143 87.598356 
L 437.232482 88.122377 
L 436.970124 87.07775 
L 436.944921 87.598356 
L 436.944293 87.07775 
L 436.723008 88.122377 
L 436.697177 87.07775 
L 436.600129 87.598356 
L 436.545854 88.122377 
L 436.10642 88.649856 
L 436.06438 88.122377 
L 435.930285 88.649856 
L 435.742517 87.598356 
L 435.699823 88.122377 
L 435.259605 89.18084 
L 435.230192 89.715376 
L 435.168544 89.18084 
L 435.028541 89.715376 
L 434.734051 89.18084 
L 434.71358 89.715376 
L 434.539328 90.253512 
L 434.150824 88.649856 
L 434.14081 89.18084 
L 433.991552 90.253512 
L 433.954114 89.715376 
L 433.719442 89.18084 
L 433.349448 92.443041 
L 433.347382 91.890009 
L 432.946955 90.253512 
L 432.727422 90.795296 
L 432.647028 89.715376 
L 432.500593 90.795296 
L 432.500593 91.340778 
L 432.424226 90.253512 
L 432.378996 89.715376 
L 432.360538 90.795296 
L 432.327492 90.253512 
L 432.227202 89.715376 
L 432.118781 90.253512 
L 432.064192 89.715376 
L 431.88275 90.253512 
L 431.766147 89.715376 
L 431.756604 90.253512 
L 431.702093 89.18084 
L 431.671844 89.18084 
L 431.459761 86.560513 
L 431.376387 85.535975 
L 431.095048 86.046602 
L 430.944509 85.02859 
L 430.792767 85.535975 
L 430.755485 85.02859 
L 430.721942 85.535975 
L 430.517493 86.046602 
L 430.37953 85.02859 
L 430.260573 85.535975 
L 430.255788 85.02859 
L 430.216441 85.535975 
L 430.104439 86.046602 
L 430.100021 85.535975 
L 429.880487 86.560513 
L 429.083215 87.598356 
L 428.739286 87.07775 
L 428.732071 87.598356 
L 428.630029 87.07775 
L 428.58595 86.560513 
L 428.510654 87.598356 
L 428.394443 86.560513 
L 428.299774 86.046602 
L 427.968395 86.560513 
L 427.924132 87.07775 
L 427.532124 86.560513 
L 427.458685 85.535975 
L 427.106965 84.524407 
L 427.095383 85.02859 
L 427.034101 84.023384 
L 426.901287 84.524407 
L 426.894673 85.02859 
L 426.56562 85.535975 
L 426.544391 86.560513 
L 426.431238 87.07775 
L 426.42763 86.560513 
L 426.130396 86.046602 
L 426.029661 84.524407 
L 425.527507 83.525484 
L 425.441048 82.538893 
L 425.211187 83.030666 
L 425.211082 82.538893 
L 425.037458 82.050128 
L 424.841872 83.525484 
L 424.450413 82.538893 
L 424.334149 82.050128 
L 424.131243 82.538893 
L 424.033777 81.564334 
L 423.896101 82.050128 
L 423.66909 79.650163 
L 423.631625 80.124424 
L 423.449137 79.650163 
L 423.223616 80.124424 
L 423.095535 79.178699 
L 423.065417 79.650163 
L 422.879243 80.124424 
L 422.78745 79.650163 
L 422.569929 79.178699 
L 422.552543 78.710001 
L 422.523262 79.178699 
L 422.194523 81.081476 
L 422.079148 80.601517 
L 421.990048 81.081476 
L 421.754723 81.564334 
L 421.569307 81.081476 
L 421.508574 82.538893 
L 421.416363 83.525484 
L 421.381225 84.023384 
L 421.352414 83.030666 
L 421.339106 82.538893 
L 421.187469 83.525484 
L 421.098369 84.524407 
L 420.883934 86.560513 
L 420.883934 87.07775 
L 420.812403 86.046602 
L 420.637837 85.02859 
L 420.435924 85.535975 
L 420.402982 86.046602 
L 420.058583 86.560513 
L 420.00904 86.046602 
L 419.769924 87.07775 
L 419.556298 85.02859 
L 419.441708 86.046602 
L 419.362543 85.535975 
L 419.261442 85.02859 
L 419.058745 85.535975 
L 419.026797 85.02859 
L 418.870715 85.535975 
L 418.697954 85.02859 
L 418.602318 86.046602 
L 418.455752 85.535975 
L 418.345371 86.046602 
L 418.291305 85.02859 
L 417.761542 86.560513 
L 417.564963 87.598356 
L 417.563394 88.122377 
L 417.471627 87.598356 
L 417.433823 87.07775 
L 417.362344 87.598356 
L 416.968192 90.253512 
L 416.886726 89.715376 
L 416.873236 90.253512 
L 416.711272 89.18084 
L 416.691324 89.715376 
L 416.510013 90.253512 
L 416.417017 91.340778 
L 416.286086 90.795296 
L 416.110292 91.340778 
L 416.054134 89.715376 
L 415.965478 90.795296 
L 415.951073 91.340778 
L 415.857136 90.795296 
L 415.598595 90.253512 
L 415.57564 90.795296 
L 415.277673 90.253512 
L 415.132808 89.18084 
L 414.928385 88.649856 
L 414.92449 88.122377 
L 414.745636 87.598356 
L 414.656928 88.122377 
L 414.491121 86.560513 
L 414.390936 87.07775 
L 414.371145 87.598356 
L 414.314699 86.560513 
L 414.103976 85.02859 
L 413.962692 84.524407 
L 413.928783 82.538893 
L 413.862507 83.030666 
L 413.740596 82.538893 
L 413.586161 83.030666 
L 413.457374 82.538893 
L 413.272272 83.030666 
L 413.248141 83.525484 
L 412.961782 82.050128 
L 412.642298 81.564334 
L 412.609566 82.050128 
L 412.248146 82.538893 
L 412.041136 81.564334 
L 412.035645 81.081476 
L 411.998782 81.564334 
L 411.7416 82.050128 
L 411.694828 81.564334 
L 411.694305 82.050128 
L 411.601728 83.525484 
L 411.552707 83.030666 
L 411.414691 83.525484 
L 411.335657 82.538893 
L 411.332676 82.050128 
L 411.238348 82.538893 
L 411.187523 83.030666 
L 411.10726 82.538893 
L 410.687225 83.030666 
L 410.519248 82.538893 
L 410.377049 83.525484 
L 410.277256 82.538893 
L 410.274118 82.050128 
L 410.15158 81.081476 
L 410.079056 80.601517 
L 410.010296 81.081476 
L 409.834318 79.650163 
L 409.757193 78.244036 
L 409.693949 77.780772 
L 409.596902 78.244036 
L 409.410676 77.320178 
L 409.308896 77.780772 
L 409.29598 77.320178 
L 409.252973 78.244036 
L 409.185494 77.780772 
L 408.999765 77.320178 
L 408.934274 77.780772 
L 408.618528 76.862223 
L 408.399491 76.406878 
L 408.253763 76.862223 
L 408.144427 77.780772 
L 407.885023 78.244036 
L 407.843218 78.710001 
L 407.700183 78.244036 
L 407.663371 78.710001 
L 407.612704 78.244036 
L 407.560729 77.780772 
L 407.544807 78.244036 
L 407.544179 78.710001 
L 407.480152 77.780772 
L 407.47908 78.244036 
L 407.418713 79.178699 
L 407.306109 78.710001 
L 407.094131 79.178699 
L 406.902179 80.124424 
L 406.811171 79.178699 
L 406.786752 79.650163 
L 406.674227 80.601517 
L 406.536498 81.564334 
L 406.276205 81.081476 
L 406.073168 79.650163 
L 405.98284 78.710001 
L 405.792064 78.244036 
L 405.763515 77.780772 
L 405.493941 78.710001 
L 405.195921 79.178699 
L 405.106429 78.710001 
L 405.091187 79.178699 
L 404.946426 78.710001 
L 404.921641 79.178699 
L 404.899915 78.710001 
L 404.605739 79.650163 
L 404.567647 79.178699 
L 404.281889 80.124424 
L 404.072055 78.710001 
L 404.05059 79.178699 
L 403.982589 80.124424 
L 403.719629 78.710001 
L 403.533743 79.178699 
L 403.533743 79.650163 
L 403.465872 78.710001 
L 403.429453 79.650163 
L 403.402577 79.178699 
L 403.137709 80.124424 
L 403.090204 79.650163 
L 403.040687 80.124424 
L 402.302894 76.862223 
L 402.217925 77.320178 
L 402.07434 77.780772 
L 401.771301 76.862223 
L 401.638697 77.320178 
L 401.281984 76.406878 
L 401.050973 78.244036 
L 400.874524 78.710001 
L 400.780849 78.244036 
L 400.701344 78.710001 
L 400.577943 77.780772 
L 400.559433 78.244036 
L 400.549446 78.710001 
L 400.362409 79.178699 
L 400.278198 78.710001 
L 400.084155 79.178699 
L 399.989147 77.780772 
L 399.723154 77.320178 
L 399.686108 76.862223 
L 399.360297 76.406878 
L 399.342702 75.954113 
L 399.338702 76.406878 
L 398.997832 77.780772 
L 398.956759 76.862223 
L 398.780102 77.320178 
L 398.578947 75.954113 
L 398.29115 76.862223 
L 398.220822 76.406878 
L 398.108506 76.862223 
L 397.721282 77.320178 
L 397.49448 76.862223 
L 397.436388 76.406878 
L 397.248724 75.954113 
L 397.203337 75.056207 
L 397.139702 75.503899 
L 397.120878 75.056207 
L 397.106734 75.503899 
L 396.934704 75.954113 
L 396.755432 76.862223 
L 396.579925 77.780772 
L 396.499505 77.320178 
L 396.41085 77.780772 
L 395.982841 78.244036 
L 395.754261 79.178699 
L 395.507302 81.081476 
L 395.476112 80.601517 
L 395.455719 81.564334 
L 395.312579 82.050128 
L 395.182328 83.030666 
L 395.12732 82.050128 
L 395.097934 83.030666 
L 394.802503 84.524407 
L 394.570393 82.538893 
L 394.291067 83.525484 
L 394.252792 84.023384 
L 394.222909 83.525484 
L 394.205105 83.030666 
L 394.071507 83.525484 
L 394.071507 84.023384 
L 393.866405 85.02859 
L 393.854901 84.524407 
L 393.781044 84.023384 
L 393.773959 84.524407 
L 393.694349 85.535975 
L 393.452043 85.02859 
L 393.342028 84.524407 
L 393.122206 85.535975 
L 393.044296 85.02859 
L 393.041159 85.535975 
L 392.935693 86.046602 
L 392.935667 85.535975 
L 392.843299 85.02859 
L 392.784186 85.535975 
L 392.413068 85.02859 
L 392.135101 85.535975 
L 392.021452 86.046602 
L 391.460812 85.02859 
L 391.434015 84.023384 
L 391.27673 85.02859 
L 391.27673 85.535975 
L 391.256965 85.02859 
L 391.000228 84.023384 
L 390.866656 85.02859 
L 390.796197 84.524407 
L 390.786367 84.023384 
L 390.707986 85.02859 
L 390.689921 84.524407 
L 390.591853 83.525484 
L 390.559199 84.023384 
L 390.350567 83.525484 
L 390.320397 83.030666 
L 390.239794 83.525484 
L 390.211009 84.023384 
L 390.128628 83.525484 
L 390.001462 83.030666 
L 389.903028 82.050128 
L 389.450261 84.023384 
L 389.351618 83.030666 
L 389.22291 83.525484 
L 389.217707 84.023384 
L 389.120555 83.030666 
L 388.880942 84.524407 
L 388.87804 84.023384 
L 388.736625 84.524407 
L 388.446345 84.023384 
L 388.283727 84.524407 
L 388.247282 85.02859 
L 388.209215 84.023384 
L 388.088533 83.525484 
L 388.056193 84.524407 
L 388.055225 84.023384 
L 387.645413 83.030666 
L 387.568366 82.538893 
L 387.162553 83.525484 
L 387.060486 83.030666 
L 386.821422 86.046602 
L 386.656582 85.535975 
L 386.59726 86.560513 
L 386.522932 86.046602 
L 386.472944 85.535975 
L 386.439715 86.046602 
L 386.341307 86.560513 
L 386.272025 86.046602 
L 386.202847 86.560513 
L 386.165984 86.046602 
L 386.118035 85.535975 
L 385.920331 86.046602 
L 385.79612 85.535975 
L 385.789923 86.046602 
L 385.759648 85.535975 
L 385.541918 84.524407 
L 385.468244 83.525484 
L 385.421654 84.023384 
L 385.290122 84.524407 
L 385.129518 83.525484 
L 385.062536 83.030666 
L 384.983397 83.525484 
L 384.858531 82.538893 
L 384.79921 83.030666 
L 384.768987 83.525484 
L 384.654475 82.538893 
L 384.514184 83.030666 
L 384.48621 84.023384 
L 384.107431 82.538893 
L 383.959637 83.525484 
L 383.941048 83.030666 
L 383.8257 81.564334 
L 383.810065 82.050128 
L 383.691448 83.030666 
L 383.527863 84.023384 
L 383.378579 83.525484 
L 383.119593 84.524407 
L 383.078651 84.023384 
L 382.817522 84.524407 
L 382.569909 86.046602 
L 382.514849 85.535975 
L 382.375813 85.02859 
L 382.281511 86.046602 
L 382.137298 85.535975 
L 382.012956 86.560513 
L 381.863515 88.649856 
L 381.755696 88.122377 
L 381.71729 88.649856 
L 381.306745 88.122377 
L 381.288026 88.649856 
L 381.155892 88.122377 
L 381.021615 88.649856 
L 380.989562 88.122377 
L 380.802552 88.649856 
L 380.791336 88.122377 
L 380.639411 88.649856 
L 380.519121 87.598356 
L 380.373288 88.122377 
L 380.233024 87.598356 
L 380.176107 89.715376 
L 380.112734 90.253512 
L 379.986796 90.795296 
L 379.779289 90.253512 
L 379.728778 89.715376 
L 379.532905 90.795296 
L 379.367123 92.443041 
L 379.232009 91.340778 
L 379.095797 92.999927 
L 379.063692 92.443041 
L 378.979272 90.795296 
L 378.792497 91.340778 
L 378.606663 90.795296 
L 378.530426 91.340778 
L 378.20404 91.890009 
L 378.143072 91.340778 
L 377.973656 92.999927 
L 377.666827 91.340778 
L 377.641676 91.890009 
L 377.568315 92.999927 
L 377.320885 93.560721 
L 377.122292 95.26711 
L 377.066892 94.694256 
L 376.515038 96.425287 
L 376.355035 97.600497 
L 376.264889 97.010732 
L 376.173671 98.194647 
L 375.959183 97.600497 
L 375.952255 98.194647 
L 375.913875 97.600497 
L 375.749296 98.793248 
L 375.674916 100.004072 
L 375.592953 99.396366 
L 375.3707 101.233524 
L 375.151532 102.482187 
L 375.107505 101.855417 
L 374.892887 102.482187 
L 374.637927 104.392545 
L 374.49761 105.039616 
L 374.445269 104.392545 
L 374.203408 105.039616 
L 374.190676 105.691969 
L 374.150963 105.039616 
L 374.066752 105.691969 
L 373.792864 104.392545 
L 373.553721 107.012873 
L 373.353116 105.691969 
L 373.268461 106.349692 
L 373.011697 104.392545 
L 372.76445 105.691969 
L 372.691821 105.039616 
L 372.288832 104.392545 
L 372.183418 103.113913 
L 372.020618 102.482187 
L 371.99965 103.113913 
L 371.8483 102.482187 
L 371.46594 103.113913 
L 371.28808 101.855417 
L 371.142639 104.392545 
L 371.067474 103.750671 
L 370.910033 105.039616 
L 370.602863 105.691969 
L 370.494128 105.039616 
L 370.452324 106.349692 
L 370.143219 107.681603 
L 370.032472 109.03609 
L 369.921829 110.413932 
L 369.920888 111.111865 
L 369.91796 110.413932 
L 369.756492 111.111865 
L 369.509611 110.413932 
L 368.735504 113.243 
L 368.601592 113.966198 
L 368.588363 114.696 
L 368.233951 115.432529 
L 368.190211 114.696 
L 368.025005 115.432529 
L 367.992403 114.696 
L 367.740163 116.17591 
L 367.527845 116.926271 
L 367.446876 117.683744 
L 367.204884 116.926271 
L 367.114346 116.17591 
L 366.970761 116.926271 
L 366.688167 116.17591 
L 366.681396 116.926271 
L 366.661526 116.17591 
L 366.079501 117.683744 
L 365.827182 116.926271 
L 365.77722 117.683744 
L 365.759337 116.926271 
L 365.449893 115.432529 
L 365.32942 116.17591 
L 364.662792 115.432529 
L 364.489246 114.696 
L 364.318994 115.432529 
L 364.286261 116.17591 
L 364.210808 115.432529 
L 364.076923 113.966198 
L 364.075956 114.696 
L 363.476754 116.926271 
L 363.290423 116.17591 
L 363.158447 116.926271 
L 363.075595 115.432529 
L 363.047333 116.17591 
L 362.710333 115.432529 
L 362.675456 113.966198 
L 362.460184 113.243 
L 362.452105 112.526288 
L 362.397647 113.243 
L 361.963023 116.17591 
L 361.959833 115.432529 
L 361.702416 116.926271 
L 361.59214 116.17591 
L 361.449418 116.926271 
L 361.434437 116.17591 
L 361.342644 116.926271 
L 361.270669 117.683744 
L 360.937825 118.448466 
L 360.93027 117.683744 
L 360.902347 118.448466 
L 360.780123 120.00022 
L 360.688225 119.220576 
L 360.294047 118.448466 
L 360.282099 117.683744 
L 360.042931 118.448466 
L 360.037519 119.220576 
L 359.906458 118.448466 
L 359.602477 119.220576 
L 359.494737 120.00022 
L 359.494318 119.220576 
L 359.391623 118.448466 
L 359.176612 120.00022 
L 359.1609 120.787545 
L 359.096558 119.220576 
L 358.934176 118.448466 
L 358.433904 122.385855 
L 358.397067 124.016785 
L 358.355471 123.197159 
L 358.021085 122.385855 
L 357.840846 121.582704 
L 357.694856 122.385855 
L 357.691823 123.197159 
L 357.052856 122.385855 
L 356.906657 123.197159 
L 356.711019 120.787545 
L 356.678992 120.00022 
L 356.194903 120.787545 
L 356.088653 121.582704 
L 356.009174 120.00022 
L 355.736279 120.787545 
L 355.586864 122.385855 
L 355.097364 121.582704 
L 354.934956 120.00022 
L 354.664414 121.582704 
L 354.606138 120.00022 
L 354.402317 120.787545 
L 354.393323 121.582704 
L 354.346473 120.787545 
L 354.266183 121.582704 
L 353.306425 120.00022 
L 352.974052 123.197159 
L 352.823356 121.582704 
L 352.815879 122.385855 
L 352.278508 120.787545 
L 352.254743 121.582704 
L 352.238769 120.787545 
L 351.8351 120.00022 
L 351.654626 120.787545 
L 351.590755 121.582704 
L 351.39896 120.787545 
L 351.349574 120.00022 
L 351.343456 120.787545 
L 351.277494 122.385855 
L 351.161387 121.582704 
L 351.135609 122.385855 
L 350.477373 123.197159 
L 350.186569 120.787545 
L 349.858353 124.016785 
L 349.552517 123.197159 
L 349.478894 124.016785 
L 349.371075 123.197159 
L 349.124534 122.385855 
L 349.048402 121.582704 
L 348.708552 126.527342 
L 348.536287 125.681696 
L 348.296046 126.527342 
L 348.273353 128.245964 
L 347.795696 127.382033 
L 347.563717 128.245964 
L 347.055785 127.382033 
L 347.022843 129.119337 
L 347.009614 128.245964 
L 346.677895 127.382033 
L 346.555644 126.527342 
L 346.486597 127.382033 
L 346.169701 128.245964 
L 346.163322 129.119337 
L 345.902533 130.002361 
L 345.86078 130.895251 
L 345.85393 130.002361 
L 345.367306 129.119337 
L 345.261761 130.002361 
L 344.954565 130.895251 
L 344.268695 135.515776 
L 344.254655 136.472828 
L 344.174863 135.515776 
L 344.08171 136.472828 
L 343.936975 135.515776 
L 343.778802 137.44148 
L 343.754043 138.422018 
L 343.639767 137.44148 
L 343.558379 138.422018 
L 343.409984 137.44148 
L 343.258059 140.419942 
L 343.13539 139.414736 
L 342.440683 141.437954 
L 342.423846 140.419942 
L 342.3017 141.437954 
L 342.3017 142.469102 
L 342.108101 143.513729 
L 341.775466 144.572192 
L 341.495617 143.513729 
L 341.470414 144.572192 
L 341.331248 145.644864 
L 341.321731 146.73213 
L 341.231847 145.644864 
L 340.557036 146.73213 
L 340.279409 148.952073 
L 340.179512 150.085608 
L 339.976841 147.834393 
L 339.905075 150.085608 
L 339.675684 148.952073 
L 339.400437 146.73213 
L 339.328906 147.834393 
L 339.127621 146.73213 
L 338.763665 150.085608 
L 338.724213 148.952073 
L 338.608028 147.834393 
L 338.593256 148.952073 
L 338.201013 150.085608 
L 338.11526 147.834393 
L 337.444213 146.73213 
L 337.292759 147.834393 
L 337.106376 145.644864 
L 336.78135 144.572192 
L 336.770866 145.644864 
L 336.274646 147.834393 
L 336.121702 150.085608 
L 336.096603 148.952073 
L 335.897174 147.834393 
L 335.851788 146.73213 
L 335.053497 147.834393 
L 334.969913 148.952073 
L 334.96309 147.834393 
L 334.803714 145.644864 
L 334.562768 147.834393 
L 334.27016 151.235452 
L 334.116745 150.085608 
L 334.073136 152.402084 
L 333.651637 151.235452 
L 333.621049 152.402084 
L 333.587479 151.235452 
L 333.338481 152.402084 
L 332.837477 151.235452 
L 332.744115 150.085608 
L 332.445286 151.235452 
L 332.179816 148.952073 
L 331.946295 150.085608 
L 331.89466 151.235452 
L 331.829194 150.085608 
L 331.707911 151.235452 
L 331.388296 148.952073 
L 331.244764 150.085608 
L 331.172789 148.952073 
L 330.874482 150.085608 
L 330.673902 152.402084 
L 330.439858 153.585999 
L 330.433924 152.402084 
L 330.009157 153.585999 
L 329.762171 156.007785 
L 329.669855 154.787718 
L 329.383889 153.585999 
L 329.103621 154.787718 
L 328.707064 153.585999 
L 328.547479 151.235452 
L 328.358508 152.402084 
L 327.815333 153.585999 
L 327.775908 154.787718 
L 327.298512 156.007785 
L 327.014166 157.246769 
L 326.730657 153.585999 
L 326.605426 154.787718 
L 326.489711 151.235452 
L 326.393447 152.402084 
L 326.023923 150.085608 
L 325.86392 154.787718 
L 324.896501 157.246769 
L 324.588286 159.783897 
L 324.391262 158.505264 
L 324.317143 156.007785 
L 324.072824 154.787718 
L 323.916141 157.246769 
L 323.616658 158.505264 
L 323.484263 159.783897 
L 323.267056 157.246769 
L 322.931101 158.505264 
L 322.917663 159.783897 
L 322.5878 158.505264 
L 322.22025 159.783897 
L 321.862386 165.113393 
L 321.822725 166.503217 
L 321.488104 165.113393 
L 321.365931 163.747329 
L 320.774795 166.503217 
L 320.530188 165.113393 
L 320.491769 166.503217 
L 320.411755 165.113393 
L 320.345256 166.503217 
L 320.170024 163.747329 
L 319.988844 165.113393 
L 319.6343 166.503217 
L 319.140107 162.404224 
L 318.876115 163.747329 
L 318.763877 166.503217 
L 318.454707 169.35755 
L 318.441413 167.91764 
L 318.428563 169.35755 
L 318.090948 170.823881 
L 318.087105 172.317623 
L 317.839374 173.839818 
L 317.828315 175.391572 
L 317.726313 173.839818 
L 317.725594 175.391572 
L 317.237035 176.974056 
L 316.991697 175.391572 
L 316.948676 173.839818 
L 316.80398 175.391572 
L 316.369958 176.974056 
L 316.267512 178.588511 
L 316.116946 173.839818 
L 316.03165 175.391572 
L 315.969283 176.974056 
L 315.773057 175.391572 
L 315.586386 176.974056 
L 314.913235 175.391572 
L 314.811324 176.974056 
L 314.557032 178.588511 
L 314.321249 176.974056 
L 314.214201 175.391572 
L 314.176409 176.974056 
L 313.997229 178.588511 
L 313.364092 180.236257 
L 313.165604 178.588511 
L 313.089955 183.637316 
L 312.3973 185.393713 
L 311.988468 183.637316 
L 311.145301 185.393713 
L 311.127104 189.02674 
L 310.893975 190.907128 
L 310.639748 194.806088 
L 310.472738 192.832832 
L 309.78088 189.02674 
L 309.590458 187.189582 
L 309.516652 185.393713 
L 308.444944 181.918694 
L 308.32085 183.637316 
L 308.25562 181.918694 
L 307.098471 183.637316 
L 306.692894 181.918694 
L 306.417268 183.637316 
L 306.301278 187.189582 
L 306.151733 185.393713 
L 305.734051 187.189582 
L 305.459888 189.02674 
L 304.901092 185.393713 
L 304.697245 183.637316 
L 304.584994 187.189582 
L 304.31857 189.02674 
L 303.987374 187.189582 
L 303.432095 189.02674 
L 303.017589 187.189582 
L 302.990543 185.393713 
L 301.998248 189.02674 
L 301.771511 190.907128 
L 301.165106 192.832832 
L 301.109536 194.806088 
L 300.822158 196.829306 
L 300.656364 198.905081 
L 300.015945 194.806088 
L 299.491281 187.189582 
L 299.026055 185.393713 
L 298.943256 183.637316 
L 298.437076 185.393713 
L 298.434252 187.189582 
L 298.259843 183.637316 
L 297.815638 181.918694 
L 297.114159 183.637316 
L 297.057269 185.393713 
L 296.58943 187.189582 
L 296.379229 185.393713 
L 296.295528 181.918694 
L 296.169996 183.637316 
L 295.675502 181.918694 
L 294.351305 183.637316 
L 293.953845 185.393713 
L 293.208157 187.189582 
L 293.082285 185.393713 
L 292.726107 187.189582 
L 292.266765 183.637316 
L 292.019256 185.393713 
L 291.743695 189.02674 
L 291.50837 187.189582 
L 291.35885 183.637316 
L 291.355648 185.393713 
L 290.792041 183.637316 
L 290.623371 187.189582 
L 289.891918 189.02674 
L 289.654109 190.907128 
L 289.318834 189.02674 
L 289.177655 187.189582 
L 289.003847 189.02674 
L 289.003847 190.907128 
L 288.869321 192.832832 
L 288.102874 187.189582 
L 287.734095 185.393713 
L 287.540418 183.637316 
L 287.343499 185.393713 
L 286.444617 181.918694 
L 286.310863 180.236257 
L 285.698262 178.588511 
L 285.693347 180.236257 
L 285.684706 178.588511 
L 285.377654 176.974056 
L 284.96992 178.588511 
L 284.402758 176.974056 
L 284.39983 175.391572 
L 284.26886 176.974056 
L 284.184361 175.391572 
L 283.886669 176.974056 
L 283.345128 178.588511 
L 283.022795 180.236257 
L 282.968022 178.588511 
L 282.735625 176.974056 
L 282.72271 175.391572 
L 282.555386 173.839818 
L 282.371343 175.391572 
L 281.77869 176.974056 
L 281.665433 175.391572 
L 280.688197 178.588511 
L 280.680105 176.974056 
L 280.286058 178.588511 
L 279.831578 181.918694 
L 279.760675 180.236257 
L 279.419334 181.918694 
L 279.17159 180.236257 
L 279.057523 178.588511 
L 279.020542 181.918694 
L 278.302971 183.637316 
L 277.817876 187.189582 
L 277.666762 185.393713 
L 277.23223 189.02674 
L 277.199432 187.189582 
L 277.163915 189.02674 
L 276.402474 187.189582 
L 276.33859 185.393713 
L 275.902882 183.637316 
L 275.79237 178.588511 
L 275.248581 176.974056 
L 274.574685 180.236257 
L 274.444721 181.918694 
L 274.075628 183.637316 
L 274.030974 181.918694 
L 273.908736 183.637316 
L 273.829558 181.918694 
L 273.747203 183.637316 
L 273.405445 180.236257 
L 273.103308 181.918694 
L 272.974547 185.393713 
L 272.0085 187.189582 
L 271.682834 189.02674 
L 271.570583 185.393713 
L 271.520124 187.189582 
L 270.978205 185.393713 
L 270.686983 187.189582 
L 270.565948 185.393713 
L 270.519005 187.189582 
L 270.19411 189.02674 
L 269.792154 192.832832 
L 269.383884 194.806088 
L 269.017693 192.832832 
L 268.765126 194.806088 
L 268.555527 198.905081 
L 268.267691 201.036216 
L 268.18782 207.793436 
L 267.961907 205.47696 
L 267.940782 203.225745 
L 267.660384 205.47696 
L 267.447465 201.036216 
L 267.352195 203.225745 
L 267.216937 201.036216 
L 266.994436 205.47696 
L 266.994436 207.793436 
L 266.885309 205.47696 
L 266.540871 207.793436 
L 265.747403 210.17907 
L 265.484182 212.638121 
L 265.192307 210.17907 
L 265.03565 212.638121 
L 264.300157 210.17907 
L 264.115055 212.638121 
L 264.072806 207.793436 
L 263.338621 210.17907 
L 263.14714 212.638121 
L 262.633482 217.795576 
L 262.414249 220.504745 
L 262.196702 217.795576 
L 261.209531 215.175249 
L 260.638669 223.308992 
L 259.659172 220.504745 
L 259.584295 217.795576 
L 259.576556 220.504745 
L 258.634379 223.308992 
L 258.243953 220.504745 
L 258.168736 223.308992 
L 257.41825 220.504745 
L 255.935761 223.308992 
L 255.688266 226.215233 
L 255.22976 223.308992 
L 255.215812 226.215233 
L 255.065926 223.308992 
L 254.968316 226.215233 
L 254.816614 223.308992 
L 254.469783 220.504745 
L 254.326068 226.215233 
L 253.248437 229.23117 
L 253.220241 226.215233 
L 252.637327 229.23117 
L 252.590162 232.365408 
L 252.406786 235.627609 
L 251.814891 229.23117 
L 251.424543 232.365408 
L 251.336489 235.627609 
L 250.858532 232.365408 
L 250.316024 235.627609 
L 250.159314 232.365408 
L 250.053116 235.627609 
L 249.616284 229.23117 
L 249.087122 232.365408 
L 248.950204 239.028668 
L 247.108846 235.627609 
L 246.451643 239.028668 
L 245.571585 235.627609 
L 245.068385 232.365408 
L 244.767281 235.627609 
L 244.383547 232.365408 
L 244.320448 235.627609 
L 243.075076 232.365408 
L 242.847803 235.627609 
L 242.335479 232.365408 
L 242.293269 226.215233 
L 241.789062 229.23117 
L 241.637569 232.365408 
L 241.545397 229.23117 
L 240.088033 232.365408 
L 239.867767 229.23117 
L 239.794171 226.215233 
L 239.713477 229.23117 
L 238.94797 232.365408 
L 238.946794 229.23117 
L 238.525936 232.365408 
L 238.209942 235.627609 
L 238.096083 239.028668 
L 237.341623 232.365408 
L 236.655348 235.627609 
L 236.524116 229.23117 
L 235.952523 232.365408 
L 235.23303 235.627609 
L 234.917481 232.365408 
L 234.807505 239.028668 
L 234.778472 235.627609 
L 234.565723 232.365408 
L 233.931369 235.627609 
L 233.689129 239.028668 
L 233.619611 242.580934 
L 233.191759 239.028668 
L 232.863321 242.580934 
L 232.695671 246.29848 
L 232.62729 242.580934 
L 232.12311 246.29848 
L 231.126553 250.19744 
L 231.08284 254.296432 
L 230.915137 258.617097 
L 230.582542 254.296432 
L 230.108859 258.617097 
L 229.88773 268.029473 
L 229.867024 263.184788 
L 229.690994 268.029473 
L 229.658719 263.184788 
L 228.876728 268.029473 
L 228.406863 263.184788 
L 228.382274 258.617097 
L 227.165621 254.296432 
L 226.939394 250.19744 
L 226.751952 254.296432 
L 225.648165 250.19744 
L 225.595471 246.29848 
L 225.573862 250.19744 
L 225.083774 246.29848 
L 224.622274 250.19744 
L 224.297313 246.29848 
L 223.354614 258.617097 
L 223.24435 254.296432 
L 222.823897 250.19744 
L 222.24714 254.296432 
L 221.373893 250.19744 
L 220.763501 246.29848 
L 219.80969 242.580934 
L 219.678838 246.29848 
L 219.561071 242.580934 
L 218.908025 246.29848 
L 218.715877 239.028668 
L 218.561808 246.29848 
L 218.529429 250.19744 
L 217.945782 254.296432 
L 217.803335 263.184788 
L 217.096458 258.617097 
L 215.221399 263.184788 
L 215.170888 258.617097 
L 214.632132 254.296432 
L 213.945791 250.19744 
L 213.177605 246.29848 
L 212.976529 250.19744 
L 212.578357 246.29848 
L 211.832701 250.19744 
L 211.024318 246.29848 
L 210.266551 235.627609 
L 210.059717 239.028668 
L 209.966074 242.580934 
L 209.45124 246.29848 
L 208.84641 242.580934 
L 208.377904 246.29848 
L 208.152389 242.580934 
L 207.710341 239.028668 
L 206.662731 235.627609 
L 206.276167 232.365408 
L 205.696646 235.627609 
L 205.387783 232.365408 
L 204.190503 229.23117 
L 203.543771 226.215233 
L 202.422074 229.23117 
L 202.402773 226.215233 
L 201.572932 229.23117 
L 201.127368 232.365408 
L 200.954377 226.215233 
L 200.159648 223.308992 
L 199.53804 226.215233 
L 198.222379 229.23117 
L 197.955452 232.365408 
L 197.79386 229.23117 
L 197.67159 223.308992 
L 197.632223 226.215233 
L 197.373165 220.504745 
L 197.32753 223.308992 
L 196.756852 220.504745 
L 196.224612 223.308992 
L 196.07206 226.215233 
L 195.992601 223.308992 
L 195.521937 220.504745 
L 195.236461 223.308992 
L 194.875819 217.795576 
L 194.254088 215.175249 
L 193.913499 217.795576 
L 193.677154 215.175249 
L 192.967237 212.638121 
L 192.773978 215.175249 
L 192.751226 217.795576 
L 192.334629 215.175249 
L 192.333185 217.795576 
L 192.180776 220.504745 
L 192.162724 223.308992 
L 191.949118 226.215233 
L 191.917412 229.23117 
L 191.603653 232.365408 
L 191.397283 229.23117 
L 191.384315 226.215233 
L 191.2556 229.23117 
L 190.296273 232.365408 
L 190.225115 235.627609 
L 189.84278 232.365408 
L 189.230839 235.627609 
L 189.108647 232.365408 
L 188.18017 229.23117 
L 187.813313 232.365408 
L 187.801097 239.028668 
L 187.387723 229.23117 
L 187.325604 232.365408 
L 187.01744 226.215233 
L 185.968739 232.365408 
L 184.984915 229.23117 
L 183.659462 226.215233 
L 182.274231 229.23117 
L 181.872693 223.308992 
L 181.745612 226.215233 
L 180.618477 232.365408 
L 180.575601 229.23117 
L 180.183142 232.365408 
L 180.051832 235.627609 
L 179.852716 229.23117 
L 179.131054 226.215233 
L 176.973075 220.504745 
L 176.827085 223.308992 
L 176.81864 226.215233 
L 176.633787 223.308992 
L 176.578988 220.504745 
L 175.115154 235.627609 
L 174.445068 239.028668 
L 174.250299 235.627609 
L 173.241213 239.028668 
L 172.764007 235.627609 
L 172.648678 239.028668 
L 172.043136 235.627609 
L 171.310552 232.365408 
L 171.047684 229.23117 
L 169.916242 232.365408 
L 169.083551 235.627609 
L 168.952078 232.365408 
L 168.267848 229.23117 
L 167.923835 235.627609 
L 167.629136 226.215233 
L 167.24065 229.23117 
L 166.888225 226.215233 
L 165.722148 223.308992 
L 165.675043 217.795576 
L 164.982074 220.504745 
L 164.790861 223.308992 
L 164.747357 220.504745 
L 164.340388 223.308992 
L 164.292949 220.504745 
L 163.626288 217.795576 
L 162.650084 215.175249 
L 161.831826 217.795576 
L 161.822459 220.504745 
L 161.2385 217.795576 
L 161.1197 220.504745 
L 160.742927 223.308992 
L 160.491059 226.215233 
L 160.429614 223.308992 
L 160.133745 220.504745 
L 160.034684 226.215233 
L 159.810222 229.23117 
L 159.397389 226.215233 
L 159.271021 229.23117 
L 158.985858 232.365408 
L 158.882869 235.627609 
L 158.715754 232.365408 
L 158.371113 235.627609 
L 157.883659 229.23117 
L 157.8527 232.365408 
L 157.781964 229.23117 
L 157.584022 232.365408 
L 157.540727 235.627609 
L 157.528677 232.365408 
L 156.74188 229.23117 
L 155.08044 232.365408 
L 155.038024 235.627609 
L 154.092436 232.365408 
L 154.091348 229.23117 
L 153.935988 232.365408 
L 152.28835 235.627609 
L 151.476705 239.028668 
L 151.105707 246.29848 
L 150.449043 242.580934 
L 150.267373 239.028668 
L 150.148112 242.580934 
L 149.695962 246.29848 
L 149.560682 250.19744 
L 149.560682 254.296432 
L 148.763423 258.617097 
L 146.918179 254.296432 
L 146.732868 258.617097 
L 145.840657 254.296432 
L 145.233857 258.617097 
L 145.056954 263.184788 
L 143.929359 268.029473 
L 143.725851 273.186928 
L 142.821091 268.029473 
L 140.823621 263.184788 
L 140.796764 268.029473 
L 140.700262 263.184788 
L 137.60293 258.617097 
L 137.1855 254.296432 
L 136.790073 258.617097 
L 136.736572 254.296432 
L 135.230449 250.19744 
L 135.091486 246.29848 
L 134.132597 250.19744 
L 133.316138 254.296432 
L 133.289785 258.617097 
L 132.954637 263.184788 
L 132.822452 258.617097 
L 132.351811 273.186928 
L 131.563004 284.622522 
L 130.389228 291.018961 
L 129.384449 284.622522 
L 128.864575 278.700344 
L 128.348883 284.622522 
L 126.523172 291.018961 
L 125.864167 284.622522 
L 123.634787 278.700344 
L 121.810666 273.186928 
L 120.314834 278.700344 
L 119.282906 284.622522 
L 118.687651 278.700344 
L 117.847562 291.018961 
L 117.743779 278.700344 
L 116.924603 273.186928 
L 116.855164 268.029473 
L 115.952202 273.186928 
L 115.152854 268.029473 
L 114.62064 263.184788 
L 112.877754 268.029473 
L 112.669142 273.186928 
L 111.779692 278.700344 
L 111.320597 273.186928 
L 110.460135 278.700344 
L 110.390402 284.622522 
L 109.838276 278.700344 
L 109.499404 284.622522 
L 108.479147 291.018961 
L 108.455387 284.622522 
L 108.384902 291.018961 
L 108.303624 284.622522 
L 107.881718 297.972286 
L 107.881718 305.588792 
L 107.180715 297.972286 
L 104.703989 291.018961 
L 103.511556 284.622522 
L 103.039369 297.972286 
L 103.039369 577 
L 103.039369 577 
" clip-path="url(#p5ba9e7b48d)" style="fill: none; stroke: #1f77b4; stroke-width: 1.5; stroke-linecap: square"/>
   </g>
   <g id="line2d_32">
    <path d="M 469.332914 489.59488 
L 464.374432 434.203528 
L 464.374432 401.801665 
L 462.642344 378.812177 
L 458.19684 360.980144 
L 457.002279 378.812177 
L 455.898988 401.801665 
L 452.438445 378.812177 
L 452.055326 360.980144 
L 450.398795 346.410313 
L 446.106314 334.091696 
L 445.390064 323.420825 
L 444.543013 314.008449 
L 438.712304 323.420825 
L 438.324218 334.091696 
L 430.910521 323.420825 
L 428.637637 314.008449 
L 428.182072 305.588792 
L 426.912869 297.972286 
L 425.581809 284.622522 
L 423.311461 278.700344 
L 422.600806 273.186928 
L 421.262765 268.029473 
L 420.21775 263.184788 
L 419.407066 268.029473 
L 418.859865 263.184788 
L 417.390685 258.617097 
L 416.714801 254.296432 
L 416.614433 250.19744 
L 415.660505 246.29848 
L 414.676275 250.19744 
L 414.103348 254.296432 
L 413.586161 250.19744 
L 412.471524 246.29848 
L 411.904897 242.580934 
L 411.310977 235.627609 
L 410.161306 232.365408 
L 410.008832 223.308992 
L 409.968282 226.215233 
L 409.966347 223.308992 
L 409.701008 220.504745 
L 409.243038 207.793436 
L 408.766898 205.47696 
L 408.099642 203.225745 
L 407.20012 201.036216 
L 405.658493 203.225745 
L 405.416057 205.47696 
L 405.303688 201.036216 
L 405.061566 198.905081 
L 404.958871 196.829306 
L 404.315145 198.905081 
L 403.856965 201.036216 
L 403.598372 196.829306 
L 403.315961 198.905081 
L 402.906384 196.829306 
L 402.536075 198.905081 
L 402.046261 196.829306 
L 401.831381 192.832832 
L 401.01939 194.806088 
L 400.770156 192.832832 
L 400.083318 190.907128 
L 398.934301 189.02674 
L 398.360119 187.189582 
L 397.931352 183.637316 
L 396.881082 181.918694 
L 396.872454 183.637316 
L 396.587664 185.393713 
L 396.544081 183.637316 
L 395.557969 181.918694 
L 394.73539 175.391572 
L 394.51183 173.839818 
L 394.487673 172.317623 
L 393.88583 170.823881 
L 393.86298 169.35755 
L 393.609223 167.91764 
L 393.249765 165.113393 
L 393.002884 163.747329 
L 392.980609 162.404224 
L 392.794513 161.083321 
L 392.323863 162.404224 
L 391.797656 159.783897 
L 391.577285 162.404224 
L 391.456499 161.083321 
L 391.373621 162.404224 
L 391.146427 161.083321 
L 391.087184 162.404224 
L 390.89701 161.083321 
L 390.686051 158.505264 
L 390.674705 159.783897 
L 389.732071 161.083321 
L 389.419384 159.783897 
L 388.978565 158.505264 
L 388.714664 157.246769 
L 388.660911 156.007785 
L 388.635943 157.246769 
L 388.423416 158.505264 
L 387.978779 154.787718 
L 387.907667 156.007785 
L 387.712865 154.787718 
L 387.695139 156.007785 
L 387.630014 154.787718 
L 387.493227 152.402084 
L 387.023361 151.235452 
L 386.710204 150.085608 
L 386.376027 147.834393 
L 386.002791 146.73213 
L 385.899913 144.572192 
L 385.895756 145.644864 
L 385.633423 144.572192 
L 385.37998 142.469102 
L 385.067451 141.437954 
L 384.924389 140.419942 
L 384.917722 141.437954 
L 384.087953 139.414736 
L 383.953519 136.472828 
L 383.508752 138.422018 
L 383.078495 137.44148 
L 382.875144 136.472828 
L 382.844555 135.515776 
L 382.528731 134.570051 
L 382.528731 133.635388 
L 382.399108 132.71153 
L 382.124749 133.635388 
L 381.914418 132.71153 
L 381.824769 131.79823 
L 380.900698 130.895251 
L 380.46312 131.79823 
L 379.871761 132.71153 
L 379.710634 130.895251 
L 379.350809 131.79823 
L 379.129994 132.71153 
L 378.873701 131.79823 
L 378.794092 130.002361 
L 378.532831 129.119337 
L 378.377769 126.527342 
L 378.191543 124.016785 
L 378.050834 124.844905 
L 377.599426 120.787545 
L 377.249275 120.00022 
L 377.132645 119.220576 
L 377.038735 120.00022 
L 376.617367 117.683744 
L 376.411428 118.448466 
L 376.399924 117.683744 
L 376.12737 116.926271 
L 376.102323 116.17591 
L 375.961719 115.432529 
L 375.943235 114.696 
L 375.613843 116.17591 
L 375.333968 115.432529 
L 375.19101 113.966198 
L 374.985359 115.432529 
L 374.798192 116.926271 
L 374.657274 116.17591 
L 374.342182 116.926271 
L 374.124217 114.696 
L 373.767896 113.966198 
L 373.532283 114.696 
L 373.479838 115.432529 
L 373.422189 114.696 
L 373.276879 113.243 
L 373.046391 113.966198 
L 373.03677 113.243 
L 373.009606 114.696 
L 372.798699 113.966198 
L 372.780712 113.243 
L 372.73828 114.696 
L 372.294976 113.966198 
L 371.96412 112.526288 
L 371.891857 110.413932 
L 371.891805 111.111865 
L 371.180339 110.413932 
L 371.148809 111.111865 
L 370.834136 110.413932 
L 370.77769 109.722041 
L 370.472638 109.03609 
L 370.087061 104.392545 
L 370.050302 105.039616 
L 370.040367 104.392545 
L 369.654006 103.750671 
L 369.511311 101.855417 
L 369.284195 102.482187 
L 368.939351 101.233524 
L 368.827872 101.855417 
L 368.790825 101.233524 
L 368.332986 102.482187 
L 367.971854 101.855417 
L 367.912532 101.233524 
L 367.709705 101.855417 
L 367.703404 101.233524 
L 367.219158 101.855417 
L 366.775332 98.793248 
L 366.438776 98.194647 
L 366.371977 98.793248 
L 366.32897 98.194647 
L 366.32897 97.600497 
L 366.238955 98.194647 
L 365.750919 97.600497 
L 365.720644 98.194647 
L 365.547568 98.793248 
L 365.33742 96.425287 
L 365.005544 95.8441 
L 364.968497 95.26711 
L 364.263228 94.125479 
L 364.153134 91.890009 
L 363.678248 91.340778 
L 363.594848 90.795296 
L 363.296018 91.890009 
L 363.151362 92.443041 
L 362.915435 90.253512 
L 362.616004 89.715376 
L 362.584631 90.253512 
L 362.439843 90.795296 
L 362.40298 89.715376 
L 362.185825 89.18084 
L 361.922709 89.715376 
L 361.534805 86.560513 
L 361.417783 87.07775 
L 361.270826 86.560513 
L 361.270669 86.046602 
L 361.043919 85.02859 
L 360.79913 86.560513 
L 360.714317 86.046602 
L 360.427619 87.07775 
L 360.231458 86.046602 
L 360.131351 86.560513 
L 360.061938 86.046602 
L 359.964106 87.07775 
L 359.791945 86.046602 
L 359.743108 85.535975 
L 359.492959 86.560513 
L 359.377192 86.046602 
L 359.099774 85.535975 
L 358.753179 86.046602 
L 358.697962 86.560513 
L 358.668 86.046602 
L 358.587188 84.524407 
L 358.07625 85.535975 
L 357.746569 86.046602 
L 357.653548 86.560513 
L 357.641522 86.046602 
L 357.5919 85.535975 
L 357.481858 86.046602 
L 357.245252 85.02859 
L 357.183473 85.535975 
L 356.816903 84.023384 
L 356.523747 84.524407 
L 356.386698 83.030666 
L 356.323716 83.525484 
L 356.228969 83.030666 
L 356.013566 83.525484 
L 355.946009 83.030666 
L 355.633741 82.538893 
L 355.631493 83.030666 
L 355.323879 82.050128 
L 355.196608 80.601517 
L 355.017467 81.081476 
L 354.728154 79.178699 
L 354.705147 79.650163 
L 354.41437 78.710001 
L 354.367597 78.244036 
L 354.157554 78.710001 
L 354.125945 79.178699 
L 353.924346 78.710001 
L 353.883274 79.178699 
L 353.825312 78.710001 
L 353.809102 78.244036 
L 353.563528 77.780772 
L 353.520547 77.320178 
L 353.118055 77.780772 
L 353.063492 77.320178 
L 352.907933 77.780772 
L 352.80095 76.862223 
L 352.630489 75.954113 
L 352.558828 76.406878 
L 352.197252 76.862223 
L 352.148336 75.954113 
L 351.923651 75.503899 
L 351.75936 75.954113 
L 351.498126 75.056207 
L 351.316893 74.168277 
L 351.139635 74.611009 
L 350.649376 74.168277 
L 350.622709 73.727985 
L 350.584486 74.168277 
L 350.127535 73.727985 
L 349.876393 72.854612 
L 349.858249 72.421479 
L 349.468515 71.990681 
L 349.454685 72.421479 
L 349.363702 71.990681 
L 349.131776 71.13599 
L 348.362061 66.994503 
L 348.297981 66.191352 
L 348.290425 66.591918 
L 347.875044 66.994503 
L 347.872194 67.399125 
L 347.778049 66.591918 
L 347.637105 66.191352 
L 347.324654 65.792783 
L 347.286849 65.396193 
L 347.159552 65.792783 
L 346.873193 64.608868 
L 346.714837 65.001561 
L 346.629894 64.608868 
L 346.598782 65.001561 
L 346.321652 64.218095 
L 346.164446 63.442237 
L 345.859943 64.218095 
L 345.703966 65.001561 
L 345.616226 65.396193 
L 345.485713 65.001561 
L 345.168374 65.396193 
L 344.933074 64.218095 
L 344.557067 63.829224 
L 344.229949 64.608868 
L 344.120665 64.218095 
L 344.057971 64.608868 
L 344.025186 64.218095 
L 343.892007 63.057114 
L 343.727193 63.442237 
L 343.712448 63.829224 
L 343.317695 63.442237 
L 343.187679 63.829224 
L 343.117089 63.442237 
L 342.932719 63.829224 
L 342.690257 63.442237 
L 342.508763 61.912758 
L 342.324184 61.534919 
L 342.298405 61.158858 
L 342.130506 61.534919 
L 341.91309 60.784558 
L 341.624091 60.412003 
L 341.288973 59.304648 
L 341.156316 59.672064 
L 341.034693 58.938914 
L 341.029098 59.304648 
L 340.91605 60.041177 
L 340.769014 59.672064 
L 340.234572 59.304648 
L 340.154204 59.672064 
L 340.142622 59.304648 
L 339.977677 60.041177 
L 339.614585 61.534919 
L 339.555995 61.158858 
L 339.53725 60.784558 
L 339.224564 61.158858 
L 339.100169 61.534919 
L 338.968715 60.784558 
L 338.660944 61.158858 
L 338.347317 62.292392 
L 338.264675 61.534919 
L 337.885634 60.784558 
L 337.831358 61.158858 
L 337.788089 60.784558 
L 337.286484 60.412003 
L 337.108598 61.158858 
L 336.789533 60.041177 
L 336.773245 60.412003 
L 336.75748 60.041177 
L 336.622523 59.672064 
L 336.557266 60.041177 
L 336.451905 59.672064 
L 336.267953 60.041177 
L 336.253312 59.672064 
L 336.107061 59.304648 
L 336.036785 60.041177 
L 336.03072 59.672064 
L 335.85686 59.304648 
L 335.85686 58.938914 
L 335.649117 59.304648 
L 335.576697 60.041177 
L 335.564383 59.672064 
L 335.507467 58.938914 
L 335.454446 59.304648 
L 334.870042 59.672064 
L 334.857048 58.938914 
L 334.584363 59.304648 
L 334.484073 58.212429 
L 333.816948 57.492489 
L 333.816608 57.851648 
L 333.544969 58.574846 
L 333.526406 58.212429 
L 333.219053 59.304648 
L 333.12347 59.672064 
L 333.083992 59.304648 
L 332.743174 59.672064 
L 332.419403 58.574846 
L 332.074245 60.784558 
L 332.054611 60.412003 
L 332.004989 60.041177 
L 332.002976 60.412003 
L 331.889117 60.784558 
L 331.671466 60.412003 
L 331.333759 61.158858 
L 331.061675 60.041177 
L 330.820049 60.412003 
L 330.672909 61.158858 
L 330.617431 60.784558 
L 330.160114 59.672064 
L 330.054726 60.041177 
L 329.662483 60.412003 
L 329.558115 60.784558 
L 329.398686 60.412003 
L 329.381327 61.158858 
L 329.28624 60.784558 
L 329.146158 61.534919 
L 328.864348 60.784558 
L 328.796844 61.534919 
L 328.703718 61.158858 
L 328.373306 61.534919 
L 328.305383 61.158858 
L 328.211995 60.784558 
L 328.18687 61.158858 
L 328.042789 60.784558 
L 327.968827 61.158858 
L 327.722678 61.534919 
L 327.676193 61.158858 
L 327.395246 60.412003 
L 327.221648 61.158858 
L 327.183582 60.784558 
L 327.126744 61.158858 
L 327.088102 61.534919 
L 326.864621 61.158858 
L 326.718944 61.534919 
L 326.117311 62.292392 
L 326.0388 61.912758 
L 325.64002 62.292392 
L 325.436408 61.534919 
L 325.342864 61.912758 
L 325.018883 61.534919 
L 325.004922 61.912758 
L 325.00134 61.534919 
L 324.917704 61.158858 
L 324.797362 61.534919 
L 324.588756 59.672064 
L 324.506925 60.041177 
L 324.30258 59.672064 
L 323.828218 60.412003 
L 323.385751 61.158858 
L 323.266193 60.784558 
L 323.180649 61.158858 
L 322.752535 60.784558 
L 322.357442 60.041177 
L 322.311611 60.412003 
L 322.069867 59.672064 
L 322.015736 60.041177 
L 322.013853 59.672064 
L 321.987565 59.304648 
L 321.779221 59.672064 
L 321.699285 59.304648 
L 321.649401 59.672064 
L 321.175287 58.212429 
L 321.061572 58.574846 
L 320.516384 58.938914 
L 320.395663 59.304648 
L 320.287216 58.938914 
L 319.951732 59.304648 
L 319.940987 59.672064 
L 319.910411 58.938914 
L 319.665177 59.672064 
L 319.656602 60.041177 
L 319.591149 59.304648 
L 319.426427 58.574846 
L 319.331484 58.938914 
L 319.01098 59.304648 
L 319.00566 58.938914 
L 318.610985 59.672064 
L 318.453583 59.304648 
L 318.104752 60.784558 
L 317.958488 59.672064 
L 317.920735 59.304648 
L 317.882107 59.672064 
L 317.784746 60.784558 
L 317.773308 60.412003 
L 317.739045 60.041177 
L 317.492844 60.412003 
L 317.396725 61.158858 
L 317.303102 61.534919 
L 317.095019 61.158858 
L 317.064169 60.784558 
L 316.974481 61.158858 
L 316.653036 60.784558 
L 316.329931 62.673838 
L 316.324977 62.292392 
L 315.953936 63.442237 
L 315.507744 63.057114 
L 315.2043 62.292392 
L 315.114782 62.673838 
L 315.018819 62.292392 
L 314.69476 61.912758 
L 314.690825 62.292392 
L 314.412297 61.912758 
L 314.250489 62.292392 
L 313.997229 61.912758 
L 313.933019 62.292392 
L 313.666595 61.912758 
L 313.615012 62.292392 
L 313.038543 61.912758 
L 312.922449 60.784558 
L 312.613566 61.912758 
L 312.071895 61.534919 
L 311.779915 61.158858 
L 311.722215 61.534919 
L 311.696423 61.158858 
L 311.60782 61.534919 
L 311.581323 61.158858 
L 311.405384 60.784558 
L 311.351174 61.158858 
L 311.316285 60.784558 
L 311.219302 60.041177 
L 311.100162 60.412003 
L 311.083365 60.041177 
L 310.960173 60.784558 
L 310.800418 60.412003 
L 310.741501 61.158858 
L 310.472947 61.534919 
L 310.440828 61.158858 
L 310.406462 61.534919 
L 310.361742 61.912758 
L 310.129515 62.292392 
L 310.081409 63.442237 
L 309.791547 64.608868 
L 309.512404 64.218095 
L 309.450455 64.608868 
L 309.333956 64.218095 
L 309.321406 64.608868 
L 309.026394 65.396193 
L 308.551887 63.829224 
L 308.332915 64.218095 
L 308.303843 63.829224 
L 308.165958 64.218095 
L 307.990594 63.442237 
L 307.903299 64.218095 
L 307.883703 63.829224 
L 307.872736 63.442237 
L 307.657411 62.673838 
L 307.525369 61.912758 
L 307.487682 62.292392 
L 307.237598 62.673838 
L 307.150237 63.057114 
L 307.001698 62.673838 
L 306.991737 63.057114 
L 306.713705 62.673838 
L 306.593507 62.292392 
L 306.482785 63.057114 
L 306.468471 62.673838 
L 305.930173 63.057114 
L 305.648507 64.218095 
L 305.577224 64.608868 
L 305.507406 64.218095 
L 305.312369 63.829224 
L 305.203988 63.057114 
L 304.997068 62.292392 
L 304.997068 62.673838 
L 304.887223 63.442237 
L 304.718919 62.673838 
L 304.571713 62.292392 
L 304.547386 62.673838 
L 304.226255 63.057114 
L 304.199666 63.442237 
L 304.024394 63.829224 
L 303.914131 64.218095 
L 303.830783 63.829224 
L 303.757918 64.218095 
L 303.572725 63.057114 
L 303.56181 63.442237 
L 303.471311 63.057114 
L 303.365832 63.442237 
L 303.217227 62.673838 
L 303.13886 63.057114 
L 303.064401 63.442237 
L 303.040322 63.057114 
L 302.910607 62.673838 
L 302.893521 63.057114 
L 302.150369 63.829224 
L 302.125937 64.218095 
L 301.86916 64.608868 
L 301.712778 63.829224 
L 301.455805 64.608868 
L 301.236912 64.218095 
L 301.101 64.608868 
L 300.852355 64.218095 
L 300.771974 63.829224 
L 300.580271 64.218095 
L 300.520936 64.608868 
L 300.341808 64.218095 
L 300.340383 63.829224 
L 300.120875 63.442237 
L 300.030965 62.673838 
L 299.977278 62.292392 
L 299.911577 62.673838 
L 299.542314 62.292392 
L 299.517137 61.534919 
L 299.217523 60.784558 
L 298.973963 60.412003 
L 298.856705 61.158858 
L 298.758468 61.534919 
L 298.610452 61.158858 
L 298.45407 61.534919 
L 298.333531 60.784558 
L 298.228366 61.534919 
L 298.200796 61.158858 
L 298.200796 60.784558 
L 297.921183 61.158858 
L 297.88326 61.534919 
L 297.718198 61.158858 
L 296.941123 62.292392 
L 296.926312 61.912758 
L 296.703484 61.534919 
L 296.673405 61.912758 
L 296.375124 61.534919 
L 296.370615 61.912758 
L 296.199565 62.292392 
L 296.169996 61.912758 
L 296.060307 62.292392 
L 296.00045 61.912758 
L 295.930723 62.292392 
L 295.742981 61.158858 
L 295.716183 60.784558 
L 295.465289 61.912758 
L 295.114994 60.784558 
L 295.044221 61.158858 
L 294.515033 61.534919 
L 294.501543 61.912758 
L 294.374717 62.292392 
L 294.308075 61.534919 
L 294.071273 62.292392 
L 293.770626 61.912758 
L 293.579628 62.673838 
L 293.241661 63.057114 
L 293.117187 63.442237 
L 293.109893 63.829224 
L 293.030454 63.442237 
L 292.723519 63.057114 
L 292.646106 63.442237 
L 292.452664 63.057114 
L 292.436663 62.673838 
L 292.299876 63.057114 
L 292.254346 62.673838 
L 292.176135 63.057114 
L 291.737734 62.673838 
L 291.598829 62.292392 
L 291.533599 62.673838 
L 291.464748 62.292392 
L 291.296378 62.673838 
L 291.214743 63.442237 
L 291.185474 63.057114 
L 291.057628 62.673838 
L 291.011732 63.442237 
L 290.953208 63.057114 
L 290.895638 62.673838 
L 290.856108 63.057114 
L 290.53333 63.829224 
L 290.431994 63.442237 
L 290.304724 64.218095 
L 290.013986 64.608868 
L 289.90767 63.442237 
L 289.823171 63.829224 
L 289.729954 64.218095 
L 289.632318 63.829224 
L 289.420274 64.218095 
L 289.315344 65.001561 
L 289.24814 64.608868 
L 289.227368 65.001561 
L 289.02939 65.396193 
L 289.027821 65.001561 
L 288.960343 65.396193 
L 288.843556 64.608868 
L 288.794797 64.218095 
L 288.773816 64.608868 
L 288.362879 64.218095 
L 287.779456 63.829224 
L 287.621858 63.442237 
L 287.545163 63.829224 
L 287.353708 64.218095 
L 287.184541 63.829224 
L 287.076421 64.218095 
L 286.935085 63.829224 
L 286.920209 64.218095 
L 286.584346 63.829224 
L 286.014046 64.218095 
L 285.807885 63.442237 
L 285.589462 63.829224 
L 285.285626 65.001561 
L 285.098027 64.608868 
L 285.078458 65.001561 
L 284.458066 64.608868 
L 284.222362 65.001561 
L 284.101471 64.218095 
L 283.776026 64.608868 
L 283.694691 65.001561 
L 283.149882 64.218095 
L 283.145137 64.608868 
L 283.080574 63.829224 
L 283.070024 64.218095 
L 282.905354 63.829224 
L 282.891027 64.218095 
L 282.593296 63.442237 
L 282.50247 64.218095 
L 282.142724 63.829224 
L 281.947936 64.218095 
L 281.78707 63.829224 
L 281.729382 64.218095 
L 281.470292 63.829224 
L 281.396826 64.218095 
L 280.821599 64.608868 
L 280.603045 63.829224 
L 280.559371 64.218095 
L 280.38389 64.608868 
L 280.090956 63.829224 
L 279.978862 64.218095 
L 279.747459 64.608868 
L 279.728948 63.829224 
L 279.697967 64.218095 
L 279.582985 65.001561 
L 279.252625 64.218095 
L 278.999247 65.001561 
L 278.953194 64.608868 
L 278.775373 64.218095 
L 278.744902 64.608868 
L 278.242944 65.396193 
L 278.042574 65.792783 
L 277.838609 65.396193 
L 277.755705 65.792783 
L 277.600198 64.608868 
L 277.589989 65.001561 
L 277.535125 64.608868 
L 277.170987 64.218095 
L 277.128842 63.442237 
L 277.116149 63.829224 
L 277.047716 64.218095 
L 276.732572 63.442237 
L 276.35131 63.057114 
L 275.91551 63.829224 
L 275.563006 63.442237 
L 275.552757 63.057114 
L 275.469683 63.442237 
L 275.221809 62.673838 
L 275.152304 63.057114 
L 274.829056 63.442237 
L 274.478395 62.292392 
L 274.470761 61.912758 
L 274.200964 62.292392 
L 274.130022 61.912758 
L 273.773557 62.292392 
L 273.674234 63.057114 
L 273.588233 63.442237 
L 273.5752 63.057114 
L 273.313469 63.442237 
L 273.213336 64.218095 
L 272.998482 63.829224 
L 272.538878 64.218095 
L 272.525596 64.608868 
L 272.454784 64.218095 
L 272.258885 63.829224 
L 272.211616 64.218095 
L 272.014618 63.829224 
L 271.809908 64.218095 
L 271.686677 63.829224 
L 271.669591 64.218095 
L 271.478973 63.829224 
L 271.466633 64.218095 
L 271.260942 64.608868 
L 271.210013 65.001561 
L 270.853287 64.608868 
L 270.761586 64.218095 
L 270.390611 65.001561 
L 270.276072 64.608868 
L 270.122723 65.396193 
L 269.559299 66.191352 
L 269.400185 65.792783 
L 269.300209 66.191352 
L 268.993706 65.792783 
L 268.95343 66.191352 
L 268.809166 65.792783 
L 268.686079 66.191352 
L 268.65162 65.792783 
L 268.632979 66.191352 
L 267.984038 67.399125 
L 267.841682 66.994503 
L 267.695274 68.21457 
L 267.396248 67.399125 
L 267.359201 67.805807 
L 267.206714 67.399125 
L 267.04909 67.805807 
L 267.034449 68.21457 
L 267.003638 67.805807 
L 266.825439 67.399125 
L 266.794235 66.994503 
L 266.519654 67.399125 
L 266.410789 66.994503 
L 265.970754 66.591918 
L 265.835849 66.191352 
L 265.763521 66.591918 
L 265.577543 65.396193 
L 265.536549 65.792783 
L 265.14773 66.591918 
L 265.044761 66.994503 
L 264.700009 66.591918 
L 264.628007 66.191352 
L 264.482279 66.591918 
L 264.349596 65.792783 
L 264.178848 66.191352 
L 264.154873 66.591918 
L 263.866632 66.994503 
L 263.864357 66.591918 
L 263.7631 66.994503 
L 263.465879 67.399125 
L 263.441159 67.805807 
L 263.436218 67.399125 
L 263.349837 66.994503 
L 263.240057 67.805807 
L 262.997751 67.399125 
L 262.656345 68.625433 
L 262.541598 67.805807 
L 262.182401 69.03842 
L 262.148139 68.625433 
L 261.629304 69.03842 
L 261.375548 68.21457 
L 261.26595 69.03842 
L 261.166393 69.870853 
L 260.990755 69.453553 
L 260.972716 69.870853 
L 260.9081 69.453553 
L 260.882727 69.03842 
L 260.846295 69.453553 
L 260.745678 69.03842 
L 260.740711 69.453553 
L 260.376834 69.870853 
L 260.273668 70.290344 
L 260.059455 69.03842 
L 259.693264 69.453553 
L 259.663094 69.03842 
L 259.573824 69.453553 
L 259.298223 68.625433 
L 258.88781 69.03842 
L 258.824423 69.453553 
L 258.640027 69.870853 
L 258.354936 69.453553 
L 258.268842 69.870853 
L 258.024929 69.453553 
L 257.996288 69.03842 
L 257.95362 69.453553 
L 257.810022 69.03842 
L 257.535729 68.625433 
L 257.504356 67.805807 
L 257.359791 68.21457 
L 256.368385 66.994503 
L 256.263193 67.805807 
L 256.014652 68.625433 
L 256.001044 69.03842 
L 255.493857 70.712049 
L 254.770521 71.13599 
L 254.322094 71.562193 
L 254.094873 72.854612 
L 254.064834 72.421479 
L 253.615609 71.13599 
L 253.043714 70.712049 
L 253.043662 70.290344 
L 252.812964 69.870853 
L 252.773486 70.290344 
L 252.596986 69.870853 
L 252.50671 70.712049 
L 252.456578 70.290344 
L 252.424917 69.870853 
L 252.383256 70.290344 
L 252.195069 70.712049 
L 252.142218 71.13599 
L 251.708262 72.421479 
L 251.395223 71.990681 
L 249.725214 72.421479 
L 249.41807 73.290106 
L 249.36939 72.854612 
L 248.944897 74.611009 
L 248.8967 74.168277 
L 248.867902 74.611009 
L 248.831718 75.056207 
L 248.818986 74.611009 
L 248.663767 74.168277 
L 248.612982 74.611009 
L 248.450102 73.727985 
L 248.393474 74.168277 
L 248.358388 73.727985 
L 248.326126 73.290106 
L 247.980393 72.854612 
L 247.851057 71.990681 
L 247.594189 71.562193 
L 247.153317 74.168277 
L 246.914293 72.854612 
L 246.348843 72.421479 
L 246.055085 72.854612 
L 245.996038 73.727985 
L 245.712869 73.290106 
L 245.604945 72.854612 
L 245.205486 71.990681 
L 245.185826 72.421479 
L 245.001194 72.854612 
L 244.905702 72.421479 
L 244.879492 72.854612 
L 244.626912 71.990681 
L 244.473183 72.854612 
L 244.333246 72.421479 
L 244.308814 72.854612 
L 244.230734 72.421479 
L 244.189217 71.562193 
L 244.132287 71.990681 
L 243.798202 71.562193 
L 243.529464 71.990681 
L 243.330114 71.562193 
L 243.150803 72.854612 
L 242.847803 72.421479 
L 242.627563 73.290106 
L 242.463782 72.854612 
L 242.231882 73.290106 
L 242.127958 74.168277 
L 242.064244 74.611009 
L 242.050989 74.168277 
L 241.960007 73.727985 
L 241.659425 73.290106 
L 241.587424 73.727985 
L 241.195167 73.290106 
L 241.140617 72.854612 
L 241.031778 73.727985 
L 241.021464 74.168277 
L 240.891619 74.611009 
L 240.5662 75.056207 
L 240.323541 74.611009 
L 240.165643 75.056207 
L 240.069732 74.611009 
L 239.930291 75.056207 
L 239.926579 74.611009 
L 239.925899 75.056207 
L 239.57899 75.954113 
L 239.16723 77.320178 
L 239.15553 76.862223 
L 239.019227 77.320178 
L 239.018808 76.862223 
L 238.765248 77.780772 
L 238.688619 77.320178 
L 238.668265 77.780772 
L 238.414809 77.320178 
L 238.240884 76.406878 
L 237.961153 76.862223 
L 237.725461 76.406878 
L 237.631512 77.320178 
L 236.594954 76.862223 
L 236.454049 77.320178 
L 236.358387 76.862223 
L 236.214463 77.780772 
L 235.930221 78.244036 
L 235.916836 78.710001 
L 235.588698 79.178699 
L 235.544671 79.650163 
L 235.309176 80.124424 
L 235.103498 79.650163 
L 234.787191 80.124424 
L 234.604181 80.601517 
L 234.422491 80.124424 
L 234.354803 80.601517 
L 234.188656 80.124424 
L 234.049738 82.050128 
L 233.785366 81.081476 
L 233.46868 81.564334 
L 233.314768 82.050128 
L 232.883949 82.538893 
L 232.621957 83.030666 
L 232.568269 82.050128 
L 232.313623 81.564334 
L 231.909367 83.030666 
L 231.716657 82.538893 
L 231.430925 83.030666 
L 231.355865 82.538893 
L 231.329786 83.030666 
L 231.083062 84.023384 
L 230.540972 83.525484 
L 230.23707 84.023384 
L 230.167448 83.525484 
L 230.115342 84.023384 
L 229.925522 84.524407 
L 229.297992 84.023384 
L 229.240448 83.525484 
L 229.10804 84.023384 
L 228.660449 84.524407 
L 227.802811 82.050128 
L 227.580166 82.538893 
L 227.47283 82.050128 
L 227.165216 83.030666 
L 227.09626 83.525484 
L 227.06826 83.030666 
L 226.501986 83.525484 
L 226.280766 84.023384 
L 226.230987 83.525484 
L 226.207287 84.023384 
L 225.779252 85.02859 
L 225.628922 86.046602 
L 225.388656 86.560513 
L 225.269673 86.046602 
L 225.06393 87.07775 
L 224.702864 86.560513 
L 224.64234 85.535975 
L 223.959698 85.02859 
L 223.643051 85.535975 
L 223.456485 85.02859 
L 223.450694 85.535975 
L 223.168231 85.02859 
L 222.911428 85.535975 
L 222.499759 86.046602 
L 222.316056 85.535975 
L 221.983892 86.046602 
L 221.930728 85.535975 
L 221.708684 86.046602 
L 221.617558 86.560513 
L 221.498902 86.046602 
L 221.244008 86.560513 
L 221.088501 86.046602 
L 220.980303 86.560513 
L 220.455116 86.046602 
L 220.34429 86.560513 
L 219.982204 86.046602 
L 219.948229 86.560513 
L 219.387342 88.122377 
L 219.177128 87.598356 
L 218.831866 89.18084 
L 218.831722 89.715376 
L 218.49114 89.18084 
L 218.141643 89.715376 
L 217.13289 88.122377 
L 216.911813 88.649856 
L 216.850544 89.18084 
L 216.568564 88.649856 
L 216.445856 88.122377 
L 216.305657 89.18084 
L 216.06373 90.253512 
L 216.058044 90.795296 
L 215.872942 91.340778 
L 214.993316 90.795296 
L 214.898111 91.340778 
L 214.614262 90.795296 
L 214.192802 91.890009 
L 213.976157 90.795296 
L 213.664491 91.340778 
L 213.129682 91.890009 
L 213.094989 91.340778 
L 212.723674 92.999927 
L 212.609162 91.890009 
L 212.24971 92.443041 
L 211.92705 93.560721 
L 211.805321 94.125479 
L 211.451517 93.560721 
L 211.027789 95.26711 
L 210.70839 95.8441 
L 210.618264 97.010732 
L 210.432012 97.600497 
L 210.060743 97.010732 
L 210.012533 98.194647 
L 209.712958 98.793248 
L 209.555739 97.600497 
L 209.370696 98.194647 
L 209.022956 97.600497 
L 208.767977 98.194647 
L 208.720101 98.793248 
L 207.556717 98.194647 
L 207.419328 98.793248 
L 206.715543 100.004072 
L 206.591952 99.396366 
L 206.346175 100.004072 
L 206.328417 100.616433 
L 205.972501 101.233524 
L 205.860244 101.855417 
L 204.654846 102.482187 
L 204.410135 101.855417 
L 203.952126 102.482187 
L 203.817221 103.113913 
L 203.415664 103.750671 
L 203.289589 105.039616 
L 203.182731 106.349692 
L 203.000472 107.012873 
L 202.662125 107.681603 
L 202.101943 108.355977 
L 201.999941 109.03609 
L 201.77742 109.722041 
L 201.740733 109.03609 
L 201.541683 110.413932 
L 201.541533 111.111865 
L 200.68494 111.815947 
L 200.605487 111.111865 
L 200.232604 111.815947 
L 200.039554 112.526288 
L 200.024495 113.243 
L 199.672697 113.966198 
L 199.394691 115.432529 
L 198.803117 113.966198 
L 198.765364 114.696 
L 198.456443 113.243 
L 198.188954 112.526288 
L 198.177783 113.243 
L 197.781795 113.966198 
L 197.563771 114.696 
L 197.409996 116.17591 
L 196.874769 117.683744 
L 196.81918 118.448466 
L 196.596907 119.220576 
L 196.494716 118.448466 
L 196.315725 120.787545 
L 196.305307 121.582704 
L 195.286808 122.385855 
L 195.175074 121.582704 
L 194.767307 123.197159 
L 194.674358 122.385855 
L 194.517537 123.197159 
L 194.513831 124.016785 
L 194.218401 123.197159 
L 193.385573 124.016785 
L 193.374697 123.197159 
L 193.093044 124.844905 
L 192.955342 125.681696 
L 192.851098 124.016785 
L 192.525607 124.844905 
L 192.081049 127.382033 
L 191.172024 126.527342 
L 189.549885 127.382033 
L 189.497302 126.527342 
L 189.244101 125.681696 
L 189.204989 124.016785 
L 188.779438 124.844905 
L 188.573048 124.016785 
L 187.57789 124.844905 
L 187.123691 123.197159 
L 186.993466 124.844905 
L 186.969753 124.016785 
L 186.510737 124.844905 
L 186.219725 124.016785 
L 186.198887 124.844905 
L 185.774094 125.681696 
L 185.68755 127.382033 
L 185.233096 126.527342 
L 185.135048 127.382033 
L 184.716817 128.245964 
L 184.621822 127.382033 
L 184.265717 126.527342 
L 184.095001 127.382033 
L 183.888611 126.527342 
L 183.887898 127.382033 
L 183.657704 126.527342 
L 183.481387 127.382033 
L 182.623807 125.681696 
L 182.527262 126.527342 
L 182.122881 127.382033 
L 181.822411 126.527342 
L 181.233601 127.382033 
L 180.57832 125.681696 
L 180.070368 126.527342 
L 179.721707 129.119337 
L 179.433322 130.002361 
L 179.433283 130.895251 
L 179.158454 132.71153 
L 179.099263 131.79823 
L 178.734033 130.895251 
L 177.765065 131.79823 
L 177.641579 132.71153 
L 176.925682 130.895251 
L 176.882851 131.79823 
L 176.568616 132.71153 
L 176.558785 133.635388 
L 175.801103 134.570051 
L 175.631014 135.515776 
L 175.50594 134.570051 
L 175.17443 133.635388 
L 174.872619 135.515776 
L 174.746042 134.570051 
L 174.599379 135.515776 
L 173.741766 136.472828 
L 173.349431 134.570051 
L 173.232389 136.472828 
L 173.06268 135.515776 
L 172.551467 136.472828 
L 172.278311 135.515776 
L 171.236426 136.472828 
L 170.917969 137.44148 
L 170.385748 138.422018 
L 170.207052 137.44148 
L 170.116612 139.414736 
L 169.95506 140.419942 
L 169.20411 141.437954 
L 168.203474 140.419942 
L 167.838872 139.414736 
L 167.204846 140.419942 
L 167.183133 141.437954 
L 166.517394 140.419942 
L 165.682657 141.437954 
L 165.661781 140.419942 
L 165.646643 141.437954 
L 165.242472 140.419942 
L 164.69616 139.414736 
L 164.677754 140.419942 
L 164.359839 141.437954 
L 163.600143 140.419942 
L 163.348367 138.422018 
L 163.323432 139.414736 
L 163.24479 138.422018 
L 161.806015 137.44148 
L 161.796315 138.422018 
L 161.335587 137.44148 
L 160.765973 138.422018 
L 160.758908 139.414736 
L 159.921113 141.437954 
L 159.909531 140.419942 
L 159.783953 141.437954 
L 158.564078 143.513729 
L 158.201489 144.572192 
L 157.956523 143.513729 
L 157.86274 145.644864 
L 157.690439 144.572192 
L 157.665007 145.644864 
L 157.272715 144.572192 
L 157.019637 145.644864 
L 156.821653 144.572192 
L 156.784633 143.513729 
L 156.210712 144.572192 
L 156.197911 143.513729 
L 155.726643 142.469102 
L 155.199322 143.513729 
L 154.890819 142.469102 
L 154.715465 141.437954 
L 154.086243 140.419942 
L 154.044288 139.414736 
L 153.806312 140.419942 
L 153.762723 139.414736 
L 153.212771 140.419942 
L 152.667547 137.44148 
L 151.548654 140.419942 
L 150.928802 141.437954 
L 150.810254 142.469102 
L 150.723791 141.437954 
L 150.488449 140.419942 
L 150.48824 139.414736 
L 150.045836 138.422018 
L 149.365622 139.414736 
L 148.82684 141.437954 
L 148.26756 142.469102 
L 147.124657 143.513729 
L 146.954196 145.644864 
L 146.709149 146.73213 
L 146.691665 147.834393 
L 146.559312 148.952073 
L 146.449169 151.235452 
L 146.366553 150.085608 
L 145.379847 147.834393 
L 145.078831 148.952073 
L 144.962037 150.085608 
L 144.680933 151.235452 
L 143.769565 148.952073 
L 143.146617 147.834393 
L 142.00208 148.952073 
L 141.737042 150.085608 
L 141.356756 148.952073 
L 141.198845 150.085608 
L 140.663115 147.834393 
L 140.558076 146.73213 
L 139.541461 150.085608 
L 139.365437 148.952073 
L 138.991678 147.834393 
L 138.60315 148.952073 
L 137.541105 150.085608 
L 137.454891 148.952073 
L 136.742219 151.235452 
L 136.341897 152.402084 
L 135.065969 151.235452 
L 135.051622 150.085608 
L 134.985948 151.235452 
L 134.592694 152.402084 
L 134.506813 151.235452 
L 133.785818 150.085608 
L 132.785807 148.952073 
L 132.768071 150.085608 
L 132.752594 148.952073 
L 132.147676 152.402084 
L 131.492019 153.585999 
L 131.370039 154.787718 
L 129.406369 152.402084 
L 128.628481 153.585999 
L 128.386824 154.787718 
L 127.645955 153.585999 
L 127.547737 156.007785 
L 127.080904 157.246769 
L 127.033008 156.007785 
L 126.929517 157.246769 
L 125.749007 156.007785 
L 125.662751 154.787718 
L 125.18178 157.246769 
L 125.089918 159.783897 
L 124.870767 161.083321 
L 124.469942 159.783897 
L 124.467098 161.083321 
L 124.145502 159.783897 
L 123.974371 161.083321 
L 123.250612 159.783897 
L 123.022341 158.505264 
L 122.981388 157.246769 
L 122.407467 158.505264 
L 122.258007 161.083321 
L 122.128581 159.783897 
L 122.078885 161.083321 
L 122.047136 159.783897 
L 121.816774 158.505264 
L 121.308569 161.083321 
L 121.151369 159.783897 
L 120.499392 161.083321 
L 120.317845 162.404224 
L 119.518749 165.113393 
L 119.337495 163.747329 
L 119.273453 165.113393 
L 119.033802 163.747329 
L 116.457519 167.91764 
L 116.423553 169.35755 
L 116.029965 170.823881 
L 115.31838 169.35755 
L 115.241745 167.91764 
L 115.229071 169.35755 
L 115.02757 170.823881 
L 114.881706 169.35755 
L 113.896253 167.91764 
L 113.893074 169.35755 
L 113.567378 167.91764 
L 113.236454 170.823881 
L 113.219637 172.317623 
L 112.903898 173.839818 
L 111.708621 175.391572 
L 111.529417 173.839818 
L 110.886852 175.391572 
L 110.861712 176.974056 
L 110.502467 178.588511 
L 110.282563 176.974056 
L 110.21944 178.588511 
L 108.627647 176.974056 
L 108.601503 175.391572 
L 108.577408 176.974056 
L 107.950111 178.588511 
L 107.266134 176.974056 
L 106.408223 178.588511 
L 106.299379 180.236257 
L 105.510866 181.918694 
L 105.33275 180.236257 
L 104.89181 178.588511 
L 104.496842 180.236257 
L 104.228664 181.918694 
L 103.763253 183.637316 
L 103.109938 185.393713 
L 103.044765 183.637316 
L 103.039369 185.393713 
L 103.039369 577 
L 103.039369 577 
" clip-path="url(#p5ba9e7b48d)" style="fill: none; stroke: #ff7f0e; stroke-width: 1.5; stroke-linecap: square"/>
   </g>
   <g id="patch_3">
    <path d="M 81.316719 511.2 
L 81.316719 10.8 
" style="fill: none; stroke: #000000; stroke-width: 0.8; stroke-linejoin: miter; stroke-linecap: square"/>
   </g>
   <g id="patch_4">
    <path d="M 559.21502 511.2 
L 559.21502 10.8 
" style="fill: none; stroke: #000000; stroke-width: 0.8; stroke-linejoin: miter; stroke-linecap: square"/>
   </g>
   <g id="patch_5">
    <path d="M 81.316719 511.2 
L 559.21502 511.2 
" style="fill: none; stroke: #000000; stroke-width: 0.8; stroke-linejoin: miter; stroke-linecap: square"/>
   </g>
   <g id="patch_6">
    <path d="M 81.316719 10.8 
L 559.21502 10.8 
" style="fill: none; stroke: #000000; stroke-width: 0.8; stroke-linejoin: miter; stroke-linecap: square"/>
   </g>
   <g id="legend_1">
    <g id="patch_7">
     <path d="M 442.73432 75.3516 
L 547.11902 75.3516 
Q 550.57502 75.3516 550.57502 71.8956 
L 550.57502 22.896 
Q 550.57502 19.44 547.11902 19.44 
L 442.73432 19.44 
Q 439.27832 19.44 439.27832 22.896 
L 439.27832 71.8956 
Q 439.27832 75.3516 442.73432 75.3516 
z
" style="fill: #ffffff; opacity: 0.8; stroke: #cccccc; stroke-linejoin: miter"/>
    </g>
    <g id="line2d_33">
     <path d="M 446.19032 33.4341 
L 463.47032 33.4341 
L 480.75032 33.4341 
" style="fill: none; stroke: #1f77b4; stroke-width: 1.5; stroke-linecap: square"/>
    </g>
    <g id="text_12">
     <!-- dim 0 -->
     <g transform="translate(494.57432 39.4821)scale(0.1728 -0.1728)">
      <defs>
       <path id="DejaVuSans-64" d="M 2906 2969 
L 2906 4863 
L 3481 4863 
L 3481 0 
L 2906 0 
L 2906 525 
Q 2725 213 2448 61 
Q 2172 -91 1784 -91 
Q 1150 -91 751 415 
Q 353 922 353 1747 
Q 353 2572 751 3078 
Q 1150 3584 1784 3584 
Q 2172 3584 2448 3432 
Q 2725 3281 2906 2969 
z
M 947 1747 
Q 947 1113 1208 752 
Q 1469 391 1925 391 
Q 2381 391 2643 752 
Q 2906 1113 2906 1747 
Q 2906 2381 2643 2742 
Q 2381 3103 1925 3103 
Q 1469 3103 1208 2742 
Q 947 2381 947 1747 
z
" transform="scale(0.015625)"/>
      </defs>
      <use xlink:href="#DejaVuSans-64"/>
      <use xlink:href="#DejaVuSans-69" x="63.476562"/>
      <use xlink:href="#DejaVuSans-6d" x="91.259766"/>
      <use xlink:href="#DejaVuSans-20" x="188.671875"/>
      <use xlink:href="#DejaVuSans-30" x="220.458984"/>
     </g>
    </g>
    <g id="line2d_34">
     <path d="M 446.19032 58.7979 
L 463.47032 58.7979 
L 480.75032 58.7979 
" style="fill: none; stroke: #ff7f0e; stroke-width: 1.5; stroke-linecap: square"/>
    </g>
    <g id="text_13">
     <!-- dim 1 -->
     <g transform="translate(494.57432 64.8459)scale(0.1728 -0.1728)">
      <use xlink:href="#DejaVuSans-64"/>
      <use xlink:href="#DejaVuSans-69" x="63.476562"/>
      <use xlink:href="#DejaVuSans-6d" x="91.259766"/>
      <use xlink:href="#DejaVuSans-20" x="188.671875"/>
      <use xlink:href="#DejaVuSans-31" x="220.458984"/>
     </g>
    </g>
   </g>
  </g>
 </g>
 <defs>
  <clipPath id="p5ba9e7b48d">
   <rect x="81.316719" y="10.8" width="477.898301" height="500.4"/>
  </clipPath>
 </defs>
</svg>
