<?xml version="1.0" encoding="utf-8" standalone="no"?>
<!DOCTYPE svg PUBLIC "-//W3C//DTD SVG 1.1//EN"
  "http://www.w3.org/Graphics/SVG/1.1/DTD/svg11.dtd">
<svg xmlns:xlink="http://www.w3.org/1999/xlink" width="720pt" height="720pt" viewBox="0 0 720 720" xmlns="http://www.w3.org/2000/svg" version="1.1">
 <metadata>
  <rdf:RDF xmlns:dc="http://purl.org/dc/elements/1.1/" xmlns:cc="http://creativecommons.org/ns#" xmlns:rdf="http://www.w3.org/1999/02/22-rdf-syntax-ns#">
   <cc:Work>
    <dc:type rdf:resource="http://purl.org/dc/dcmitype/StillImage"/>
    <dc:date>2023-06-08T10:57:30.099754</dc:date>
    <dc:format>image/svg+xml</dc:format>
    <dc:creator>
     <cc:Agent>
      <dc:title>Matplotlib v3.5.1, https://matplotlib.org/</dc:title>
     </cc:Agent>
    </dc:creator>
   </cc:Work>
  </rdf:RDF>
 </metadata>
 <defs>
  <style type="text/css">*{stroke-linejoin: round; stroke-linecap: butt}</style>
 </defs>
 <g id="figure_1">
  <g id="patch_1">
   <path d="M 0 720 
L 720 720 
L 720 0 
L 0 0 
L 0 720 
z
" style="fill: none"/>
  </g>
  <g id="axes_1">
   <g id="patch_2">
    <path d="M 90 630 
L 648 630 
L 648 86.4 
L 90 86.4 
z
" style="fill: #ffffff"/>
   </g>
   <g id="PathCollection_1">
    <defs>
     <path id="C0_0_7cb927f7b6" d="M 0 3.872983 
C 1.027127 3.872983 2.012324 3.464901 2.738613 2.738613 
C 3.464901 2.012324 3.872983 1.027127 3.872983 -0 
C 3.872983 -1.027127 3.464901 -2.012324 2.738613 -2.738613 
C 2.012324 -3.464901 1.027127 -3.872983 0 -3.872983 
C -1.027127 -3.872983 -2.012324 -3.464901 -2.738613 -2.738613 
C -3.464901 -2.012324 -3.872983 -1.027127 -3.872983 0 
C -3.872983 1.027127 -3.464901 2.012324 -2.738613 2.738613 
C -2.012324 3.464901 -1.027127 3.872983 0 3.872983 
z
"/>
    </defs>
    <g clip-path="url(#paa35a8cfbc)">
     <use xlink:href="#C0_0_7cb927f7b6" x="115.363636" y="111.109091" style="fill: none; stroke: #0000ff; stroke-opacity: 0.3"/>
    </g>
    <g clip-path="url(#paa35a8cfbc)">
     <use xlink:href="#C0_0_7cb927f7b6" x="125.509091" y="229.712727" style="fill: none; stroke: #0000ff; stroke-opacity: 0.3"/>
    </g>
    <g clip-path="url(#paa35a8cfbc)">
     <use xlink:href="#C0_0_7cb927f7b6" x="135.654545" y="328.549091" style="fill: none; stroke: #0000ff; stroke-opacity: 0.3"/>
    </g>
    <g clip-path="url(#paa35a8cfbc)">
     <use xlink:href="#C0_0_7cb927f7b6" x="145.8" y="279.130909" style="fill: none; stroke: #0000ff; stroke-opacity: 0.3"/>
    </g>
    <g clip-path="url(#paa35a8cfbc)">
     <use xlink:href="#C0_0_7cb927f7b6" x="155.945455" y="219.829091" style="fill: none; stroke: #0000ff; stroke-opacity: 0.3"/>
    </g>
    <g clip-path="url(#paa35a8cfbc)">
     <use xlink:href="#C0_0_7cb927f7b6" x="166.090909" y="298.898182" style="fill: none; stroke: #0000ff; stroke-opacity: 0.3"/>
    </g>
    <g clip-path="url(#paa35a8cfbc)">
     <use xlink:href="#C0_0_7cb927f7b6" x="176.236364" y="308.781818" style="fill: none; stroke: #0000ff; stroke-opacity: 0.3"/>
    </g>
    <g clip-path="url(#paa35a8cfbc)">
     <use xlink:href="#C0_0_7cb927f7b6" x="186.381818" y="140.76" style="fill: none; stroke: #0000ff; stroke-opacity: 0.3"/>
    </g>
    <g clip-path="url(#paa35a8cfbc)">
     <use xlink:href="#C0_0_7cb927f7b6" x="196.527273" y="496.570909" style="fill: none; stroke: #0000ff; stroke-opacity: 0.3"/>
    </g>
    <g clip-path="url(#paa35a8cfbc)">
     <use xlink:href="#C0_0_7cb927f7b6" x="206.672727" y="160.527273" style="fill: none; stroke: #0000ff; stroke-opacity: 0.3"/>
    </g>
    <g clip-path="url(#paa35a8cfbc)">
     <use xlink:href="#C0_0_7cb927f7b6" x="216.818182" y="170.410909" style="fill: none; stroke: #0000ff; stroke-opacity: 0.3"/>
    </g>
    <g clip-path="url(#paa35a8cfbc)">
     <use xlink:href="#C0_0_7cb927f7b6" x="226.963636" y="387.850909" style="fill: none; stroke: #0000ff; stroke-opacity: 0.3"/>
    </g>
    <g clip-path="url(#paa35a8cfbc)">
     <use xlink:href="#C0_0_7cb927f7b6" x="237.109091" y="486.687273" style="fill: none; stroke: #0000ff; stroke-opacity: 0.3"/>
    </g>
    <g clip-path="url(#paa35a8cfbc)">
     <use xlink:href="#C0_0_7cb927f7b6" x="247.254545" y="476.803636" style="fill: none; stroke: #0000ff; stroke-opacity: 0.3"/>
    </g>
    <g clip-path="url(#paa35a8cfbc)">
     <use xlink:href="#C0_0_7cb927f7b6" x="257.4" y="447.152727" style="fill: none; stroke: #0000ff; stroke-opacity: 0.3"/>
    </g>
    <g clip-path="url(#paa35a8cfbc)">
     <use xlink:href="#C0_0_7cb927f7b6" x="267.545455" y="397.734545" style="fill: none; stroke: #0000ff; stroke-opacity: 0.3"/>
    </g>
    <g clip-path="url(#paa35a8cfbc)">
     <use xlink:href="#C0_0_7cb927f7b6" x="277.690909" y="457.036364" style="fill: none; stroke: #0000ff; stroke-opacity: 0.3"/>
    </g>
    <g clip-path="url(#paa35a8cfbc)">
     <use xlink:href="#C0_0_7cb927f7b6" x="287.836364" y="427.385455" style="fill: none; stroke: #0000ff; stroke-opacity: 0.3"/>
    </g>
    <g clip-path="url(#paa35a8cfbc)">
     <use xlink:href="#C0_0_7cb927f7b6" x="297.981818" y="377.967273" style="fill: none; stroke: #0000ff; stroke-opacity: 0.3"/>
    </g>
    <g clip-path="url(#paa35a8cfbc)">
     <use xlink:href="#C0_0_7cb927f7b6" x="308.127273" y="585.523636" style="fill: none; stroke: #0000ff; stroke-opacity: 0.3"/>
    </g>
    <g clip-path="url(#paa35a8cfbc)">
     <use xlink:href="#C0_0_7cb927f7b6" x="318.272727" y="338.432727" style="fill: none; stroke: #0000ff; stroke-opacity: 0.3"/>
    </g>
    <g clip-path="url(#paa35a8cfbc)">
     <use xlink:href="#C0_0_7cb927f7b6" x="328.418182" y="555.872727" style="fill: none; stroke: #0000ff; stroke-opacity: 0.3"/>
    </g>
    <g clip-path="url(#paa35a8cfbc)">
     <use xlink:href="#C0_0_7cb927f7b6" x="338.563636" y="536.105455" style="fill: none; stroke: #0000ff; stroke-opacity: 0.3"/>
    </g>
    <g clip-path="url(#paa35a8cfbc)">
     <use xlink:href="#C0_0_7cb927f7b6" x="348.709091" y="407.618182" style="fill: none; stroke: #0000ff; stroke-opacity: 0.3"/>
    </g>
    <g clip-path="url(#paa35a8cfbc)">
     <use xlink:href="#C0_0_7cb927f7b6" x="358.854545" y="575.64" style="fill: none; stroke: #0000ff; stroke-opacity: 0.3"/>
    </g>
    <g clip-path="url(#paa35a8cfbc)">
     <use xlink:href="#C0_0_7cb927f7b6" x="369" y="595.407273" style="fill: none; stroke: #0000ff; stroke-opacity: 0.3"/>
    </g>
    <g clip-path="url(#paa35a8cfbc)">
     <use xlink:href="#C0_0_7cb927f7b6" x="379.145455" y="200.061818" style="fill: none; stroke: #0000ff; stroke-opacity: 0.3"/>
    </g>
    <g clip-path="url(#paa35a8cfbc)">
     <use xlink:href="#C0_0_7cb927f7b6" x="389.290909" y="368.083636" style="fill: none; stroke: #0000ff; stroke-opacity: 0.3"/>
    </g>
    <g clip-path="url(#paa35a8cfbc)">
     <use xlink:href="#C0_0_7cb927f7b6" x="399.436364" y="437.269091" style="fill: none; stroke: #0000ff; stroke-opacity: 0.3"/>
    </g>
    <g clip-path="url(#paa35a8cfbc)">
     <use xlink:href="#C0_0_7cb927f7b6" x="409.581818" y="565.756364" style="fill: none; stroke: #0000ff; stroke-opacity: 0.3"/>
    </g>
    <g clip-path="url(#paa35a8cfbc)">
     <use xlink:href="#C0_0_7cb927f7b6" x="419.727273" y="516.338182" style="fill: none; stroke: #0000ff; stroke-opacity: 0.3"/>
    </g>
    <g clip-path="url(#paa35a8cfbc)">
     <use xlink:href="#C0_0_7cb927f7b6" x="429.872727" y="417.501818" style="fill: none; stroke: #0000ff; stroke-opacity: 0.3"/>
    </g>
    <g clip-path="url(#paa35a8cfbc)">
     <use xlink:href="#C0_0_7cb927f7b6" x="440.018182" y="289.014545" style="fill: none; stroke: #0000ff; stroke-opacity: 0.3"/>
    </g>
    <g clip-path="url(#paa35a8cfbc)">
     <use xlink:href="#C0_0_7cb927f7b6" x="450.163636" y="190.178182" style="fill: none; stroke: #0000ff; stroke-opacity: 0.3"/>
    </g>
    <g clip-path="url(#paa35a8cfbc)">
     <use xlink:href="#C0_0_7cb927f7b6" x="460.309091" y="130.876364" style="fill: none; stroke: #0000ff; stroke-opacity: 0.3"/>
    </g>
    <g clip-path="url(#paa35a8cfbc)">
     <use xlink:href="#C0_0_7cb927f7b6" x="470.454545" y="269.247273" style="fill: none; stroke: #0000ff; stroke-opacity: 0.3"/>
    </g>
    <g clip-path="url(#paa35a8cfbc)">
     <use xlink:href="#C0_0_7cb927f7b6" x="480.6" y="180.294545" style="fill: none; stroke: #0000ff; stroke-opacity: 0.3"/>
    </g>
    <g clip-path="url(#paa35a8cfbc)">
     <use xlink:href="#C0_0_7cb927f7b6" x="490.745455" y="526.221818" style="fill: none; stroke: #0000ff; stroke-opacity: 0.3"/>
    </g>
    <g clip-path="url(#paa35a8cfbc)">
     <use xlink:href="#C0_0_7cb927f7b6" x="500.890909" y="348.316364" style="fill: none; stroke: #0000ff; stroke-opacity: 0.3"/>
    </g>
    <g clip-path="url(#paa35a8cfbc)">
     <use xlink:href="#C0_0_7cb927f7b6" x="511.036364" y="259.363636" style="fill: none; stroke: #0000ff; stroke-opacity: 0.3"/>
    </g>
    <g clip-path="url(#paa35a8cfbc)">
     <use xlink:href="#C0_0_7cb927f7b6" x="521.181818" y="239.596364" style="fill: none; stroke: #0000ff; stroke-opacity: 0.3"/>
    </g>
    <g clip-path="url(#paa35a8cfbc)">
     <use xlink:href="#C0_0_7cb927f7b6" x="531.327273" y="249.48" style="fill: none; stroke: #0000ff; stroke-opacity: 0.3"/>
    </g>
    <g clip-path="url(#paa35a8cfbc)">
     <use xlink:href="#C0_0_7cb927f7b6" x="541.472727" y="318.665455" style="fill: none; stroke: #0000ff; stroke-opacity: 0.3"/>
    </g>
    <g clip-path="url(#paa35a8cfbc)">
     <use xlink:href="#C0_0_7cb927f7b6" x="551.618182" y="605.290909" style="fill: none; stroke: #0000ff; stroke-opacity: 0.3"/>
    </g>
    <g clip-path="url(#paa35a8cfbc)">
     <use xlink:href="#C0_0_7cb927f7b6" x="561.763636" y="506.454545" style="fill: none; stroke: #0000ff; stroke-opacity: 0.3"/>
    </g>
    <g clip-path="url(#paa35a8cfbc)">
     <use xlink:href="#C0_0_7cb927f7b6" x="571.909091" y="545.989091" style="fill: none; stroke: #0000ff; stroke-opacity: 0.3"/>
    </g>
    <g clip-path="url(#paa35a8cfbc)">
     <use xlink:href="#C0_0_7cb927f7b6" x="582.054545" y="358.2" style="fill: none; stroke: #0000ff; stroke-opacity: 0.3"/>
    </g>
    <g clip-path="url(#paa35a8cfbc)">
     <use xlink:href="#C0_0_7cb927f7b6" x="592.2" y="466.92" style="fill: none; stroke: #0000ff; stroke-opacity: 0.3"/>
    </g>
    <g clip-path="url(#paa35a8cfbc)">
     <use xlink:href="#C0_0_7cb927f7b6" x="602.345455" y="209.945455" style="fill: none; stroke: #0000ff; stroke-opacity: 0.3"/>
    </g>
    <g clip-path="url(#paa35a8cfbc)">
     <use xlink:href="#C0_0_7cb927f7b6" x="612.490909" y="150.643636" style="fill: none; stroke: #0000ff; stroke-opacity: 0.3"/>
    </g>
    <g clip-path="url(#paa35a8cfbc)">
     <use xlink:href="#C0_0_7cb927f7b6" x="622.636364" y="120.992727" style="fill: none; stroke: #0000ff; stroke-opacity: 0.3"/>
    </g>
   </g>
   <g id="PathCollection_2">
    <defs>
     <path id="C1_0_b9b547b746" d="M 0 3.872983 
C 1.027127 3.872983 2.012324 3.464901 2.738613 2.738613 
C 3.464901 2.012324 3.872983 1.027127 3.872983 -0 
C 3.872983 -1.027127 3.464901 -2.012324 2.738613 -2.738613 
C 2.012324 -3.464901 1.027127 -3.872983 0 -3.872983 
C -1.027127 -3.872983 -2.012324 -3.464901 -2.738613 -2.738613 
C -3.464901 -2.012324 -3.872983 -1.027127 -3.872983 0 
C -3.872983 1.027127 -3.464901 2.012324 -2.738613 2.738613 
C -2.012324 3.464901 -1.027127 3.872983 0 3.872983 
z
"/>
    </defs>
    <g clip-path="url(#paa35a8cfbc)">
     <use xlink:href="#C1_0_b9b547b746" x="125.509091" y="229.712727" style="fill: none; stroke: #008000"/>
    </g>
    <g clip-path="url(#paa35a8cfbc)">
     <use xlink:href="#C1_0_b9b547b746" x="135.654545" y="279.130909" style="fill: none; stroke: #008000"/>
    </g>
    <g clip-path="url(#paa35a8cfbc)">
     <use xlink:href="#C1_0_b9b547b746" x="145.8" y="279.130909" style="fill: none; stroke: #008000"/>
    </g>
    <g clip-path="url(#paa35a8cfbc)">
     <use xlink:href="#C1_0_b9b547b746" x="155.945455" y="279.130909" style="fill: none; stroke: #008000"/>
    </g>
    <g clip-path="url(#paa35a8cfbc)">
     <use xlink:href="#C1_0_b9b547b746" x="166.090909" y="298.898182" style="fill: none; stroke: #008000"/>
    </g>
    <g clip-path="url(#paa35a8cfbc)">
     <use xlink:href="#C1_0_b9b547b746" x="176.236364" y="298.898182" style="fill: none; stroke: #008000"/>
    </g>
    <g clip-path="url(#paa35a8cfbc)">
     <use xlink:href="#C1_0_b9b547b746" x="186.381818" y="308.781818" style="fill: none; stroke: #008000"/>
    </g>
    <g clip-path="url(#paa35a8cfbc)">
     <use xlink:href="#C1_0_b9b547b746" x="196.527273" y="160.527273" style="fill: none; stroke: #008000"/>
    </g>
    <g clip-path="url(#paa35a8cfbc)">
     <use xlink:href="#C1_0_b9b547b746" x="206.672727" y="170.410909" style="fill: none; stroke: #008000"/>
    </g>
    <g clip-path="url(#paa35a8cfbc)">
     <use xlink:href="#C1_0_b9b547b746" x="216.818182" y="170.410909" style="fill: none; stroke: #008000"/>
    </g>
    <g clip-path="url(#paa35a8cfbc)">
     <use xlink:href="#C1_0_b9b547b746" x="226.963636" y="387.850909" style="fill: none; stroke: #008000"/>
    </g>
    <g clip-path="url(#paa35a8cfbc)">
     <use xlink:href="#C1_0_b9b547b746" x="237.109091" y="476.803636" style="fill: none; stroke: #008000"/>
    </g>
    <g clip-path="url(#paa35a8cfbc)">
     <use xlink:href="#C1_0_b9b547b746" x="247.254545" y="476.803636" style="fill: none; stroke: #008000"/>
    </g>
    <g clip-path="url(#paa35a8cfbc)">
     <use xlink:href="#C1_0_b9b547b746" x="257.4" y="447.152727" style="fill: none; stroke: #008000"/>
    </g>
    <g clip-path="url(#paa35a8cfbc)">
     <use xlink:href="#C1_0_b9b547b746" x="267.545455" y="447.152727" style="fill: none; stroke: #008000"/>
    </g>
    <g clip-path="url(#paa35a8cfbc)">
     <use xlink:href="#C1_0_b9b547b746" x="277.690909" y="427.385455" style="fill: none; stroke: #008000"/>
    </g>
    <g clip-path="url(#paa35a8cfbc)">
     <use xlink:href="#C1_0_b9b547b746" x="287.836364" y="427.385455" style="fill: none; stroke: #008000"/>
    </g>
    <g clip-path="url(#paa35a8cfbc)">
     <use xlink:href="#C1_0_b9b547b746" x="297.981818" y="427.385455" style="fill: none; stroke: #008000"/>
    </g>
    <g clip-path="url(#paa35a8cfbc)">
     <use xlink:href="#C1_0_b9b547b746" x="308.127273" y="377.967273" style="fill: none; stroke: #008000"/>
    </g>
    <g clip-path="url(#paa35a8cfbc)">
     <use xlink:href="#C1_0_b9b547b746" x="318.272727" y="555.872727" style="fill: none; stroke: #008000"/>
    </g>
    <g clip-path="url(#paa35a8cfbc)">
     <use xlink:href="#C1_0_b9b547b746" x="328.418182" y="536.105455" style="fill: none; stroke: #008000"/>
    </g>
    <g clip-path="url(#paa35a8cfbc)">
     <use xlink:href="#C1_0_b9b547b746" x="338.563636" y="536.105455" style="fill: none; stroke: #008000"/>
    </g>
    <g clip-path="url(#paa35a8cfbc)">
     <use xlink:href="#C1_0_b9b547b746" x="348.709091" y="536.105455" style="fill: none; stroke: #008000"/>
    </g>
    <g clip-path="url(#paa35a8cfbc)">
     <use xlink:href="#C1_0_b9b547b746" x="358.854545" y="575.64" style="fill: none; stroke: #008000"/>
    </g>
    <g clip-path="url(#paa35a8cfbc)">
     <use xlink:href="#C1_0_b9b547b746" x="369" y="575.64" style="fill: none; stroke: #008000"/>
    </g>
    <g clip-path="url(#paa35a8cfbc)">
     <use xlink:href="#C1_0_b9b547b746" x="379.145455" y="368.083636" style="fill: none; stroke: #008000"/>
    </g>
    <g clip-path="url(#paa35a8cfbc)">
     <use xlink:href="#C1_0_b9b547b746" x="389.290909" y="368.083636" style="fill: none; stroke: #008000"/>
    </g>
    <g clip-path="url(#paa35a8cfbc)">
     <use xlink:href="#C1_0_b9b547b746" x="399.436364" y="437.269091" style="fill: none; stroke: #008000"/>
    </g>
    <g clip-path="url(#paa35a8cfbc)">
     <use xlink:href="#C1_0_b9b547b746" x="409.581818" y="516.338182" style="fill: none; stroke: #008000"/>
    </g>
    <g clip-path="url(#paa35a8cfbc)">
     <use xlink:href="#C1_0_b9b547b746" x="419.727273" y="516.338182" style="fill: none; stroke: #008000"/>
    </g>
    <g clip-path="url(#paa35a8cfbc)">
     <use xlink:href="#C1_0_b9b547b746" x="429.872727" y="417.501818" style="fill: none; stroke: #008000"/>
    </g>
    <g clip-path="url(#paa35a8cfbc)">
     <use xlink:href="#C1_0_b9b547b746" x="440.018182" y="289.014545" style="fill: none; stroke: #008000"/>
    </g>
    <g clip-path="url(#paa35a8cfbc)">
     <use xlink:href="#C1_0_b9b547b746" x="450.163636" y="190.178182" style="fill: none; stroke: #008000"/>
    </g>
    <g clip-path="url(#paa35a8cfbc)">
     <use xlink:href="#C1_0_b9b547b746" x="460.309091" y="190.178182" style="fill: none; stroke: #008000"/>
    </g>
    <g clip-path="url(#paa35a8cfbc)">
     <use xlink:href="#C1_0_b9b547b746" x="470.454545" y="180.294545" style="fill: none; stroke: #008000"/>
    </g>
    <g clip-path="url(#paa35a8cfbc)">
     <use xlink:href="#C1_0_b9b547b746" x="480.6" y="269.247273" style="fill: none; stroke: #008000"/>
    </g>
    <g clip-path="url(#paa35a8cfbc)">
     <use xlink:href="#C1_0_b9b547b746" x="490.745455" y="348.316364" style="fill: none; stroke: #008000"/>
    </g>
    <g clip-path="url(#paa35a8cfbc)">
     <use xlink:href="#C1_0_b9b547b746" x="500.890909" y="348.316364" style="fill: none; stroke: #008000"/>
    </g>
    <g clip-path="url(#paa35a8cfbc)">
     <use xlink:href="#C1_0_b9b547b746" x="511.036364" y="259.363636" style="fill: none; stroke: #008000"/>
    </g>
    <g clip-path="url(#paa35a8cfbc)">
     <use xlink:href="#C1_0_b9b547b746" x="521.181818" y="249.48" style="fill: none; stroke: #008000"/>
    </g>
    <g clip-path="url(#paa35a8cfbc)">
     <use xlink:href="#C1_0_b9b547b746" x="531.327273" y="249.48" style="fill: none; stroke: #008000"/>
    </g>
    <g clip-path="url(#paa35a8cfbc)">
     <use xlink:href="#C1_0_b9b547b746" x="541.472727" y="318.665455" style="fill: none; stroke: #008000"/>
    </g>
    <g clip-path="url(#paa35a8cfbc)">
     <use xlink:href="#C1_0_b9b547b746" x="551.618182" y="506.454545" style="fill: none; stroke: #008000"/>
    </g>
    <g clip-path="url(#paa35a8cfbc)">
     <use xlink:href="#C1_0_b9b547b746" x="561.763636" y="545.989091" style="fill: none; stroke: #008000"/>
    </g>
    <g clip-path="url(#paa35a8cfbc)">
     <use xlink:href="#C1_0_b9b547b746" x="571.909091" y="506.454545" style="fill: none; stroke: #008000"/>
    </g>
    <g clip-path="url(#paa35a8cfbc)">
     <use xlink:href="#C1_0_b9b547b746" x="582.054545" y="466.92" style="fill: none; stroke: #008000"/>
    </g>
    <g clip-path="url(#paa35a8cfbc)">
     <use xlink:href="#C1_0_b9b547b746" x="592.2" y="358.2" style="fill: none; stroke: #008000"/>
    </g>
    <g clip-path="url(#paa35a8cfbc)">
     <use xlink:href="#C1_0_b9b547b746" x="602.345455" y="209.945455" style="fill: none; stroke: #008000"/>
    </g>
    <g clip-path="url(#paa35a8cfbc)">
     <use xlink:href="#C1_0_b9b547b746" x="612.490909" y="150.643636" style="fill: none; stroke: #008000"/>
    </g>
   </g>
   <g id="matplotlib.axis_1">
    <g id="xtick_1">
     <g id="line2d_1">
      <defs>
       <path id="m5a30bea63e" d="M 0 0 
L 0 3.5 
" style="stroke: #000000; stroke-width: 0.8"/>
      </defs>
      <g>
       <use xlink:href="#m5a30bea63e" x="106.909091" y="630" style="stroke: #000000; stroke-width: 0.8"/>
      </g>
     </g>
     <g id="text_1">
      <!-- 0 -->
      <g transform="translate(101.819091 649.1575)scale(0.16 -0.16)">
       <defs>
        <path id="DejaVuSans-30" d="M 2034 4250 
Q 1547 4250 1301 3770 
Q 1056 3291 1056 2328 
Q 1056 1369 1301 889 
Q 1547 409 2034 409 
Q 2525 409 2770 889 
Q 3016 1369 3016 2328 
Q 3016 3291 2770 3770 
Q 2525 4250 2034 4250 
z
M 2034 4750 
Q 2819 4750 3233 4129 
Q 3647 3509 3647 2328 
Q 3647 1150 3233 529 
Q 2819 -91 2034 -91 
Q 1250 -91 836 529 
Q 422 1150 422 2328 
Q 422 3509 836 4129 
Q 1250 4750 2034 4750 
z
" transform="scale(0.015625)"/>
       </defs>
       <use xlink:href="#DejaVuSans-30"/>
      </g>
     </g>
    </g>
    <g id="xtick_2">
     <g id="line2d_2">
      <g>
       <use xlink:href="#m5a30bea63e" x="191.454545" y="630" style="stroke: #000000; stroke-width: 0.8"/>
      </g>
     </g>
     <g id="text_2">
      <!-- 5 -->
      <g transform="translate(186.364545 649.1575)scale(0.16 -0.16)">
       <defs>
        <path id="DejaVuSans-35" d="M 691 4666 
L 3169 4666 
L 3169 4134 
L 1269 4134 
L 1269 2991 
Q 1406 3038 1543 3061 
Q 1681 3084 1819 3084 
Q 2600 3084 3056 2656 
Q 3513 2228 3513 1497 
Q 3513 744 3044 326 
Q 2575 -91 1722 -91 
Q 1428 -91 1123 -41 
Q 819 9 494 109 
L 494 744 
Q 775 591 1075 516 
Q 1375 441 1709 441 
Q 2250 441 2565 725 
Q 2881 1009 2881 1497 
Q 2881 1984 2565 2268 
Q 2250 2553 1709 2553 
Q 1456 2553 1204 2497 
Q 953 2441 691 2322 
L 691 4666 
z
" transform="scale(0.015625)"/>
       </defs>
       <use xlink:href="#DejaVuSans-35"/>
      </g>
     </g>
    </g>
    <g id="xtick_3">
     <g id="line2d_3">
      <g>
       <use xlink:href="#m5a30bea63e" x="276" y="630" style="stroke: #000000; stroke-width: 0.8"/>
      </g>
     </g>
     <g id="text_3">
      <!-- 10 -->
      <g transform="translate(265.82 649.1575)scale(0.16 -0.16)">
       <defs>
        <path id="DejaVuSans-31" d="M 794 531 
L 1825 531 
L 1825 4091 
L 703 3866 
L 703 4441 
L 1819 4666 
L 2450 4666 
L 2450 531 
L 3481 531 
L 3481 0 
L 794 0 
L 794 531 
z
" transform="scale(0.015625)"/>
       </defs>
       <use xlink:href="#DejaVuSans-31"/>
       <use xlink:href="#DejaVuSans-30" x="63.623047"/>
      </g>
     </g>
    </g>
    <g id="xtick_4">
     <g id="line2d_4">
      <g>
       <use xlink:href="#m5a30bea63e" x="360.545455" y="630" style="stroke: #000000; stroke-width: 0.8"/>
      </g>
     </g>
     <g id="text_4">
      <!-- 15 -->
      <g transform="translate(350.365455 649.1575)scale(0.16 -0.16)">
       <use xlink:href="#DejaVuSans-31"/>
       <use xlink:href="#DejaVuSans-35" x="63.623047"/>
      </g>
     </g>
    </g>
    <g id="xtick_5">
     <g id="line2d_5">
      <g>
       <use xlink:href="#m5a30bea63e" x="445.090909" y="630" style="stroke: #000000; stroke-width: 0.8"/>
      </g>
     </g>
     <g id="text_5">
      <!-- 20 -->
      <g transform="translate(434.910909 649.1575)scale(0.16 -0.16)">
       <defs>
        <path id="DejaVuSans-32" d="M 1228 531 
L 3431 531 
L 3431 0 
L 469 0 
L 469 531 
Q 828 903 1448 1529 
Q 2069 2156 2228 2338 
Q 2531 2678 2651 2914 
Q 2772 3150 2772 3378 
Q 2772 3750 2511 3984 
Q 2250 4219 1831 4219 
Q 1534 4219 1204 4116 
Q 875 4013 500 3803 
L 500 4441 
Q 881 4594 1212 4672 
Q 1544 4750 1819 4750 
Q 2544 4750 2975 4387 
Q 3406 4025 3406 3419 
Q 3406 3131 3298 2873 
Q 3191 2616 2906 2266 
Q 2828 2175 2409 1742 
Q 1991 1309 1228 531 
z
" transform="scale(0.015625)"/>
       </defs>
       <use xlink:href="#DejaVuSans-32"/>
       <use xlink:href="#DejaVuSans-30" x="63.623047"/>
      </g>
     </g>
    </g>
    <g id="xtick_6">
     <g id="line2d_6">
      <g>
       <use xlink:href="#m5a30bea63e" x="529.636364" y="630" style="stroke: #000000; stroke-width: 0.8"/>
      </g>
     </g>
     <g id="text_6">
      <!-- 25 -->
      <g transform="translate(519.456364 649.1575)scale(0.16 -0.16)">
       <use xlink:href="#DejaVuSans-32"/>
       <use xlink:href="#DejaVuSans-35" x="63.623047"/>
      </g>
     </g>
    </g>
    <g id="xtick_7">
     <g id="line2d_7">
      <g>
       <use xlink:href="#m5a30bea63e" x="614.181818" y="630" style="stroke: #000000; stroke-width: 0.8"/>
      </g>
     </g>
     <g id="text_7">
      <!-- 30 -->
      <g transform="translate(604.001818 649.1575)scale(0.16 -0.16)">
       <defs>
        <path id="DejaVuSans-33" d="M 2597 2516 
Q 3050 2419 3304 2112 
Q 3559 1806 3559 1356 
Q 3559 666 3084 287 
Q 2609 -91 1734 -91 
Q 1441 -91 1130 -33 
Q 819 25 488 141 
L 488 750 
Q 750 597 1062 519 
Q 1375 441 1716 441 
Q 2309 441 2620 675 
Q 2931 909 2931 1356 
Q 2931 1769 2642 2001 
Q 2353 2234 1838 2234 
L 1294 2234 
L 1294 2753 
L 1863 2753 
Q 2328 2753 2575 2939 
Q 2822 3125 2822 3475 
Q 2822 3834 2567 4026 
Q 2313 4219 1838 4219 
Q 1578 4219 1281 4162 
Q 984 4106 628 3988 
L 628 4550 
Q 988 4650 1302 4700 
Q 1616 4750 1894 4750 
Q 2613 4750 3031 4423 
Q 3450 4097 3450 3541 
Q 3450 3153 3228 2886 
Q 3006 2619 2597 2516 
z
" transform="scale(0.015625)"/>
       </defs>
       <use xlink:href="#DejaVuSans-33"/>
       <use xlink:href="#DejaVuSans-30" x="63.623047"/>
      </g>
     </g>
    </g>
    <g id="text_8">
     <!-- t -->
     <g transform="translate(364.687656 673.201563)scale(0.22 -0.22)">
      <defs>
       <path id="DejaVuSans-74" d="M 1172 4494 
L 1172 3500 
L 2356 3500 
L 2356 3053 
L 1172 3053 
L 1172 1153 
Q 1172 725 1289 603 
Q 1406 481 1766 481 
L 2356 481 
L 2356 0 
L 1766 0 
Q 1100 0 847 248 
Q 594 497 594 1153 
L 594 3053 
L 172 3053 
L 172 3500 
L 594 3500 
L 594 4494 
L 1172 4494 
z
" transform="scale(0.015625)"/>
      </defs>
      <use xlink:href="#DejaVuSans-74"/>
     </g>
    </g>
   </g>
   <g id="matplotlib.axis_2">
    <g id="ytick_1">
     <g id="line2d_8">
      <defs>
       <path id="mc730c29c78" d="M 0 0 
L -3.5 0 
" style="stroke: #000000; stroke-width: 0.8"/>
      </defs>
      <g>
       <use xlink:href="#mc730c29c78" x="90" y="613.527273" style="stroke: #000000; stroke-width: 0.8"/>
      </g>
     </g>
     <g id="text_9">
      <!-- 0 -->
      <g transform="translate(72.82 619.606023)scale(0.16 -0.16)">
       <use xlink:href="#DejaVuSans-30"/>
      </g>
     </g>
    </g>
    <g id="ytick_2">
     <g id="line2d_9">
      <g>
       <use xlink:href="#mc730c29c78" x="90" y="531.163636" style="stroke: #000000; stroke-width: 0.8"/>
      </g>
     </g>
     <g id="text_10">
      <!-- 5 -->
      <g transform="translate(72.82 537.242386)scale(0.16 -0.16)">
       <use xlink:href="#DejaVuSans-35"/>
      </g>
     </g>
    </g>
    <g id="ytick_3">
     <g id="line2d_10">
      <g>
       <use xlink:href="#mc730c29c78" x="90" y="448.8" style="stroke: #000000; stroke-width: 0.8"/>
      </g>
     </g>
     <g id="text_11">
      <!-- 10 -->
      <g transform="translate(62.64 454.87875)scale(0.16 -0.16)">
       <use xlink:href="#DejaVuSans-31"/>
       <use xlink:href="#DejaVuSans-30" x="63.623047"/>
      </g>
     </g>
    </g>
    <g id="ytick_4">
     <g id="line2d_11">
      <g>
       <use xlink:href="#mc730c29c78" x="90" y="366.436364" style="stroke: #000000; stroke-width: 0.8"/>
      </g>
     </g>
     <g id="text_12">
      <!-- 15 -->
      <g transform="translate(62.64 372.515114)scale(0.16 -0.16)">
       <use xlink:href="#DejaVuSans-31"/>
       <use xlink:href="#DejaVuSans-35" x="63.623047"/>
      </g>
     </g>
    </g>
    <g id="ytick_5">
     <g id="line2d_12">
      <g>
       <use xlink:href="#mc730c29c78" x="90" y="284.072727" style="stroke: #000000; stroke-width: 0.8"/>
      </g>
     </g>
     <g id="text_13">
      <!-- 20 -->
      <g transform="translate(62.64 290.151477)scale(0.16 -0.16)">
       <use xlink:href="#DejaVuSans-32"/>
       <use xlink:href="#DejaVuSans-30" x="63.623047"/>
      </g>
     </g>
    </g>
    <g id="ytick_6">
     <g id="line2d_13">
      <g>
       <use xlink:href="#mc730c29c78" x="90" y="201.709091" style="stroke: #000000; stroke-width: 0.8"/>
      </g>
     </g>
     <g id="text_14">
      <!-- 25 -->
      <g transform="translate(62.64 207.787841)scale(0.16 -0.16)">
       <use xlink:href="#DejaVuSans-32"/>
       <use xlink:href="#DejaVuSans-35" x="63.623047"/>
      </g>
     </g>
    </g>
    <g id="ytick_7">
     <g id="line2d_14">
      <g>
       <use xlink:href="#mc730c29c78" x="90" y="119.345455" style="stroke: #000000; stroke-width: 0.8"/>
      </g>
     </g>
     <g id="text_15">
      <!-- 30 -->
      <g transform="translate(62.64 125.424205)scale(0.16 -0.16)">
       <use xlink:href="#DejaVuSans-33"/>
       <use xlink:href="#DejaVuSans-30" x="63.623047"/>
      </g>
     </g>
    </g>
    <g id="text_16">
     <!-- t' -->
     <g transform="translate(54.064688 365.535625)rotate(-90)scale(0.22 -0.22)">
      <defs>
       <path id="DejaVuSans-27" d="M 1147 4666 
L 1147 2931 
L 616 2931 
L 616 4666 
L 1147 4666 
z
" transform="scale(0.015625)"/>
      </defs>
      <use xlink:href="#DejaVuSans-74"/>
      <use xlink:href="#DejaVuSans-27" x="39.208984"/>
     </g>
    </g>
   </g>
   <g id="patch_3">
    <path d="M 90 630 
L 90 86.4 
" style="fill: none; stroke: #000000; stroke-width: 0.8; stroke-linejoin: miter; stroke-linecap: square"/>
   </g>
   <g id="patch_4">
    <path d="M 648 630 
L 648 86.4 
" style="fill: none; stroke: #000000; stroke-width: 0.8; stroke-linejoin: miter; stroke-linecap: square"/>
   </g>
   <g id="patch_5">
    <path d="M 90 630 
L 648 630 
" style="fill: none; stroke: #000000; stroke-width: 0.8; stroke-linejoin: miter; stroke-linecap: square"/>
   </g>
   <g id="patch_6">
    <path d="M 90 86.4 
L 648 86.4 
" style="fill: none; stroke: #000000; stroke-width: 0.8; stroke-linejoin: miter; stroke-linecap: square"/>
   </g>
   <g id="text_17">
    <!-- Correlation $\overline{P}$: -0.010369904 -->
    <g transform="translate(213.02 80.4)scale(0.22 -0.22)">
     <defs>
      <path id="DejaVuSans-43" d="M 4122 4306 
L 4122 3641 
Q 3803 3938 3442 4084 
Q 3081 4231 2675 4231 
Q 1875 4231 1450 3742 
Q 1025 3253 1025 2328 
Q 1025 1406 1450 917 
Q 1875 428 2675 428 
Q 3081 428 3442 575 
Q 3803 722 4122 1019 
L 4122 359 
Q 3791 134 3420 21 
Q 3050 -91 2638 -91 
Q 1578 -91 968 557 
Q 359 1206 359 2328 
Q 359 3453 968 4101 
Q 1578 4750 2638 4750 
Q 3056 4750 3426 4639 
Q 3797 4528 4122 4306 
z
" transform="scale(0.015625)"/>
      <path id="DejaVuSans-6f" d="M 1959 3097 
Q 1497 3097 1228 2736 
Q 959 2375 959 1747 
Q 959 1119 1226 758 
Q 1494 397 1959 397 
Q 2419 397 2687 759 
Q 2956 1122 2956 1747 
Q 2956 2369 2687 2733 
Q 2419 3097 1959 3097 
z
M 1959 3584 
Q 2709 3584 3137 3096 
Q 3566 2609 3566 1747 
Q 3566 888 3137 398 
Q 2709 -91 1959 -91 
Q 1206 -91 779 398 
Q 353 888 353 1747 
Q 353 2609 779 3096 
Q 1206 3584 1959 3584 
z
" transform="scale(0.015625)"/>
      <path id="DejaVuSans-72" d="M 2631 2963 
Q 2534 3019 2420 3045 
Q 2306 3072 2169 3072 
Q 1681 3072 1420 2755 
Q 1159 2438 1159 1844 
L 1159 0 
L 581 0 
L 581 3500 
L 1159 3500 
L 1159 2956 
Q 1341 3275 1631 3429 
Q 1922 3584 2338 3584 
Q 2397 3584 2469 3576 
Q 2541 3569 2628 3553 
L 2631 2963 
z
" transform="scale(0.015625)"/>
      <path id="DejaVuSans-65" d="M 3597 1894 
L 3597 1613 
L 953 1613 
Q 991 1019 1311 708 
Q 1631 397 2203 397 
Q 2534 397 2845 478 
Q 3156 559 3463 722 
L 3463 178 
Q 3153 47 2828 -22 
Q 2503 -91 2169 -91 
Q 1331 -91 842 396 
Q 353 884 353 1716 
Q 353 2575 817 3079 
Q 1281 3584 2069 3584 
Q 2775 3584 3186 3129 
Q 3597 2675 3597 1894 
z
M 3022 2063 
Q 3016 2534 2758 2815 
Q 2500 3097 2075 3097 
Q 1594 3097 1305 2825 
Q 1016 2553 972 2059 
L 3022 2063 
z
" transform="scale(0.015625)"/>
      <path id="DejaVuSans-6c" d="M 603 4863 
L 1178 4863 
L 1178 0 
L 603 0 
L 603 4863 
z
" transform="scale(0.015625)"/>
      <path id="DejaVuSans-61" d="M 2194 1759 
Q 1497 1759 1228 1600 
Q 959 1441 959 1056 
Q 959 750 1161 570 
Q 1363 391 1709 391 
Q 2188 391 2477 730 
Q 2766 1069 2766 1631 
L 2766 1759 
L 2194 1759 
z
M 3341 1997 
L 3341 0 
L 2766 0 
L 2766 531 
Q 2569 213 2275 61 
Q 1981 -91 1556 -91 
Q 1019 -91 701 211 
Q 384 513 384 1019 
Q 384 1609 779 1909 
Q 1175 2209 1959 2209 
L 2766 2209 
L 2766 2266 
Q 2766 2663 2505 2880 
Q 2244 3097 1772 3097 
Q 1472 3097 1187 3025 
Q 903 2953 641 2809 
L 641 3341 
Q 956 3463 1253 3523 
Q 1550 3584 1831 3584 
Q 2591 3584 2966 3190 
Q 3341 2797 3341 1997 
z
" transform="scale(0.015625)"/>
      <path id="DejaVuSans-69" d="M 603 3500 
L 1178 3500 
L 1178 0 
L 603 0 
L 603 3500 
z
M 603 4863 
L 1178 4863 
L 1178 4134 
L 603 4134 
L 603 4863 
z
" transform="scale(0.015625)"/>
      <path id="DejaVuSans-6e" d="M 3513 2113 
L 3513 0 
L 2938 0 
L 2938 2094 
Q 2938 2591 2744 2837 
Q 2550 3084 2163 3084 
Q 1697 3084 1428 2787 
Q 1159 2491 1159 1978 
L 1159 0 
L 581 0 
L 581 3500 
L 1159 3500 
L 1159 2956 
Q 1366 3272 1645 3428 
Q 1925 3584 2291 3584 
Q 2894 3584 3203 3211 
Q 3513 2838 3513 2113 
z
" transform="scale(0.015625)"/>
      <path id="DejaVuSans-20" transform="scale(0.015625)"/>
      <path id="DejaVuSans-Oblique-50" d="M 1081 4666 
L 2541 4666 
Q 3178 4666 3512 4369 
Q 3847 4072 3847 3500 
Q 3847 2731 3353 2303 
Q 2859 1875 1966 1875 
L 1172 1875 
L 806 0 
L 172 0 
L 1081 4666 
z
M 1613 4147 
L 1275 2394 
L 2069 2394 
Q 2606 2394 2893 2669 
Q 3181 2944 3181 3456 
Q 3181 3784 2986 3965 
Q 2791 4147 2438 4147 
L 1613 4147 
z
" transform="scale(0.015625)"/>
      <path id="DejaVuSans-3a" d="M 750 794 
L 1409 794 
L 1409 0 
L 750 0 
L 750 794 
z
M 750 3309 
L 1409 3309 
L 1409 2516 
L 750 2516 
L 750 3309 
z
" transform="scale(0.015625)"/>
      <path id="DejaVuSans-2d" d="M 313 2009 
L 1997 2009 
L 1997 1497 
L 313 1497 
L 313 2009 
z
" transform="scale(0.015625)"/>
      <path id="DejaVuSans-2e" d="M 684 794 
L 1344 794 
L 1344 0 
L 684 0 
L 684 794 
z
" transform="scale(0.015625)"/>
      <path id="DejaVuSans-36" d="M 2113 2584 
Q 1688 2584 1439 2293 
Q 1191 2003 1191 1497 
Q 1191 994 1439 701 
Q 1688 409 2113 409 
Q 2538 409 2786 701 
Q 3034 994 3034 1497 
Q 3034 2003 2786 2293 
Q 2538 2584 2113 2584 
z
M 3366 4563 
L 3366 3988 
Q 3128 4100 2886 4159 
Q 2644 4219 2406 4219 
Q 1781 4219 1451 3797 
Q 1122 3375 1075 2522 
Q 1259 2794 1537 2939 
Q 1816 3084 2150 3084 
Q 2853 3084 3261 2657 
Q 3669 2231 3669 1497 
Q 3669 778 3244 343 
Q 2819 -91 2113 -91 
Q 1303 -91 875 529 
Q 447 1150 447 2328 
Q 447 3434 972 4092 
Q 1497 4750 2381 4750 
Q 2619 4750 2861 4703 
Q 3103 4656 3366 4563 
z
" transform="scale(0.015625)"/>
      <path id="DejaVuSans-39" d="M 703 97 
L 703 672 
Q 941 559 1184 500 
Q 1428 441 1663 441 
Q 2288 441 2617 861 
Q 2947 1281 2994 2138 
Q 2813 1869 2534 1725 
Q 2256 1581 1919 1581 
Q 1219 1581 811 2004 
Q 403 2428 403 3163 
Q 403 3881 828 4315 
Q 1253 4750 1959 4750 
Q 2769 4750 3195 4129 
Q 3622 3509 3622 2328 
Q 3622 1225 3098 567 
Q 2575 -91 1691 -91 
Q 1453 -91 1209 -44 
Q 966 3 703 97 
z
M 1959 2075 
Q 2384 2075 2632 2365 
Q 2881 2656 2881 3163 
Q 2881 3666 2632 3958 
Q 2384 4250 1959 4250 
Q 1534 4250 1286 3958 
Q 1038 3666 1038 3163 
Q 1038 2656 1286 2365 
Q 1534 2075 1959 2075 
z
" transform="scale(0.015625)"/>
      <path id="DejaVuSans-34" d="M 2419 4116 
L 825 1625 
L 2419 1625 
L 2419 4116 
z
M 2253 4666 
L 3047 4666 
L 3047 1625 
L 3713 1625 
L 3713 1100 
L 3047 1100 
L 3047 0 
L 2419 0 
L 2419 1100 
L 313 1100 
L 313 1709 
L 2253 4666 
z
" transform="scale(0.015625)"/>
     </defs>
     <use xlink:href="#DejaVuSans-43" transform="translate(0 0.34375)"/>
     <use xlink:href="#DejaVuSans-6f" transform="translate(69.824219 0.34375)"/>
     <use xlink:href="#DejaVuSans-72" transform="translate(131.005859 0.34375)"/>
     <use xlink:href="#DejaVuSans-72" transform="translate(172.119141 0.34375)"/>
     <use xlink:href="#DejaVuSans-65" transform="translate(213.232422 0.34375)"/>
     <use xlink:href="#DejaVuSans-6c" transform="translate(274.755859 0.34375)"/>
     <use xlink:href="#DejaVuSans-61" transform="translate(302.539062 0.34375)"/>
     <use xlink:href="#DejaVuSans-74" transform="translate(363.818359 0.34375)"/>
     <use xlink:href="#DejaVuSans-69" transform="translate(403.027344 0.34375)"/>
     <use xlink:href="#DejaVuSans-6f" transform="translate(430.810547 0.34375)"/>
     <use xlink:href="#DejaVuSans-6e" transform="translate(491.992188 0.34375)"/>
     <use xlink:href="#DejaVuSans-20" transform="translate(555.371094 0.34375)"/>
     <use xlink:href="#DejaVuSans-Oblique-50" transform="translate(587.158203 0.84375)"/>
     <use xlink:href="#DejaVuSans-3a" transform="translate(647.460938 0.34375)"/>
     <use xlink:href="#DejaVuSans-20" transform="translate(681.152344 0.34375)"/>
     <use xlink:href="#DejaVuSans-2d" transform="translate(712.939453 0.34375)"/>
     <use xlink:href="#DejaVuSans-30" transform="translate(749.023438 0.34375)"/>
     <use xlink:href="#DejaVuSans-2e" transform="translate(812.646484 0.34375)"/>
     <use xlink:href="#DejaVuSans-30" transform="translate(844.433594 0.34375)"/>
     <use xlink:href="#DejaVuSans-31" transform="translate(908.056641 0.34375)"/>
     <use xlink:href="#DejaVuSans-30" transform="translate(971.679688 0.34375)"/>
     <use xlink:href="#DejaVuSans-33" transform="translate(1035.302734 0.34375)"/>
     <use xlink:href="#DejaVuSans-36" transform="translate(1098.925781 0.34375)"/>
     <use xlink:href="#DejaVuSans-39" transform="translate(1162.548828 0.34375)"/>
     <use xlink:href="#DejaVuSans-39" transform="translate(1226.171875 0.34375)"/>
     <use xlink:href="#DejaVuSans-30" transform="translate(1289.794922 0.34375)"/>
     <use xlink:href="#DejaVuSans-34" transform="translate(1353.417969 0.34375)"/>
     <path d="M 587.158203 85.5 
L 587.158203 91.75 
L 647.460938 91.75 
L 647.460938 85.5 
L 587.158203 85.5 
z
"/>
    </g>
   </g>
   <g id="legend_1">
    <g id="patch_7">
     <path d="M 104 161.35625 
L 180.2 161.35625 
Q 184.2 161.35625 184.2 157.35625 
L 184.2 100.4 
Q 184.2 96.4 180.2 96.4 
L 104 96.4 
Q 100 96.4 100 100.4 
L 100 157.35625 
Q 100 161.35625 104 161.35625 
z
" style="fill: #ffffff; opacity: 0.8; stroke: #cccccc; stroke-linejoin: miter"/>
    </g>
    <g id="PathCollection_3">
     <path d="M 128 118.219858 
C 129.027127 118.219858 130.012324 117.811776 130.738613 117.085488 
C 131.464901 116.359199 131.872983 115.374002 131.872983 114.346875 
C 131.872983 113.319748 131.464901 112.334551 130.738613 111.608262 
C 130.012324 110.881974 129.027127 110.473892 128 110.473892 
C 126.972873 110.473892 125.987676 110.881974 125.261387 111.608262 
C 124.535099 112.334551 124.127017 113.319748 124.127017 114.346875 
C 124.127017 115.374002 124.535099 116.359199 125.261387 117.085488 
C 125.987676 117.811776 126.972873 118.219858 128 118.219858 
L 128 118.219858 
z
" style="fill: none; stroke: #0000ff; stroke-opacity: 0.3"/>
    </g>
    <g id="text_18">
     <!-- $P$ -->
     <g transform="translate(164 119.596875)scale(0.2 -0.2)">
      <use xlink:href="#DejaVuSans-Oblique-50" transform="translate(0 0.09375)"/>
     </g>
    </g>
    <g id="PathCollection_4">
     <path d="M 128 147.819858 
C 129.027127 147.819858 130.012324 147.411776 130.738613 146.685488 
C 131.464901 145.959199 131.872983 144.974002 131.872983 143.946875 
C 131.872983 142.919748 131.464901 141.934551 130.738613 141.208262 
C 130.012324 140.481974 129.027127 140.073892 128 140.073892 
C 126.972873 140.073892 125.987676 140.481974 125.261387 141.208262 
C 124.535099 141.934551 124.127017 142.919748 124.127017 143.946875 
C 124.127017 144.974002 124.535099 145.959199 125.261387 146.685488 
C 125.987676 147.411776 126.972873 147.819858 128 147.819858 
L 128 147.819858 
z
" style="fill: none; stroke: #008000"/>
    </g>
    <g id="text_19">
     <!-- $\overline{P}$ -->
     <g transform="translate(164 149.196875)scale(0.2 -0.2)">
      <use xlink:href="#DejaVuSans-Oblique-50" transform="translate(0 0.84375)"/>
      <path d="M 0 85.5 
L 0 91.75 
L 60.302734 91.75 
L 60.302734 85.5 
L 0 85.5 
z
"/>
     </g>
    </g>
   </g>
  </g>
 </g>
 <defs>
  <clipPath id="paa35a8cfbc">
   <rect x="90" y="86.4" width="558" height="543.6"/>
  </clipPath>
 </defs>
</svg>
