<?xml version="1.0" encoding="UTF-8" standalone="no"?>
<svg
   width="720pt"
   height="720pt"
   viewBox="0 0 720 720"
   version="1.1"
   id="svg80999"
   sodipodi:docname="matching_times_SLTS_P.svg"
   inkscape:version="1.2.1 (9c6d41e, 2022-07-14)"
   xmlns:inkscape="http://www.inkscape.org/namespaces/inkscape"
   xmlns:sodipodi="http://sodipodi.sourceforge.net/DTD/sodipodi-0.dtd"
   xmlns:xlink="http://www.w3.org/1999/xlink"
   xmlns="http://www.w3.org/2000/svg"
   xmlns:svg="http://www.w3.org/2000/svg"
   xmlns:rdf="http://www.w3.org/1999/02/22-rdf-syntax-ns#"
   xmlns:cc="http://creativecommons.org/ns#"
   xmlns:dc="http://purl.org/dc/elements/1.1/">
  <sodipodi:namedview
     id="namedview81001"
     pagecolor="#ffffff"
     bordercolor="#666666"
     borderopacity="1.0"
     inkscape:showpageshadow="2"
     inkscape:pageopacity="0.0"
     inkscape:pagecheckerboard="0"
     inkscape:deskcolor="#d1d1d1"
     inkscape:document-units="pt"
     showgrid="false"
     inkscape:zoom="0.69532167"
     inkscape:cx="409.16314"
     inkscape:cy="488.26323"
     inkscape:window-width="1512"
     inkscape:window-height="945"
     inkscape:window-x="0"
     inkscape:window-y="37"
     inkscape:window-maximized="0"
     inkscape:current-layer="svg80999" />
  <metadata
     id="metadata80471">
    <rdf:RDF>
      <cc:Work>
        <dc:type
           rdf:resource="http://purl.org/dc/dcmitype/StillImage" />
        <dc:date>2023-06-08T08:49:08.460434</dc:date>
        <dc:format>image/svg+xml</dc:format>
        <dc:creator>
          <cc:Agent>
            <dc:title>Matplotlib v3.5.1, https://matplotlib.org/</dc:title>
          </cc:Agent>
        </dc:creator>
      </cc:Work>
    </rdf:RDF>
  </metadata>
  <defs
     id="defs80475">
    <style
       type="text/css"
       id="style80473">*{stroke-linejoin: round; stroke-linecap: butt}</style>
  </defs>
  <g
     id="figure_1">
    <g
       id="patch_1">
      <path
         d="M 0 720  L 720 720  L 720 0  L 0 0  L 0 720  z "
         style="fill: none"
         id="path80477" />
    </g>
    <g
       id="axes_1">
      <g
         id="patch_2">
        <path
           d="M 90 630  L 648 630  L 648 86.4  L 90 86.4  z "
           style="fill: #ffffff"
           id="path80480" />
      </g>
      <g
         id="PathCollection_1">
        <defs
           id="defs80484">
          <path
             id="C0_0_5c0cbc6803"
             d="M 0 3.872983  C 1.027127 3.872983 2.012324 3.464901 2.738613 2.738613  C 3.464901 2.012324 3.872983 1.027127 3.872983 -0  C 3.872983 -1.027127 3.464901 -2.012324 2.738613 -2.738613  C 2.012324 -3.464901 1.027127 -3.872983 0 -3.872983  C -1.027127 -3.872983 -2.012324 -3.464901 -2.738613 -2.738613  C -3.464901 -2.012324 -3.872983 -1.027127 -3.872983 0  C -3.872983 1.027127 -3.464901 2.012324 -2.738613 2.738613  C -2.012324 3.464901 -1.027127 3.872983 0 3.872983  z " />
        </defs>
        <g
           clip-path="url(#pa59d221843)"
           id="g80488">
          <use
             xlink:href="#C0_0_5c0cbc6803"
             x="115.363636"
             y="605.290909"
             style="fill: none; stroke: #0000ff"
             id="use80486" />
        </g>
        <g
           clip-path="url(#pa59d221843)"
           id="g80492">
          <use
             xlink:href="#C0_0_5c0cbc6803"
             x="125.509091"
             y="596.139394"
             style="fill: none; stroke: #0000ff"
             id="use80490" />
        </g>
        <g
           clip-path="url(#pa59d221843)"
           id="g80496">
          <use
             xlink:href="#C0_0_5c0cbc6803"
             x="135.654545"
             y="586.987879"
             style="fill: none; stroke: #0000ff"
             id="use80494" />
        </g>
        <g
           clip-path="url(#pa59d221843)"
           id="g80500">
          <use
             xlink:href="#C0_0_5c0cbc6803"
             x="145.8"
             y="577.836364"
             style="fill: none; stroke: #0000ff"
             id="use80498" />
        </g>
        <g
           clip-path="url(#pa59d221843)"
           id="g80504">
          <use
             xlink:href="#C0_0_5c0cbc6803"
             x="155.945455"
             y="568.684848"
             style="fill: none; stroke: #0000ff"
             id="use80502" />
        </g>
        <g
           clip-path="url(#pa59d221843)"
           id="g80508">
          <use
             xlink:href="#C0_0_5c0cbc6803"
             x="166.090909"
             y="559.533333"
             style="fill: none; stroke: #0000ff"
             id="use80506" />
        </g>
        <g
           clip-path="url(#pa59d221843)"
           id="g80512">
          <use
             xlink:href="#C0_0_5c0cbc6803"
             x="176.236364"
             y="230.078788"
             style="fill: none; stroke: #0000ff"
             id="use80510" />
        </g>
        <g
           clip-path="url(#pa59d221843)"
           id="g80516">
          <use
             xlink:href="#C0_0_5c0cbc6803"
             x="186.381818"
             y="550.381818"
             style="fill: none; stroke: #0000ff"
             id="use80514" />
        </g>
        <g
           clip-path="url(#pa59d221843)"
           id="g80520">
          <use
             xlink:href="#C0_0_5c0cbc6803"
             x="196.527273"
             y="541.230303"
             style="fill: none; stroke: #0000ff"
             id="use80518" />
        </g>
        <g
           clip-path="url(#pa59d221843)"
           id="g80524">
          <use
             xlink:href="#C0_0_5c0cbc6803"
             x="206.672727"
             y="522.927273"
             style="fill: none; stroke: #0000ff"
             id="use80522" />
        </g>
        <g
           clip-path="url(#pa59d221843)"
           id="g80528">
          <use
             xlink:href="#C0_0_5c0cbc6803"
             x="216.818182"
             y="513.775758"
             style="fill: none; stroke: #0000ff"
             id="use80526" />
        </g>
        <g
           clip-path="url(#pa59d221843)"
           id="g80532">
          <use
             xlink:href="#C0_0_5c0cbc6803"
             x="226.963636"
             y="532.078788"
             style="fill: none; stroke: #0000ff"
             id="use80530" />
        </g>
        <g
           clip-path="url(#pa59d221843)"
           id="g80536">
          <use
             xlink:href="#C0_0_5c0cbc6803"
             x="237.109091"
             y="495.472727"
             style="fill: none; stroke: #0000ff"
             id="use80534" />
        </g>
        <g
           clip-path="url(#pa59d221843)"
           id="g80540">
          <use
             xlink:href="#C0_0_5c0cbc6803"
             x="247.254545"
             y="486.321212"
             style="fill: none; stroke: #0000ff"
             id="use80538" />
        </g>
        <g
           clip-path="url(#pa59d221843)"
           id="g80544">
          <use
             xlink:href="#C0_0_5c0cbc6803"
             x="257.4"
             y="477.169697"
             style="fill: none; stroke: #0000ff"
             id="use80542" />
        </g>
        <g
           clip-path="url(#pa59d221843)"
           id="g80548">
          <use
             xlink:href="#C0_0_5c0cbc6803"
             x="267.545455"
             y="349.048485"
             style="fill: none; stroke: #0000ff"
             id="use80546" />
        </g>
        <g
           clip-path="url(#pa59d221843)"
           id="g80552">
          <use
             xlink:href="#C0_0_5c0cbc6803"
             x="277.690909"
             y="449.715152"
             style="fill: none; stroke: #0000ff"
             id="use80550" />
        </g>
        <g
           clip-path="url(#pa59d221843)"
           id="g80556">
          <use
             xlink:href="#C0_0_5c0cbc6803"
             x="287.836364"
             y="312.442424"
             style="fill: none; stroke: #0000ff"
             id="use80554" />
        </g>
        <g
           clip-path="url(#pa59d221843)"
           id="g80560">
          <use
             xlink:href="#C0_0_5c0cbc6803"
             x="297.981818"
             y="440.563636"
             style="fill: none; stroke: #0000ff"
             id="use80558" />
        </g>
        <g
           clip-path="url(#pa59d221843)"
           id="g80564">
          <use
             xlink:href="#C0_0_5c0cbc6803"
             x="308.127273"
             y="431.412121"
             style="fill: none; stroke: #0000ff"
             id="use80562" />
        </g>
        <g
           clip-path="url(#pa59d221843)"
           id="g80568">
          <use
             xlink:href="#C0_0_5c0cbc6803"
             x="318.272727"
             y="367.351515"
             style="fill: none; stroke: #0000ff"
             id="use80566" />
        </g>
        <g
           clip-path="url(#pa59d221843)"
           id="g80572">
          <use
             xlink:href="#C0_0_5c0cbc6803"
             x="328.418182"
             y="385.654545"
             style="fill: none; stroke: #0000ff"
             id="use80570" />
        </g>
        <g
           clip-path="url(#pa59d221843)"
           id="g80576">
          <use
             xlink:href="#C0_0_5c0cbc6803"
             x="338.563636"
             y="403.957576"
             style="fill: none; stroke: #0000ff"
             id="use80574" />
        </g>
        <g
           clip-path="url(#pa59d221843)"
           id="g80580">
          <use
             xlink:href="#C0_0_5c0cbc6803"
             x="348.709091"
             y="376.50303"
             style="fill: none; stroke: #0000ff"
             id="use80578" />
        </g>
        <g
           clip-path="url(#pa59d221843)"
           id="g80584">
          <use
             xlink:href="#C0_0_5c0cbc6803"
             x="358.854545"
             y="303.290909"
             style="fill: none; stroke: #0000ff"
             id="use80582" />
        </g>
        <g
           clip-path="url(#pa59d221843)"
           id="g80588">
          <use
             xlink:href="#C0_0_5c0cbc6803"
             x="369"
             y="257.533333"
             style="fill: none; stroke: #0000ff"
             id="use80586" />
        </g>
        <g
           clip-path="url(#pa59d221843)"
           id="g80592">
          <use
             xlink:href="#C0_0_5c0cbc6803"
             x="379.145455"
             y="339.89697"
             style="fill: none; stroke: #0000ff"
             id="use80590" />
        </g>
        <g
           clip-path="url(#pa59d221843)"
           id="g80596">
          <use
             xlink:href="#C0_0_5c0cbc6803"
             x="389.290909"
             y="248.381818"
             style="fill: none; stroke: #0000ff"
             id="use80594" />
        </g>
        <g
           clip-path="url(#pa59d221843)"
           id="g80600">
          <use
             xlink:href="#C0_0_5c0cbc6803"
             x="399.436364"
             y="458.866667"
             style="fill: none; stroke: #0000ff"
             id="use80598" />
        </g>
        <g
           clip-path="url(#pa59d221843)"
           id="g80604">
          <use
             xlink:href="#C0_0_5c0cbc6803"
             x="409.581818"
             y="468.018182"
             style="fill: none; stroke: #0000ff"
             id="use80602" />
        </g>
        <g
           clip-path="url(#pa59d221843)"
           id="g80608">
          <use
             xlink:href="#C0_0_5c0cbc6803"
             x="419.727273"
             y="220.927273"
             style="fill: none; stroke: #0000ff"
             id="use80606" />
        </g>
        <g
           clip-path="url(#pa59d221843)"
           id="g80612">
          <use
             xlink:href="#C0_0_5c0cbc6803"
             x="429.872727"
             y="275.836364"
             style="fill: none; stroke: #0000ff"
             id="use80610" />
        </g>
        <g
           clip-path="url(#pa59d221843)"
           id="g80616">
          <use
             xlink:href="#C0_0_5c0cbc6803"
             x="440.018182"
             y="193.472727"
             style="fill: none; stroke: #0000ff"
             id="use80614" />
        </g>
        <g
           clip-path="url(#pa59d221843)"
           id="g80620">
          <use
             xlink:href="#C0_0_5c0cbc6803"
             x="450.163636"
             y="184.321212"
             style="fill: none; stroke: #0000ff"
             id="use80618" />
        </g>
        <g
           clip-path="url(#pa59d221843)"
           id="g80624">
          <use
             xlink:href="#C0_0_5c0cbc6803"
             x="460.309091"
             y="211.775758"
             style="fill: none; stroke: #0000ff"
             id="use80622" />
        </g>
        <g
           clip-path="url(#pa59d221843)"
           id="g80628">
          <use
             xlink:href="#C0_0_5c0cbc6803"
             x="470.454545"
             y="166.018182"
             style="fill: none; stroke: #0000ff"
             id="use80626" />
        </g>
        <g
           clip-path="url(#pa59d221843)"
           id="g80632">
          <use
             xlink:href="#C0_0_5c0cbc6803"
             x="480.6"
             y="175.169697"
             style="fill: none; stroke: #0000ff"
             id="use80630" />
        </g>
        <g
           clip-path="url(#pa59d221843)"
           id="g80636">
          <use
             xlink:href="#C0_0_5c0cbc6803"
             x="490.745455"
             y="147.715152"
             style="fill: none; stroke: #0000ff"
             id="use80634" />
        </g>
        <g
           clip-path="url(#pa59d221843)"
           id="g80640">
          <use
             xlink:href="#C0_0_5c0cbc6803"
             x="500.890909"
             y="330.745455"
             style="fill: none; stroke: #0000ff"
             id="use80638" />
        </g>
        <g
           clip-path="url(#pa59d221843)"
           id="g80644">
          <use
             xlink:href="#C0_0_5c0cbc6803"
             x="511.036364"
             y="138.563636"
             style="fill: none; stroke: #0000ff"
             id="use80642" />
        </g>
        <g
           clip-path="url(#pa59d221843)"
           id="g80648">
          <use
             xlink:href="#C0_0_5c0cbc6803"
             x="521.181818"
             y="120.260606"
             style="fill: none; stroke: #0000ff"
             id="use80646" />
        </g>
        <g
           clip-path="url(#pa59d221843)"
           id="g80652">
          <use
             xlink:href="#C0_0_5c0cbc6803"
             x="531.327273"
             y="129.412121"
             style="fill: none; stroke: #0000ff"
             id="use80650" />
        </g>
        <g
           clip-path="url(#pa59d221843)"
           id="g80656">
          <use
             xlink:href="#C0_0_5c0cbc6803"
             x="541.472727"
             y="156.866667"
             style="fill: none; stroke: #0000ff"
             id="use80654" />
        </g>
        <g
           clip-path="url(#pa59d221843)"
           id="g80660">
          <use
             xlink:href="#C0_0_5c0cbc6803"
             x="551.618182"
             y="111.109091"
             style="fill: none; stroke: #0000ff"
             id="use80658" />
        </g>
        <g
           clip-path="url(#pa59d221843)"
           id="g80664">
          <use
             xlink:href="#C0_0_5c0cbc6803"
             x="561.763636"
             y="284.987879"
             style="fill: none; stroke: #0000ff"
             id="use80662" />
        </g>
        <g
           clip-path="url(#pa59d221843)"
           id="g80668">
          <use
             xlink:href="#C0_0_5c0cbc6803"
             x="571.909091"
             y="394.806061"
             style="fill: none; stroke: #0000ff"
             id="use80666" />
        </g>
        <g
           clip-path="url(#pa59d221843)"
           id="g80672">
          <use
             xlink:href="#C0_0_5c0cbc6803"
             x="582.054545"
             y="422.260606"
             style="fill: none; stroke: #0000ff"
             id="use80670" />
        </g>
        <g
           clip-path="url(#pa59d221843)"
           id="g80676">
          <use
             xlink:href="#C0_0_5c0cbc6803"
             x="592.2"
             y="413.109091"
             style="fill: none; stroke: #0000ff"
             id="use80674" />
        </g>
        <g
           clip-path="url(#pa59d221843)"
           id="g80680">
          <use
             xlink:href="#C0_0_5c0cbc6803"
             x="602.345455"
             y="239.230303"
             style="fill: none; stroke: #0000ff"
             id="use80678" />
        </g>
        <g
           clip-path="url(#pa59d221843)"
           id="g80684">
          <use
             xlink:href="#C0_0_5c0cbc6803"
             x="612.490909"
             y="294.139394"
             style="fill: none; stroke: #0000ff"
             id="use80682" />
        </g>
        <g
           clip-path="url(#pa59d221843)"
           id="g80688">
          <use
             xlink:href="#C0_0_5c0cbc6803"
             x="622.636364"
             y="321.593939"
             style="fill: none; stroke: #0000ff"
             id="use80686" />
        </g>
      </g>
      <g
         id="matplotlib.axis_1">
        <g
           id="xtick_1">
          <g
             id="line2d_1">
            <defs
               id="defs80692">
              <path
                 id="m7f16dc4c19"
                 d="M 0 0  L 0 3.5  "
                 style="stroke: #000000; stroke-width: 0.8" />
            </defs>
            <g
               id="g80696">
              <use
                 xlink:href="#m7f16dc4c19"
                 x="106.909091"
                 y="630"
                 style="stroke: #000000; stroke-width: 0.8"
                 id="use80694" />
            </g>
          </g>
          <g
             id="text_1">
            <!-- 0 -->
            <g
               transform="translate(101.819091 649.1575)scale(0.16 -0.16)"
               id="g80704">
              <defs
                 id="defs80700">
                <path
                   id="DejaVuSans-30"
                   d="M 2034 4250  Q 1547 4250 1301 3770  Q 1056 3291 1056 2328  Q 1056 1369 1301 889  Q 1547 409 2034 409  Q 2525 409 2770 889  Q 3016 1369 3016 2328  Q 3016 3291 2770 3770  Q 2525 4250 2034 4250  z M 2034 4750  Q 2819 4750 3233 4129  Q 3647 3509 3647 2328  Q 3647 1150 3233 529  Q 2819 -91 2034 -91  Q 1250 -91 836 529  Q 422 1150 422 2328  Q 422 3509 836 4129  Q 1250 4750 2034 4750  z "
                   transform="scale(0.015625)" />
              </defs>
              <use
                 xlink:href="#DejaVuSans-30"
                 id="use80702" />
            </g>
          </g>
        </g>
        <g
           id="xtick_2">
          <g
             id="line2d_2">
            <g
               id="g80710">
              <use
                 xlink:href="#m7f16dc4c19"
                 x="191.454545"
                 y="630"
                 style="stroke: #000000; stroke-width: 0.8"
                 id="use80708" />
            </g>
          </g>
          <g
             id="text_2">
            <!-- 5 -->
            <g
               transform="translate(186.364545 649.1575)scale(0.16 -0.16)"
               id="g80718">
              <defs
                 id="defs80714">
                <path
                   id="DejaVuSans-35"
                   d="M 691 4666  L 3169 4666  L 3169 4134  L 1269 4134  L 1269 2991  Q 1406 3038 1543 3061  Q 1681 3084 1819 3084  Q 2600 3084 3056 2656  Q 3513 2228 3513 1497  Q 3513 744 3044 326  Q 2575 -91 1722 -91  Q 1428 -91 1123 -41  Q 819 9 494 109  L 494 744  Q 775 591 1075 516  Q 1375 441 1709 441  Q 2250 441 2565 725  Q 2881 1009 2881 1497  Q 2881 1984 2565 2268  Q 2250 2553 1709 2553  Q 1456 2553 1204 2497  Q 953 2441 691 2322  L 691 4666  z "
                   transform="scale(0.015625)" />
              </defs>
              <use
                 xlink:href="#DejaVuSans-35"
                 id="use80716" />
            </g>
          </g>
        </g>
        <g
           id="xtick_3">
          <g
             id="line2d_3">
            <g
               id="g80724">
              <use
                 xlink:href="#m7f16dc4c19"
                 x="276"
                 y="630"
                 style="stroke: #000000; stroke-width: 0.8"
                 id="use80722" />
            </g>
          </g>
          <g
             id="text_3">
            <!-- 10 -->
            <g
               transform="translate(265.82 649.1575)scale(0.16 -0.16)"
               id="g80734">
              <defs
                 id="defs80728">
                <path
                   id="DejaVuSans-31"
                   d="M 794 531  L 1825 531  L 1825 4091  L 703 3866  L 703 4441  L 1819 4666  L 2450 4666  L 2450 531  L 3481 531  L 3481 0  L 794 0  L 794 531  z "
                   transform="scale(0.015625)" />
              </defs>
              <use
                 xlink:href="#DejaVuSans-31"
                 id="use80730" />
              <use
                 xlink:href="#DejaVuSans-30"
                 x="63.623047"
                 id="use80732" />
            </g>
          </g>
        </g>
        <g
           id="xtick_4">
          <g
             id="line2d_4">
            <g
               id="g80740">
              <use
                 xlink:href="#m7f16dc4c19"
                 x="360.545455"
                 y="630"
                 style="stroke: #000000; stroke-width: 0.8"
                 id="use80738" />
            </g>
          </g>
          <g
             id="text_4">
            <!-- 15 -->
            <g
               transform="translate(350.365455 649.1575)scale(0.16 -0.16)"
               id="g80747">
              <use
                 xlink:href="#DejaVuSans-31"
                 id="use80743" />
              <use
                 xlink:href="#DejaVuSans-35"
                 x="63.623047"
                 id="use80745" />
            </g>
          </g>
        </g>
        <g
           id="xtick_5">
          <g
             id="line2d_5">
            <g
               id="g80753">
              <use
                 xlink:href="#m7f16dc4c19"
                 x="445.090909"
                 y="630"
                 style="stroke: #000000; stroke-width: 0.8"
                 id="use80751" />
            </g>
          </g>
          <g
             id="text_5">
            <!-- 20 -->
            <g
               transform="translate(434.910909 649.1575)scale(0.16 -0.16)"
               id="g80763">
              <defs
                 id="defs80757">
                <path
                   id="DejaVuSans-32"
                   d="M 1228 531  L 3431 531  L 3431 0  L 469 0  L 469 531  Q 828 903 1448 1529  Q 2069 2156 2228 2338  Q 2531 2678 2651 2914  Q 2772 3150 2772 3378  Q 2772 3750 2511 3984  Q 2250 4219 1831 4219  Q 1534 4219 1204 4116  Q 875 4013 500 3803  L 500 4441  Q 881 4594 1212 4672  Q 1544 4750 1819 4750  Q 2544 4750 2975 4387  Q 3406 4025 3406 3419  Q 3406 3131 3298 2873  Q 3191 2616 2906 2266  Q 2828 2175 2409 1742  Q 1991 1309 1228 531  z "
                   transform="scale(0.015625)" />
              </defs>
              <use
                 xlink:href="#DejaVuSans-32"
                 id="use80759" />
              <use
                 xlink:href="#DejaVuSans-30"
                 x="63.623047"
                 id="use80761" />
            </g>
          </g>
        </g>
        <g
           id="xtick_6">
          <g
             id="line2d_6">
            <g
               id="g80769">
              <use
                 xlink:href="#m7f16dc4c19"
                 x="529.636364"
                 y="630"
                 style="stroke: #000000; stroke-width: 0.8"
                 id="use80767" />
            </g>
          </g>
          <g
             id="text_6">
            <!-- 25 -->
            <g
               transform="translate(519.456364 649.1575)scale(0.16 -0.16)"
               id="g80776">
              <use
                 xlink:href="#DejaVuSans-32"
                 id="use80772" />
              <use
                 xlink:href="#DejaVuSans-35"
                 x="63.623047"
                 id="use80774" />
            </g>
          </g>
        </g>
        <g
           id="xtick_7">
          <g
             id="line2d_7">
            <g
               id="g80782">
              <use
                 xlink:href="#m7f16dc4c19"
                 x="614.181818"
                 y="630"
                 style="stroke: #000000; stroke-width: 0.8"
                 id="use80780" />
            </g>
          </g>
          <g
             id="text_7">
            <!-- 30 -->
            <g
               transform="translate(604.001818 649.1575)scale(0.16 -0.16)"
               id="g80792">
              <defs
                 id="defs80786">
                <path
                   id="DejaVuSans-33"
                   d="M 2597 2516  Q 3050 2419 3304 2112  Q 3559 1806 3559 1356  Q 3559 666 3084 287  Q 2609 -91 1734 -91  Q 1441 -91 1130 -33  Q 819 25 488 141  L 488 750  Q 750 597 1062 519  Q 1375 441 1716 441  Q 2309 441 2620 675  Q 2931 909 2931 1356  Q 2931 1769 2642 2001  Q 2353 2234 1838 2234  L 1294 2234  L 1294 2753  L 1863 2753  Q 2328 2753 2575 2939  Q 2822 3125 2822 3475  Q 2822 3834 2567 4026  Q 2313 4219 1838 4219  Q 1578 4219 1281 4162  Q 984 4106 628 3988  L 628 4550  Q 988 4650 1302 4700  Q 1616 4750 1894 4750  Q 2613 4750 3031 4423  Q 3450 4097 3450 3541  Q 3450 3153 3228 2886  Q 3006 2619 2597 2516  z "
                   transform="scale(0.015625)" />
              </defs>
              <use
                 xlink:href="#DejaVuSans-33"
                 id="use80788" />
              <use
                 xlink:href="#DejaVuSans-30"
                 x="63.623047"
                 id="use80790" />
            </g>
          </g>
        </g>
        <g
           id="text_8">
          <!-- t -->
          <g
             transform="translate(364.687656 673.201563)scale(0.22 -0.22)"
             id="g80801">
            <defs
               id="defs80797">
              <path
                 id="DejaVuSans-74"
                 d="M 1172 4494  L 1172 3500  L 2356 3500  L 2356 3053  L 1172 3053  L 1172 1153  Q 1172 725 1289 603  Q 1406 481 1766 481  L 2356 481  L 2356 0  L 1766 0  Q 1100 0 847 248  Q 594 497 594 1153  L 594 3053  L 172 3053  L 172 3500  L 594 3500  L 594 4494  L 1172 4494  z "
                 transform="scale(0.015625)" />
            </defs>
            <use
               xlink:href="#DejaVuSans-74"
               id="use80799" />
          </g>
        </g>
      </g>
      <g
         id="matplotlib.axis_2">
        <g
           id="ytick_1">
          <g
             id="line2d_8">
            <defs
               id="defs80806">
              <path
                 id="m3e027ea3d7"
                 d="M 0 0  L -3.5 0  "
                 style="stroke: #000000; stroke-width: 0.8" />
            </defs>
            <g
               id="g80810">
              <use
                 xlink:href="#m3e027ea3d7"
                 x="90"
                 y="612.917172"
                 style="stroke: #000000; stroke-width: 0.8"
                 id="use80808" />
            </g>
          </g>
          <g
             id="text_9">
            <!-- 0 -->
            <g
               transform="translate(72.82 618.995922)scale(0.16 -0.16)"
               id="g80815">
              <use
                 xlink:href="#DejaVuSans-30"
                 id="use80813" />
            </g>
          </g>
        </g>
        <g
           id="ytick_2">
          <g
             id="line2d_9">
            <g
               id="g80821">
              <use
                 xlink:href="#m3e027ea3d7"
                 x="90"
                 y="536.654545"
                 style="stroke: #000000; stroke-width: 0.8"
                 id="use80819" />
            </g>
          </g>
          <g
             id="text_10">
            <!-- 5 -->
            <g
               transform="translate(72.82 542.733295)scale(0.16 -0.16)"
               id="g80826">
              <use
                 xlink:href="#DejaVuSans-35"
                 id="use80824" />
            </g>
          </g>
        </g>
        <g
           id="ytick_3">
          <g
             id="line2d_10">
            <g
               id="g80832">
              <use
                 xlink:href="#m3e027ea3d7"
                 x="90"
                 y="460.391919"
                 style="stroke: #000000; stroke-width: 0.8"
                 id="use80830" />
            </g>
          </g>
          <g
             id="text_11">
            <!-- 10 -->
            <g
               transform="translate(62.64 466.470669)scale(0.16 -0.16)"
               id="g80839">
              <use
                 xlink:href="#DejaVuSans-31"
                 id="use80835" />
              <use
                 xlink:href="#DejaVuSans-30"
                 x="63.623047"
                 id="use80837" />
            </g>
          </g>
        </g>
        <g
           id="ytick_4">
          <g
             id="line2d_11">
            <g
               id="g80845">
              <use
                 xlink:href="#m3e027ea3d7"
                 x="90"
                 y="384.129293"
                 style="stroke: #000000; stroke-width: 0.8"
                 id="use80843" />
            </g>
          </g>
          <g
             id="text_12">
            <!-- 15 -->
            <g
               transform="translate(62.64 390.208043)scale(0.16 -0.16)"
               id="g80852">
              <use
                 xlink:href="#DejaVuSans-31"
                 id="use80848" />
              <use
                 xlink:href="#DejaVuSans-35"
                 x="63.623047"
                 id="use80850" />
            </g>
          </g>
        </g>
        <g
           id="ytick_5">
          <g
             id="line2d_12">
            <g
               id="g80858">
              <use
                 xlink:href="#m3e027ea3d7"
                 x="90"
                 y="307.866667"
                 style="stroke: #000000; stroke-width: 0.8"
                 id="use80856" />
            </g>
          </g>
          <g
             id="text_13">
            <!-- 20 -->
            <g
               transform="translate(62.64 313.945417)scale(0.16 -0.16)"
               id="g80865">
              <use
                 xlink:href="#DejaVuSans-32"
                 id="use80861" />
              <use
                 xlink:href="#DejaVuSans-30"
                 x="63.623047"
                 id="use80863" />
            </g>
          </g>
        </g>
        <g
           id="ytick_6">
          <g
             id="line2d_13">
            <g
               id="g80871">
              <use
                 xlink:href="#m3e027ea3d7"
                 x="90"
                 y="231.60404"
                 style="stroke: #000000; stroke-width: 0.8"
                 id="use80869" />
            </g>
          </g>
          <g
             id="text_14">
            <!-- 25 -->
            <g
               transform="translate(62.64 237.68279)scale(0.16 -0.16)"
               id="g80878">
              <use
                 xlink:href="#DejaVuSans-32"
                 id="use80874" />
              <use
                 xlink:href="#DejaVuSans-35"
                 x="63.623047"
                 id="use80876" />
            </g>
          </g>
        </g>
        <g
           id="ytick_7">
          <g
             id="line2d_14">
            <g
               id="g80884">
              <use
                 xlink:href="#m3e027ea3d7"
                 x="90"
                 y="155.341414"
                 style="stroke: #000000; stroke-width: 0.8"
                 id="use80882" />
            </g>
          </g>
          <g
             id="text_15">
            <!-- 30 -->
            <g
               transform="translate(62.64 161.420164)scale(0.16 -0.16)"
               id="g80891">
              <use
                 xlink:href="#DejaVuSans-33"
                 id="use80887" />
              <use
                 xlink:href="#DejaVuSans-30"
                 x="63.623047"
                 id="use80889" />
            </g>
          </g>
        </g>
        <g
           id="text_16">
          <!-- t' -->
          <g
             transform="translate(54.064688 365.535625)rotate(-90)scale(0.22 -0.22)"
             id="g80902">
            <defs
               id="defs80896">
              <path
                 id="DejaVuSans-27"
                 d="M 1147 4666  L 1147 2931  L 616 2931  L 616 4666  L 1147 4666  z "
                 transform="scale(0.015625)" />
            </defs>
            <use
               xlink:href="#DejaVuSans-74"
               id="use80898" />
            <use
               xlink:href="#DejaVuSans-27"
               x="39.208984"
               id="use80900" />
          </g>
        </g>
      </g>
      <g
         id="patch_3">
        <path
           d="M 90 630  L 90 86.4  "
           style="fill: none; stroke: #000000; stroke-width: 0.8; stroke-linejoin: miter; stroke-linecap: square"
           id="path80906" />
      </g>
      <g
         id="patch_4">
        <path
           d="M 648 630  L 648 86.4  "
           style="fill: none; stroke: #000000; stroke-width: 0.8; stroke-linejoin: miter; stroke-linecap: square"
           id="path80909" />
      </g>
      <g
         id="patch_5">
        <path
           d="M 90 630  L 648 630  "
           style="fill: none; stroke: #000000; stroke-width: 0.8; stroke-linejoin: miter; stroke-linecap: square"
           id="path80912" />
      </g>
      <g
         id="patch_6">
        <path
           d="M 90 86.4  L 648 86.4  "
           style="fill: none; stroke: #000000; stroke-width: 0.8; stroke-linejoin: miter; stroke-linecap: square"
           id="path80915" />
      </g>
      <g
         id="text_17">
        <!-- Matched window-times -->
        <g
           transform="translate(241.905312 80.4)scale(0.22 -0.22)"
           id="g80974">
          <defs
             id="defs80932">
            <path
               id="DejaVuSans-4d"
               d="M 628 4666  L 1569 4666  L 2759 1491  L 3956 4666  L 4897 4666  L 4897 0  L 4281 0  L 4281 4097  L 3078 897  L 2444 897  L 1241 4097  L 1241 0  L 628 0  L 628 4666  z "
               transform="scale(0.015625)" />
            <path
               id="DejaVuSans-61"
               d="M 2194 1759  Q 1497 1759 1228 1600  Q 959 1441 959 1056  Q 959 750 1161 570  Q 1363 391 1709 391  Q 2188 391 2477 730  Q 2766 1069 2766 1631  L 2766 1759  L 2194 1759  z M 3341 1997  L 3341 0  L 2766 0  L 2766 531  Q 2569 213 2275 61  Q 1981 -91 1556 -91  Q 1019 -91 701 211  Q 384 513 384 1019  Q 384 1609 779 1909  Q 1175 2209 1959 2209  L 2766 2209  L 2766 2266  Q 2766 2663 2505 2880  Q 2244 3097 1772 3097  Q 1472 3097 1187 3025  Q 903 2953 641 2809  L 641 3341  Q 956 3463 1253 3523  Q 1550 3584 1831 3584  Q 2591 3584 2966 3190  Q 3341 2797 3341 1997  z "
               transform="scale(0.015625)" />
            <path
               id="DejaVuSans-63"
               d="M 3122 3366  L 3122 2828  Q 2878 2963 2633 3030  Q 2388 3097 2138 3097  Q 1578 3097 1268 2742  Q 959 2388 959 1747  Q 959 1106 1268 751  Q 1578 397 2138 397  Q 2388 397 2633 464  Q 2878 531 3122 666  L 3122 134  Q 2881 22 2623 -34  Q 2366 -91 2075 -91  Q 1284 -91 818 406  Q 353 903 353 1747  Q 353 2603 823 3093  Q 1294 3584 2113 3584  Q 2378 3584 2631 3529  Q 2884 3475 3122 3366  z "
               transform="scale(0.015625)" />
            <path
               id="DejaVuSans-68"
               d="M 3513 2113  L 3513 0  L 2938 0  L 2938 2094  Q 2938 2591 2744 2837  Q 2550 3084 2163 3084  Q 1697 3084 1428 2787  Q 1159 2491 1159 1978  L 1159 0  L 581 0  L 581 4863  L 1159 4863  L 1159 2956  Q 1366 3272 1645 3428  Q 1925 3584 2291 3584  Q 2894 3584 3203 3211  Q 3513 2838 3513 2113  z "
               transform="scale(0.015625)" />
            <path
               id="DejaVuSans-65"
               d="M 3597 1894  L 3597 1613  L 953 1613  Q 991 1019 1311 708  Q 1631 397 2203 397  Q 2534 397 2845 478  Q 3156 559 3463 722  L 3463 178  Q 3153 47 2828 -22  Q 2503 -91 2169 -91  Q 1331 -91 842 396  Q 353 884 353 1716  Q 353 2575 817 3079  Q 1281 3584 2069 3584  Q 2775 3584 3186 3129  Q 3597 2675 3597 1894  z M 3022 2063  Q 3016 2534 2758 2815  Q 2500 3097 2075 3097  Q 1594 3097 1305 2825  Q 1016 2553 972 2059  L 3022 2063  z "
               transform="scale(0.015625)" />
            <path
               id="DejaVuSans-64"
               d="M 2906 2969  L 2906 4863  L 3481 4863  L 3481 0  L 2906 0  L 2906 525  Q 2725 213 2448 61  Q 2172 -91 1784 -91  Q 1150 -91 751 415  Q 353 922 353 1747  Q 353 2572 751 3078  Q 1150 3584 1784 3584  Q 2172 3584 2448 3432  Q 2725 3281 2906 2969  z M 947 1747  Q 947 1113 1208 752  Q 1469 391 1925 391  Q 2381 391 2643 752  Q 2906 1113 2906 1747  Q 2906 2381 2643 2742  Q 2381 3103 1925 3103  Q 1469 3103 1208 2742  Q 947 2381 947 1747  z "
               transform="scale(0.015625)" />
            <path
               id="DejaVuSans-20"
               transform="scale(0.015625)" />
            <path
               id="DejaVuSans-77"
               d="M 269 3500  L 844 3500  L 1563 769  L 2278 3500  L 2956 3500  L 3675 769  L 4391 3500  L 4966 3500  L 4050 0  L 3372 0  L 2619 2869  L 1863 0  L 1184 0  L 269 3500  z "
               transform="scale(0.015625)" />
            <path
               id="DejaVuSans-69"
               d="M 603 3500  L 1178 3500  L 1178 0  L 603 0  L 603 3500  z M 603 4863  L 1178 4863  L 1178 4134  L 603 4134  L 603 4863  z "
               transform="scale(0.015625)" />
            <path
               id="DejaVuSans-6e"
               d="M 3513 2113  L 3513 0  L 2938 0  L 2938 2094  Q 2938 2591 2744 2837  Q 2550 3084 2163 3084  Q 1697 3084 1428 2787  Q 1159 2491 1159 1978  L 1159 0  L 581 0  L 581 3500  L 1159 3500  L 1159 2956  Q 1366 3272 1645 3428  Q 1925 3584 2291 3584  Q 2894 3584 3203 3211  Q 3513 2838 3513 2113  z "
               transform="scale(0.015625)" />
            <path
               id="DejaVuSans-6f"
               d="M 1959 3097  Q 1497 3097 1228 2736  Q 959 2375 959 1747  Q 959 1119 1226 758  Q 1494 397 1959 397  Q 2419 397 2687 759  Q 2956 1122 2956 1747  Q 2956 2369 2687 2733  Q 2419 3097 1959 3097  z M 1959 3584  Q 2709 3584 3137 3096  Q 3566 2609 3566 1747  Q 3566 888 3137 398  Q 2709 -91 1959 -91  Q 1206 -91 779 398  Q 353 888 353 1747  Q 353 2609 779 3096  Q 1206 3584 1959 3584  z "
               transform="scale(0.015625)" />
            <path
               id="DejaVuSans-2d"
               d="M 313 2009  L 1997 2009  L 1997 1497  L 313 1497  L 313 2009  z "
               transform="scale(0.015625)" />
            <path
               id="DejaVuSans-6d"
               d="M 3328 2828  Q 3544 3216 3844 3400  Q 4144 3584 4550 3584  Q 5097 3584 5394 3201  Q 5691 2819 5691 2113  L 5691 0  L 5113 0  L 5113 2094  Q 5113 2597 4934 2840  Q 4756 3084 4391 3084  Q 3944 3084 3684 2787  Q 3425 2491 3425 1978  L 3425 0  L 2847 0  L 2847 2094  Q 2847 2600 2669 2842  Q 2491 3084 2119 3084  Q 1678 3084 1418 2786  Q 1159 2488 1159 1978  L 1159 0  L 581 0  L 581 3500  L 1159 3500  L 1159 2956  Q 1356 3278 1631 3431  Q 1906 3584 2284 3584  Q 2666 3584 2933 3390  Q 3200 3197 3328 2828  z "
               transform="scale(0.015625)" />
            <path
               id="DejaVuSans-73"
               d="M 2834 3397  L 2834 2853  Q 2591 2978 2328 3040  Q 2066 3103 1784 3103  Q 1356 3103 1142 2972  Q 928 2841 928 2578  Q 928 2378 1081 2264  Q 1234 2150 1697 2047  L 1894 2003  Q 2506 1872 2764 1633  Q 3022 1394 3022 966  Q 3022 478 2636 193  Q 2250 -91 1575 -91  Q 1294 -91 989 -36  Q 684 19 347 128  L 347 722  Q 666 556 975 473  Q 1284 391 1588 391  Q 1994 391 2212 530  Q 2431 669 2431 922  Q 2431 1156 2273 1281  Q 2116 1406 1581 1522  L 1381 1569  Q 847 1681 609 1914  Q 372 2147 372 2553  Q 372 3047 722 3315  Q 1072 3584 1716 3584  Q 2034 3584 2315 3537  Q 2597 3491 2834 3397  z "
               transform="scale(0.015625)" />
          </defs>
          <use
             xlink:href="#DejaVuSans-4d"
             id="use80934" />
          <use
             xlink:href="#DejaVuSans-61"
             x="86.279297"
             id="use80936" />
          <use
             xlink:href="#DejaVuSans-74"
             x="147.558594"
             id="use80938" />
          <use
             xlink:href="#DejaVuSans-63"
             x="186.767578"
             id="use80940" />
          <use
             xlink:href="#DejaVuSans-68"
             x="241.748047"
             id="use80942" />
          <use
             xlink:href="#DejaVuSans-65"
             x="305.126953"
             id="use80944" />
          <use
             xlink:href="#DejaVuSans-64"
             x="366.650391"
             id="use80946" />
          <use
             xlink:href="#DejaVuSans-20"
             x="430.126953"
             id="use80948" />
          <use
             xlink:href="#DejaVuSans-77"
             x="461.914062"
             id="use80950" />
          <use
             xlink:href="#DejaVuSans-69"
             x="543.701172"
             id="use80952" />
          <use
             xlink:href="#DejaVuSans-6e"
             x="571.484375"
             id="use80954" />
          <use
             xlink:href="#DejaVuSans-64"
             x="634.863281"
             id="use80956" />
          <use
             xlink:href="#DejaVuSans-6f"
             x="698.339844"
             id="use80958" />
          <use
             xlink:href="#DejaVuSans-77"
             x="759.521484"
             id="use80960" />
          <use
             xlink:href="#DejaVuSans-2d"
             x="841.308594"
             id="use80962" />
          <use
             xlink:href="#DejaVuSans-74"
             x="877.392578"
             id="use80964" />
          <use
             xlink:href="#DejaVuSans-69"
             x="916.601562"
             id="use80966" />
          <use
             xlink:href="#DejaVuSans-6d"
             x="944.384766"
             id="use80968" />
          <use
             xlink:href="#DejaVuSans-65"
             x="1041.796875"
             id="use80970" />
          <use
             xlink:href="#DejaVuSans-73"
             x="1103.320312"
             id="use80972" />
        </g>
      </g>
      <g
         id="legend_1">
        <g
           id="patch_7">
          <path
             d="M 104 131.75625  L 180.2 131.75625  Q 184.2 131.75625 184.2 127.75625  L 184.2 100.4  Q 184.2 96.4 180.2 96.4  L 104 96.4  Q 100 96.4 100 100.4  L 100 127.75625  Q 100 131.75625 104 131.75625  z "
             style="fill: #ffffff; opacity: 0.8; stroke: #cccccc; stroke-linejoin: miter"
             id="path80977" />
        </g>
        <g
           id="PathCollection_2">
          <path
             d="M 128 118.219858  C 129.027127 118.219858 130.012324 117.811776 130.738613 117.085488  C 131.464901 116.359199 131.872983 115.374002 131.872983 114.346875  C 131.872983 113.319748 131.464901 112.334551 130.738613 111.608262  C 130.012324 110.881974 129.027127 110.473892 128 110.473892  C 126.972873 110.473892 125.987676 110.881974 125.261387 111.608262  C 124.535099 112.334551 124.127017 113.319748 124.127017 114.346875  C 124.127017 115.374002 124.535099 116.359199 125.261387 117.085488  C 125.987676 117.811776 126.972873 118.219858 128 118.219858  L 128 118.219858  z "
             style="fill: none; stroke: #0000ff"
             id="path80980" />
        </g>
        <g
           id="text_18">
          <!-- $P$ -->
          <g
             transform="translate(164 119.596875)scale(0.2 -0.2)"
             id="g80988">
            <defs
               id="defs80984">
              <path
                 id="DejaVuSans-Oblique-50"
                 d="M 1081 4666  L 2541 4666  Q 3178 4666 3512 4369  Q 3847 4072 3847 3500  Q 3847 2731 3353 2303  Q 2859 1875 1966 1875  L 1172 1875  L 806 0  L 172 0  L 1081 4666  z M 1613 4147  L 1275 2394  L 2069 2394  Q 2606 2394 2893 2669  Q 3181 2944 3181 3456  Q 3181 3784 2986 3965  Q 2791 4147 2438 4147  L 1613 4147  z "
                 transform="scale(0.015625)" />
            </defs>
            <use
               xlink:href="#DejaVuSans-Oblique-50"
               transform="translate(0 0.09375)"
               id="use80986" />
          </g>
        </g>
      </g>
    </g>
  </g>
  <defs
     id="defs80997">
    <clipPath
       id="pa59d221843">
      <rect
         x="90"
         y="86.4"
         width="558"
         height="543.6"
         id="rect80994" />
    </clipPath>
  </defs>
  <ellipse
     style="fill:#ffffff;stroke:none;stroke-width:1.8;fill-opacity:1"
     id="path83656"
     cx="539.31873"
     cy="120.26808"
     rx="30.201847"
     ry="17.797518" />
  <ellipse
     style="fill:#ffffff;fill-opacity:1;stroke:none;stroke-width:1.8"
     id="path84138"
     cx="622.37378"
     cy="323.59125"
     rx="8.6290998"
     ry="15.100924" />
</svg>
