<?xml version="1.0" encoding="UTF-8" standalone="no"?>
<!-- Created with Inkscape (http://www.inkscape.org/) -->

<svg
   xmlns:dc="http://purl.org/dc/elements/1.1/"
   xmlns:cc="http://creativecommons.org/ns#"
   xmlns:rdf="http://www.w3.org/1999/02/22-rdf-syntax-ns#"
   xmlns:svg="http://www.w3.org/2000/svg"
   xmlns="http://www.w3.org/2000/svg"
   xmlns:xlink="http://www.w3.org/1999/xlink"
   xmlns:sodipodi="http://sodipodi.sourceforge.net/DTD/sodipodi-0.dtd"
   xmlns:inkscape="http://www.inkscape.org/namespaces/inkscape"
   version="1.1"
   id="svg888"
   width="657"
   height="269"
   viewBox="0 0 657 269"
   sodipodi:docname="manifold_sample_raw.svg"
   inkscape:version="0.92.3 (2405546, 2018-03-11)">
  <metadata
     id="metadata894">
    <rdf:RDF>
      <cc:Work
         rdf:about="">
        <dc:format>image/svg+xml</dc:format>
        <dc:type
           rdf:resource="http://purl.org/dc/dcmitype/StillImage" />
        <dc:title></dc:title>
      </cc:Work>
    </rdf:RDF>
  </metadata>
  <defs
     id="defs892" />
  <sodipodi:namedview
     pagecolor="#ffffff"
     bordercolor="#666666"
     borderopacity="1"
     objecttolerance="10"
     gridtolerance="10"
     guidetolerance="10"
     inkscape:pageopacity="0"
     inkscape:pageshadow="2"
     inkscape:window-width="1366"
     inkscape:window-height="713"
     id="namedview890"
     showgrid="false"
     inkscape:zoom="1.2191781"
     inkscape:cx="328.5"
     inkscape:cy="134.5"
     inkscape:window-x="0"
     inkscape:window-y="27"
     inkscape:window-maximized="1"
     inkscape:current-layer="svg888" />
  <image
     sodipodi:absref="/home/xime/Downloads/manifold_sample_raw(1).png"
     xlink:href="manifold_sample_raw(1).png"
     y="0"
     x="0"
     id="image896"
     preserveAspectRatio="none"
     height="269"
     width="657" />
  <rect
     style="fill:#ffffff;fill-opacity:1;stroke:#ffffff;stroke-width:2.20000005;stroke-miterlimit:4;stroke-dasharray:none;stroke-dashoffset:0;stroke-opacity:1"
     id="rect910"
     width="39.370811"
     height="36.910114"
     x="525.76404"
     y="237.01125" />
  <g
     id="g4155"
     transform="matrix(7.4881863,0,0,8.0752894,307.44876,-459.85928)">
    <g
       word-spacing="normal"
       letter-spacing="normal"
       font-size-adjust="none"
       font-stretch="normal"
       font-weight="normal"
       font-variant="normal"
       font-style="normal"
       stroke-miterlimit="10.433"
       xml:space="preserve"
       transform="matrix(0.10101951,0,0,-0.10101951,-17.678414,130.35514)"
       id="g4153"
       style="font-style:normal;font-variant:normal;font-weight:normal;font-stretch:normal;letter-spacing:normal;word-spacing:normal;text-anchor:start;fill:none;fill-opacity:1;fill-rule:evenodd;stroke:#000000;stroke-linecap:butt;stroke-linejoin:miter;stroke-miterlimit:10.43299961;stroke-dasharray:none;stroke-dashoffset:0;stroke-opacity:1"><path
         id="path4149"
         d="m 478.39,440.32 h -0.16 -0.09 -0.08 -0.08 -0.07 l -0.08,-0.01 h -0.08 l -0.07,-0.01 h -0.07 l -0.07,-0.01 -0.07,-0.01 -0.06,-0.02 -0.07,-0.01 -0.06,-0.02 -0.05,-0.02 -0.06,-0.02 -0.05,-0.02 -0.05,-0.03 -0.05,-0.03 -0.04,-0.04 -0.04,-0.04 -0.04,-0.04 -0.03,-0.04 -0.03,-0.05 -0.01,-0.03 -0.02,-0.02 -0.01,-0.03 -0.01,-0.03 -0.01,-0.03 -0.01,-0.03 -0.01,-0.03 v -0.04 l -0.01,-0.03 v -0.04 l -0.01,-0.04 v -0.04 -0.03 -0.05 c 0,-0.59 0.5,-0.79 0.95,-0.84 1.75,-0.2 1.75,-2.2 1.75,-2.39 l 1.74,0.05 c 0,0.79 -0.14,1.64 -0.6,2.34 h 3.24 c -0.89,-0.66 -1.69,-1.45 -2.64,-2.34 l -1.74,-0.05 c 0,-1.41 -0.61,-2.16 -2,-4 -0.89,-1.24 -2,-2.69 -2.8,-3.63 -4.87,7.52 -5.17,8.43 -5.53,9.46 0.8,0.45 1.91,0.56 2.46,0.56 0.34,0 1.18,0 1.18,0.84 0,0.89 -0.75,0.89 -1.64,0.89 h -12.79 c -0.91,0 -1.66,0 -1.66,-0.89 0,-0.04 0,-0.7 0.75,-0.84 1.5,-0.2 1.7,-0.45 2.55,-1.55 2.84,-3.59 9.9,-14.25 10.9,-15.79 l -5.37,-6.18 c -3.69,-4.14 -5.99,-6.73 -7.97,-7.12 -0.5,-0.11 -1.05,-0.2 -1.05,-0.86 0,-0.89 0.74,-0.89 1.64,-0.89 h 8.52 c 0.89,0 1.69,0 1.69,0.89 0,0.7 -0.69,0.8 -1.1,0.86 -1.84,0.3 -1.84,2.44 -1.84,2.48 l -1.78,-0.04 c 0,-0.05 0.09,-0.6 0.09,-0.71 0.2,-1 0.5,-1.54 0.64,-1.73 h -3.23 l 2.5,2.44 1.78,0.04 c 0,1.35 0.8,2.25 1.09,2.64 1.8,2.14 3.75,4.29 5.64,6.38 5.49,-8.31 5.93,-9.66 6.33,-10.81 l 1.8,-0.14 c 0,0.75 -0.56,2.09 -2.55,5.46 -2.05,3.3 -12.7,19.6 -16.73,24.63 h 6.37 c 0,-1 0,-1.66 3.08,-6.69 1.8,-2.78 12.7,-19.42 16.3,-23.95 h -6.58 c 0.05,0.14 0.11,0.34 0.11,0.55 l -1.8,0.14 c -0.9,-0.6 -2.09,-0.69 -3.09,-0.69 -0.46,0 -1.3,0 -1.3,-0.86 0,-0.89 0.75,-0.89 1.64,-0.89 H 489 c 0.89,0 1.64,0 1.64,0.89 0,0.5 -0.4,0.75 -0.79,0.86 -0.85,0.14 -1.1,0.34 -1.25,0.44 -0.69,0.65 -3.88,5.23 -5.92,8.28 l -6.79,10.01 c 0.11,0.14 0.66,0.85 1.3,1.74 l 2.49,3.23 c 2.5,3.3 5.09,6.58 9.12,6.94 0.5,0.05 1.19,0.09 1.19,0.84 0,0.89 -0.74,0.89 -1.64,0.89 z"
         inkscape:connector-curvature="0"
         style="fill:#000000;stroke-width:0" /><path
         id="path4151"
         d="m 495.77,400.95 -0.01,-0.04 -0.02,-0.05 -0.01,-0.04 -0.02,-0.05 -0.01,-0.05 -0.01,-0.06 -0.02,-0.05 -0.01,-0.05 -0.03,-0.11 -0.03,-0.11 -0.03,-0.12 -0.02,-0.1 -0.02,-0.06 -0.01,-0.05 -0.01,-0.05 -0.01,-0.05 -0.01,-0.05 -0.01,-0.04 -0.01,-0.05 -0.01,-0.04 -0.01,-0.03 v -0.04 l -0.01,-0.03 -0.01,-0.03 v -0.02 -0.02 -0.01 -0.01 -0.01 0 c 0,-0.77 0.62,-1.11 1.18,-1.11 0.63,0 1.18,0.45 1.36,0.76 0.17,0.32 0.46,1.43 0.63,2.16 0.17,0.66 0.54,2.27 0.76,3.14 0.21,0.77 0.43,1.53 0.6,2.33 0.37,1.44 0.45,1.7 1.45,3.14 0.98,1.39 2.63,3.2 5.23,3.2 2.02,0 2.05,-1.78 2.05,-2.44 0,-2.09 -1.48,-5.95 -2.05,-7.42 -0.39,-0.98 -0.53,-1.29 -0.53,-1.89 0,-1.84 1.55,-2.98 3.32,-2.98 3.48,0 5.01,4.79 5.01,5.33 0,0.45 -0.45,0.45 -0.54,0.45 -0.5,0 -0.54,-0.2 -0.68,-0.59 -0.79,-2.79 -2.29,-4.22 -3.68,-4.22 -0.74,0 -0.88,0.48 -0.88,1.22 0,0.79 0.17,1.25 0.8,2.82 0.42,1.08 1.86,4.77 1.86,6.72 0,3.39 -2.69,3.97 -4.53,3.97 -2.9,0 -4.85,-1.76 -5.9,-3.16 -0.25,2.4 -2.29,3.16 -3.73,3.16 -1.5,0 -2.3,-1.08 -2.75,-1.87 -0.77,-1.29 -1.25,-3.29 -1.25,-3.46 0,-0.45 0.48,-0.45 0.59,-0.45 0.49,0 0.52,0.11 0.77,1.05 0.52,2.06 1.19,3.76 2.55,3.76 0.9,0 1.14,-0.76 1.14,-1.7 0,-0.67 -0.32,-1.95 -0.57,-2.89 -0.23,-0.95 -0.57,-2.38 -0.76,-3.14 z"
         inkscape:connector-curvature="0"
         style="fill:#000000;stroke-width:0" /></g>  </g>
</svg>
